G04 #@! TF.GenerationSoftware,KiCad,Pcbnew,(5.1.5)-3*
G04 #@! TF.CreationDate,2020-05-21T21:25:24+08:00*
G04 #@! TF.ProjectId,AdvancedSTLink,41647661-6e63-4656-9453-544c696e6b2e,rev?*
G04 #@! TF.SameCoordinates,Original*
G04 #@! TF.FileFunction,Soldermask,Bot*
G04 #@! TF.FilePolarity,Negative*
%FSLAX46Y46*%
G04 Gerber Fmt 4.6, Leading zero omitted, Abs format (unit mm)*
G04 Created by KiCad (PCBNEW (5.1.5)-3) date 2020-05-21 21:25:24*
%MOMM*%
%LPD*%
G04 APERTURE LIST*
%ADD10C,0.100000*%
G04 APERTURE END LIST*
D10*
G36*
X163152521Y-112652574D02*
G01*
X163252795Y-112694109D01*
X163252796Y-112694110D01*
X163343042Y-112754410D01*
X163419790Y-112831158D01*
X163419791Y-112831160D01*
X163480091Y-112921405D01*
X163511316Y-112996789D01*
X163522867Y-113018400D01*
X163538412Y-113037341D01*
X163557354Y-113052887D01*
X163578965Y-113064438D01*
X163602414Y-113071551D01*
X163626800Y-113073953D01*
X163651186Y-113071551D01*
X163674635Y-113064438D01*
X163696246Y-113052887D01*
X163715187Y-113037342D01*
X163730733Y-113018400D01*
X163742284Y-112996789D01*
X163773509Y-112921405D01*
X163833809Y-112831160D01*
X163833810Y-112831158D01*
X163910558Y-112754410D01*
X164000804Y-112694110D01*
X164000805Y-112694109D01*
X164101079Y-112652574D01*
X164207530Y-112631400D01*
X164316070Y-112631400D01*
X164422521Y-112652574D01*
X164522795Y-112694109D01*
X164522796Y-112694110D01*
X164613042Y-112754410D01*
X164689790Y-112831158D01*
X164689791Y-112831160D01*
X164750091Y-112921405D01*
X164781316Y-112996789D01*
X164792867Y-113018400D01*
X164808412Y-113037341D01*
X164827354Y-113052887D01*
X164848965Y-113064438D01*
X164872414Y-113071551D01*
X164896800Y-113073953D01*
X164921186Y-113071551D01*
X164944635Y-113064438D01*
X164966246Y-113052887D01*
X164985187Y-113037342D01*
X165000733Y-113018400D01*
X165012284Y-112996789D01*
X165043509Y-112921405D01*
X165103809Y-112831160D01*
X165103810Y-112831158D01*
X165180558Y-112754410D01*
X165270804Y-112694110D01*
X165270805Y-112694109D01*
X165371079Y-112652574D01*
X165477530Y-112631400D01*
X165586070Y-112631400D01*
X165692521Y-112652574D01*
X165792795Y-112694109D01*
X165792796Y-112694110D01*
X165883042Y-112754410D01*
X165959790Y-112831158D01*
X165959791Y-112831160D01*
X166020091Y-112921405D01*
X166061626Y-113021679D01*
X166082800Y-113128130D01*
X166082800Y-113236670D01*
X166061626Y-113343121D01*
X166020091Y-113443395D01*
X166020090Y-113443396D01*
X165959790Y-113533642D01*
X165883042Y-113610390D01*
X165837612Y-113640745D01*
X165792795Y-113670691D01*
X165717411Y-113701916D01*
X165695800Y-113713467D01*
X165676859Y-113729012D01*
X165661313Y-113747954D01*
X165649762Y-113769565D01*
X165642649Y-113793014D01*
X165640247Y-113817400D01*
X165642649Y-113841786D01*
X165649762Y-113865235D01*
X165661313Y-113886846D01*
X165676858Y-113905787D01*
X165695800Y-113921333D01*
X165717411Y-113932884D01*
X165792795Y-113964109D01*
X165792796Y-113964110D01*
X165883042Y-114024410D01*
X165959790Y-114101158D01*
X165959791Y-114101160D01*
X166020091Y-114191405D01*
X166061626Y-114291679D01*
X166082800Y-114398130D01*
X166082800Y-114506670D01*
X166061626Y-114613121D01*
X166020091Y-114713395D01*
X166020090Y-114713396D01*
X165959790Y-114803642D01*
X165883042Y-114880390D01*
X165837612Y-114910745D01*
X165792795Y-114940691D01*
X165692521Y-114982226D01*
X165586070Y-115003400D01*
X165477530Y-115003400D01*
X165371079Y-114982226D01*
X165270805Y-114940691D01*
X165225988Y-114910745D01*
X165180558Y-114880390D01*
X165103810Y-114803642D01*
X165043510Y-114713396D01*
X165043509Y-114713395D01*
X165012284Y-114638011D01*
X165000733Y-114616400D01*
X164985188Y-114597459D01*
X164966246Y-114581913D01*
X164944635Y-114570362D01*
X164921186Y-114563249D01*
X164896800Y-114560847D01*
X164872414Y-114563249D01*
X164848965Y-114570362D01*
X164827354Y-114581913D01*
X164808413Y-114597458D01*
X164792867Y-114616400D01*
X164781316Y-114638011D01*
X164750091Y-114713395D01*
X164750090Y-114713396D01*
X164689790Y-114803642D01*
X164613042Y-114880390D01*
X164567612Y-114910745D01*
X164522795Y-114940691D01*
X164422521Y-114982226D01*
X164316070Y-115003400D01*
X164207530Y-115003400D01*
X164101079Y-114982226D01*
X164000805Y-114940691D01*
X163955988Y-114910745D01*
X163910558Y-114880390D01*
X163833810Y-114803642D01*
X163812812Y-114772216D01*
X163771732Y-114710736D01*
X163756186Y-114691794D01*
X163737244Y-114676249D01*
X163715633Y-114664698D01*
X163692185Y-114657585D01*
X163667798Y-114655183D01*
X163643412Y-114657585D01*
X163619963Y-114664698D01*
X163598353Y-114676249D01*
X163579411Y-114691795D01*
X163563866Y-114710737D01*
X163552315Y-114732348D01*
X163545202Y-114755796D01*
X163542800Y-114780182D01*
X163542800Y-115003400D01*
X162440800Y-115003400D01*
X162440800Y-113901400D01*
X162664018Y-113901400D01*
X162688404Y-113898998D01*
X162711853Y-113891885D01*
X162733464Y-113880334D01*
X162752406Y-113864789D01*
X162767951Y-113845847D01*
X162779502Y-113824236D01*
X162786615Y-113800787D01*
X162789016Y-113776402D01*
X163194583Y-113776402D01*
X163196985Y-113800788D01*
X163204098Y-113824237D01*
X163215649Y-113845847D01*
X163231195Y-113864789D01*
X163250137Y-113880334D01*
X163271748Y-113891885D01*
X163295196Y-113898998D01*
X163319582Y-113901400D01*
X163542800Y-113901400D01*
X163542800Y-114124618D01*
X163545202Y-114149004D01*
X163552315Y-114172453D01*
X163563866Y-114194064D01*
X163579411Y-114213006D01*
X163598353Y-114228551D01*
X163619964Y-114240102D01*
X163643413Y-114247215D01*
X163667799Y-114249617D01*
X163692185Y-114247215D01*
X163715634Y-114240102D01*
X163737245Y-114228551D01*
X163756187Y-114213006D01*
X163771732Y-114194064D01*
X163833809Y-114101160D01*
X163833810Y-114101158D01*
X163910558Y-114024410D01*
X164000804Y-113964110D01*
X164000805Y-113964109D01*
X164076189Y-113932884D01*
X164097800Y-113921333D01*
X164116741Y-113905788D01*
X164132287Y-113886846D01*
X164143838Y-113865235D01*
X164150951Y-113841786D01*
X164153353Y-113817400D01*
X164370247Y-113817400D01*
X164372649Y-113841786D01*
X164379762Y-113865235D01*
X164391313Y-113886846D01*
X164406858Y-113905787D01*
X164425800Y-113921333D01*
X164447411Y-113932884D01*
X164522795Y-113964109D01*
X164522796Y-113964110D01*
X164613042Y-114024410D01*
X164689790Y-114101158D01*
X164689791Y-114101160D01*
X164750091Y-114191405D01*
X164781316Y-114266789D01*
X164792867Y-114288400D01*
X164808412Y-114307341D01*
X164827354Y-114322887D01*
X164848965Y-114334438D01*
X164872414Y-114341551D01*
X164896800Y-114343953D01*
X164921186Y-114341551D01*
X164944635Y-114334438D01*
X164966246Y-114322887D01*
X164985187Y-114307342D01*
X165000733Y-114288400D01*
X165012284Y-114266789D01*
X165043509Y-114191405D01*
X165103809Y-114101160D01*
X165103810Y-114101158D01*
X165180558Y-114024410D01*
X165270804Y-113964110D01*
X165270805Y-113964109D01*
X165346189Y-113932884D01*
X165367800Y-113921333D01*
X165386741Y-113905788D01*
X165402287Y-113886846D01*
X165413838Y-113865235D01*
X165420951Y-113841786D01*
X165423353Y-113817400D01*
X165420951Y-113793014D01*
X165413838Y-113769565D01*
X165402287Y-113747954D01*
X165386742Y-113729013D01*
X165367800Y-113713467D01*
X165346189Y-113701916D01*
X165270805Y-113670691D01*
X165225988Y-113640745D01*
X165180558Y-113610390D01*
X165103810Y-113533642D01*
X165043510Y-113443396D01*
X165043509Y-113443395D01*
X165012284Y-113368011D01*
X165000733Y-113346400D01*
X164985188Y-113327459D01*
X164966246Y-113311913D01*
X164944635Y-113300362D01*
X164921186Y-113293249D01*
X164896800Y-113290847D01*
X164872414Y-113293249D01*
X164848965Y-113300362D01*
X164827354Y-113311913D01*
X164808413Y-113327458D01*
X164792867Y-113346400D01*
X164781316Y-113368011D01*
X164750091Y-113443395D01*
X164750090Y-113443396D01*
X164689790Y-113533642D01*
X164613042Y-113610390D01*
X164567612Y-113640745D01*
X164522795Y-113670691D01*
X164447411Y-113701916D01*
X164425800Y-113713467D01*
X164406859Y-113729012D01*
X164391313Y-113747954D01*
X164379762Y-113769565D01*
X164372649Y-113793014D01*
X164370247Y-113817400D01*
X164153353Y-113817400D01*
X164150951Y-113793014D01*
X164143838Y-113769565D01*
X164132287Y-113747954D01*
X164116742Y-113729013D01*
X164097800Y-113713467D01*
X164076189Y-113701916D01*
X164000805Y-113670691D01*
X163955988Y-113640745D01*
X163910558Y-113610390D01*
X163833810Y-113533642D01*
X163773510Y-113443396D01*
X163773509Y-113443395D01*
X163742284Y-113368011D01*
X163730733Y-113346400D01*
X163715188Y-113327459D01*
X163696246Y-113311913D01*
X163674635Y-113300362D01*
X163651186Y-113293249D01*
X163626800Y-113290847D01*
X163602414Y-113293249D01*
X163578965Y-113300362D01*
X163557354Y-113311913D01*
X163538413Y-113327458D01*
X163522867Y-113346400D01*
X163511316Y-113368011D01*
X163480091Y-113443395D01*
X163480090Y-113443396D01*
X163419790Y-113533642D01*
X163343042Y-113610390D01*
X163311616Y-113631388D01*
X163250136Y-113672468D01*
X163231194Y-113688014D01*
X163215649Y-113706956D01*
X163204098Y-113728567D01*
X163196985Y-113752015D01*
X163194583Y-113776402D01*
X162789016Y-113776402D01*
X162789017Y-113776401D01*
X162786615Y-113752015D01*
X162779502Y-113728566D01*
X162767951Y-113706955D01*
X162752406Y-113688013D01*
X162733464Y-113672468D01*
X162671984Y-113631388D01*
X162640558Y-113610390D01*
X162563810Y-113533642D01*
X162503510Y-113443396D01*
X162503509Y-113443395D01*
X162461974Y-113343121D01*
X162440800Y-113236670D01*
X162440800Y-113128130D01*
X162461974Y-113021679D01*
X162503509Y-112921405D01*
X162563809Y-112831160D01*
X162563810Y-112831158D01*
X162640558Y-112754410D01*
X162730804Y-112694110D01*
X162730805Y-112694109D01*
X162831079Y-112652574D01*
X162937530Y-112631400D01*
X163046070Y-112631400D01*
X163152521Y-112652574D01*
G37*
G36*
X154313255Y-110700813D02*
G01*
X154417119Y-110732319D01*
X154444295Y-110746845D01*
X154512840Y-110783483D01*
X154596741Y-110852339D01*
X154665597Y-110936240D01*
X154702235Y-111004785D01*
X154716761Y-111031961D01*
X154748267Y-111135825D01*
X154758906Y-111243840D01*
X154748267Y-111351855D01*
X154716761Y-111455719D01*
X154716759Y-111455722D01*
X154665597Y-111551440D01*
X154596741Y-111635341D01*
X154512840Y-111704197D01*
X154444295Y-111740835D01*
X154417119Y-111755361D01*
X154313255Y-111786867D01*
X154232307Y-111794840D01*
X153578173Y-111794840D01*
X153497225Y-111786867D01*
X153393361Y-111755361D01*
X153366185Y-111740835D01*
X153297640Y-111704197D01*
X153213739Y-111635341D01*
X153144883Y-111551440D01*
X153093721Y-111455722D01*
X153093719Y-111455719D01*
X153062213Y-111351855D01*
X153051574Y-111243840D01*
X153062213Y-111135825D01*
X153093719Y-111031961D01*
X153108245Y-111004785D01*
X153144883Y-110936240D01*
X153213739Y-110852339D01*
X153297640Y-110783483D01*
X153366185Y-110746845D01*
X153393361Y-110732319D01*
X153497225Y-110700813D01*
X153578173Y-110692840D01*
X154232307Y-110692840D01*
X154313255Y-110700813D01*
G37*
G36*
X158743255Y-110700813D02*
G01*
X158847119Y-110732319D01*
X158874295Y-110746845D01*
X158942840Y-110783483D01*
X159026741Y-110852339D01*
X159095597Y-110936240D01*
X159132235Y-111004785D01*
X159146761Y-111031961D01*
X159178267Y-111135825D01*
X159188906Y-111243840D01*
X159178267Y-111351855D01*
X159146761Y-111455719D01*
X159146759Y-111455722D01*
X159095597Y-111551440D01*
X159026741Y-111635341D01*
X158942840Y-111704197D01*
X158874295Y-111740835D01*
X158847119Y-111755361D01*
X158743255Y-111786867D01*
X158662307Y-111794840D01*
X157508173Y-111794840D01*
X157427225Y-111786867D01*
X157323361Y-111755361D01*
X157296185Y-111740835D01*
X157227640Y-111704197D01*
X157143739Y-111635341D01*
X157074883Y-111551440D01*
X157023721Y-111455722D01*
X157023719Y-111455719D01*
X156992213Y-111351855D01*
X156981574Y-111243840D01*
X156992213Y-111135825D01*
X157023719Y-111031961D01*
X157038245Y-111004785D01*
X157074883Y-110936240D01*
X157143739Y-110852339D01*
X157227640Y-110783483D01*
X157296185Y-110746845D01*
X157323361Y-110732319D01*
X157427225Y-110700813D01*
X157508173Y-110692840D01*
X158662307Y-110692840D01*
X158743255Y-110700813D01*
G37*
G36*
X157664912Y-109452289D02*
G01*
X157664914Y-109452290D01*
X157664915Y-109452290D01*
X157733343Y-109480633D01*
X157794926Y-109521782D01*
X157847298Y-109574154D01*
X157888447Y-109635737D01*
X157916790Y-109704165D01*
X157931240Y-109776807D01*
X157931240Y-109850873D01*
X157916790Y-109923515D01*
X157888447Y-109991943D01*
X157847298Y-110053526D01*
X157794926Y-110105898D01*
X157733343Y-110147047D01*
X157664915Y-110175390D01*
X157664914Y-110175390D01*
X157664912Y-110175391D01*
X157592274Y-110189840D01*
X157518206Y-110189840D01*
X157445568Y-110175391D01*
X157445566Y-110175390D01*
X157445565Y-110175390D01*
X157377137Y-110147047D01*
X157315554Y-110105898D01*
X157263182Y-110053526D01*
X157222033Y-109991943D01*
X157193690Y-109923515D01*
X157179240Y-109850873D01*
X157179240Y-109776807D01*
X157193690Y-109704165D01*
X157222033Y-109635737D01*
X157263182Y-109574154D01*
X157315554Y-109521782D01*
X157377137Y-109480633D01*
X157445565Y-109452290D01*
X157445566Y-109452290D01*
X157445568Y-109452289D01*
X157518206Y-109437840D01*
X157592274Y-109437840D01*
X157664912Y-109452289D01*
G37*
G36*
X157664912Y-103672289D02*
G01*
X157664914Y-103672290D01*
X157664915Y-103672290D01*
X157733343Y-103700633D01*
X157794926Y-103741782D01*
X157847298Y-103794154D01*
X157888447Y-103855737D01*
X157916790Y-103924165D01*
X157931240Y-103996807D01*
X157931240Y-104070873D01*
X157916790Y-104143515D01*
X157888447Y-104211943D01*
X157847298Y-104273526D01*
X157794926Y-104325898D01*
X157733343Y-104367047D01*
X157664915Y-104395390D01*
X157664914Y-104395390D01*
X157664912Y-104395391D01*
X157592274Y-104409840D01*
X157518206Y-104409840D01*
X157445568Y-104395391D01*
X157445566Y-104395390D01*
X157445565Y-104395390D01*
X157377137Y-104367047D01*
X157315554Y-104325898D01*
X157263182Y-104273526D01*
X157222033Y-104211943D01*
X157193690Y-104143515D01*
X157179240Y-104070873D01*
X157179240Y-103996807D01*
X157193690Y-103924165D01*
X157222033Y-103855737D01*
X157263182Y-103794154D01*
X157315554Y-103741782D01*
X157377137Y-103700633D01*
X157445565Y-103672290D01*
X157445566Y-103672290D01*
X157445568Y-103672289D01*
X157518206Y-103657840D01*
X157592274Y-103657840D01*
X157664912Y-103672289D01*
G37*
G36*
X154313255Y-102060813D02*
G01*
X154417119Y-102092319D01*
X154444295Y-102106845D01*
X154512840Y-102143483D01*
X154596741Y-102212339D01*
X154665597Y-102296240D01*
X154702235Y-102364785D01*
X154716761Y-102391961D01*
X154748267Y-102495825D01*
X154758906Y-102603840D01*
X154748267Y-102711855D01*
X154716761Y-102815719D01*
X154716759Y-102815722D01*
X154665597Y-102911440D01*
X154596741Y-102995341D01*
X154512840Y-103064197D01*
X154444295Y-103100835D01*
X154417119Y-103115361D01*
X154313255Y-103146867D01*
X154232307Y-103154840D01*
X153578173Y-103154840D01*
X153497225Y-103146867D01*
X153393361Y-103115361D01*
X153366185Y-103100835D01*
X153297640Y-103064197D01*
X153213739Y-102995341D01*
X153144883Y-102911440D01*
X153093721Y-102815722D01*
X153093719Y-102815719D01*
X153062213Y-102711855D01*
X153051574Y-102603840D01*
X153062213Y-102495825D01*
X153093719Y-102391961D01*
X153108245Y-102364785D01*
X153144883Y-102296240D01*
X153213739Y-102212339D01*
X153297640Y-102143483D01*
X153366185Y-102106845D01*
X153393361Y-102092319D01*
X153497225Y-102060813D01*
X153578173Y-102052840D01*
X154232307Y-102052840D01*
X154313255Y-102060813D01*
G37*
G36*
X158743255Y-102060813D02*
G01*
X158847119Y-102092319D01*
X158874295Y-102106845D01*
X158942840Y-102143483D01*
X159026741Y-102212339D01*
X159095597Y-102296240D01*
X159132235Y-102364785D01*
X159146761Y-102391961D01*
X159178267Y-102495825D01*
X159188906Y-102603840D01*
X159178267Y-102711855D01*
X159146761Y-102815719D01*
X159146759Y-102815722D01*
X159095597Y-102911440D01*
X159026741Y-102995341D01*
X158942840Y-103064197D01*
X158874295Y-103100835D01*
X158847119Y-103115361D01*
X158743255Y-103146867D01*
X158662307Y-103154840D01*
X157508173Y-103154840D01*
X157427225Y-103146867D01*
X157323361Y-103115361D01*
X157296185Y-103100835D01*
X157227640Y-103064197D01*
X157143739Y-102995341D01*
X157074883Y-102911440D01*
X157023721Y-102815722D01*
X157023719Y-102815719D01*
X156992213Y-102711855D01*
X156981574Y-102603840D01*
X156992213Y-102495825D01*
X157023719Y-102391961D01*
X157038245Y-102364785D01*
X157074883Y-102296240D01*
X157143739Y-102212339D01*
X157227640Y-102143483D01*
X157296185Y-102106845D01*
X157323361Y-102092319D01*
X157427225Y-102060813D01*
X157508173Y-102052840D01*
X158662307Y-102052840D01*
X158743255Y-102060813D01*
G37*
G36*
X183987180Y-98924227D02*
G01*
X184035576Y-98933853D01*
X184073342Y-98949496D01*
X184126751Y-98971619D01*
X184126752Y-98971620D01*
X184208809Y-99026448D01*
X184278592Y-99096231D01*
X184278593Y-99096233D01*
X184333421Y-99178289D01*
X184371187Y-99269465D01*
X184390440Y-99366255D01*
X184390440Y-99464945D01*
X184371187Y-99561735D01*
X184333421Y-99652911D01*
X184333420Y-99652912D01*
X184278592Y-99734969D01*
X184208809Y-99804752D01*
X184167502Y-99832352D01*
X184126751Y-99859581D01*
X184073342Y-99881704D01*
X184035576Y-99897347D01*
X183987180Y-99906973D01*
X183938785Y-99916600D01*
X183840095Y-99916600D01*
X183791700Y-99906973D01*
X183743304Y-99897347D01*
X183705538Y-99881704D01*
X183652129Y-99859581D01*
X183611378Y-99832352D01*
X183570071Y-99804752D01*
X183500288Y-99734969D01*
X183445460Y-99652912D01*
X183445459Y-99652911D01*
X183407693Y-99561735D01*
X183388440Y-99464945D01*
X183388440Y-99366255D01*
X183407693Y-99269465D01*
X183445459Y-99178289D01*
X183500287Y-99096233D01*
X183500288Y-99096231D01*
X183570071Y-99026448D01*
X183652128Y-98971620D01*
X183652129Y-98971619D01*
X183705538Y-98949496D01*
X183743304Y-98933853D01*
X183791700Y-98924227D01*
X183840095Y-98914600D01*
X183938785Y-98914600D01*
X183987180Y-98924227D01*
G37*
G36*
X190787180Y-98924227D02*
G01*
X190835576Y-98933853D01*
X190873342Y-98949496D01*
X190926751Y-98971619D01*
X190926752Y-98971620D01*
X191008809Y-99026448D01*
X191078592Y-99096231D01*
X191078593Y-99096233D01*
X191133421Y-99178289D01*
X191171187Y-99269465D01*
X191190440Y-99366255D01*
X191190440Y-99464945D01*
X191171187Y-99561735D01*
X191133421Y-99652911D01*
X191133420Y-99652912D01*
X191078592Y-99734969D01*
X191008809Y-99804752D01*
X190967502Y-99832352D01*
X190926751Y-99859581D01*
X190873342Y-99881704D01*
X190835576Y-99897347D01*
X190787180Y-99906973D01*
X190738785Y-99916600D01*
X190640095Y-99916600D01*
X190591700Y-99906973D01*
X190543304Y-99897347D01*
X190505538Y-99881704D01*
X190452129Y-99859581D01*
X190411378Y-99832352D01*
X190370071Y-99804752D01*
X190300288Y-99734969D01*
X190245460Y-99652912D01*
X190245459Y-99652911D01*
X190207693Y-99561735D01*
X190188440Y-99464945D01*
X190188440Y-99366255D01*
X190207693Y-99269465D01*
X190245459Y-99178289D01*
X190300287Y-99096233D01*
X190300288Y-99096231D01*
X190370071Y-99026448D01*
X190452128Y-98971620D01*
X190452129Y-98971619D01*
X190505538Y-98949496D01*
X190543304Y-98933853D01*
X190591700Y-98924227D01*
X190640095Y-98914600D01*
X190738785Y-98914600D01*
X190787180Y-98924227D01*
G37*
M02*
