G04 #@! TF.GenerationSoftware,KiCad,Pcbnew,(5.1.5)-3*
G04 #@! TF.CreationDate,2020-06-14T17:26:14+08:00*
G04 #@! TF.ProjectId,AdvancedSTLink,41647661-6e63-4656-9453-544c696e6b2e,rev?*
G04 #@! TF.SameCoordinates,Original*
G04 #@! TF.FileFunction,Copper,L2,Inr*
G04 #@! TF.FilePolarity,Positive*
%FSLAX46Y46*%
G04 Gerber Fmt 4.6, Leading zero omitted, Abs format (unit mm)*
G04 Created by KiCad (PCBNEW (5.1.5)-3) date 2020-06-14 17:26:14*
%MOMM*%
%LPD*%
G04 APERTURE LIST*
%ADD10O,2.100000X1.000000*%
%ADD11O,1.600000X1.000000*%
%ADD12R,1.000000X1.000000*%
%ADD13O,1.000000X1.000000*%
%ADD14C,0.800000*%
%ADD15C,0.600000*%
%ADD16C,0.200000*%
%ADD17C,0.400000*%
G04 APERTURE END LIST*
D10*
X169305000Y-108870000D03*
X169305000Y-100230000D03*
D11*
X165125000Y-100230000D03*
X165125000Y-108870000D03*
D12*
X208830000Y-103230000D03*
D13*
X210100000Y-103230000D03*
X208830000Y-104500000D03*
X210100000Y-104500000D03*
X208830000Y-105770000D03*
X210100000Y-105770000D03*
X180360000Y-100270000D03*
X180360000Y-99000000D03*
X181630000Y-100270000D03*
X181630000Y-99000000D03*
X182900000Y-100270000D03*
D12*
X182900000Y-99000000D03*
D14*
X189550000Y-100825000D03*
D15*
X200700000Y-111000000D03*
X190125000Y-97500000D03*
D14*
X207000000Y-103800000D03*
D15*
X199300000Y-99900000D03*
X201400000Y-102900000D03*
X174800000Y-106400000D03*
X188400000Y-109400000D03*
D14*
X209100000Y-98400000D03*
X209100000Y-100600000D03*
X209100000Y-108400000D03*
X207100000Y-99600000D03*
X207200000Y-109500000D03*
D15*
X196800000Y-97500000D03*
X183600000Y-111400000D03*
X171400000Y-101100000D03*
X171400000Y-107900000D03*
X171000000Y-108600000D03*
X170900000Y-100400000D03*
D14*
X204400000Y-103900000D03*
X202700000Y-103800000D03*
X180900000Y-111300000D03*
X180900000Y-110400000D03*
X196800000Y-100200000D03*
D15*
X201400000Y-105500000D03*
D14*
X196600000Y-104800000D03*
D15*
X184000000Y-107100000D03*
X184000000Y-107700000D03*
D14*
X191500000Y-104700000D03*
X194100000Y-104000000D03*
D15*
X197599984Y-111526197D03*
D14*
X193900000Y-107500000D03*
X187700000Y-109700000D03*
D15*
X194300000Y-97500000D03*
X182900000Y-102900000D03*
X183800000Y-104300000D03*
X197800000Y-104700000D03*
X197200000Y-102500000D03*
X200700000Y-103700000D03*
X200200000Y-99600000D03*
X186900000Y-97900001D03*
D14*
X195200000Y-104700000D03*
X177200000Y-106100000D03*
D15*
X195600000Y-106600000D03*
X199200000Y-109900000D03*
X192515000Y-107415000D03*
X187000000Y-100500000D03*
X197600000Y-97600000D03*
X193700000Y-101800000D03*
X193100000Y-103300000D03*
X198100000Y-107100000D03*
X185900000Y-108100000D03*
X185500000Y-110100000D03*
D14*
X204300000Y-105100000D03*
X192900000Y-105700000D03*
D15*
X200800000Y-108400000D03*
X191199994Y-111526803D03*
X189475000Y-101725000D03*
X180200000Y-104800000D03*
X171359518Y-104625148D03*
X180785653Y-105268522D03*
X171500000Y-105400000D03*
X194300000Y-102400000D03*
X195476721Y-100519991D03*
X207400000Y-108000000D03*
X195543129Y-102434949D03*
X194700000Y-100600000D03*
X208121145Y-107793959D03*
X191600000Y-103696732D03*
X200900000Y-104700000D03*
X190300000Y-104000000D03*
X192500000Y-111500000D03*
X194600000Y-108200000D03*
X192300000Y-108800000D03*
X185100000Y-104900000D03*
X191700000Y-97500000D03*
X185600000Y-103500000D03*
X194750000Y-111500000D03*
X189700000Y-103300000D03*
X195600000Y-97600000D03*
X190300000Y-107500000D03*
X190363442Y-101200000D03*
X186193934Y-101657536D03*
X185493934Y-104242464D03*
X186300000Y-102400000D03*
D14*
X171400000Y-107000000D03*
X171400000Y-102100000D03*
X175830000Y-103150000D03*
X175850000Y-104140000D03*
D15*
X183800000Y-105450000D03*
X180600000Y-102600000D03*
X190100000Y-100100000D03*
X193763629Y-108750000D03*
X190875000Y-100425000D03*
D16*
X181630000Y-98819998D02*
X181630000Y-99000000D01*
X199300000Y-98700000D02*
X193200000Y-98700000D01*
X200200000Y-99600000D02*
X199300000Y-98700000D01*
X187449978Y-98449979D02*
X191449979Y-98449979D01*
X186900000Y-97900001D02*
X187449978Y-98449979D01*
X191700000Y-98700000D02*
X193200000Y-98700000D01*
X191449979Y-98449979D02*
X191700000Y-98700000D01*
D17*
X177200000Y-106100000D02*
X184862002Y-106100000D01*
D16*
X191300000Y-99700000D02*
X191200000Y-99600000D01*
X191300000Y-99800000D02*
X191300000Y-99700000D01*
D17*
X194450001Y-103050001D02*
X195200000Y-103800000D01*
X193987999Y-103050001D02*
X194450001Y-103050001D01*
X192300000Y-101362002D02*
X193987999Y-103050001D01*
X192300000Y-100800000D02*
X192300000Y-101362002D01*
X195200000Y-103800000D02*
X195200000Y-104700000D01*
X191300000Y-99800000D02*
X192300000Y-100800000D01*
X188331001Y-100068999D02*
X188331001Y-102631001D01*
X188950001Y-99449999D02*
X188331001Y-100068999D01*
X190949999Y-99449999D02*
X188950001Y-99449999D01*
X191300000Y-99800000D02*
X190949999Y-99449999D01*
X184862002Y-106100000D02*
X188331001Y-102631001D01*
X199200000Y-109900000D02*
X199200000Y-109400000D01*
X199200000Y-109400000D02*
X196449999Y-106649999D01*
X193700000Y-101422170D02*
X193700000Y-101800000D01*
X188600011Y-98899989D02*
X187000000Y-100500000D01*
X191177819Y-98899989D02*
X188600011Y-98899989D01*
X193700000Y-101422170D02*
X191177819Y-98899989D01*
X195649999Y-106649999D02*
X195600000Y-106600000D01*
X196449999Y-106649999D02*
X195649999Y-106649999D01*
X194910002Y-106600000D02*
X195600000Y-106600000D01*
X193100000Y-104789998D02*
X194910002Y-106600000D01*
X193100000Y-103300000D02*
X193100000Y-104789998D01*
D16*
X171534370Y-104800000D02*
X171359518Y-104625148D01*
X180200000Y-104800000D02*
X171534370Y-104800000D01*
X180654175Y-105400000D02*
X171500000Y-105400000D01*
X180785653Y-105268522D02*
X180654175Y-105400000D01*
X201330009Y-107224999D02*
X210324999Y-107224999D01*
X197855031Y-103750021D02*
X201330009Y-107224999D01*
X210850001Y-105250001D02*
X210100000Y-104500000D01*
X210850001Y-106699997D02*
X210850001Y-105250001D01*
X210324999Y-107224999D02*
X210850001Y-106699997D01*
X194300000Y-102400000D02*
X194700000Y-102400000D01*
X196050021Y-103750021D02*
X196250021Y-103750021D01*
X194700000Y-102400000D02*
X196050021Y-103750021D01*
X197855031Y-103750021D02*
X196250021Y-103750021D01*
X207500001Y-101900001D02*
X208830000Y-103230000D01*
X196856731Y-101900001D02*
X207500001Y-101900001D01*
X195476721Y-100519991D02*
X196856731Y-101900001D01*
X209270000Y-106600000D02*
X210100000Y-105770000D01*
X201199998Y-106600000D02*
X209270000Y-106600000D01*
X198000009Y-103400011D02*
X201199998Y-106600000D01*
X196508191Y-103400011D02*
X198000009Y-103400011D01*
X195543129Y-102434949D02*
X196508191Y-103400011D01*
X208580001Y-104250001D02*
X208830000Y-104500000D01*
X194600000Y-100714002D02*
X194600000Y-100500000D01*
X196935999Y-103050001D02*
X194600000Y-100714002D01*
X207230000Y-106100000D02*
X201194986Y-106100000D01*
X198144987Y-103050001D02*
X196935999Y-103050001D01*
X201194986Y-106100000D02*
X198144987Y-103050001D01*
X208830000Y-104500000D02*
X207230000Y-106100000D01*
X192300000Y-108800000D02*
X192800000Y-109300000D01*
X194600000Y-108727631D02*
X194600000Y-108200000D01*
X194027630Y-109300001D02*
X194600000Y-108727631D01*
X192800000Y-109300000D02*
X194027630Y-109300001D01*
X186850001Y-102674263D02*
X186024264Y-103500000D01*
X186850001Y-101499601D02*
X186850001Y-102674263D01*
X186685999Y-97300000D02*
X186300000Y-97685999D01*
X187114001Y-97300000D02*
X186685999Y-97300000D01*
X187114001Y-97314001D02*
X187114001Y-97300000D01*
X186300000Y-97685999D02*
X186300000Y-100949600D01*
X187899969Y-98099969D02*
X187114001Y-97314001D01*
X186300000Y-100949600D02*
X186850001Y-101499601D01*
X191600031Y-98099969D02*
X187899969Y-98099969D01*
X191700000Y-98000000D02*
X191600031Y-98099969D01*
X186024264Y-103500000D02*
X185600000Y-103500000D01*
X191700000Y-97500000D02*
X191700000Y-98000000D01*
X194750000Y-111500000D02*
X194700000Y-111500000D01*
X189700000Y-109214002D02*
X189700000Y-103300000D01*
X191435997Y-110949999D02*
X189700000Y-109214002D01*
X194364001Y-110949999D02*
X191435997Y-110949999D01*
X194750000Y-111335998D02*
X194364001Y-110949999D01*
X194750000Y-111500000D02*
X194750000Y-111335998D01*
X190872999Y-101672999D02*
X190400000Y-101200000D01*
X190537998Y-104700000D02*
X190872999Y-104364999D01*
X190872999Y-104364999D02*
X190872999Y-101672999D01*
X190537998Y-104700000D02*
X190537998Y-107262002D01*
X190300000Y-107500000D02*
X190537998Y-107262002D01*
X190400000Y-101200000D02*
X190363442Y-101200000D01*
X185049999Y-102801471D02*
X186193934Y-101657536D01*
X185049999Y-103798529D02*
X185049999Y-102801471D01*
X185493934Y-104242464D02*
X185049999Y-103798529D01*
X192249999Y-102949999D02*
X191400000Y-102100000D01*
X192249999Y-106149999D02*
X192249999Y-102949999D01*
X193065001Y-106965001D02*
X192249999Y-106149999D01*
X193065001Y-108534999D02*
X193065001Y-106965001D01*
X193280002Y-108750000D02*
X193065001Y-108534999D01*
X193763629Y-108750000D02*
X193280002Y-108750000D01*
X191400000Y-100950000D02*
X190875000Y-100425000D01*
X191400000Y-102100000D02*
X191400000Y-100950000D01*
M02*
