G04 #@! TF.GenerationSoftware,KiCad,Pcbnew,(5.1.5)-3*
G04 #@! TF.CreationDate,2020-06-14T17:26:15+08:00*
G04 #@! TF.ProjectId,AdvancedSTLink,41647661-6e63-4656-9453-544c696e6b2e,rev?*
G04 #@! TF.SameCoordinates,Original*
G04 #@! TF.FileFunction,Legend,Bot*
G04 #@! TF.FilePolarity,Positive*
%FSLAX46Y46*%
G04 Gerber Fmt 4.6, Leading zero omitted, Abs format (unit mm)*
G04 Created by KiCad (PCBNEW (5.1.5)-3) date 2020-06-14 17:26:15*
%MOMM*%
%LPD*%
G04 APERTURE LIST*
%ADD10C,0.120000*%
G04 APERTURE END LIST*
D10*
X198935000Y-100290000D02*
X200275000Y-100290000D01*
X198935000Y-99340000D02*
X198935000Y-100290000D01*
X197985000Y-99340000D02*
X198935000Y-99340000D01*
X188715000Y-99340000D02*
X188715000Y-100290000D01*
X189665000Y-99340000D02*
X188715000Y-99340000D01*
X198935000Y-109560000D02*
X198935000Y-108610000D01*
X197985000Y-109560000D02*
X198935000Y-109560000D01*
X188715000Y-109560000D02*
X188715000Y-108610000D01*
X189665000Y-109560000D02*
X188715000Y-109560000D01*
X211260000Y-98965000D02*
X210710000Y-98965000D01*
X211260000Y-110035000D02*
X211260000Y-98965000D01*
X210710000Y-110035000D02*
X211260000Y-110035000D01*
X205590000Y-98965000D02*
X205590000Y-100815000D01*
X207390000Y-98965000D02*
X205590000Y-98965000D01*
X205590000Y-108185000D02*
X204850000Y-108185000D01*
X205590000Y-110035000D02*
X205590000Y-108185000D01*
X207390000Y-110035000D02*
X205590000Y-110035000D01*
X181200000Y-96600000D02*
X181200000Y-96600000D01*
X182000000Y-96600000D02*
X181200000Y-96600000D01*
X182300000Y-96600000D02*
X182300000Y-96600000D01*
X182800000Y-96600000D02*
X182300000Y-96600000D01*
X180900000Y-96600000D02*
X180900000Y-96600000D01*
X180400000Y-96600000D02*
X180900000Y-96600000D01*
X179600000Y-97900000D02*
X179600000Y-97900000D01*
X179600000Y-97400000D02*
X179600000Y-97900000D01*
X183600000Y-97900000D02*
X183600000Y-97900000D01*
X183600000Y-97400000D02*
X183600000Y-97900000D01*
X183600000Y-97100000D02*
X183600000Y-97100000D01*
X183600000Y-96600000D02*
X183600000Y-97100000D01*
X183100000Y-96600000D02*
X183100000Y-96600000D01*
X183600000Y-96600000D02*
X183100000Y-96600000D01*
X180100000Y-96600000D02*
X180100000Y-96600000D01*
X179600000Y-96600000D02*
X180100000Y-96600000D01*
X179600000Y-97100000D02*
X179600000Y-97100000D01*
X179600000Y-96600000D02*
X179600000Y-97100000D01*
X177000000Y-98500000D02*
X177000000Y-98500000D01*
X178700000Y-98500000D02*
X177000000Y-98500000D01*
X178700000Y-98200000D02*
X178700000Y-98500000D01*
X179500000Y-98200000D02*
X178700000Y-98200000D01*
X179500000Y-98500000D02*
X179500000Y-98200000D01*
X181200000Y-98500000D02*
X179500000Y-98500000D01*
X181200000Y-98200000D02*
X181200000Y-98500000D01*
X182000000Y-98200000D02*
X181200000Y-98200000D01*
X182000000Y-98500000D02*
X182000000Y-98200000D01*
X183700000Y-98500000D02*
X182000000Y-98500000D01*
X183700000Y-98200000D02*
X183700000Y-98500000D01*
X184500000Y-98200000D02*
X183700000Y-98200000D01*
X184500000Y-98500000D02*
X184500000Y-98200000D01*
X186200000Y-98500000D02*
X184500000Y-98500000D01*
X179800000Y-102300000D02*
X179800000Y-102300000D01*
X180900000Y-102300000D02*
X179800000Y-102300000D01*
X182300000Y-102300000D02*
X182300000Y-102300000D01*
X183400000Y-102300000D02*
X182300000Y-102300000D01*
X177000000Y-102300000D02*
X178400000Y-102300000D01*
X177000000Y-98500000D02*
X177000000Y-102300000D01*
X186200000Y-102300000D02*
X186200000Y-98500000D01*
X184800000Y-102300000D02*
X186200000Y-102300000D01*
M02*
