G04 #@! TF.GenerationSoftware,KiCad,Pcbnew,(5.1.5)-3*
G04 #@! TF.CreationDate,2020-06-14T17:26:15+08:00*
G04 #@! TF.ProjectId,AdvancedSTLink,41647661-6e63-4656-9453-544c696e6b2e,rev?*
G04 #@! TF.SameCoordinates,Original*
G04 #@! TF.FileFunction,Soldermask,Bot*
G04 #@! TF.FilePolarity,Negative*
%FSLAX46Y46*%
G04 Gerber Fmt 4.6, Leading zero omitted, Abs format (unit mm)*
G04 Created by KiCad (PCBNEW (5.1.5)-3) date 2020-06-14 17:26:15*
%MOMM*%
%LPD*%
G04 APERTURE LIST*
%ADD10C,0.100000*%
G04 APERTURE END LIST*
D10*
G36*
X190245295Y-109300323D02*
G01*
X190252309Y-109302451D01*
X190266077Y-109309810D01*
X190288716Y-109319187D01*
X190312749Y-109323967D01*
X190337253Y-109323967D01*
X190361286Y-109319186D01*
X190383923Y-109309810D01*
X190397691Y-109302451D01*
X190404705Y-109300323D01*
X190418140Y-109299000D01*
X190731860Y-109299000D01*
X190745295Y-109300323D01*
X190752309Y-109302451D01*
X190766077Y-109309810D01*
X190788716Y-109319187D01*
X190812749Y-109323967D01*
X190837253Y-109323967D01*
X190861286Y-109319186D01*
X190883923Y-109309810D01*
X190897691Y-109302451D01*
X190904705Y-109300323D01*
X190918140Y-109299000D01*
X191231860Y-109299000D01*
X191245295Y-109300323D01*
X191252309Y-109302451D01*
X191266077Y-109309810D01*
X191288716Y-109319187D01*
X191312749Y-109323967D01*
X191337253Y-109323967D01*
X191361286Y-109319186D01*
X191383923Y-109309810D01*
X191397691Y-109302451D01*
X191404705Y-109300323D01*
X191418140Y-109299000D01*
X191731860Y-109299000D01*
X191745295Y-109300323D01*
X191752309Y-109302451D01*
X191766077Y-109309810D01*
X191788716Y-109319187D01*
X191812749Y-109323967D01*
X191837253Y-109323967D01*
X191861286Y-109319186D01*
X191883923Y-109309810D01*
X191897691Y-109302451D01*
X191904705Y-109300323D01*
X191918140Y-109299000D01*
X192231860Y-109299000D01*
X192245295Y-109300323D01*
X192252309Y-109302451D01*
X192266077Y-109309810D01*
X192288716Y-109319187D01*
X192312749Y-109323967D01*
X192337253Y-109323967D01*
X192361286Y-109319186D01*
X192383923Y-109309810D01*
X192397691Y-109302451D01*
X192404705Y-109300323D01*
X192418140Y-109299000D01*
X192731860Y-109299000D01*
X192745295Y-109300323D01*
X192752309Y-109302451D01*
X192766077Y-109309810D01*
X192788716Y-109319187D01*
X192812749Y-109323967D01*
X192837253Y-109323967D01*
X192861286Y-109319186D01*
X192883923Y-109309810D01*
X192897691Y-109302451D01*
X192904705Y-109300323D01*
X192918140Y-109299000D01*
X193231860Y-109299000D01*
X193245295Y-109300323D01*
X193252309Y-109302451D01*
X193266077Y-109309810D01*
X193288716Y-109319187D01*
X193312749Y-109323967D01*
X193337253Y-109323967D01*
X193361286Y-109319186D01*
X193383923Y-109309810D01*
X193397691Y-109302451D01*
X193404705Y-109300323D01*
X193418140Y-109299000D01*
X193731860Y-109299000D01*
X193745295Y-109300323D01*
X193752309Y-109302451D01*
X193766077Y-109309810D01*
X193788716Y-109319187D01*
X193812749Y-109323967D01*
X193837253Y-109323967D01*
X193861286Y-109319186D01*
X193883923Y-109309810D01*
X193897691Y-109302451D01*
X193904705Y-109300323D01*
X193918140Y-109299000D01*
X194231860Y-109299000D01*
X194245295Y-109300323D01*
X194252309Y-109302451D01*
X194266077Y-109309810D01*
X194288716Y-109319187D01*
X194312749Y-109323967D01*
X194337253Y-109323967D01*
X194361286Y-109319186D01*
X194383923Y-109309810D01*
X194397691Y-109302451D01*
X194404705Y-109300323D01*
X194418140Y-109299000D01*
X194731860Y-109299000D01*
X194745295Y-109300323D01*
X194752309Y-109302451D01*
X194766077Y-109309810D01*
X194788716Y-109319187D01*
X194812749Y-109323967D01*
X194837253Y-109323967D01*
X194861286Y-109319186D01*
X194883923Y-109309810D01*
X194897691Y-109302451D01*
X194904705Y-109300323D01*
X194918140Y-109299000D01*
X195231860Y-109299000D01*
X195245295Y-109300323D01*
X195252309Y-109302451D01*
X195266077Y-109309810D01*
X195288716Y-109319187D01*
X195312749Y-109323967D01*
X195337253Y-109323967D01*
X195361286Y-109319186D01*
X195383923Y-109309810D01*
X195397691Y-109302451D01*
X195404705Y-109300323D01*
X195418140Y-109299000D01*
X195731860Y-109299000D01*
X195745295Y-109300323D01*
X195752309Y-109302451D01*
X195766077Y-109309810D01*
X195788716Y-109319187D01*
X195812749Y-109323967D01*
X195837253Y-109323967D01*
X195861286Y-109319186D01*
X195883923Y-109309810D01*
X195897691Y-109302451D01*
X195904705Y-109300323D01*
X195918140Y-109299000D01*
X196231860Y-109299000D01*
X196245295Y-109300323D01*
X196252309Y-109302451D01*
X196266077Y-109309810D01*
X196288716Y-109319187D01*
X196312749Y-109323967D01*
X196337253Y-109323967D01*
X196361286Y-109319186D01*
X196383923Y-109309810D01*
X196397691Y-109302451D01*
X196404705Y-109300323D01*
X196418140Y-109299000D01*
X196731860Y-109299000D01*
X196745295Y-109300323D01*
X196752309Y-109302451D01*
X196766077Y-109309810D01*
X196788716Y-109319187D01*
X196812749Y-109323967D01*
X196837253Y-109323967D01*
X196861286Y-109319186D01*
X196883923Y-109309810D01*
X196897691Y-109302451D01*
X196904705Y-109300323D01*
X196918140Y-109299000D01*
X197231860Y-109299000D01*
X197245295Y-109300323D01*
X197252309Y-109302451D01*
X197266077Y-109309810D01*
X197288716Y-109319187D01*
X197312749Y-109323967D01*
X197337253Y-109323967D01*
X197361286Y-109319186D01*
X197383923Y-109309810D01*
X197397691Y-109302451D01*
X197404705Y-109300323D01*
X197418140Y-109299000D01*
X197731860Y-109299000D01*
X197745295Y-109300323D01*
X197752310Y-109302451D01*
X197758776Y-109305908D01*
X197764442Y-109310558D01*
X197769092Y-109316224D01*
X197772549Y-109322690D01*
X197774677Y-109329705D01*
X197776000Y-109343140D01*
X197776000Y-110906860D01*
X197774677Y-110920295D01*
X197772549Y-110927310D01*
X197769092Y-110933776D01*
X197764442Y-110939442D01*
X197758776Y-110944092D01*
X197752310Y-110947549D01*
X197745295Y-110949677D01*
X197731860Y-110951000D01*
X197418140Y-110951000D01*
X197404705Y-110949677D01*
X197397691Y-110947549D01*
X197383923Y-110940190D01*
X197361284Y-110930813D01*
X197337251Y-110926033D01*
X197312747Y-110926033D01*
X197288714Y-110930814D01*
X197266077Y-110940190D01*
X197252309Y-110947549D01*
X197245295Y-110949677D01*
X197231860Y-110951000D01*
X196918140Y-110951000D01*
X196904705Y-110949677D01*
X196897691Y-110947549D01*
X196883923Y-110940190D01*
X196861284Y-110930813D01*
X196837251Y-110926033D01*
X196812747Y-110926033D01*
X196788714Y-110930814D01*
X196766077Y-110940190D01*
X196752309Y-110947549D01*
X196745295Y-110949677D01*
X196731860Y-110951000D01*
X196418140Y-110951000D01*
X196404705Y-110949677D01*
X196397691Y-110947549D01*
X196383923Y-110940190D01*
X196361284Y-110930813D01*
X196337251Y-110926033D01*
X196312747Y-110926033D01*
X196288714Y-110930814D01*
X196266077Y-110940190D01*
X196252309Y-110947549D01*
X196245295Y-110949677D01*
X196231860Y-110951000D01*
X195918140Y-110951000D01*
X195904705Y-110949677D01*
X195897691Y-110947549D01*
X195883923Y-110940190D01*
X195861284Y-110930813D01*
X195837251Y-110926033D01*
X195812747Y-110926033D01*
X195788714Y-110930814D01*
X195766077Y-110940190D01*
X195752309Y-110947549D01*
X195745295Y-110949677D01*
X195731860Y-110951000D01*
X195418140Y-110951000D01*
X195404705Y-110949677D01*
X195397691Y-110947549D01*
X195383923Y-110940190D01*
X195361284Y-110930813D01*
X195337251Y-110926033D01*
X195312747Y-110926033D01*
X195288714Y-110930814D01*
X195266077Y-110940190D01*
X195252309Y-110947549D01*
X195245295Y-110949677D01*
X195231860Y-110951000D01*
X194918140Y-110951000D01*
X194904705Y-110949677D01*
X194897691Y-110947549D01*
X194883923Y-110940190D01*
X194861284Y-110930813D01*
X194837251Y-110926033D01*
X194812747Y-110926033D01*
X194788714Y-110930814D01*
X194766077Y-110940190D01*
X194752309Y-110947549D01*
X194745295Y-110949677D01*
X194731860Y-110951000D01*
X194418140Y-110951000D01*
X194404705Y-110949677D01*
X194397691Y-110947549D01*
X194383923Y-110940190D01*
X194361284Y-110930813D01*
X194337251Y-110926033D01*
X194312747Y-110926033D01*
X194288714Y-110930814D01*
X194266077Y-110940190D01*
X194252309Y-110947549D01*
X194245295Y-110949677D01*
X194231860Y-110951000D01*
X193918140Y-110951000D01*
X193904705Y-110949677D01*
X193897691Y-110947549D01*
X193883923Y-110940190D01*
X193861284Y-110930813D01*
X193837251Y-110926033D01*
X193812747Y-110926033D01*
X193788714Y-110930814D01*
X193766077Y-110940190D01*
X193752309Y-110947549D01*
X193745295Y-110949677D01*
X193731860Y-110951000D01*
X193418140Y-110951000D01*
X193404705Y-110949677D01*
X193397691Y-110947549D01*
X193383923Y-110940190D01*
X193361284Y-110930813D01*
X193337251Y-110926033D01*
X193312747Y-110926033D01*
X193288714Y-110930814D01*
X193266077Y-110940190D01*
X193252309Y-110947549D01*
X193245295Y-110949677D01*
X193231860Y-110951000D01*
X192918140Y-110951000D01*
X192904705Y-110949677D01*
X192897691Y-110947549D01*
X192883923Y-110940190D01*
X192861284Y-110930813D01*
X192837251Y-110926033D01*
X192812747Y-110926033D01*
X192788714Y-110930814D01*
X192766077Y-110940190D01*
X192752309Y-110947549D01*
X192745295Y-110949677D01*
X192731860Y-110951000D01*
X192418140Y-110951000D01*
X192404705Y-110949677D01*
X192397691Y-110947549D01*
X192383923Y-110940190D01*
X192361284Y-110930813D01*
X192337251Y-110926033D01*
X192312747Y-110926033D01*
X192288714Y-110930814D01*
X192266077Y-110940190D01*
X192252309Y-110947549D01*
X192245295Y-110949677D01*
X192231860Y-110951000D01*
X191918140Y-110951000D01*
X191904705Y-110949677D01*
X191897691Y-110947549D01*
X191883923Y-110940190D01*
X191861284Y-110930813D01*
X191837251Y-110926033D01*
X191812747Y-110926033D01*
X191788714Y-110930814D01*
X191766077Y-110940190D01*
X191752309Y-110947549D01*
X191745295Y-110949677D01*
X191731860Y-110951000D01*
X191418140Y-110951000D01*
X191404705Y-110949677D01*
X191397691Y-110947549D01*
X191383923Y-110940190D01*
X191361284Y-110930813D01*
X191337251Y-110926033D01*
X191312747Y-110926033D01*
X191288714Y-110930814D01*
X191266077Y-110940190D01*
X191252309Y-110947549D01*
X191245295Y-110949677D01*
X191231860Y-110951000D01*
X190918140Y-110951000D01*
X190904705Y-110949677D01*
X190897691Y-110947549D01*
X190883923Y-110940190D01*
X190861284Y-110930813D01*
X190837251Y-110926033D01*
X190812747Y-110926033D01*
X190788714Y-110930814D01*
X190766077Y-110940190D01*
X190752309Y-110947549D01*
X190745295Y-110949677D01*
X190731860Y-110951000D01*
X190418140Y-110951000D01*
X190404705Y-110949677D01*
X190397691Y-110947549D01*
X190383923Y-110940190D01*
X190361284Y-110930813D01*
X190337251Y-110926033D01*
X190312747Y-110926033D01*
X190288714Y-110930814D01*
X190266077Y-110940190D01*
X190252309Y-110947549D01*
X190245295Y-110949677D01*
X190231860Y-110951000D01*
X189918140Y-110951000D01*
X189904705Y-110949677D01*
X189897690Y-110947549D01*
X189891224Y-110944092D01*
X189885558Y-110939442D01*
X189880908Y-110933776D01*
X189877451Y-110927310D01*
X189875323Y-110920295D01*
X189874000Y-110906860D01*
X189874000Y-109343140D01*
X189875323Y-109329705D01*
X189877451Y-109322690D01*
X189880908Y-109316224D01*
X189885558Y-109310558D01*
X189891224Y-109305908D01*
X189897690Y-109302451D01*
X189904705Y-109300323D01*
X189918140Y-109299000D01*
X190231860Y-109299000D01*
X190245295Y-109300323D01*
G37*
G36*
X203654487Y-107473996D02*
G01*
X203864629Y-107561040D01*
X203891255Y-107572069D01*
X204104339Y-107714447D01*
X204285553Y-107895661D01*
X204421754Y-108099500D01*
X204427932Y-108108747D01*
X204526004Y-108345513D01*
X204576000Y-108596861D01*
X204576000Y-108853139D01*
X204526004Y-109104487D01*
X204486648Y-109199500D01*
X204427931Y-109341255D01*
X204285553Y-109554339D01*
X204104339Y-109735553D01*
X203891255Y-109877931D01*
X203891254Y-109877932D01*
X203891253Y-109877932D01*
X203654487Y-109976004D01*
X203403139Y-110026000D01*
X203146861Y-110026000D01*
X202895513Y-109976004D01*
X202658747Y-109877932D01*
X202658746Y-109877932D01*
X202658745Y-109877931D01*
X202445661Y-109735553D01*
X202264447Y-109554339D01*
X202122069Y-109341255D01*
X202063352Y-109199500D01*
X202023996Y-109104487D01*
X201974000Y-108853139D01*
X201974000Y-108596861D01*
X202023996Y-108345513D01*
X202122068Y-108108747D01*
X202128247Y-108099500D01*
X202264447Y-107895661D01*
X202445661Y-107714447D01*
X202658745Y-107572069D01*
X202685371Y-107561040D01*
X202895513Y-107473996D01*
X203146861Y-107424000D01*
X203403139Y-107424000D01*
X203654487Y-107473996D01*
G37*
G36*
X210329434Y-108928686D02*
G01*
X210369284Y-108940774D01*
X210405999Y-108960399D01*
X210438186Y-108986814D01*
X210464601Y-109019001D01*
X210484226Y-109055716D01*
X210496314Y-109095566D01*
X210501000Y-109143141D01*
X210501000Y-109806859D01*
X210496314Y-109854434D01*
X210484226Y-109894284D01*
X210464601Y-109930999D01*
X210438186Y-109963186D01*
X210405999Y-109989601D01*
X210369284Y-110009226D01*
X210329434Y-110021314D01*
X210281859Y-110026000D01*
X207818141Y-110026000D01*
X207770566Y-110021314D01*
X207730716Y-110009226D01*
X207694001Y-109989601D01*
X207661814Y-109963186D01*
X207635399Y-109930999D01*
X207615774Y-109894284D01*
X207603686Y-109854434D01*
X207599000Y-109806859D01*
X207599000Y-109143141D01*
X207603686Y-109095566D01*
X207615774Y-109055716D01*
X207635399Y-109019001D01*
X207661814Y-108986814D01*
X207694001Y-108960399D01*
X207730716Y-108940774D01*
X207770566Y-108928686D01*
X207818141Y-108924000D01*
X210281859Y-108924000D01*
X210329434Y-108928686D01*
G37*
G36*
X174629487Y-107173996D02*
G01*
X174841698Y-107261897D01*
X174866255Y-107272069D01*
X175079339Y-107414447D01*
X175260553Y-107595661D01*
X175379185Y-107773206D01*
X175402932Y-107808747D01*
X175501004Y-108045513D01*
X175551000Y-108296861D01*
X175551000Y-108553139D01*
X175501004Y-108804487D01*
X175451500Y-108924000D01*
X175402931Y-109041255D01*
X175260553Y-109254339D01*
X175079339Y-109435553D01*
X174866255Y-109577931D01*
X174866254Y-109577932D01*
X174866253Y-109577932D01*
X174629487Y-109676004D01*
X174378139Y-109726000D01*
X174121861Y-109726000D01*
X173870513Y-109676004D01*
X173633747Y-109577932D01*
X173633746Y-109577932D01*
X173633745Y-109577931D01*
X173420661Y-109435553D01*
X173239447Y-109254339D01*
X173097069Y-109041255D01*
X173048500Y-108924000D01*
X172998996Y-108804487D01*
X172949000Y-108553139D01*
X172949000Y-108296861D01*
X172998996Y-108045513D01*
X173097068Y-107808747D01*
X173120816Y-107773206D01*
X173239447Y-107595661D01*
X173420661Y-107414447D01*
X173633745Y-107272069D01*
X173658302Y-107261897D01*
X173870513Y-107173996D01*
X174121861Y-107124000D01*
X174378139Y-107124000D01*
X174629487Y-107173996D01*
G37*
G36*
X165533015Y-108326973D02*
G01*
X165636879Y-108358479D01*
X165658985Y-108370295D01*
X165732600Y-108409643D01*
X165816501Y-108478499D01*
X165885357Y-108562400D01*
X165921995Y-108630945D01*
X165936521Y-108658121D01*
X165968027Y-108761985D01*
X165978666Y-108870000D01*
X165968027Y-108978015D01*
X165936521Y-109081879D01*
X165924436Y-109104488D01*
X165885357Y-109177600D01*
X165816501Y-109261501D01*
X165732600Y-109330357D01*
X165664055Y-109366995D01*
X165636879Y-109381521D01*
X165533015Y-109413027D01*
X165452067Y-109421000D01*
X164797933Y-109421000D01*
X164716985Y-109413027D01*
X164613121Y-109381521D01*
X164585945Y-109366995D01*
X164517400Y-109330357D01*
X164433499Y-109261501D01*
X164364643Y-109177600D01*
X164325564Y-109104488D01*
X164313479Y-109081879D01*
X164281973Y-108978015D01*
X164271334Y-108870000D01*
X164281973Y-108761985D01*
X164313479Y-108658121D01*
X164328005Y-108630945D01*
X164364643Y-108562400D01*
X164433499Y-108478499D01*
X164517400Y-108409643D01*
X164591015Y-108370295D01*
X164613121Y-108358479D01*
X164716985Y-108326973D01*
X164797933Y-108319000D01*
X165452067Y-108319000D01*
X165533015Y-108326973D01*
G37*
G36*
X169963015Y-108326973D02*
G01*
X170066879Y-108358479D01*
X170088985Y-108370295D01*
X170162600Y-108409643D01*
X170246501Y-108478499D01*
X170315357Y-108562400D01*
X170351995Y-108630945D01*
X170366521Y-108658121D01*
X170398027Y-108761985D01*
X170408666Y-108870000D01*
X170398027Y-108978015D01*
X170366521Y-109081879D01*
X170354436Y-109104488D01*
X170315357Y-109177600D01*
X170246501Y-109261501D01*
X170162600Y-109330357D01*
X170094055Y-109366995D01*
X170066879Y-109381521D01*
X169963015Y-109413027D01*
X169882067Y-109421000D01*
X168727933Y-109421000D01*
X168646985Y-109413027D01*
X168543121Y-109381521D01*
X168515945Y-109366995D01*
X168447400Y-109330357D01*
X168363499Y-109261501D01*
X168294643Y-109177600D01*
X168255564Y-109104488D01*
X168243479Y-109081879D01*
X168211973Y-108978015D01*
X168201334Y-108870000D01*
X168211973Y-108761985D01*
X168243479Y-108658121D01*
X168258005Y-108630945D01*
X168294643Y-108562400D01*
X168363499Y-108478499D01*
X168447400Y-108409643D01*
X168521015Y-108370295D01*
X168543121Y-108358479D01*
X168646985Y-108326973D01*
X168727933Y-108319000D01*
X169882067Y-108319000D01*
X169963015Y-108326973D01*
G37*
G36*
X188945295Y-100500323D02*
G01*
X188952310Y-100502451D01*
X188958776Y-100505908D01*
X188964442Y-100510558D01*
X188969092Y-100516224D01*
X188972549Y-100522690D01*
X188974677Y-100529705D01*
X188976000Y-100543140D01*
X188976000Y-100856860D01*
X188974677Y-100870295D01*
X188972549Y-100877309D01*
X188965190Y-100891077D01*
X188955813Y-100913716D01*
X188951033Y-100937749D01*
X188951033Y-100962253D01*
X188955814Y-100986286D01*
X188965190Y-101008923D01*
X188972549Y-101022691D01*
X188974677Y-101029705D01*
X188976000Y-101043140D01*
X188976000Y-101356860D01*
X188974677Y-101370295D01*
X188972549Y-101377309D01*
X188965190Y-101391077D01*
X188955813Y-101413716D01*
X188951033Y-101437749D01*
X188951033Y-101462253D01*
X188955814Y-101486286D01*
X188965190Y-101508923D01*
X188972549Y-101522691D01*
X188974677Y-101529705D01*
X188976000Y-101543140D01*
X188976000Y-101856860D01*
X188974677Y-101870295D01*
X188972549Y-101877309D01*
X188965190Y-101891077D01*
X188955813Y-101913716D01*
X188951033Y-101937749D01*
X188951033Y-101962253D01*
X188955814Y-101986286D01*
X188965190Y-102008923D01*
X188972549Y-102022691D01*
X188974677Y-102029705D01*
X188976000Y-102043140D01*
X188976000Y-102356860D01*
X188974677Y-102370295D01*
X188972549Y-102377309D01*
X188965190Y-102391077D01*
X188955813Y-102413716D01*
X188951033Y-102437749D01*
X188951033Y-102462253D01*
X188955814Y-102486286D01*
X188965190Y-102508923D01*
X188972549Y-102522691D01*
X188974677Y-102529705D01*
X188976000Y-102543140D01*
X188976000Y-102856860D01*
X188974677Y-102870295D01*
X188972549Y-102877309D01*
X188965190Y-102891077D01*
X188955813Y-102913716D01*
X188951033Y-102937749D01*
X188951033Y-102962253D01*
X188955814Y-102986286D01*
X188965190Y-103008923D01*
X188972549Y-103022691D01*
X188974677Y-103029705D01*
X188976000Y-103043140D01*
X188976000Y-103356860D01*
X188974677Y-103370295D01*
X188972549Y-103377309D01*
X188965190Y-103391077D01*
X188955813Y-103413716D01*
X188951033Y-103437749D01*
X188951033Y-103462253D01*
X188955814Y-103486286D01*
X188965190Y-103508923D01*
X188972549Y-103522691D01*
X188974677Y-103529705D01*
X188976000Y-103543140D01*
X188976000Y-103856860D01*
X188974677Y-103870295D01*
X188972549Y-103877309D01*
X188965190Y-103891077D01*
X188955813Y-103913716D01*
X188951033Y-103937749D01*
X188951033Y-103962253D01*
X188955814Y-103986286D01*
X188965190Y-104008923D01*
X188972549Y-104022691D01*
X188974677Y-104029705D01*
X188976000Y-104043140D01*
X188976000Y-104356860D01*
X188974677Y-104370295D01*
X188972549Y-104377309D01*
X188965190Y-104391077D01*
X188955813Y-104413716D01*
X188951033Y-104437749D01*
X188951033Y-104462253D01*
X188955814Y-104486286D01*
X188965190Y-104508923D01*
X188972549Y-104522691D01*
X188974677Y-104529705D01*
X188976000Y-104543140D01*
X188976000Y-104856860D01*
X188974677Y-104870295D01*
X188972549Y-104877309D01*
X188965190Y-104891077D01*
X188955813Y-104913716D01*
X188951033Y-104937749D01*
X188951033Y-104962253D01*
X188955814Y-104986286D01*
X188965190Y-105008923D01*
X188972549Y-105022691D01*
X188974677Y-105029705D01*
X188976000Y-105043140D01*
X188976000Y-105356860D01*
X188974677Y-105370295D01*
X188972549Y-105377309D01*
X188965190Y-105391077D01*
X188955813Y-105413716D01*
X188951033Y-105437749D01*
X188951033Y-105462253D01*
X188955814Y-105486286D01*
X188965190Y-105508923D01*
X188972549Y-105522691D01*
X188974677Y-105529705D01*
X188976000Y-105543140D01*
X188976000Y-105856860D01*
X188974677Y-105870295D01*
X188972549Y-105877309D01*
X188965190Y-105891077D01*
X188955813Y-105913716D01*
X188951033Y-105937749D01*
X188951033Y-105962253D01*
X188955814Y-105986286D01*
X188965190Y-106008923D01*
X188972549Y-106022691D01*
X188974677Y-106029705D01*
X188976000Y-106043140D01*
X188976000Y-106356860D01*
X188974677Y-106370295D01*
X188972549Y-106377309D01*
X188965190Y-106391077D01*
X188955813Y-106413716D01*
X188951033Y-106437749D01*
X188951033Y-106462253D01*
X188955814Y-106486286D01*
X188965190Y-106508923D01*
X188972549Y-106522691D01*
X188974677Y-106529705D01*
X188976000Y-106543140D01*
X188976000Y-106856860D01*
X188974677Y-106870295D01*
X188972549Y-106877309D01*
X188965190Y-106891077D01*
X188955813Y-106913716D01*
X188951033Y-106937749D01*
X188951033Y-106962253D01*
X188955814Y-106986286D01*
X188965190Y-107008923D01*
X188972549Y-107022691D01*
X188974677Y-107029705D01*
X188976000Y-107043140D01*
X188976000Y-107356860D01*
X188974677Y-107370295D01*
X188972549Y-107377309D01*
X188965190Y-107391077D01*
X188955813Y-107413716D01*
X188951033Y-107437749D01*
X188951033Y-107462253D01*
X188955814Y-107486286D01*
X188965190Y-107508923D01*
X188972549Y-107522691D01*
X188974677Y-107529705D01*
X188976000Y-107543140D01*
X188976000Y-107856860D01*
X188974677Y-107870295D01*
X188972549Y-107877309D01*
X188965190Y-107891077D01*
X188955813Y-107913716D01*
X188951033Y-107937749D01*
X188951033Y-107962253D01*
X188955814Y-107986286D01*
X188965190Y-108008923D01*
X188972549Y-108022691D01*
X188974677Y-108029705D01*
X188976000Y-108043140D01*
X188976000Y-108356860D01*
X188974677Y-108370295D01*
X188972549Y-108377310D01*
X188969092Y-108383776D01*
X188964442Y-108389442D01*
X188958776Y-108394092D01*
X188952310Y-108397549D01*
X188945295Y-108399677D01*
X188931860Y-108401000D01*
X187368140Y-108401000D01*
X187354705Y-108399677D01*
X187347690Y-108397549D01*
X187341224Y-108394092D01*
X187335558Y-108389442D01*
X187330908Y-108383776D01*
X187327451Y-108377310D01*
X187325323Y-108370295D01*
X187324000Y-108356860D01*
X187324000Y-108043140D01*
X187325323Y-108029705D01*
X187327451Y-108022691D01*
X187334810Y-108008923D01*
X187344187Y-107986284D01*
X187348967Y-107962251D01*
X187348967Y-107937747D01*
X187344186Y-107913714D01*
X187334810Y-107891077D01*
X187327451Y-107877309D01*
X187325323Y-107870295D01*
X187324000Y-107856860D01*
X187324000Y-107543140D01*
X187325323Y-107529705D01*
X187327451Y-107522691D01*
X187334810Y-107508923D01*
X187344187Y-107486284D01*
X187348967Y-107462251D01*
X187348967Y-107437747D01*
X187344186Y-107413714D01*
X187334810Y-107391077D01*
X187327451Y-107377309D01*
X187325323Y-107370295D01*
X187324000Y-107356860D01*
X187324000Y-107043140D01*
X187325323Y-107029705D01*
X187327451Y-107022691D01*
X187334810Y-107008923D01*
X187344187Y-106986284D01*
X187348967Y-106962251D01*
X187348967Y-106937747D01*
X187344186Y-106913714D01*
X187334810Y-106891077D01*
X187327451Y-106877309D01*
X187325323Y-106870295D01*
X187324000Y-106856860D01*
X187324000Y-106543140D01*
X187325323Y-106529705D01*
X187327451Y-106522691D01*
X187334810Y-106508923D01*
X187344187Y-106486284D01*
X187348967Y-106462251D01*
X187348967Y-106437747D01*
X187344186Y-106413714D01*
X187334810Y-106391077D01*
X187327451Y-106377309D01*
X187325323Y-106370295D01*
X187324000Y-106356860D01*
X187324000Y-106043140D01*
X187325323Y-106029705D01*
X187327451Y-106022691D01*
X187334810Y-106008923D01*
X187344187Y-105986284D01*
X187348967Y-105962251D01*
X187348967Y-105937747D01*
X187344186Y-105913714D01*
X187334810Y-105891077D01*
X187327451Y-105877309D01*
X187325323Y-105870295D01*
X187324000Y-105856860D01*
X187324000Y-105543140D01*
X187325323Y-105529705D01*
X187327451Y-105522691D01*
X187334810Y-105508923D01*
X187344187Y-105486284D01*
X187348967Y-105462251D01*
X187348967Y-105437747D01*
X187344186Y-105413714D01*
X187334810Y-105391077D01*
X187327451Y-105377309D01*
X187325323Y-105370295D01*
X187324000Y-105356860D01*
X187324000Y-105043140D01*
X187325323Y-105029705D01*
X187327451Y-105022691D01*
X187334810Y-105008923D01*
X187344187Y-104986284D01*
X187348967Y-104962251D01*
X187348967Y-104937747D01*
X187344186Y-104913714D01*
X187334810Y-104891077D01*
X187327451Y-104877309D01*
X187325323Y-104870295D01*
X187324000Y-104856860D01*
X187324000Y-104543140D01*
X187325323Y-104529705D01*
X187327451Y-104522691D01*
X187334810Y-104508923D01*
X187344187Y-104486284D01*
X187348967Y-104462251D01*
X187348967Y-104437747D01*
X187344186Y-104413714D01*
X187334810Y-104391077D01*
X187327451Y-104377309D01*
X187325323Y-104370295D01*
X187324000Y-104356860D01*
X187324000Y-104043140D01*
X187325323Y-104029705D01*
X187327451Y-104022691D01*
X187334810Y-104008923D01*
X187344187Y-103986284D01*
X187348967Y-103962251D01*
X187348967Y-103937747D01*
X187344186Y-103913714D01*
X187334810Y-103891077D01*
X187327451Y-103877309D01*
X187325323Y-103870295D01*
X187324000Y-103856860D01*
X187324000Y-103543140D01*
X187325323Y-103529705D01*
X187327451Y-103522691D01*
X187334810Y-103508923D01*
X187344187Y-103486284D01*
X187348967Y-103462251D01*
X187348967Y-103437747D01*
X187344186Y-103413714D01*
X187334810Y-103391077D01*
X187327451Y-103377309D01*
X187325323Y-103370295D01*
X187324000Y-103356860D01*
X187324000Y-103043140D01*
X187325323Y-103029705D01*
X187327451Y-103022691D01*
X187334810Y-103008923D01*
X187344187Y-102986284D01*
X187348967Y-102962251D01*
X187348967Y-102937747D01*
X187344186Y-102913714D01*
X187334810Y-102891077D01*
X187327451Y-102877309D01*
X187325323Y-102870295D01*
X187324000Y-102856860D01*
X187324000Y-102543140D01*
X187325323Y-102529705D01*
X187327451Y-102522691D01*
X187334810Y-102508923D01*
X187344187Y-102486284D01*
X187348967Y-102462251D01*
X187348967Y-102437747D01*
X187344186Y-102413714D01*
X187334810Y-102391077D01*
X187327451Y-102377309D01*
X187325323Y-102370295D01*
X187324000Y-102356860D01*
X187324000Y-102043140D01*
X187325323Y-102029705D01*
X187327451Y-102022691D01*
X187334810Y-102008923D01*
X187344187Y-101986284D01*
X187348967Y-101962251D01*
X187348967Y-101937747D01*
X187344186Y-101913714D01*
X187334810Y-101891077D01*
X187327451Y-101877309D01*
X187325323Y-101870295D01*
X187324000Y-101856860D01*
X187324000Y-101543140D01*
X187325323Y-101529705D01*
X187327451Y-101522691D01*
X187334810Y-101508923D01*
X187344187Y-101486284D01*
X187348967Y-101462251D01*
X187348967Y-101437747D01*
X187344186Y-101413714D01*
X187334810Y-101391077D01*
X187327451Y-101377309D01*
X187325323Y-101370295D01*
X187324000Y-101356860D01*
X187324000Y-101043140D01*
X187325323Y-101029705D01*
X187327451Y-101022691D01*
X187334810Y-101008923D01*
X187344187Y-100986284D01*
X187348967Y-100962251D01*
X187348967Y-100937747D01*
X187344186Y-100913714D01*
X187334810Y-100891077D01*
X187327451Y-100877309D01*
X187325323Y-100870295D01*
X187324000Y-100856860D01*
X187324000Y-100543140D01*
X187325323Y-100529705D01*
X187327451Y-100522690D01*
X187330908Y-100516224D01*
X187335558Y-100510558D01*
X187341224Y-100505908D01*
X187347690Y-100502451D01*
X187354705Y-100500323D01*
X187368140Y-100499000D01*
X188931860Y-100499000D01*
X188945295Y-100500323D01*
G37*
G36*
X200295295Y-100500323D02*
G01*
X200302310Y-100502451D01*
X200308776Y-100505908D01*
X200314442Y-100510558D01*
X200319092Y-100516224D01*
X200322549Y-100522690D01*
X200324677Y-100529705D01*
X200326000Y-100543140D01*
X200326000Y-100856860D01*
X200324677Y-100870295D01*
X200322549Y-100877309D01*
X200315190Y-100891077D01*
X200305813Y-100913716D01*
X200301033Y-100937749D01*
X200301033Y-100962253D01*
X200305814Y-100986286D01*
X200315190Y-101008923D01*
X200322549Y-101022691D01*
X200324677Y-101029705D01*
X200326000Y-101043140D01*
X200326000Y-101356860D01*
X200324677Y-101370295D01*
X200322549Y-101377309D01*
X200315190Y-101391077D01*
X200305813Y-101413716D01*
X200301033Y-101437749D01*
X200301033Y-101462253D01*
X200305814Y-101486286D01*
X200315190Y-101508923D01*
X200322549Y-101522691D01*
X200324677Y-101529705D01*
X200326000Y-101543140D01*
X200326000Y-101856860D01*
X200324677Y-101870295D01*
X200322549Y-101877309D01*
X200315190Y-101891077D01*
X200305813Y-101913716D01*
X200301033Y-101937749D01*
X200301033Y-101962253D01*
X200305814Y-101986286D01*
X200315190Y-102008923D01*
X200322549Y-102022691D01*
X200324677Y-102029705D01*
X200326000Y-102043140D01*
X200326000Y-102356860D01*
X200324677Y-102370295D01*
X200322549Y-102377309D01*
X200315190Y-102391077D01*
X200305813Y-102413716D01*
X200301033Y-102437749D01*
X200301033Y-102462253D01*
X200305814Y-102486286D01*
X200315190Y-102508923D01*
X200322549Y-102522691D01*
X200324677Y-102529705D01*
X200326000Y-102543140D01*
X200326000Y-102856860D01*
X200324677Y-102870295D01*
X200322549Y-102877309D01*
X200315190Y-102891077D01*
X200305813Y-102913716D01*
X200301033Y-102937749D01*
X200301033Y-102962253D01*
X200305814Y-102986286D01*
X200315190Y-103008923D01*
X200322549Y-103022691D01*
X200324677Y-103029705D01*
X200326000Y-103043140D01*
X200326000Y-103356860D01*
X200324677Y-103370295D01*
X200322549Y-103377309D01*
X200315190Y-103391077D01*
X200305813Y-103413716D01*
X200301033Y-103437749D01*
X200301033Y-103462253D01*
X200305814Y-103486286D01*
X200315190Y-103508923D01*
X200322549Y-103522691D01*
X200324677Y-103529705D01*
X200326000Y-103543140D01*
X200326000Y-103856860D01*
X200324677Y-103870295D01*
X200322549Y-103877309D01*
X200315190Y-103891077D01*
X200305813Y-103913716D01*
X200301033Y-103937749D01*
X200301033Y-103962253D01*
X200305814Y-103986286D01*
X200315190Y-104008923D01*
X200322549Y-104022691D01*
X200324677Y-104029705D01*
X200326000Y-104043140D01*
X200326000Y-104356860D01*
X200324677Y-104370295D01*
X200322549Y-104377309D01*
X200315190Y-104391077D01*
X200305813Y-104413716D01*
X200301033Y-104437749D01*
X200301033Y-104462253D01*
X200305814Y-104486286D01*
X200315190Y-104508923D01*
X200322549Y-104522691D01*
X200324677Y-104529705D01*
X200326000Y-104543140D01*
X200326000Y-104856860D01*
X200324677Y-104870295D01*
X200322549Y-104877309D01*
X200315190Y-104891077D01*
X200305813Y-104913716D01*
X200301033Y-104937749D01*
X200301033Y-104962253D01*
X200305814Y-104986286D01*
X200315190Y-105008923D01*
X200322549Y-105022691D01*
X200324677Y-105029705D01*
X200326000Y-105043140D01*
X200326000Y-105356860D01*
X200324677Y-105370295D01*
X200322549Y-105377309D01*
X200315190Y-105391077D01*
X200305813Y-105413716D01*
X200301033Y-105437749D01*
X200301033Y-105462253D01*
X200305814Y-105486286D01*
X200315190Y-105508923D01*
X200322549Y-105522691D01*
X200324677Y-105529705D01*
X200326000Y-105543140D01*
X200326000Y-105856860D01*
X200324677Y-105870295D01*
X200322549Y-105877309D01*
X200315190Y-105891077D01*
X200305813Y-105913716D01*
X200301033Y-105937749D01*
X200301033Y-105962253D01*
X200305814Y-105986286D01*
X200315190Y-106008923D01*
X200322549Y-106022691D01*
X200324677Y-106029705D01*
X200326000Y-106043140D01*
X200326000Y-106356860D01*
X200324677Y-106370295D01*
X200322549Y-106377309D01*
X200315190Y-106391077D01*
X200305813Y-106413716D01*
X200301033Y-106437749D01*
X200301033Y-106462253D01*
X200305814Y-106486286D01*
X200315190Y-106508923D01*
X200322549Y-106522691D01*
X200324677Y-106529705D01*
X200326000Y-106543140D01*
X200326000Y-106856860D01*
X200324677Y-106870295D01*
X200322549Y-106877309D01*
X200315190Y-106891077D01*
X200305813Y-106913716D01*
X200301033Y-106937749D01*
X200301033Y-106962253D01*
X200305814Y-106986286D01*
X200315190Y-107008923D01*
X200322549Y-107022691D01*
X200324677Y-107029705D01*
X200326000Y-107043140D01*
X200326000Y-107356860D01*
X200324677Y-107370295D01*
X200322549Y-107377309D01*
X200315190Y-107391077D01*
X200305813Y-107413716D01*
X200301033Y-107437749D01*
X200301033Y-107462253D01*
X200305814Y-107486286D01*
X200315190Y-107508923D01*
X200322549Y-107522691D01*
X200324677Y-107529705D01*
X200326000Y-107543140D01*
X200326000Y-107856860D01*
X200324677Y-107870295D01*
X200322549Y-107877309D01*
X200315190Y-107891077D01*
X200305813Y-107913716D01*
X200301033Y-107937749D01*
X200301033Y-107962253D01*
X200305814Y-107986286D01*
X200315190Y-108008923D01*
X200322549Y-108022691D01*
X200324677Y-108029705D01*
X200326000Y-108043140D01*
X200326000Y-108356860D01*
X200324677Y-108370295D01*
X200322549Y-108377310D01*
X200319092Y-108383776D01*
X200314442Y-108389442D01*
X200308776Y-108394092D01*
X200302310Y-108397549D01*
X200295295Y-108399677D01*
X200281860Y-108401000D01*
X198718140Y-108401000D01*
X198704705Y-108399677D01*
X198697690Y-108397549D01*
X198691224Y-108394092D01*
X198685558Y-108389442D01*
X198680908Y-108383776D01*
X198677451Y-108377310D01*
X198675323Y-108370295D01*
X198674000Y-108356860D01*
X198674000Y-108043140D01*
X198675323Y-108029705D01*
X198677451Y-108022691D01*
X198684810Y-108008923D01*
X198694187Y-107986284D01*
X198698967Y-107962251D01*
X198698967Y-107937747D01*
X198694186Y-107913714D01*
X198684810Y-107891077D01*
X198677451Y-107877309D01*
X198675323Y-107870295D01*
X198674000Y-107856860D01*
X198674000Y-107543140D01*
X198675323Y-107529705D01*
X198677451Y-107522691D01*
X198684810Y-107508923D01*
X198694187Y-107486284D01*
X198698967Y-107462251D01*
X198698967Y-107437747D01*
X198694186Y-107413714D01*
X198684810Y-107391077D01*
X198677451Y-107377309D01*
X198675323Y-107370295D01*
X198674000Y-107356860D01*
X198674000Y-107043140D01*
X198675323Y-107029705D01*
X198677451Y-107022691D01*
X198684810Y-107008923D01*
X198694187Y-106986284D01*
X198698967Y-106962251D01*
X198698967Y-106937747D01*
X198694186Y-106913714D01*
X198684810Y-106891077D01*
X198677451Y-106877309D01*
X198675323Y-106870295D01*
X198674000Y-106856860D01*
X198674000Y-106543140D01*
X198675323Y-106529705D01*
X198677451Y-106522691D01*
X198684810Y-106508923D01*
X198694187Y-106486284D01*
X198698967Y-106462251D01*
X198698967Y-106437747D01*
X198694186Y-106413714D01*
X198684810Y-106391077D01*
X198677451Y-106377309D01*
X198675323Y-106370295D01*
X198674000Y-106356860D01*
X198674000Y-106043140D01*
X198675323Y-106029705D01*
X198677451Y-106022691D01*
X198684810Y-106008923D01*
X198694187Y-105986284D01*
X198698967Y-105962251D01*
X198698967Y-105937747D01*
X198694186Y-105913714D01*
X198684810Y-105891077D01*
X198677451Y-105877309D01*
X198675323Y-105870295D01*
X198674000Y-105856860D01*
X198674000Y-105543140D01*
X198675323Y-105529705D01*
X198677451Y-105522691D01*
X198684810Y-105508923D01*
X198694187Y-105486284D01*
X198698967Y-105462251D01*
X198698967Y-105437747D01*
X198694186Y-105413714D01*
X198684810Y-105391077D01*
X198677451Y-105377309D01*
X198675323Y-105370295D01*
X198674000Y-105356860D01*
X198674000Y-105043140D01*
X198675323Y-105029705D01*
X198677451Y-105022691D01*
X198684810Y-105008923D01*
X198694187Y-104986284D01*
X198698967Y-104962251D01*
X198698967Y-104937747D01*
X198694186Y-104913714D01*
X198684810Y-104891077D01*
X198677451Y-104877309D01*
X198675323Y-104870295D01*
X198674000Y-104856860D01*
X198674000Y-104543140D01*
X198675323Y-104529705D01*
X198677451Y-104522691D01*
X198684810Y-104508923D01*
X198694187Y-104486284D01*
X198698967Y-104462251D01*
X198698967Y-104437747D01*
X198694186Y-104413714D01*
X198684810Y-104391077D01*
X198677451Y-104377309D01*
X198675323Y-104370295D01*
X198674000Y-104356860D01*
X198674000Y-104043140D01*
X198675323Y-104029705D01*
X198677451Y-104022691D01*
X198684810Y-104008923D01*
X198694187Y-103986284D01*
X198698967Y-103962251D01*
X198698967Y-103937747D01*
X198694186Y-103913714D01*
X198684810Y-103891077D01*
X198677451Y-103877309D01*
X198675323Y-103870295D01*
X198674000Y-103856860D01*
X198674000Y-103543140D01*
X198675323Y-103529705D01*
X198677451Y-103522691D01*
X198684810Y-103508923D01*
X198694187Y-103486284D01*
X198698967Y-103462251D01*
X198698967Y-103437747D01*
X198694186Y-103413714D01*
X198684810Y-103391077D01*
X198677451Y-103377309D01*
X198675323Y-103370295D01*
X198674000Y-103356860D01*
X198674000Y-103043140D01*
X198675323Y-103029705D01*
X198677451Y-103022691D01*
X198684810Y-103008923D01*
X198694187Y-102986284D01*
X198698967Y-102962251D01*
X198698967Y-102937747D01*
X198694186Y-102913714D01*
X198684810Y-102891077D01*
X198677451Y-102877309D01*
X198675323Y-102870295D01*
X198674000Y-102856860D01*
X198674000Y-102543140D01*
X198675323Y-102529705D01*
X198677451Y-102522691D01*
X198684810Y-102508923D01*
X198694187Y-102486284D01*
X198698967Y-102462251D01*
X198698967Y-102437747D01*
X198694186Y-102413714D01*
X198684810Y-102391077D01*
X198677451Y-102377309D01*
X198675323Y-102370295D01*
X198674000Y-102356860D01*
X198674000Y-102043140D01*
X198675323Y-102029705D01*
X198677451Y-102022691D01*
X198684810Y-102008923D01*
X198694187Y-101986284D01*
X198698967Y-101962251D01*
X198698967Y-101937747D01*
X198694186Y-101913714D01*
X198684810Y-101891077D01*
X198677451Y-101877309D01*
X198675323Y-101870295D01*
X198674000Y-101856860D01*
X198674000Y-101543140D01*
X198675323Y-101529705D01*
X198677451Y-101522691D01*
X198684810Y-101508923D01*
X198694187Y-101486284D01*
X198698967Y-101462251D01*
X198698967Y-101437747D01*
X198694186Y-101413714D01*
X198684810Y-101391077D01*
X198677451Y-101377309D01*
X198675323Y-101370295D01*
X198674000Y-101356860D01*
X198674000Y-101043140D01*
X198675323Y-101029705D01*
X198677451Y-101022691D01*
X198684810Y-101008923D01*
X198694187Y-100986284D01*
X198698967Y-100962251D01*
X198698967Y-100937747D01*
X198694186Y-100913714D01*
X198684810Y-100891077D01*
X198677451Y-100877309D01*
X198675323Y-100870295D01*
X198674000Y-100856860D01*
X198674000Y-100543140D01*
X198675323Y-100529705D01*
X198677451Y-100522690D01*
X198680908Y-100516224D01*
X198685558Y-100510558D01*
X198691224Y-100505908D01*
X198697690Y-100502451D01*
X198704705Y-100500323D01*
X198718140Y-100499000D01*
X200281860Y-100499000D01*
X200295295Y-100500323D01*
G37*
G36*
X206509928Y-107276764D02*
G01*
X206531009Y-107283160D01*
X206550445Y-107293548D01*
X206567476Y-107307524D01*
X206581452Y-107324555D01*
X206591840Y-107343991D01*
X206598236Y-107365072D01*
X206601000Y-107393140D01*
X206601000Y-107856860D01*
X206598236Y-107884928D01*
X206591840Y-107906009D01*
X206581452Y-107925445D01*
X206567476Y-107942476D01*
X206550445Y-107956452D01*
X206531009Y-107966840D01*
X206509928Y-107973236D01*
X206481860Y-107976000D01*
X204918140Y-107976000D01*
X204890072Y-107973236D01*
X204868991Y-107966840D01*
X204849555Y-107956452D01*
X204832524Y-107942476D01*
X204818548Y-107925445D01*
X204808160Y-107906009D01*
X204801764Y-107884928D01*
X204799000Y-107856860D01*
X204799000Y-107393140D01*
X204801764Y-107365072D01*
X204808160Y-107343991D01*
X204818548Y-107324555D01*
X204832524Y-107307524D01*
X204849555Y-107293548D01*
X204868991Y-107283160D01*
X204890072Y-107276764D01*
X204918140Y-107274000D01*
X206481860Y-107274000D01*
X206509928Y-107276764D01*
G37*
G36*
X168884672Y-107078449D02*
G01*
X168884674Y-107078450D01*
X168884675Y-107078450D01*
X168953103Y-107106793D01*
X169014686Y-107147942D01*
X169067058Y-107200314D01*
X169108207Y-107261897D01*
X169134160Y-107324555D01*
X169136551Y-107330328D01*
X169151000Y-107402966D01*
X169151000Y-107477034D01*
X169140523Y-107529705D01*
X169136550Y-107549675D01*
X169108207Y-107618103D01*
X169067058Y-107679686D01*
X169014686Y-107732058D01*
X168953103Y-107773207D01*
X168884675Y-107801550D01*
X168884674Y-107801550D01*
X168884672Y-107801551D01*
X168812034Y-107816000D01*
X168737966Y-107816000D01*
X168665328Y-107801551D01*
X168665326Y-107801550D01*
X168665325Y-107801550D01*
X168596897Y-107773207D01*
X168535314Y-107732058D01*
X168482942Y-107679686D01*
X168441793Y-107618103D01*
X168413450Y-107549675D01*
X168409478Y-107529705D01*
X168399000Y-107477034D01*
X168399000Y-107402966D01*
X168413449Y-107330328D01*
X168415840Y-107324555D01*
X168441793Y-107261897D01*
X168482942Y-107200314D01*
X168535314Y-107147942D01*
X168596897Y-107106793D01*
X168665325Y-107078450D01*
X168665326Y-107078450D01*
X168665328Y-107078449D01*
X168737966Y-107064000D01*
X168812034Y-107064000D01*
X168884672Y-107078449D01*
G37*
G36*
X206509928Y-106026764D02*
G01*
X206531009Y-106033160D01*
X206550445Y-106043548D01*
X206567476Y-106057524D01*
X206581452Y-106074555D01*
X206591840Y-106093991D01*
X206598236Y-106115072D01*
X206601000Y-106143140D01*
X206601000Y-106606860D01*
X206598236Y-106634928D01*
X206591840Y-106656009D01*
X206581452Y-106675445D01*
X206567476Y-106692476D01*
X206550445Y-106706452D01*
X206531009Y-106716840D01*
X206509928Y-106723236D01*
X206481860Y-106726000D01*
X204918140Y-106726000D01*
X204890072Y-106723236D01*
X204868991Y-106716840D01*
X204849555Y-106706452D01*
X204832524Y-106692476D01*
X204818548Y-106675445D01*
X204808160Y-106656009D01*
X204801764Y-106634928D01*
X204799000Y-106606860D01*
X204799000Y-106143140D01*
X204801764Y-106115072D01*
X204808160Y-106093991D01*
X204818548Y-106074555D01*
X204832524Y-106057524D01*
X204849555Y-106043548D01*
X204868991Y-106033160D01*
X204890072Y-106026764D01*
X204918140Y-106024000D01*
X206481860Y-106024000D01*
X206509928Y-106026764D01*
G37*
G36*
X209381000Y-102902218D02*
G01*
X209383402Y-102926604D01*
X209390515Y-102950053D01*
X209402066Y-102971664D01*
X209417611Y-102990606D01*
X209436553Y-103006151D01*
X209458164Y-103017702D01*
X209481613Y-103024815D01*
X209505999Y-103027217D01*
X209530385Y-103024815D01*
X209553834Y-103017702D01*
X209575445Y-103006151D01*
X209594387Y-102990606D01*
X209609932Y-102971664D01*
X209656335Y-102902218D01*
X209672010Y-102878758D01*
X209748758Y-102802010D01*
X209839004Y-102741710D01*
X209839005Y-102741709D01*
X209939279Y-102700174D01*
X210045730Y-102679000D01*
X210154270Y-102679000D01*
X210260721Y-102700174D01*
X210360995Y-102741709D01*
X210360996Y-102741710D01*
X210451242Y-102802010D01*
X210527990Y-102878758D01*
X210543665Y-102902218D01*
X210588291Y-102969005D01*
X210629826Y-103069279D01*
X210651000Y-103175730D01*
X210651000Y-103284270D01*
X210629826Y-103390721D01*
X210588291Y-103490995D01*
X210576312Y-103508923D01*
X210527990Y-103581242D01*
X210451242Y-103657990D01*
X210405812Y-103688345D01*
X210360995Y-103718291D01*
X210285611Y-103749516D01*
X210264000Y-103761067D01*
X210245059Y-103776612D01*
X210229513Y-103795554D01*
X210217962Y-103817165D01*
X210210849Y-103840614D01*
X210208447Y-103865000D01*
X210210849Y-103889386D01*
X210217962Y-103912835D01*
X210229513Y-103934446D01*
X210245058Y-103953387D01*
X210264000Y-103968933D01*
X210285611Y-103980484D01*
X210360995Y-104011709D01*
X210387928Y-104029705D01*
X210451242Y-104072010D01*
X210527990Y-104148758D01*
X210557201Y-104192476D01*
X210588291Y-104239005D01*
X210629826Y-104339279D01*
X210651000Y-104445730D01*
X210651000Y-104554270D01*
X210629826Y-104660721D01*
X210588291Y-104760995D01*
X210558345Y-104805812D01*
X210527990Y-104851242D01*
X210451242Y-104927990D01*
X210419050Y-104949500D01*
X210360995Y-104988291D01*
X210285611Y-105019516D01*
X210264000Y-105031067D01*
X210245059Y-105046612D01*
X210229513Y-105065554D01*
X210217962Y-105087165D01*
X210210849Y-105110614D01*
X210208447Y-105135000D01*
X210210849Y-105159386D01*
X210217962Y-105182835D01*
X210229513Y-105204446D01*
X210245058Y-105223387D01*
X210264000Y-105238933D01*
X210285611Y-105250484D01*
X210360995Y-105281709D01*
X210405812Y-105311655D01*
X210451242Y-105342010D01*
X210527990Y-105418758D01*
X210527991Y-105418760D01*
X210588291Y-105509005D01*
X210629826Y-105609279D01*
X210651000Y-105715730D01*
X210651000Y-105824270D01*
X210629826Y-105930721D01*
X210588291Y-106030995D01*
X210580176Y-106043140D01*
X210527990Y-106121242D01*
X210451242Y-106197990D01*
X210448982Y-106199500D01*
X210360995Y-106258291D01*
X210260721Y-106299826D01*
X210154270Y-106321000D01*
X210045730Y-106321000D01*
X209939279Y-106299826D01*
X209839005Y-106258291D01*
X209751018Y-106199500D01*
X209748758Y-106197990D01*
X209672010Y-106121242D01*
X209619824Y-106043140D01*
X209611709Y-106030995D01*
X209580484Y-105955611D01*
X209568933Y-105934000D01*
X209553388Y-105915059D01*
X209534446Y-105899513D01*
X209512835Y-105887962D01*
X209489386Y-105880849D01*
X209465000Y-105878447D01*
X209440614Y-105880849D01*
X209417165Y-105887962D01*
X209395554Y-105899513D01*
X209376613Y-105915058D01*
X209361067Y-105934000D01*
X209349516Y-105955611D01*
X209318291Y-106030995D01*
X209310176Y-106043140D01*
X209257990Y-106121242D01*
X209181242Y-106197990D01*
X209178982Y-106199500D01*
X209090995Y-106258291D01*
X208990721Y-106299826D01*
X208884270Y-106321000D01*
X208775730Y-106321000D01*
X208669279Y-106299826D01*
X208569005Y-106258291D01*
X208481018Y-106199500D01*
X208478758Y-106197990D01*
X208402010Y-106121242D01*
X208349824Y-106043140D01*
X208341709Y-106030995D01*
X208300174Y-105930721D01*
X208279000Y-105824270D01*
X208279000Y-105715730D01*
X208300174Y-105609279D01*
X208341709Y-105509005D01*
X208402009Y-105418760D01*
X208402010Y-105418758D01*
X208478758Y-105342010D01*
X208524188Y-105311655D01*
X208569005Y-105281709D01*
X208644389Y-105250484D01*
X208666000Y-105238933D01*
X208684941Y-105223388D01*
X208700487Y-105204446D01*
X208712038Y-105182835D01*
X208719151Y-105159386D01*
X208721553Y-105135000D01*
X208938447Y-105135000D01*
X208940849Y-105159386D01*
X208947962Y-105182835D01*
X208959513Y-105204446D01*
X208975058Y-105223387D01*
X208994000Y-105238933D01*
X209015611Y-105250484D01*
X209090995Y-105281709D01*
X209135812Y-105311655D01*
X209181242Y-105342010D01*
X209257990Y-105418758D01*
X209257991Y-105418760D01*
X209318291Y-105509005D01*
X209349516Y-105584389D01*
X209361067Y-105606000D01*
X209376612Y-105624941D01*
X209395554Y-105640487D01*
X209417165Y-105652038D01*
X209440614Y-105659151D01*
X209465000Y-105661553D01*
X209489386Y-105659151D01*
X209512835Y-105652038D01*
X209534446Y-105640487D01*
X209553387Y-105624942D01*
X209568933Y-105606000D01*
X209580484Y-105584389D01*
X209611709Y-105509005D01*
X209672009Y-105418760D01*
X209672010Y-105418758D01*
X209748758Y-105342010D01*
X209794188Y-105311655D01*
X209839005Y-105281709D01*
X209914389Y-105250484D01*
X209936000Y-105238933D01*
X209954941Y-105223388D01*
X209970487Y-105204446D01*
X209982038Y-105182835D01*
X209989151Y-105159386D01*
X209991553Y-105135000D01*
X209989151Y-105110614D01*
X209982038Y-105087165D01*
X209970487Y-105065554D01*
X209954942Y-105046613D01*
X209936000Y-105031067D01*
X209914389Y-105019516D01*
X209839005Y-104988291D01*
X209780950Y-104949500D01*
X209748758Y-104927990D01*
X209672010Y-104851242D01*
X209641655Y-104805812D01*
X209611709Y-104760995D01*
X209580484Y-104685611D01*
X209568933Y-104664000D01*
X209553388Y-104645059D01*
X209534446Y-104629513D01*
X209512835Y-104617962D01*
X209489386Y-104610849D01*
X209465000Y-104608447D01*
X209440614Y-104610849D01*
X209417165Y-104617962D01*
X209395554Y-104629513D01*
X209376613Y-104645058D01*
X209361067Y-104664000D01*
X209349516Y-104685611D01*
X209318291Y-104760995D01*
X209288345Y-104805812D01*
X209257990Y-104851242D01*
X209181242Y-104927990D01*
X209149050Y-104949500D01*
X209090995Y-104988291D01*
X209015611Y-105019516D01*
X208994000Y-105031067D01*
X208975059Y-105046612D01*
X208959513Y-105065554D01*
X208947962Y-105087165D01*
X208940849Y-105110614D01*
X208938447Y-105135000D01*
X208721553Y-105135000D01*
X208719151Y-105110614D01*
X208712038Y-105087165D01*
X208700487Y-105065554D01*
X208684942Y-105046613D01*
X208666000Y-105031067D01*
X208644389Y-105019516D01*
X208569005Y-104988291D01*
X208510950Y-104949500D01*
X208478758Y-104927990D01*
X208402010Y-104851242D01*
X208371655Y-104805812D01*
X208341709Y-104760995D01*
X208300174Y-104660721D01*
X208279000Y-104554270D01*
X208279000Y-104445730D01*
X208300174Y-104339279D01*
X208341709Y-104239005D01*
X208372799Y-104192476D01*
X208402010Y-104148758D01*
X208478758Y-104072010D01*
X208510950Y-104050500D01*
X208571664Y-104009932D01*
X208590606Y-103994386D01*
X208606151Y-103975444D01*
X208617702Y-103953833D01*
X208624815Y-103930385D01*
X208627216Y-103905999D01*
X209032783Y-103905999D01*
X209035185Y-103930385D01*
X209042298Y-103953834D01*
X209053849Y-103975445D01*
X209069394Y-103994387D01*
X209088336Y-104009932D01*
X209149050Y-104050500D01*
X209181242Y-104072010D01*
X209257990Y-104148758D01*
X209287201Y-104192476D01*
X209318291Y-104239005D01*
X209349516Y-104314389D01*
X209361067Y-104336000D01*
X209376612Y-104354941D01*
X209395554Y-104370487D01*
X209417165Y-104382038D01*
X209440614Y-104389151D01*
X209465000Y-104391553D01*
X209489386Y-104389151D01*
X209512835Y-104382038D01*
X209534446Y-104370487D01*
X209553387Y-104354942D01*
X209568933Y-104336000D01*
X209580484Y-104314389D01*
X209611709Y-104239005D01*
X209642799Y-104192476D01*
X209672010Y-104148758D01*
X209748758Y-104072010D01*
X209812072Y-104029705D01*
X209839005Y-104011709D01*
X209914389Y-103980484D01*
X209936000Y-103968933D01*
X209954941Y-103953388D01*
X209970487Y-103934446D01*
X209982038Y-103912835D01*
X209989151Y-103889386D01*
X209991553Y-103865000D01*
X209989151Y-103840614D01*
X209982038Y-103817165D01*
X209970487Y-103795554D01*
X209954942Y-103776613D01*
X209936000Y-103761067D01*
X209914389Y-103749516D01*
X209839005Y-103718291D01*
X209794188Y-103688345D01*
X209748758Y-103657990D01*
X209672010Y-103581242D01*
X209646551Y-103543140D01*
X209609932Y-103488336D01*
X209594386Y-103469394D01*
X209575444Y-103453849D01*
X209553833Y-103442298D01*
X209530385Y-103435185D01*
X209505998Y-103432783D01*
X209481612Y-103435185D01*
X209458163Y-103442298D01*
X209436553Y-103453849D01*
X209417611Y-103469395D01*
X209402066Y-103488337D01*
X209390515Y-103509948D01*
X209383402Y-103533396D01*
X209381000Y-103557782D01*
X209381000Y-103781000D01*
X209157782Y-103781000D01*
X209133396Y-103783402D01*
X209109947Y-103790515D01*
X209088336Y-103802066D01*
X209069394Y-103817611D01*
X209053849Y-103836553D01*
X209042298Y-103858164D01*
X209035185Y-103881613D01*
X209032783Y-103905999D01*
X208627216Y-103905999D01*
X208627217Y-103905998D01*
X208624815Y-103881612D01*
X208617702Y-103858163D01*
X208606151Y-103836553D01*
X208590605Y-103817611D01*
X208571663Y-103802066D01*
X208550052Y-103790515D01*
X208526604Y-103783402D01*
X208502218Y-103781000D01*
X208279000Y-103781000D01*
X208279000Y-102679000D01*
X209381000Y-102679000D01*
X209381000Y-102902218D01*
G37*
G36*
X206509928Y-104776764D02*
G01*
X206531009Y-104783160D01*
X206550445Y-104793548D01*
X206567476Y-104807524D01*
X206581452Y-104824555D01*
X206591840Y-104843991D01*
X206598236Y-104865072D01*
X206601000Y-104893140D01*
X206601000Y-105356860D01*
X206598236Y-105384928D01*
X206591840Y-105406009D01*
X206581452Y-105425445D01*
X206567476Y-105442476D01*
X206550445Y-105456452D01*
X206531009Y-105466840D01*
X206509928Y-105473236D01*
X206481860Y-105476000D01*
X204918140Y-105476000D01*
X204890072Y-105473236D01*
X204868991Y-105466840D01*
X204849555Y-105456452D01*
X204832524Y-105442476D01*
X204818548Y-105425445D01*
X204808160Y-105406009D01*
X204801764Y-105384928D01*
X204799000Y-105356860D01*
X204799000Y-104893140D01*
X204801764Y-104865072D01*
X204808160Y-104843991D01*
X204818548Y-104824555D01*
X204832524Y-104807524D01*
X204849555Y-104793548D01*
X204868991Y-104783160D01*
X204890072Y-104776764D01*
X204918140Y-104774000D01*
X206481860Y-104774000D01*
X206509928Y-104776764D01*
G37*
G36*
X184776000Y-104451000D02*
G01*
X183424000Y-104451000D01*
X183424000Y-101849000D01*
X184776000Y-101849000D01*
X184776000Y-104451000D01*
G37*
G36*
X182276000Y-104451000D02*
G01*
X180924000Y-104451000D01*
X180924000Y-101849000D01*
X182276000Y-101849000D01*
X182276000Y-104451000D01*
G37*
G36*
X179776000Y-104451000D02*
G01*
X178424000Y-104451000D01*
X178424000Y-101849000D01*
X179776000Y-101849000D01*
X179776000Y-104451000D01*
G37*
G36*
X206509928Y-103526764D02*
G01*
X206531009Y-103533160D01*
X206550445Y-103543548D01*
X206567476Y-103557524D01*
X206581452Y-103574555D01*
X206591840Y-103593991D01*
X206598236Y-103615072D01*
X206601000Y-103643140D01*
X206601000Y-104106860D01*
X206598236Y-104134928D01*
X206591840Y-104156009D01*
X206581452Y-104175445D01*
X206567476Y-104192476D01*
X206550445Y-104206452D01*
X206531009Y-104216840D01*
X206509928Y-104223236D01*
X206481860Y-104226000D01*
X204918140Y-104226000D01*
X204890072Y-104223236D01*
X204868991Y-104216840D01*
X204849555Y-104206452D01*
X204832524Y-104192476D01*
X204818548Y-104175445D01*
X204808160Y-104156009D01*
X204801764Y-104134928D01*
X204799000Y-104106860D01*
X204799000Y-103643140D01*
X204801764Y-103615072D01*
X204808160Y-103593991D01*
X204818548Y-103574555D01*
X204832524Y-103557524D01*
X204849555Y-103543548D01*
X204868991Y-103533160D01*
X204890072Y-103526764D01*
X204918140Y-103524000D01*
X206481860Y-103524000D01*
X206509928Y-103526764D01*
G37*
G36*
X206509928Y-102276764D02*
G01*
X206531009Y-102283160D01*
X206550445Y-102293548D01*
X206567476Y-102307524D01*
X206581452Y-102324555D01*
X206591840Y-102343991D01*
X206598236Y-102365072D01*
X206601000Y-102393140D01*
X206601000Y-102856860D01*
X206598236Y-102884928D01*
X206591840Y-102906009D01*
X206581452Y-102925445D01*
X206567476Y-102942476D01*
X206550445Y-102956452D01*
X206531009Y-102966840D01*
X206509928Y-102973236D01*
X206481860Y-102976000D01*
X204918140Y-102976000D01*
X204890072Y-102973236D01*
X204868991Y-102966840D01*
X204849555Y-102956452D01*
X204832524Y-102942476D01*
X204818548Y-102925445D01*
X204808160Y-102906009D01*
X204801764Y-102884928D01*
X204799000Y-102856860D01*
X204799000Y-102393140D01*
X204801764Y-102365072D01*
X204808160Y-102343991D01*
X204818548Y-102324555D01*
X204832524Y-102307524D01*
X204849555Y-102293548D01*
X204868991Y-102283160D01*
X204890072Y-102276764D01*
X204918140Y-102274000D01*
X206481860Y-102274000D01*
X206509928Y-102276764D01*
G37*
G36*
X168884672Y-101298449D02*
G01*
X168884674Y-101298450D01*
X168884675Y-101298450D01*
X168953103Y-101326793D01*
X169014686Y-101367942D01*
X169067058Y-101420314D01*
X169108207Y-101481897D01*
X169128009Y-101529705D01*
X169136551Y-101550328D01*
X169151000Y-101622966D01*
X169151000Y-101697034D01*
X169149127Y-101706452D01*
X169136550Y-101769675D01*
X169108207Y-101838103D01*
X169067058Y-101899686D01*
X169014686Y-101952058D01*
X168953103Y-101993207D01*
X168884675Y-102021550D01*
X168884674Y-102021550D01*
X168884672Y-102021551D01*
X168812034Y-102036000D01*
X168737966Y-102036000D01*
X168665328Y-102021551D01*
X168665326Y-102021550D01*
X168665325Y-102021550D01*
X168596897Y-101993207D01*
X168535314Y-101952058D01*
X168482942Y-101899686D01*
X168441793Y-101838103D01*
X168413450Y-101769675D01*
X168400874Y-101706452D01*
X168399000Y-101697034D01*
X168399000Y-101622966D01*
X168413449Y-101550328D01*
X168421991Y-101529705D01*
X168441793Y-101481897D01*
X168482942Y-101420314D01*
X168535314Y-101367942D01*
X168596897Y-101326793D01*
X168665325Y-101298450D01*
X168665326Y-101298450D01*
X168665328Y-101298449D01*
X168737966Y-101284000D01*
X168812034Y-101284000D01*
X168884672Y-101298449D01*
G37*
G36*
X206509928Y-101026764D02*
G01*
X206531009Y-101033160D01*
X206550445Y-101043548D01*
X206567476Y-101057524D01*
X206581452Y-101074555D01*
X206591840Y-101093991D01*
X206598236Y-101115072D01*
X206601000Y-101143140D01*
X206601000Y-101606860D01*
X206598236Y-101634928D01*
X206591840Y-101656009D01*
X206581452Y-101675445D01*
X206567476Y-101692476D01*
X206550445Y-101706452D01*
X206531009Y-101716840D01*
X206509928Y-101723236D01*
X206481860Y-101726000D01*
X204918140Y-101726000D01*
X204890072Y-101723236D01*
X204868991Y-101716840D01*
X204849555Y-101706452D01*
X204832524Y-101692476D01*
X204818548Y-101675445D01*
X204808160Y-101656009D01*
X204801764Y-101634928D01*
X204799000Y-101606860D01*
X204799000Y-101143140D01*
X204801764Y-101115072D01*
X204808160Y-101093991D01*
X204818548Y-101074555D01*
X204832524Y-101057524D01*
X204849555Y-101043548D01*
X204868991Y-101033160D01*
X204890072Y-101026764D01*
X204918140Y-101024000D01*
X206481860Y-101024000D01*
X206509928Y-101026764D01*
G37*
G36*
X174629487Y-99173996D02*
G01*
X174866253Y-99272068D01*
X174866255Y-99272069D01*
X175079339Y-99414447D01*
X175260553Y-99595661D01*
X175386227Y-99783745D01*
X175402932Y-99808747D01*
X175501004Y-100045513D01*
X175551000Y-100296861D01*
X175551000Y-100553139D01*
X175501004Y-100804487D01*
X175408682Y-101027372D01*
X175402931Y-101041255D01*
X175260553Y-101254339D01*
X175079339Y-101435553D01*
X174866255Y-101577931D01*
X174866254Y-101577932D01*
X174866253Y-101577932D01*
X174629487Y-101676004D01*
X174378139Y-101726000D01*
X174121861Y-101726000D01*
X173870513Y-101676004D01*
X173633747Y-101577932D01*
X173633746Y-101577932D01*
X173633745Y-101577931D01*
X173420661Y-101435553D01*
X173239447Y-101254339D01*
X173097069Y-101041255D01*
X173091318Y-101027372D01*
X172998996Y-100804487D01*
X172949000Y-100553139D01*
X172949000Y-100296861D01*
X172998996Y-100045513D01*
X173097068Y-99808747D01*
X173113774Y-99783745D01*
X173239447Y-99595661D01*
X173420661Y-99414447D01*
X173633745Y-99272069D01*
X173633747Y-99272068D01*
X173870513Y-99173996D01*
X174121861Y-99124000D01*
X174378139Y-99124000D01*
X174629487Y-99173996D01*
G37*
G36*
X203654487Y-99148996D02*
G01*
X203872726Y-99239394D01*
X203891255Y-99247069D01*
X204104339Y-99389447D01*
X204285553Y-99570661D01*
X204426571Y-99781709D01*
X204427932Y-99783747D01*
X204526004Y-100020513D01*
X204576000Y-100271861D01*
X204576000Y-100528139D01*
X204526004Y-100779487D01*
X204431910Y-101006650D01*
X204427931Y-101016255D01*
X204285553Y-101229339D01*
X204104339Y-101410553D01*
X203891255Y-101552931D01*
X203891254Y-101552932D01*
X203891253Y-101552932D01*
X203654487Y-101651004D01*
X203403139Y-101701000D01*
X203146861Y-101701000D01*
X202895513Y-101651004D01*
X202658747Y-101552932D01*
X202658746Y-101552932D01*
X202658745Y-101552931D01*
X202445661Y-101410553D01*
X202264447Y-101229339D01*
X202122069Y-101016255D01*
X202118090Y-101006650D01*
X202023996Y-100779487D01*
X201974000Y-100528139D01*
X201974000Y-100271861D01*
X202023996Y-100020513D01*
X202122068Y-99783747D01*
X202123430Y-99781709D01*
X202264447Y-99570661D01*
X202445661Y-99389447D01*
X202658745Y-99247069D01*
X202677274Y-99239394D01*
X202895513Y-99148996D01*
X203146861Y-99099000D01*
X203403139Y-99099000D01*
X203654487Y-99148996D01*
G37*
G36*
X185076663Y-99904434D02*
G01*
X185146136Y-99918253D01*
X185183902Y-99933896D01*
X185237311Y-99956019D01*
X185237312Y-99956020D01*
X185319369Y-100010848D01*
X185389152Y-100080631D01*
X185389153Y-100080633D01*
X185443981Y-100162689D01*
X185481747Y-100253865D01*
X185501000Y-100350655D01*
X185501000Y-100449345D01*
X185491373Y-100497740D01*
X185482239Y-100543665D01*
X185481747Y-100546135D01*
X185443981Y-100637311D01*
X185443980Y-100637312D01*
X185389152Y-100719369D01*
X185319369Y-100789152D01*
X185303394Y-100799826D01*
X185237311Y-100843981D01*
X185183902Y-100866104D01*
X185146136Y-100881747D01*
X185099231Y-100891077D01*
X185049345Y-100901000D01*
X184950655Y-100901000D01*
X184900769Y-100891077D01*
X184853864Y-100881747D01*
X184816098Y-100866104D01*
X184762689Y-100843981D01*
X184696606Y-100799826D01*
X184680631Y-100789152D01*
X184610848Y-100719369D01*
X184556020Y-100637312D01*
X184556019Y-100637311D01*
X184518253Y-100546135D01*
X184517762Y-100543665D01*
X184508627Y-100497740D01*
X184499000Y-100449345D01*
X184499000Y-100350655D01*
X184518253Y-100253865D01*
X184556019Y-100162689D01*
X184610847Y-100080633D01*
X184610848Y-100080631D01*
X184680631Y-100010848D01*
X184762688Y-99956020D01*
X184762689Y-99956019D01*
X184816098Y-99933896D01*
X184853864Y-99918253D01*
X184923337Y-99904434D01*
X184950655Y-99899000D01*
X185049345Y-99899000D01*
X185076663Y-99904434D01*
G37*
G36*
X178276663Y-99904434D02*
G01*
X178346136Y-99918253D01*
X178383902Y-99933896D01*
X178437311Y-99956019D01*
X178437312Y-99956020D01*
X178519369Y-100010848D01*
X178589152Y-100080631D01*
X178589153Y-100080633D01*
X178643981Y-100162689D01*
X178681747Y-100253865D01*
X178701000Y-100350655D01*
X178701000Y-100449345D01*
X178691373Y-100497740D01*
X178682239Y-100543665D01*
X178681747Y-100546135D01*
X178643981Y-100637311D01*
X178643980Y-100637312D01*
X178589152Y-100719369D01*
X178519369Y-100789152D01*
X178503394Y-100799826D01*
X178437311Y-100843981D01*
X178383902Y-100866104D01*
X178346136Y-100881747D01*
X178299231Y-100891077D01*
X178249345Y-100901000D01*
X178150655Y-100901000D01*
X178100769Y-100891077D01*
X178053864Y-100881747D01*
X178016098Y-100866104D01*
X177962689Y-100843981D01*
X177896606Y-100799826D01*
X177880631Y-100789152D01*
X177810848Y-100719369D01*
X177756020Y-100637312D01*
X177756019Y-100637311D01*
X177718253Y-100546135D01*
X177717762Y-100543665D01*
X177708627Y-100497740D01*
X177699000Y-100449345D01*
X177699000Y-100350655D01*
X177718253Y-100253865D01*
X177756019Y-100162689D01*
X177810847Y-100080633D01*
X177810848Y-100080631D01*
X177880631Y-100010848D01*
X177962688Y-99956020D01*
X177962689Y-99956019D01*
X178016098Y-99933896D01*
X178053864Y-99918253D01*
X178123337Y-99904434D01*
X178150655Y-99899000D01*
X178249345Y-99899000D01*
X178276663Y-99904434D01*
G37*
G36*
X180520721Y-98470174D02*
G01*
X180620995Y-98511709D01*
X180620996Y-98511710D01*
X180711242Y-98572010D01*
X180787990Y-98648758D01*
X180787991Y-98648760D01*
X180848291Y-98739005D01*
X180879516Y-98814389D01*
X180891067Y-98836000D01*
X180906612Y-98854941D01*
X180925554Y-98870487D01*
X180947165Y-98882038D01*
X180970614Y-98889151D01*
X180995000Y-98891553D01*
X181019386Y-98889151D01*
X181042835Y-98882038D01*
X181064446Y-98870487D01*
X181083387Y-98854942D01*
X181098933Y-98836000D01*
X181110484Y-98814389D01*
X181141709Y-98739005D01*
X181202009Y-98648760D01*
X181202010Y-98648758D01*
X181278758Y-98572010D01*
X181369004Y-98511710D01*
X181369005Y-98511709D01*
X181469279Y-98470174D01*
X181575730Y-98449000D01*
X181684270Y-98449000D01*
X181790721Y-98470174D01*
X181890995Y-98511709D01*
X181890996Y-98511710D01*
X181981242Y-98572010D01*
X182057990Y-98648758D01*
X182057991Y-98648760D01*
X182120068Y-98741664D01*
X182135614Y-98760606D01*
X182154556Y-98776151D01*
X182176167Y-98787702D01*
X182199615Y-98794815D01*
X182224002Y-98797217D01*
X182248388Y-98794815D01*
X182271837Y-98787702D01*
X182293447Y-98776151D01*
X182312389Y-98760605D01*
X182327934Y-98741663D01*
X182339485Y-98720052D01*
X182346598Y-98696604D01*
X182349000Y-98672218D01*
X182349000Y-98449000D01*
X183451000Y-98449000D01*
X183451000Y-99551000D01*
X183227782Y-99551000D01*
X183203396Y-99553402D01*
X183179947Y-99560515D01*
X183158336Y-99572066D01*
X183139394Y-99587611D01*
X183123849Y-99606553D01*
X183112298Y-99628164D01*
X183105185Y-99651613D01*
X183102783Y-99675999D01*
X183105185Y-99700385D01*
X183112298Y-99723834D01*
X183123849Y-99745445D01*
X183139394Y-99764387D01*
X183158336Y-99779932D01*
X183201457Y-99808745D01*
X183251242Y-99842010D01*
X183327990Y-99918758D01*
X183327991Y-99918760D01*
X183388291Y-100009005D01*
X183429826Y-100109279D01*
X183451000Y-100215730D01*
X183451000Y-100324270D01*
X183429826Y-100430721D01*
X183388291Y-100530995D01*
X183380176Y-100543140D01*
X183327990Y-100621242D01*
X183251242Y-100697990D01*
X183219249Y-100719367D01*
X183160995Y-100758291D01*
X183060721Y-100799826D01*
X182954270Y-100821000D01*
X182845730Y-100821000D01*
X182739279Y-100799826D01*
X182639005Y-100758291D01*
X182580751Y-100719367D01*
X182548758Y-100697990D01*
X182472010Y-100621242D01*
X182419824Y-100543140D01*
X182411709Y-100530995D01*
X182380484Y-100455611D01*
X182368933Y-100434000D01*
X182353388Y-100415059D01*
X182334446Y-100399513D01*
X182312835Y-100387962D01*
X182289386Y-100380849D01*
X182265000Y-100378447D01*
X182240614Y-100380849D01*
X182217165Y-100387962D01*
X182195554Y-100399513D01*
X182176613Y-100415058D01*
X182161067Y-100434000D01*
X182149516Y-100455611D01*
X182118291Y-100530995D01*
X182110176Y-100543140D01*
X182057990Y-100621242D01*
X181981242Y-100697990D01*
X181949249Y-100719367D01*
X181890995Y-100758291D01*
X181790721Y-100799826D01*
X181684270Y-100821000D01*
X181575730Y-100821000D01*
X181469279Y-100799826D01*
X181369005Y-100758291D01*
X181310751Y-100719367D01*
X181278758Y-100697990D01*
X181202010Y-100621242D01*
X181149824Y-100543140D01*
X181141709Y-100530995D01*
X181110484Y-100455611D01*
X181098933Y-100434000D01*
X181083388Y-100415059D01*
X181064446Y-100399513D01*
X181042835Y-100387962D01*
X181019386Y-100380849D01*
X180995000Y-100378447D01*
X180970614Y-100380849D01*
X180947165Y-100387962D01*
X180925554Y-100399513D01*
X180906613Y-100415058D01*
X180891067Y-100434000D01*
X180879516Y-100455611D01*
X180848291Y-100530995D01*
X180840176Y-100543140D01*
X180787990Y-100621242D01*
X180711242Y-100697990D01*
X180679249Y-100719367D01*
X180620995Y-100758291D01*
X180520721Y-100799826D01*
X180414270Y-100821000D01*
X180305730Y-100821000D01*
X180199279Y-100799826D01*
X180099005Y-100758291D01*
X180040751Y-100719367D01*
X180008758Y-100697990D01*
X179932010Y-100621242D01*
X179879824Y-100543140D01*
X179871709Y-100530995D01*
X179830174Y-100430721D01*
X179809000Y-100324270D01*
X179809000Y-100215730D01*
X179830174Y-100109279D01*
X179871709Y-100009005D01*
X179932009Y-99918760D01*
X179932010Y-99918758D01*
X180008758Y-99842010D01*
X180058543Y-99808745D01*
X180099005Y-99781709D01*
X180174389Y-99750484D01*
X180196000Y-99738933D01*
X180214941Y-99723388D01*
X180230487Y-99704446D01*
X180242038Y-99682835D01*
X180249151Y-99659386D01*
X180251553Y-99635000D01*
X180468447Y-99635000D01*
X180470849Y-99659386D01*
X180477962Y-99682835D01*
X180489513Y-99704446D01*
X180505058Y-99723387D01*
X180524000Y-99738933D01*
X180545611Y-99750484D01*
X180620995Y-99781709D01*
X180661457Y-99808745D01*
X180711242Y-99842010D01*
X180787990Y-99918758D01*
X180787991Y-99918760D01*
X180848291Y-100009005D01*
X180879516Y-100084389D01*
X180891067Y-100106000D01*
X180906612Y-100124941D01*
X180925554Y-100140487D01*
X180947165Y-100152038D01*
X180970614Y-100159151D01*
X180995000Y-100161553D01*
X181019386Y-100159151D01*
X181042835Y-100152038D01*
X181064446Y-100140487D01*
X181083387Y-100124942D01*
X181098933Y-100106000D01*
X181110484Y-100084389D01*
X181141709Y-100009005D01*
X181202009Y-99918760D01*
X181202010Y-99918758D01*
X181278758Y-99842010D01*
X181328543Y-99808745D01*
X181369005Y-99781709D01*
X181444389Y-99750484D01*
X181466000Y-99738933D01*
X181484941Y-99723388D01*
X181500487Y-99704446D01*
X181512038Y-99682835D01*
X181519151Y-99659386D01*
X181521553Y-99635000D01*
X181738447Y-99635000D01*
X181740849Y-99659386D01*
X181747962Y-99682835D01*
X181759513Y-99704446D01*
X181775058Y-99723387D01*
X181794000Y-99738933D01*
X181815611Y-99750484D01*
X181890995Y-99781709D01*
X181931457Y-99808745D01*
X181981242Y-99842010D01*
X182057990Y-99918758D01*
X182057991Y-99918760D01*
X182118291Y-100009005D01*
X182149516Y-100084389D01*
X182161067Y-100106000D01*
X182176612Y-100124941D01*
X182195554Y-100140487D01*
X182217165Y-100152038D01*
X182240614Y-100159151D01*
X182265000Y-100161553D01*
X182289386Y-100159151D01*
X182312835Y-100152038D01*
X182334446Y-100140487D01*
X182353387Y-100124942D01*
X182368933Y-100106000D01*
X182380484Y-100084389D01*
X182411709Y-100009005D01*
X182472009Y-99918760D01*
X182472010Y-99918758D01*
X182548758Y-99842010D01*
X182598543Y-99808745D01*
X182641664Y-99779932D01*
X182660606Y-99764386D01*
X182676151Y-99745444D01*
X182687702Y-99723833D01*
X182694815Y-99700385D01*
X182697217Y-99675998D01*
X182694815Y-99651612D01*
X182687702Y-99628163D01*
X182676151Y-99606553D01*
X182660605Y-99587611D01*
X182641663Y-99572066D01*
X182620052Y-99560515D01*
X182596604Y-99553402D01*
X182572218Y-99551000D01*
X182349000Y-99551000D01*
X182349000Y-99327782D01*
X182346598Y-99303396D01*
X182339485Y-99279947D01*
X182327934Y-99258336D01*
X182312389Y-99239394D01*
X182293447Y-99223849D01*
X182271836Y-99212298D01*
X182248387Y-99205185D01*
X182224001Y-99202783D01*
X182199615Y-99205185D01*
X182176166Y-99212298D01*
X182154555Y-99223849D01*
X182135613Y-99239394D01*
X182120068Y-99258336D01*
X182078988Y-99319816D01*
X182057990Y-99351242D01*
X181981242Y-99427990D01*
X181935812Y-99458345D01*
X181890995Y-99488291D01*
X181815611Y-99519516D01*
X181794000Y-99531067D01*
X181775059Y-99546612D01*
X181759513Y-99565554D01*
X181747962Y-99587165D01*
X181740849Y-99610614D01*
X181738447Y-99635000D01*
X181521553Y-99635000D01*
X181519151Y-99610614D01*
X181512038Y-99587165D01*
X181500487Y-99565554D01*
X181484942Y-99546613D01*
X181466000Y-99531067D01*
X181444389Y-99519516D01*
X181369005Y-99488291D01*
X181324188Y-99458345D01*
X181278758Y-99427990D01*
X181202010Y-99351242D01*
X181170041Y-99303396D01*
X181141709Y-99260995D01*
X181110484Y-99185611D01*
X181098933Y-99164000D01*
X181083388Y-99145059D01*
X181064446Y-99129513D01*
X181042835Y-99117962D01*
X181019386Y-99110849D01*
X180995000Y-99108447D01*
X180970614Y-99110849D01*
X180947165Y-99117962D01*
X180925554Y-99129513D01*
X180906613Y-99145058D01*
X180891067Y-99164000D01*
X180879516Y-99185611D01*
X180848291Y-99260995D01*
X180819959Y-99303396D01*
X180787990Y-99351242D01*
X180711242Y-99427990D01*
X180665812Y-99458345D01*
X180620995Y-99488291D01*
X180545611Y-99519516D01*
X180524000Y-99531067D01*
X180505059Y-99546612D01*
X180489513Y-99565554D01*
X180477962Y-99587165D01*
X180470849Y-99610614D01*
X180468447Y-99635000D01*
X180251553Y-99635000D01*
X180249151Y-99610614D01*
X180242038Y-99587165D01*
X180230487Y-99565554D01*
X180214942Y-99546613D01*
X180196000Y-99531067D01*
X180174389Y-99519516D01*
X180099005Y-99488291D01*
X180054188Y-99458345D01*
X180008758Y-99427990D01*
X179932010Y-99351242D01*
X179900041Y-99303396D01*
X179871709Y-99260995D01*
X179830174Y-99160721D01*
X179809000Y-99054270D01*
X179809000Y-98945730D01*
X179830174Y-98839279D01*
X179871709Y-98739005D01*
X179932009Y-98648760D01*
X179932010Y-98648758D01*
X180008758Y-98572010D01*
X180099004Y-98511710D01*
X180099005Y-98511709D01*
X180199279Y-98470174D01*
X180305730Y-98449000D01*
X180414270Y-98449000D01*
X180520721Y-98470174D01*
G37*
G36*
X165533015Y-99686973D02*
G01*
X165636879Y-99718479D01*
X165646895Y-99723833D01*
X165732600Y-99769643D01*
X165816501Y-99838499D01*
X165885357Y-99922400D01*
X165921995Y-99990945D01*
X165936521Y-100018121D01*
X165968027Y-100121985D01*
X165978666Y-100230000D01*
X165968027Y-100338015D01*
X165936521Y-100441879D01*
X165936519Y-100441882D01*
X165885357Y-100537600D01*
X165816501Y-100621501D01*
X165732600Y-100690357D01*
X165678322Y-100719369D01*
X165636879Y-100741521D01*
X165533015Y-100773027D01*
X165452067Y-100781000D01*
X164797933Y-100781000D01*
X164716985Y-100773027D01*
X164613121Y-100741521D01*
X164571678Y-100719369D01*
X164517400Y-100690357D01*
X164433499Y-100621501D01*
X164364643Y-100537600D01*
X164313481Y-100441882D01*
X164313479Y-100441879D01*
X164281973Y-100338015D01*
X164271334Y-100230000D01*
X164281973Y-100121985D01*
X164313479Y-100018121D01*
X164328005Y-99990945D01*
X164364643Y-99922400D01*
X164433499Y-99838499D01*
X164517400Y-99769643D01*
X164603105Y-99723833D01*
X164613121Y-99718479D01*
X164716985Y-99686973D01*
X164797933Y-99679000D01*
X165452067Y-99679000D01*
X165533015Y-99686973D01*
G37*
G36*
X169963015Y-99686973D02*
G01*
X170066879Y-99718479D01*
X170076895Y-99723833D01*
X170162600Y-99769643D01*
X170246501Y-99838499D01*
X170315357Y-99922400D01*
X170351995Y-99990945D01*
X170366521Y-100018121D01*
X170398027Y-100121985D01*
X170408666Y-100230000D01*
X170398027Y-100338015D01*
X170366521Y-100441879D01*
X170366519Y-100441882D01*
X170315357Y-100537600D01*
X170246501Y-100621501D01*
X170162600Y-100690357D01*
X170108322Y-100719369D01*
X170066879Y-100741521D01*
X169963015Y-100773027D01*
X169882067Y-100781000D01*
X168727933Y-100781000D01*
X168646985Y-100773027D01*
X168543121Y-100741521D01*
X168501678Y-100719369D01*
X168447400Y-100690357D01*
X168363499Y-100621501D01*
X168294643Y-100537600D01*
X168243481Y-100441882D01*
X168243479Y-100441879D01*
X168211973Y-100338015D01*
X168201334Y-100230000D01*
X168211973Y-100121985D01*
X168243479Y-100018121D01*
X168258005Y-99990945D01*
X168294643Y-99922400D01*
X168363499Y-99838499D01*
X168447400Y-99769643D01*
X168533105Y-99723833D01*
X168543121Y-99718479D01*
X168646985Y-99686973D01*
X168727933Y-99679000D01*
X169882067Y-99679000D01*
X169963015Y-99686973D01*
G37*
G36*
X210329434Y-98978686D02*
G01*
X210369284Y-98990774D01*
X210405999Y-99010399D01*
X210438186Y-99036814D01*
X210464601Y-99069001D01*
X210484226Y-99105716D01*
X210496314Y-99145566D01*
X210501000Y-99193141D01*
X210501000Y-99856859D01*
X210496314Y-99904434D01*
X210484226Y-99944284D01*
X210464601Y-99980999D01*
X210438186Y-100013186D01*
X210405999Y-100039601D01*
X210369284Y-100059226D01*
X210329434Y-100071314D01*
X210281859Y-100076000D01*
X207818141Y-100076000D01*
X207770566Y-100071314D01*
X207730716Y-100059226D01*
X207694001Y-100039601D01*
X207661814Y-100013186D01*
X207635399Y-99980999D01*
X207615774Y-99944284D01*
X207603686Y-99904434D01*
X207599000Y-99856859D01*
X207599000Y-99193141D01*
X207603686Y-99145566D01*
X207615774Y-99105716D01*
X207635399Y-99069001D01*
X207661814Y-99036814D01*
X207694001Y-99010399D01*
X207730716Y-98990774D01*
X207770566Y-98978686D01*
X207818141Y-98974000D01*
X210281859Y-98974000D01*
X210329434Y-98978686D01*
G37*
G36*
X190245295Y-97950323D02*
G01*
X190252309Y-97952451D01*
X190266077Y-97959810D01*
X190288716Y-97969187D01*
X190312749Y-97973967D01*
X190337253Y-97973967D01*
X190361286Y-97969186D01*
X190383923Y-97959810D01*
X190397691Y-97952451D01*
X190404705Y-97950323D01*
X190418140Y-97949000D01*
X190731860Y-97949000D01*
X190745295Y-97950323D01*
X190752309Y-97952451D01*
X190766077Y-97959810D01*
X190788716Y-97969187D01*
X190812749Y-97973967D01*
X190837253Y-97973967D01*
X190861286Y-97969186D01*
X190883923Y-97959810D01*
X190897691Y-97952451D01*
X190904705Y-97950323D01*
X190918140Y-97949000D01*
X191231860Y-97949000D01*
X191245295Y-97950323D01*
X191252309Y-97952451D01*
X191266077Y-97959810D01*
X191288716Y-97969187D01*
X191312749Y-97973967D01*
X191337253Y-97973967D01*
X191361286Y-97969186D01*
X191383923Y-97959810D01*
X191397691Y-97952451D01*
X191404705Y-97950323D01*
X191418140Y-97949000D01*
X191731860Y-97949000D01*
X191745295Y-97950323D01*
X191752309Y-97952451D01*
X191766077Y-97959810D01*
X191788716Y-97969187D01*
X191812749Y-97973967D01*
X191837253Y-97973967D01*
X191861286Y-97969186D01*
X191883923Y-97959810D01*
X191897691Y-97952451D01*
X191904705Y-97950323D01*
X191918140Y-97949000D01*
X192231860Y-97949000D01*
X192245295Y-97950323D01*
X192252309Y-97952451D01*
X192266077Y-97959810D01*
X192288716Y-97969187D01*
X192312749Y-97973967D01*
X192337253Y-97973967D01*
X192361286Y-97969186D01*
X192383923Y-97959810D01*
X192397691Y-97952451D01*
X192404705Y-97950323D01*
X192418140Y-97949000D01*
X192731860Y-97949000D01*
X192745295Y-97950323D01*
X192752309Y-97952451D01*
X192766077Y-97959810D01*
X192788716Y-97969187D01*
X192812749Y-97973967D01*
X192837253Y-97973967D01*
X192861286Y-97969186D01*
X192883923Y-97959810D01*
X192897691Y-97952451D01*
X192904705Y-97950323D01*
X192918140Y-97949000D01*
X193231860Y-97949000D01*
X193245295Y-97950323D01*
X193252309Y-97952451D01*
X193266077Y-97959810D01*
X193288716Y-97969187D01*
X193312749Y-97973967D01*
X193337253Y-97973967D01*
X193361286Y-97969186D01*
X193383923Y-97959810D01*
X193397691Y-97952451D01*
X193404705Y-97950323D01*
X193418140Y-97949000D01*
X193731860Y-97949000D01*
X193745295Y-97950323D01*
X193752309Y-97952451D01*
X193766077Y-97959810D01*
X193788716Y-97969187D01*
X193812749Y-97973967D01*
X193837253Y-97973967D01*
X193861286Y-97969186D01*
X193883923Y-97959810D01*
X193897691Y-97952451D01*
X193904705Y-97950323D01*
X193918140Y-97949000D01*
X194231860Y-97949000D01*
X194245295Y-97950323D01*
X194252309Y-97952451D01*
X194266077Y-97959810D01*
X194288716Y-97969187D01*
X194312749Y-97973967D01*
X194337253Y-97973967D01*
X194361286Y-97969186D01*
X194383923Y-97959810D01*
X194397691Y-97952451D01*
X194404705Y-97950323D01*
X194418140Y-97949000D01*
X194731860Y-97949000D01*
X194745295Y-97950323D01*
X194752309Y-97952451D01*
X194766077Y-97959810D01*
X194788716Y-97969187D01*
X194812749Y-97973967D01*
X194837253Y-97973967D01*
X194861286Y-97969186D01*
X194883923Y-97959810D01*
X194897691Y-97952451D01*
X194904705Y-97950323D01*
X194918140Y-97949000D01*
X195231860Y-97949000D01*
X195245295Y-97950323D01*
X195252309Y-97952451D01*
X195266077Y-97959810D01*
X195288716Y-97969187D01*
X195312749Y-97973967D01*
X195337253Y-97973967D01*
X195361286Y-97969186D01*
X195383923Y-97959810D01*
X195397691Y-97952451D01*
X195404705Y-97950323D01*
X195418140Y-97949000D01*
X195731860Y-97949000D01*
X195745295Y-97950323D01*
X195752309Y-97952451D01*
X195766077Y-97959810D01*
X195788716Y-97969187D01*
X195812749Y-97973967D01*
X195837253Y-97973967D01*
X195861286Y-97969186D01*
X195883923Y-97959810D01*
X195897691Y-97952451D01*
X195904705Y-97950323D01*
X195918140Y-97949000D01*
X196231860Y-97949000D01*
X196245295Y-97950323D01*
X196252309Y-97952451D01*
X196266077Y-97959810D01*
X196288716Y-97969187D01*
X196312749Y-97973967D01*
X196337253Y-97973967D01*
X196361286Y-97969186D01*
X196383923Y-97959810D01*
X196397691Y-97952451D01*
X196404705Y-97950323D01*
X196418140Y-97949000D01*
X196731860Y-97949000D01*
X196745295Y-97950323D01*
X196752309Y-97952451D01*
X196766077Y-97959810D01*
X196788716Y-97969187D01*
X196812749Y-97973967D01*
X196837253Y-97973967D01*
X196861286Y-97969186D01*
X196883923Y-97959810D01*
X196897691Y-97952451D01*
X196904705Y-97950323D01*
X196918140Y-97949000D01*
X197231860Y-97949000D01*
X197245295Y-97950323D01*
X197252309Y-97952451D01*
X197266077Y-97959810D01*
X197288716Y-97969187D01*
X197312749Y-97973967D01*
X197337253Y-97973967D01*
X197361286Y-97969186D01*
X197383923Y-97959810D01*
X197397691Y-97952451D01*
X197404705Y-97950323D01*
X197418140Y-97949000D01*
X197731860Y-97949000D01*
X197745295Y-97950323D01*
X197752310Y-97952451D01*
X197758776Y-97955908D01*
X197764442Y-97960558D01*
X197769092Y-97966224D01*
X197772549Y-97972690D01*
X197774677Y-97979705D01*
X197776000Y-97993140D01*
X197776000Y-99556860D01*
X197774677Y-99570295D01*
X197772549Y-99577310D01*
X197769092Y-99583776D01*
X197764442Y-99589442D01*
X197758776Y-99594092D01*
X197752310Y-99597549D01*
X197745295Y-99599677D01*
X197731860Y-99601000D01*
X197418140Y-99601000D01*
X197404705Y-99599677D01*
X197397691Y-99597549D01*
X197383923Y-99590190D01*
X197361284Y-99580813D01*
X197337251Y-99576033D01*
X197312747Y-99576033D01*
X197288714Y-99580814D01*
X197266077Y-99590190D01*
X197252309Y-99597549D01*
X197245295Y-99599677D01*
X197231860Y-99601000D01*
X196918140Y-99601000D01*
X196904705Y-99599677D01*
X196897691Y-99597549D01*
X196883923Y-99590190D01*
X196861284Y-99580813D01*
X196837251Y-99576033D01*
X196812747Y-99576033D01*
X196788714Y-99580814D01*
X196766077Y-99590190D01*
X196752309Y-99597549D01*
X196745295Y-99599677D01*
X196731860Y-99601000D01*
X196418140Y-99601000D01*
X196404705Y-99599677D01*
X196397691Y-99597549D01*
X196383923Y-99590190D01*
X196361284Y-99580813D01*
X196337251Y-99576033D01*
X196312747Y-99576033D01*
X196288714Y-99580814D01*
X196266077Y-99590190D01*
X196252309Y-99597549D01*
X196245295Y-99599677D01*
X196231860Y-99601000D01*
X195918140Y-99601000D01*
X195904705Y-99599677D01*
X195897691Y-99597549D01*
X195883923Y-99590190D01*
X195861284Y-99580813D01*
X195837251Y-99576033D01*
X195812747Y-99576033D01*
X195788714Y-99580814D01*
X195766077Y-99590190D01*
X195752309Y-99597549D01*
X195745295Y-99599677D01*
X195731860Y-99601000D01*
X195418140Y-99601000D01*
X195404705Y-99599677D01*
X195397691Y-99597549D01*
X195383923Y-99590190D01*
X195361284Y-99580813D01*
X195337251Y-99576033D01*
X195312747Y-99576033D01*
X195288714Y-99580814D01*
X195266077Y-99590190D01*
X195252309Y-99597549D01*
X195245295Y-99599677D01*
X195231860Y-99601000D01*
X194918140Y-99601000D01*
X194904705Y-99599677D01*
X194897691Y-99597549D01*
X194883923Y-99590190D01*
X194861284Y-99580813D01*
X194837251Y-99576033D01*
X194812747Y-99576033D01*
X194788714Y-99580814D01*
X194766077Y-99590190D01*
X194752309Y-99597549D01*
X194745295Y-99599677D01*
X194731860Y-99601000D01*
X194418140Y-99601000D01*
X194404705Y-99599677D01*
X194397691Y-99597549D01*
X194383923Y-99590190D01*
X194361284Y-99580813D01*
X194337251Y-99576033D01*
X194312747Y-99576033D01*
X194288714Y-99580814D01*
X194266077Y-99590190D01*
X194252309Y-99597549D01*
X194245295Y-99599677D01*
X194231860Y-99601000D01*
X193918140Y-99601000D01*
X193904705Y-99599677D01*
X193897691Y-99597549D01*
X193883923Y-99590190D01*
X193861284Y-99580813D01*
X193837251Y-99576033D01*
X193812747Y-99576033D01*
X193788714Y-99580814D01*
X193766077Y-99590190D01*
X193752309Y-99597549D01*
X193745295Y-99599677D01*
X193731860Y-99601000D01*
X193418140Y-99601000D01*
X193404705Y-99599677D01*
X193397691Y-99597549D01*
X193383923Y-99590190D01*
X193361284Y-99580813D01*
X193337251Y-99576033D01*
X193312747Y-99576033D01*
X193288714Y-99580814D01*
X193266077Y-99590190D01*
X193252309Y-99597549D01*
X193245295Y-99599677D01*
X193231860Y-99601000D01*
X192918140Y-99601000D01*
X192904705Y-99599677D01*
X192897691Y-99597549D01*
X192883923Y-99590190D01*
X192861284Y-99580813D01*
X192837251Y-99576033D01*
X192812747Y-99576033D01*
X192788714Y-99580814D01*
X192766077Y-99590190D01*
X192752309Y-99597549D01*
X192745295Y-99599677D01*
X192731860Y-99601000D01*
X192418140Y-99601000D01*
X192404705Y-99599677D01*
X192397691Y-99597549D01*
X192383923Y-99590190D01*
X192361284Y-99580813D01*
X192337251Y-99576033D01*
X192312747Y-99576033D01*
X192288714Y-99580814D01*
X192266077Y-99590190D01*
X192252309Y-99597549D01*
X192245295Y-99599677D01*
X192231860Y-99601000D01*
X191918140Y-99601000D01*
X191904705Y-99599677D01*
X191897691Y-99597549D01*
X191883923Y-99590190D01*
X191861284Y-99580813D01*
X191837251Y-99576033D01*
X191812747Y-99576033D01*
X191788714Y-99580814D01*
X191766077Y-99590190D01*
X191752309Y-99597549D01*
X191745295Y-99599677D01*
X191731860Y-99601000D01*
X191418140Y-99601000D01*
X191404705Y-99599677D01*
X191397691Y-99597549D01*
X191383923Y-99590190D01*
X191361284Y-99580813D01*
X191337251Y-99576033D01*
X191312747Y-99576033D01*
X191288714Y-99580814D01*
X191266077Y-99590190D01*
X191252309Y-99597549D01*
X191245295Y-99599677D01*
X191231860Y-99601000D01*
X190918140Y-99601000D01*
X190904705Y-99599677D01*
X190897691Y-99597549D01*
X190883923Y-99590190D01*
X190861284Y-99580813D01*
X190837251Y-99576033D01*
X190812747Y-99576033D01*
X190788714Y-99580814D01*
X190766077Y-99590190D01*
X190752309Y-99597549D01*
X190745295Y-99599677D01*
X190731860Y-99601000D01*
X190418140Y-99601000D01*
X190404705Y-99599677D01*
X190397691Y-99597549D01*
X190383923Y-99590190D01*
X190361284Y-99580813D01*
X190337251Y-99576033D01*
X190312747Y-99576033D01*
X190288714Y-99580814D01*
X190266077Y-99590190D01*
X190252309Y-99597549D01*
X190245295Y-99599677D01*
X190231860Y-99601000D01*
X189918140Y-99601000D01*
X189904705Y-99599677D01*
X189897690Y-99597549D01*
X189891224Y-99594092D01*
X189885558Y-99589442D01*
X189880908Y-99583776D01*
X189877451Y-99577310D01*
X189875323Y-99570295D01*
X189874000Y-99556860D01*
X189874000Y-97993140D01*
X189875323Y-97979705D01*
X189877451Y-97972690D01*
X189880908Y-97966224D01*
X189885558Y-97960558D01*
X189891224Y-97955908D01*
X189897690Y-97952451D01*
X189904705Y-97950323D01*
X189918140Y-97949000D01*
X190231860Y-97949000D01*
X190245295Y-97950323D01*
G37*
G36*
X202855797Y-96460567D02*
G01*
X202910575Y-96483257D01*
X202910577Y-96483258D01*
X202959876Y-96516198D01*
X203001802Y-96558124D01*
X203034742Y-96607423D01*
X203039067Y-96613896D01*
X203054612Y-96632838D01*
X203073554Y-96648383D01*
X203095165Y-96659934D01*
X203118614Y-96667047D01*
X203143000Y-96669449D01*
X203167386Y-96667047D01*
X203190835Y-96659934D01*
X203212446Y-96648383D01*
X203231388Y-96632838D01*
X203246933Y-96613896D01*
X203251258Y-96607423D01*
X203284198Y-96558124D01*
X203326124Y-96516198D01*
X203375423Y-96483258D01*
X203375425Y-96483257D01*
X203430203Y-96460567D01*
X203488353Y-96449000D01*
X203547647Y-96449000D01*
X203605797Y-96460567D01*
X203660575Y-96483257D01*
X203660577Y-96483258D01*
X203709876Y-96516198D01*
X203751802Y-96558124D01*
X203784742Y-96607423D01*
X203789067Y-96613896D01*
X203804612Y-96632838D01*
X203823554Y-96648383D01*
X203845165Y-96659934D01*
X203868614Y-96667047D01*
X203893000Y-96669449D01*
X203917386Y-96667047D01*
X203940835Y-96659934D01*
X203962446Y-96648383D01*
X203981388Y-96632838D01*
X203996933Y-96613896D01*
X204001258Y-96607423D01*
X204034198Y-96558124D01*
X204076124Y-96516198D01*
X204125423Y-96483258D01*
X204125425Y-96483257D01*
X204180203Y-96460567D01*
X204238353Y-96449000D01*
X204297647Y-96449000D01*
X204355797Y-96460567D01*
X204410575Y-96483257D01*
X204410577Y-96483258D01*
X204459876Y-96516198D01*
X204501802Y-96558124D01*
X204523812Y-96591065D01*
X204534743Y-96607424D01*
X204539516Y-96618948D01*
X204551067Y-96640558D01*
X204566612Y-96659500D01*
X204585554Y-96675046D01*
X204607165Y-96686597D01*
X204630614Y-96693710D01*
X204655000Y-96696112D01*
X204679386Y-96693710D01*
X204702835Y-96686597D01*
X204724445Y-96675046D01*
X204743387Y-96659501D01*
X204758933Y-96640559D01*
X204770484Y-96618948D01*
X204775257Y-96607424D01*
X204786188Y-96591065D01*
X204808198Y-96558124D01*
X204850124Y-96516198D01*
X204899423Y-96483258D01*
X204899425Y-96483257D01*
X204954203Y-96460567D01*
X205012353Y-96449000D01*
X205071647Y-96449000D01*
X205129797Y-96460567D01*
X205184575Y-96483257D01*
X205184577Y-96483258D01*
X205233876Y-96516198D01*
X205275802Y-96558124D01*
X205308742Y-96607423D01*
X205310524Y-96610090D01*
X205319069Y-96626075D01*
X205334614Y-96645017D01*
X205353557Y-96660561D01*
X205375168Y-96672112D01*
X205398617Y-96679225D01*
X205423003Y-96681626D01*
X205447389Y-96679224D01*
X205470838Y-96672110D01*
X205492448Y-96660558D01*
X205511390Y-96645013D01*
X205526934Y-96626070D01*
X205535476Y-96610090D01*
X205537258Y-96607423D01*
X205570198Y-96558124D01*
X205612124Y-96516198D01*
X205661423Y-96483258D01*
X205661425Y-96483257D01*
X205716203Y-96460567D01*
X205774353Y-96449000D01*
X205833647Y-96449000D01*
X205891797Y-96460567D01*
X205946575Y-96483257D01*
X205946577Y-96483258D01*
X205995876Y-96516198D01*
X206037802Y-96558124D01*
X206070742Y-96607423D01*
X206070743Y-96607425D01*
X206093433Y-96662203D01*
X206105000Y-96720353D01*
X206105000Y-96779647D01*
X206093433Y-96837797D01*
X206078468Y-96873925D01*
X206070742Y-96892577D01*
X206037802Y-96941876D01*
X205995876Y-96983802D01*
X205946577Y-97016742D01*
X205946576Y-97016743D01*
X205946575Y-97016743D01*
X205891797Y-97039433D01*
X205833647Y-97051000D01*
X205774353Y-97051000D01*
X205716203Y-97039433D01*
X205661425Y-97016743D01*
X205661424Y-97016743D01*
X205661423Y-97016742D01*
X205612124Y-96983802D01*
X205570198Y-96941876D01*
X205537258Y-96892577D01*
X205535476Y-96889910D01*
X205526931Y-96873925D01*
X205511386Y-96854983D01*
X205492443Y-96839439D01*
X205470832Y-96827888D01*
X205447383Y-96820775D01*
X205422997Y-96818374D01*
X205398611Y-96820776D01*
X205375162Y-96827890D01*
X205353552Y-96839442D01*
X205334610Y-96854987D01*
X205319066Y-96873930D01*
X205310524Y-96889910D01*
X205308742Y-96892577D01*
X205275802Y-96941876D01*
X205233876Y-96983802D01*
X205184577Y-97016742D01*
X205184576Y-97016743D01*
X205184575Y-97016743D01*
X205129797Y-97039433D01*
X205071647Y-97051000D01*
X205012353Y-97051000D01*
X204954203Y-97039433D01*
X204899425Y-97016743D01*
X204899424Y-97016743D01*
X204899423Y-97016742D01*
X204850124Y-96983802D01*
X204808198Y-96941876D01*
X204775258Y-96892577D01*
X204775257Y-96892576D01*
X204770484Y-96881052D01*
X204758933Y-96859442D01*
X204743388Y-96840500D01*
X204724446Y-96824954D01*
X204702835Y-96813403D01*
X204679386Y-96806290D01*
X204655000Y-96803888D01*
X204630614Y-96806290D01*
X204607165Y-96813403D01*
X204585555Y-96824954D01*
X204566613Y-96840499D01*
X204551067Y-96859441D01*
X204539516Y-96881052D01*
X204534743Y-96892576D01*
X204534742Y-96892577D01*
X204501802Y-96941876D01*
X204459876Y-96983802D01*
X204410577Y-97016742D01*
X204410576Y-97016743D01*
X204410575Y-97016743D01*
X204355797Y-97039433D01*
X204297647Y-97051000D01*
X204238353Y-97051000D01*
X204180203Y-97039433D01*
X204125425Y-97016743D01*
X204125424Y-97016743D01*
X204125423Y-97016742D01*
X204076124Y-96983802D01*
X204034198Y-96941876D01*
X204001258Y-96892577D01*
X203996933Y-96886104D01*
X203981388Y-96867162D01*
X203962446Y-96851617D01*
X203940835Y-96840066D01*
X203917386Y-96832953D01*
X203893000Y-96830551D01*
X203868614Y-96832953D01*
X203845165Y-96840066D01*
X203823554Y-96851617D01*
X203804612Y-96867162D01*
X203789067Y-96886104D01*
X203784742Y-96892577D01*
X203751802Y-96941876D01*
X203709876Y-96983802D01*
X203660577Y-97016742D01*
X203660576Y-97016743D01*
X203660575Y-97016743D01*
X203605797Y-97039433D01*
X203547647Y-97051000D01*
X203488353Y-97051000D01*
X203430203Y-97039433D01*
X203375425Y-97016743D01*
X203375424Y-97016743D01*
X203375423Y-97016742D01*
X203326124Y-96983802D01*
X203284198Y-96941876D01*
X203251258Y-96892577D01*
X203246933Y-96886104D01*
X203231388Y-96867162D01*
X203212446Y-96851617D01*
X203190835Y-96840066D01*
X203167386Y-96832953D01*
X203143000Y-96830551D01*
X203118614Y-96832953D01*
X203095165Y-96840066D01*
X203073554Y-96851617D01*
X203054612Y-96867162D01*
X203039067Y-96886104D01*
X203034742Y-96892577D01*
X203001802Y-96941876D01*
X202959876Y-96983802D01*
X202910577Y-97016742D01*
X202910576Y-97016743D01*
X202910575Y-97016743D01*
X202855797Y-97039433D01*
X202797647Y-97051000D01*
X202738353Y-97051000D01*
X202680203Y-97039433D01*
X202625425Y-97016743D01*
X202625424Y-97016743D01*
X202625423Y-97016742D01*
X202576124Y-96983802D01*
X202534198Y-96941876D01*
X202501258Y-96892577D01*
X202493532Y-96873925D01*
X202478567Y-96837797D01*
X202467000Y-96779647D01*
X202467000Y-96720353D01*
X202478567Y-96662203D01*
X202501257Y-96607425D01*
X202501258Y-96607423D01*
X202534198Y-96558124D01*
X202576124Y-96516198D01*
X202625423Y-96483258D01*
X202625425Y-96483257D01*
X202680203Y-96460567D01*
X202738353Y-96449000D01*
X202797647Y-96449000D01*
X202855797Y-96460567D01*
G37*
G36*
X168575797Y-96460567D02*
G01*
X168630575Y-96483257D01*
X168630577Y-96483258D01*
X168679876Y-96516198D01*
X168721802Y-96558124D01*
X168754742Y-96607423D01*
X168759067Y-96613896D01*
X168774612Y-96632838D01*
X168793554Y-96648383D01*
X168815165Y-96659934D01*
X168838614Y-96667047D01*
X168863000Y-96669449D01*
X168887386Y-96667047D01*
X168910835Y-96659934D01*
X168932446Y-96648383D01*
X168951388Y-96632838D01*
X168966933Y-96613896D01*
X168971258Y-96607423D01*
X169004198Y-96558124D01*
X169046124Y-96516198D01*
X169095423Y-96483258D01*
X169095425Y-96483257D01*
X169150203Y-96460567D01*
X169208353Y-96449000D01*
X169267647Y-96449000D01*
X169325797Y-96460567D01*
X169380575Y-96483257D01*
X169380577Y-96483258D01*
X169429876Y-96516198D01*
X169471802Y-96558124D01*
X169504742Y-96607423D01*
X169509067Y-96613896D01*
X169524612Y-96632838D01*
X169543554Y-96648383D01*
X169565165Y-96659934D01*
X169588614Y-96667047D01*
X169613000Y-96669449D01*
X169637386Y-96667047D01*
X169660835Y-96659934D01*
X169682446Y-96648383D01*
X169701388Y-96632838D01*
X169716933Y-96613896D01*
X169721258Y-96607423D01*
X169754198Y-96558124D01*
X169796124Y-96516198D01*
X169845423Y-96483258D01*
X169845425Y-96483257D01*
X169900203Y-96460567D01*
X169958353Y-96449000D01*
X170017647Y-96449000D01*
X170075797Y-96460567D01*
X170130575Y-96483257D01*
X170130577Y-96483258D01*
X170179876Y-96516198D01*
X170221802Y-96558124D01*
X170243812Y-96591065D01*
X170254743Y-96607424D01*
X170259516Y-96618948D01*
X170271067Y-96640558D01*
X170286612Y-96659500D01*
X170305554Y-96675046D01*
X170327165Y-96686597D01*
X170350614Y-96693710D01*
X170375000Y-96696112D01*
X170399386Y-96693710D01*
X170422835Y-96686597D01*
X170444445Y-96675046D01*
X170463387Y-96659501D01*
X170478933Y-96640559D01*
X170490484Y-96618948D01*
X170495257Y-96607424D01*
X170506188Y-96591065D01*
X170528198Y-96558124D01*
X170570124Y-96516198D01*
X170619423Y-96483258D01*
X170619425Y-96483257D01*
X170674203Y-96460567D01*
X170732353Y-96449000D01*
X170791647Y-96449000D01*
X170849797Y-96460567D01*
X170904575Y-96483257D01*
X170904577Y-96483258D01*
X170953876Y-96516198D01*
X170995802Y-96558124D01*
X171028742Y-96607423D01*
X171030524Y-96610090D01*
X171039069Y-96626075D01*
X171054614Y-96645017D01*
X171073557Y-96660561D01*
X171095168Y-96672112D01*
X171118617Y-96679225D01*
X171143003Y-96681626D01*
X171167389Y-96679224D01*
X171190838Y-96672110D01*
X171212448Y-96660558D01*
X171231390Y-96645013D01*
X171246934Y-96626070D01*
X171255476Y-96610090D01*
X171257258Y-96607423D01*
X171290198Y-96558124D01*
X171332124Y-96516198D01*
X171381423Y-96483258D01*
X171381425Y-96483257D01*
X171436203Y-96460567D01*
X171494353Y-96449000D01*
X171553647Y-96449000D01*
X171611797Y-96460567D01*
X171666575Y-96483257D01*
X171666577Y-96483258D01*
X171715876Y-96516198D01*
X171757802Y-96558124D01*
X171790742Y-96607423D01*
X171790743Y-96607425D01*
X171813433Y-96662203D01*
X171825000Y-96720353D01*
X171825000Y-96779647D01*
X171813433Y-96837797D01*
X171798468Y-96873925D01*
X171790742Y-96892577D01*
X171757802Y-96941876D01*
X171715876Y-96983802D01*
X171666577Y-97016742D01*
X171666576Y-97016743D01*
X171666575Y-97016743D01*
X171611797Y-97039433D01*
X171553647Y-97051000D01*
X171494353Y-97051000D01*
X171436203Y-97039433D01*
X171381425Y-97016743D01*
X171381424Y-97016743D01*
X171381423Y-97016742D01*
X171332124Y-96983802D01*
X171290198Y-96941876D01*
X171257258Y-96892577D01*
X171255476Y-96889910D01*
X171246931Y-96873925D01*
X171231386Y-96854983D01*
X171212443Y-96839439D01*
X171190832Y-96827888D01*
X171167383Y-96820775D01*
X171142997Y-96818374D01*
X171118611Y-96820776D01*
X171095162Y-96827890D01*
X171073552Y-96839442D01*
X171054610Y-96854987D01*
X171039066Y-96873930D01*
X171030524Y-96889910D01*
X171028742Y-96892577D01*
X170995802Y-96941876D01*
X170953876Y-96983802D01*
X170904577Y-97016742D01*
X170904576Y-97016743D01*
X170904575Y-97016743D01*
X170849797Y-97039433D01*
X170791647Y-97051000D01*
X170732353Y-97051000D01*
X170674203Y-97039433D01*
X170619425Y-97016743D01*
X170619424Y-97016743D01*
X170619423Y-97016742D01*
X170570124Y-96983802D01*
X170528198Y-96941876D01*
X170495258Y-96892577D01*
X170495257Y-96892576D01*
X170490484Y-96881052D01*
X170478933Y-96859442D01*
X170463388Y-96840500D01*
X170444446Y-96824954D01*
X170422835Y-96813403D01*
X170399386Y-96806290D01*
X170375000Y-96803888D01*
X170350614Y-96806290D01*
X170327165Y-96813403D01*
X170305555Y-96824954D01*
X170286613Y-96840499D01*
X170271067Y-96859441D01*
X170259516Y-96881052D01*
X170254743Y-96892576D01*
X170254742Y-96892577D01*
X170221802Y-96941876D01*
X170179876Y-96983802D01*
X170130577Y-97016742D01*
X170130576Y-97016743D01*
X170130575Y-97016743D01*
X170075797Y-97039433D01*
X170017647Y-97051000D01*
X169958353Y-97051000D01*
X169900203Y-97039433D01*
X169845425Y-97016743D01*
X169845424Y-97016743D01*
X169845423Y-97016742D01*
X169796124Y-96983802D01*
X169754198Y-96941876D01*
X169721258Y-96892577D01*
X169716933Y-96886104D01*
X169701388Y-96867162D01*
X169682446Y-96851617D01*
X169660835Y-96840066D01*
X169637386Y-96832953D01*
X169613000Y-96830551D01*
X169588614Y-96832953D01*
X169565165Y-96840066D01*
X169543554Y-96851617D01*
X169524612Y-96867162D01*
X169509067Y-96886104D01*
X169504742Y-96892577D01*
X169471802Y-96941876D01*
X169429876Y-96983802D01*
X169380577Y-97016742D01*
X169380576Y-97016743D01*
X169380575Y-97016743D01*
X169325797Y-97039433D01*
X169267647Y-97051000D01*
X169208353Y-97051000D01*
X169150203Y-97039433D01*
X169095425Y-97016743D01*
X169095424Y-97016743D01*
X169095423Y-97016742D01*
X169046124Y-96983802D01*
X169004198Y-96941876D01*
X168971258Y-96892577D01*
X168966933Y-96886104D01*
X168951388Y-96867162D01*
X168932446Y-96851617D01*
X168910835Y-96840066D01*
X168887386Y-96832953D01*
X168863000Y-96830551D01*
X168838614Y-96832953D01*
X168815165Y-96840066D01*
X168793554Y-96851617D01*
X168774612Y-96867162D01*
X168759067Y-96886104D01*
X168754742Y-96892577D01*
X168721802Y-96941876D01*
X168679876Y-96983802D01*
X168630577Y-97016742D01*
X168630576Y-97016743D01*
X168630575Y-97016743D01*
X168575797Y-97039433D01*
X168517647Y-97051000D01*
X168458353Y-97051000D01*
X168400203Y-97039433D01*
X168345425Y-97016743D01*
X168345424Y-97016743D01*
X168345423Y-97016742D01*
X168296124Y-96983802D01*
X168254198Y-96941876D01*
X168221258Y-96892577D01*
X168213532Y-96873925D01*
X168198567Y-96837797D01*
X168187000Y-96779647D01*
X168187000Y-96720353D01*
X168198567Y-96662203D01*
X168221257Y-96607425D01*
X168221258Y-96607423D01*
X168254198Y-96558124D01*
X168296124Y-96516198D01*
X168345423Y-96483258D01*
X168345425Y-96483257D01*
X168400203Y-96460567D01*
X168458353Y-96449000D01*
X168517647Y-96449000D01*
X168575797Y-96460567D01*
G37*
G36*
X168575797Y-94960567D02*
G01*
X168630575Y-94983257D01*
X168630577Y-94983258D01*
X168679876Y-95016198D01*
X168721802Y-95058124D01*
X168754742Y-95107423D01*
X168759067Y-95113896D01*
X168774612Y-95132838D01*
X168793554Y-95148383D01*
X168815165Y-95159934D01*
X168838614Y-95167047D01*
X168863000Y-95169449D01*
X168887386Y-95167047D01*
X168910835Y-95159934D01*
X168932446Y-95148383D01*
X168951388Y-95132838D01*
X168966933Y-95113896D01*
X168971258Y-95107423D01*
X169004198Y-95058124D01*
X169046124Y-95016198D01*
X169095423Y-94983258D01*
X169095425Y-94983257D01*
X169150203Y-94960567D01*
X169208353Y-94949000D01*
X169267647Y-94949000D01*
X169325797Y-94960567D01*
X169380575Y-94983257D01*
X169380577Y-94983258D01*
X169429876Y-95016198D01*
X169471802Y-95058124D01*
X169504742Y-95107423D01*
X169509067Y-95113896D01*
X169524612Y-95132838D01*
X169543554Y-95148383D01*
X169565165Y-95159934D01*
X169588614Y-95167047D01*
X169613000Y-95169449D01*
X169637386Y-95167047D01*
X169660835Y-95159934D01*
X169682446Y-95148383D01*
X169701388Y-95132838D01*
X169716933Y-95113896D01*
X169721258Y-95107423D01*
X169754198Y-95058124D01*
X169796124Y-95016198D01*
X169845423Y-94983258D01*
X169845425Y-94983257D01*
X169900203Y-94960567D01*
X169958353Y-94949000D01*
X170017647Y-94949000D01*
X170075797Y-94960567D01*
X170130575Y-94983257D01*
X170130577Y-94983258D01*
X170179876Y-95016198D01*
X170221802Y-95058124D01*
X170243812Y-95091065D01*
X170254743Y-95107424D01*
X170259516Y-95118948D01*
X170271067Y-95140558D01*
X170286612Y-95159500D01*
X170305554Y-95175046D01*
X170327165Y-95186597D01*
X170350614Y-95193710D01*
X170375000Y-95196112D01*
X170399386Y-95193710D01*
X170422835Y-95186597D01*
X170444445Y-95175046D01*
X170463387Y-95159501D01*
X170478933Y-95140559D01*
X170490484Y-95118948D01*
X170495257Y-95107424D01*
X170506188Y-95091065D01*
X170528198Y-95058124D01*
X170570124Y-95016198D01*
X170619423Y-94983258D01*
X170619425Y-94983257D01*
X170674203Y-94960567D01*
X170732353Y-94949000D01*
X170791647Y-94949000D01*
X170849797Y-94960567D01*
X170904575Y-94983257D01*
X170904577Y-94983258D01*
X170953876Y-95016198D01*
X170995802Y-95058124D01*
X171028742Y-95107423D01*
X171030524Y-95110090D01*
X171039069Y-95126075D01*
X171054614Y-95145017D01*
X171073557Y-95160561D01*
X171095168Y-95172112D01*
X171118617Y-95179225D01*
X171143003Y-95181626D01*
X171167389Y-95179224D01*
X171190838Y-95172110D01*
X171212448Y-95160558D01*
X171231390Y-95145013D01*
X171246934Y-95126070D01*
X171255476Y-95110090D01*
X171257258Y-95107423D01*
X171290198Y-95058124D01*
X171332124Y-95016198D01*
X171381423Y-94983258D01*
X171381425Y-94983257D01*
X171436203Y-94960567D01*
X171494353Y-94949000D01*
X171553647Y-94949000D01*
X171611797Y-94960567D01*
X171666575Y-94983257D01*
X171666577Y-94983258D01*
X171715876Y-95016198D01*
X171757802Y-95058124D01*
X171790742Y-95107423D01*
X171790743Y-95107425D01*
X171813433Y-95162203D01*
X171825000Y-95220353D01*
X171825000Y-95279647D01*
X171813433Y-95337797D01*
X171798468Y-95373925D01*
X171790742Y-95392577D01*
X171757802Y-95441876D01*
X171715876Y-95483802D01*
X171666577Y-95516742D01*
X171666576Y-95516743D01*
X171666575Y-95516743D01*
X171611797Y-95539433D01*
X171553647Y-95551000D01*
X171494353Y-95551000D01*
X171436203Y-95539433D01*
X171381425Y-95516743D01*
X171381424Y-95516743D01*
X171381423Y-95516742D01*
X171332124Y-95483802D01*
X171290198Y-95441876D01*
X171257258Y-95392577D01*
X171255476Y-95389910D01*
X171246931Y-95373925D01*
X171231386Y-95354983D01*
X171212443Y-95339439D01*
X171190832Y-95327888D01*
X171167383Y-95320775D01*
X171142997Y-95318374D01*
X171118611Y-95320776D01*
X171095162Y-95327890D01*
X171073552Y-95339442D01*
X171054610Y-95354987D01*
X171039066Y-95373930D01*
X171030524Y-95389910D01*
X171028742Y-95392577D01*
X170995802Y-95441876D01*
X170953876Y-95483802D01*
X170904577Y-95516742D01*
X170904576Y-95516743D01*
X170904575Y-95516743D01*
X170849797Y-95539433D01*
X170791647Y-95551000D01*
X170732353Y-95551000D01*
X170674203Y-95539433D01*
X170619425Y-95516743D01*
X170619424Y-95516743D01*
X170619423Y-95516742D01*
X170570124Y-95483802D01*
X170528198Y-95441876D01*
X170495258Y-95392577D01*
X170495257Y-95392576D01*
X170490484Y-95381052D01*
X170478933Y-95359442D01*
X170463388Y-95340500D01*
X170444446Y-95324954D01*
X170422835Y-95313403D01*
X170399386Y-95306290D01*
X170375000Y-95303888D01*
X170350614Y-95306290D01*
X170327165Y-95313403D01*
X170305555Y-95324954D01*
X170286613Y-95340499D01*
X170271067Y-95359441D01*
X170259516Y-95381052D01*
X170254743Y-95392576D01*
X170254742Y-95392577D01*
X170221802Y-95441876D01*
X170179876Y-95483802D01*
X170130577Y-95516742D01*
X170130576Y-95516743D01*
X170130575Y-95516743D01*
X170075797Y-95539433D01*
X170017647Y-95551000D01*
X169958353Y-95551000D01*
X169900203Y-95539433D01*
X169845425Y-95516743D01*
X169845424Y-95516743D01*
X169845423Y-95516742D01*
X169796124Y-95483802D01*
X169754198Y-95441876D01*
X169721258Y-95392577D01*
X169716933Y-95386104D01*
X169701388Y-95367162D01*
X169682446Y-95351617D01*
X169660835Y-95340066D01*
X169637386Y-95332953D01*
X169613000Y-95330551D01*
X169588614Y-95332953D01*
X169565165Y-95340066D01*
X169543554Y-95351617D01*
X169524612Y-95367162D01*
X169509067Y-95386104D01*
X169504742Y-95392577D01*
X169471802Y-95441876D01*
X169429876Y-95483802D01*
X169380577Y-95516742D01*
X169380576Y-95516743D01*
X169380575Y-95516743D01*
X169325797Y-95539433D01*
X169267647Y-95551000D01*
X169208353Y-95551000D01*
X169150203Y-95539433D01*
X169095425Y-95516743D01*
X169095424Y-95516743D01*
X169095423Y-95516742D01*
X169046124Y-95483802D01*
X169004198Y-95441876D01*
X168971258Y-95392577D01*
X168966933Y-95386104D01*
X168951388Y-95367162D01*
X168932446Y-95351617D01*
X168910835Y-95340066D01*
X168887386Y-95332953D01*
X168863000Y-95330551D01*
X168838614Y-95332953D01*
X168815165Y-95340066D01*
X168793554Y-95351617D01*
X168774612Y-95367162D01*
X168759067Y-95386104D01*
X168754742Y-95392577D01*
X168721802Y-95441876D01*
X168679876Y-95483802D01*
X168630577Y-95516742D01*
X168630576Y-95516743D01*
X168630575Y-95516743D01*
X168575797Y-95539433D01*
X168517647Y-95551000D01*
X168458353Y-95551000D01*
X168400203Y-95539433D01*
X168345425Y-95516743D01*
X168345424Y-95516743D01*
X168345423Y-95516742D01*
X168296124Y-95483802D01*
X168254198Y-95441876D01*
X168221258Y-95392577D01*
X168213532Y-95373925D01*
X168198567Y-95337797D01*
X168187000Y-95279647D01*
X168187000Y-95220353D01*
X168198567Y-95162203D01*
X168221257Y-95107425D01*
X168221258Y-95107423D01*
X168254198Y-95058124D01*
X168296124Y-95016198D01*
X168345423Y-94983258D01*
X168345425Y-94983257D01*
X168400203Y-94960567D01*
X168458353Y-94949000D01*
X168517647Y-94949000D01*
X168575797Y-94960567D01*
G37*
G36*
X202855797Y-94960567D02*
G01*
X202910575Y-94983257D01*
X202910577Y-94983258D01*
X202959876Y-95016198D01*
X203001802Y-95058124D01*
X203034742Y-95107423D01*
X203039067Y-95113896D01*
X203054612Y-95132838D01*
X203073554Y-95148383D01*
X203095165Y-95159934D01*
X203118614Y-95167047D01*
X203143000Y-95169449D01*
X203167386Y-95167047D01*
X203190835Y-95159934D01*
X203212446Y-95148383D01*
X203231388Y-95132838D01*
X203246933Y-95113896D01*
X203251258Y-95107423D01*
X203284198Y-95058124D01*
X203326124Y-95016198D01*
X203375423Y-94983258D01*
X203375425Y-94983257D01*
X203430203Y-94960567D01*
X203488353Y-94949000D01*
X203547647Y-94949000D01*
X203605797Y-94960567D01*
X203660575Y-94983257D01*
X203660577Y-94983258D01*
X203709876Y-95016198D01*
X203751802Y-95058124D01*
X203784742Y-95107423D01*
X203789067Y-95113896D01*
X203804612Y-95132838D01*
X203823554Y-95148383D01*
X203845165Y-95159934D01*
X203868614Y-95167047D01*
X203893000Y-95169449D01*
X203917386Y-95167047D01*
X203940835Y-95159934D01*
X203962446Y-95148383D01*
X203981388Y-95132838D01*
X203996933Y-95113896D01*
X204001258Y-95107423D01*
X204034198Y-95058124D01*
X204076124Y-95016198D01*
X204125423Y-94983258D01*
X204125425Y-94983257D01*
X204180203Y-94960567D01*
X204238353Y-94949000D01*
X204297647Y-94949000D01*
X204355797Y-94960567D01*
X204410575Y-94983257D01*
X204410577Y-94983258D01*
X204459876Y-95016198D01*
X204501802Y-95058124D01*
X204523812Y-95091065D01*
X204534743Y-95107424D01*
X204539516Y-95118948D01*
X204551067Y-95140558D01*
X204566612Y-95159500D01*
X204585554Y-95175046D01*
X204607165Y-95186597D01*
X204630614Y-95193710D01*
X204655000Y-95196112D01*
X204679386Y-95193710D01*
X204702835Y-95186597D01*
X204724445Y-95175046D01*
X204743387Y-95159501D01*
X204758933Y-95140559D01*
X204770484Y-95118948D01*
X204775257Y-95107424D01*
X204786188Y-95091065D01*
X204808198Y-95058124D01*
X204850124Y-95016198D01*
X204899423Y-94983258D01*
X204899425Y-94983257D01*
X204954203Y-94960567D01*
X205012353Y-94949000D01*
X205071647Y-94949000D01*
X205129797Y-94960567D01*
X205184575Y-94983257D01*
X205184577Y-94983258D01*
X205233876Y-95016198D01*
X205275802Y-95058124D01*
X205308742Y-95107423D01*
X205310524Y-95110090D01*
X205319069Y-95126075D01*
X205334614Y-95145017D01*
X205353557Y-95160561D01*
X205375168Y-95172112D01*
X205398617Y-95179225D01*
X205423003Y-95181626D01*
X205447389Y-95179224D01*
X205470838Y-95172110D01*
X205492448Y-95160558D01*
X205511390Y-95145013D01*
X205526934Y-95126070D01*
X205535476Y-95110090D01*
X205537258Y-95107423D01*
X205570198Y-95058124D01*
X205612124Y-95016198D01*
X205661423Y-94983258D01*
X205661425Y-94983257D01*
X205716203Y-94960567D01*
X205774353Y-94949000D01*
X205833647Y-94949000D01*
X205891797Y-94960567D01*
X205946575Y-94983257D01*
X205946577Y-94983258D01*
X205995876Y-95016198D01*
X206037802Y-95058124D01*
X206070742Y-95107423D01*
X206070743Y-95107425D01*
X206093433Y-95162203D01*
X206105000Y-95220353D01*
X206105000Y-95279647D01*
X206093433Y-95337797D01*
X206078468Y-95373925D01*
X206070742Y-95392577D01*
X206037802Y-95441876D01*
X205995876Y-95483802D01*
X205946577Y-95516742D01*
X205946576Y-95516743D01*
X205946575Y-95516743D01*
X205891797Y-95539433D01*
X205833647Y-95551000D01*
X205774353Y-95551000D01*
X205716203Y-95539433D01*
X205661425Y-95516743D01*
X205661424Y-95516743D01*
X205661423Y-95516742D01*
X205612124Y-95483802D01*
X205570198Y-95441876D01*
X205537258Y-95392577D01*
X205535476Y-95389910D01*
X205526931Y-95373925D01*
X205511386Y-95354983D01*
X205492443Y-95339439D01*
X205470832Y-95327888D01*
X205447383Y-95320775D01*
X205422997Y-95318374D01*
X205398611Y-95320776D01*
X205375162Y-95327890D01*
X205353552Y-95339442D01*
X205334610Y-95354987D01*
X205319066Y-95373930D01*
X205310524Y-95389910D01*
X205308742Y-95392577D01*
X205275802Y-95441876D01*
X205233876Y-95483802D01*
X205184577Y-95516742D01*
X205184576Y-95516743D01*
X205184575Y-95516743D01*
X205129797Y-95539433D01*
X205071647Y-95551000D01*
X205012353Y-95551000D01*
X204954203Y-95539433D01*
X204899425Y-95516743D01*
X204899424Y-95516743D01*
X204899423Y-95516742D01*
X204850124Y-95483802D01*
X204808198Y-95441876D01*
X204775258Y-95392577D01*
X204775257Y-95392576D01*
X204770484Y-95381052D01*
X204758933Y-95359442D01*
X204743388Y-95340500D01*
X204724446Y-95324954D01*
X204702835Y-95313403D01*
X204679386Y-95306290D01*
X204655000Y-95303888D01*
X204630614Y-95306290D01*
X204607165Y-95313403D01*
X204585555Y-95324954D01*
X204566613Y-95340499D01*
X204551067Y-95359441D01*
X204539516Y-95381052D01*
X204534743Y-95392576D01*
X204534742Y-95392577D01*
X204501802Y-95441876D01*
X204459876Y-95483802D01*
X204410577Y-95516742D01*
X204410576Y-95516743D01*
X204410575Y-95516743D01*
X204355797Y-95539433D01*
X204297647Y-95551000D01*
X204238353Y-95551000D01*
X204180203Y-95539433D01*
X204125425Y-95516743D01*
X204125424Y-95516743D01*
X204125423Y-95516742D01*
X204076124Y-95483802D01*
X204034198Y-95441876D01*
X204001258Y-95392577D01*
X203996933Y-95386104D01*
X203981388Y-95367162D01*
X203962446Y-95351617D01*
X203940835Y-95340066D01*
X203917386Y-95332953D01*
X203893000Y-95330551D01*
X203868614Y-95332953D01*
X203845165Y-95340066D01*
X203823554Y-95351617D01*
X203804612Y-95367162D01*
X203789067Y-95386104D01*
X203784742Y-95392577D01*
X203751802Y-95441876D01*
X203709876Y-95483802D01*
X203660577Y-95516742D01*
X203660576Y-95516743D01*
X203660575Y-95516743D01*
X203605797Y-95539433D01*
X203547647Y-95551000D01*
X203488353Y-95551000D01*
X203430203Y-95539433D01*
X203375425Y-95516743D01*
X203375424Y-95516743D01*
X203375423Y-95516742D01*
X203326124Y-95483802D01*
X203284198Y-95441876D01*
X203251258Y-95392577D01*
X203246933Y-95386104D01*
X203231388Y-95367162D01*
X203212446Y-95351617D01*
X203190835Y-95340066D01*
X203167386Y-95332953D01*
X203143000Y-95330551D01*
X203118614Y-95332953D01*
X203095165Y-95340066D01*
X203073554Y-95351617D01*
X203054612Y-95367162D01*
X203039067Y-95386104D01*
X203034742Y-95392577D01*
X203001802Y-95441876D01*
X202959876Y-95483802D01*
X202910577Y-95516742D01*
X202910576Y-95516743D01*
X202910575Y-95516743D01*
X202855797Y-95539433D01*
X202797647Y-95551000D01*
X202738353Y-95551000D01*
X202680203Y-95539433D01*
X202625425Y-95516743D01*
X202625424Y-95516743D01*
X202625423Y-95516742D01*
X202576124Y-95483802D01*
X202534198Y-95441876D01*
X202501258Y-95392577D01*
X202493532Y-95373925D01*
X202478567Y-95337797D01*
X202467000Y-95279647D01*
X202467000Y-95220353D01*
X202478567Y-95162203D01*
X202501257Y-95107425D01*
X202501258Y-95107423D01*
X202534198Y-95058124D01*
X202576124Y-95016198D01*
X202625423Y-94983258D01*
X202625425Y-94983257D01*
X202680203Y-94960567D01*
X202738353Y-94949000D01*
X202797647Y-94949000D01*
X202855797Y-94960567D01*
G37*
M02*
