G04 #@! TF.GenerationSoftware,KiCad,Pcbnew,(5.1.5)-3*
G04 #@! TF.CreationDate,2020-05-21T21:25:24+08:00*
G04 #@! TF.ProjectId,AdvancedSTLink,41647661-6e63-4656-9453-544c696e6b2e,rev?*
G04 #@! TF.SameCoordinates,Original*
G04 #@! TF.FileFunction,Legend,Top*
G04 #@! TF.FilePolarity,Positive*
%FSLAX46Y46*%
G04 Gerber Fmt 4.6, Leading zero omitted, Abs format (unit mm)*
G04 Created by KiCad (PCBNEW (5.1.5)-3) date 2020-05-21 21:25:24*
%MOMM*%
%LPD*%
G04 APERTURE LIST*
%ADD10C,0.250000*%
%ADD11C,0.200000*%
%ADD12C,0.150000*%
%ADD13C,0.120000*%
G04 APERTURE END LIST*
D10*
X152270376Y-113771419D02*
X152317995Y-113723800D01*
X152413233Y-113676180D01*
X152651328Y-113676180D01*
X152746566Y-113723800D01*
X152794185Y-113771419D01*
X152841804Y-113866657D01*
X152841804Y-113961895D01*
X152794185Y-114104752D01*
X152222757Y-114676180D01*
X152841804Y-114676180D01*
X153460852Y-113676180D02*
X153556090Y-113676180D01*
X153651328Y-113723800D01*
X153698947Y-113771419D01*
X153746566Y-113866657D01*
X153794185Y-114057133D01*
X153794185Y-114295228D01*
X153746566Y-114485704D01*
X153698947Y-114580942D01*
X153651328Y-114628561D01*
X153556090Y-114676180D01*
X153460852Y-114676180D01*
X153365614Y-114628561D01*
X153317995Y-114580942D01*
X153270376Y-114485704D01*
X153222757Y-114295228D01*
X153222757Y-114057133D01*
X153270376Y-113866657D01*
X153317995Y-113771419D01*
X153365614Y-113723800D01*
X153460852Y-113676180D01*
X154175138Y-113771419D02*
X154222757Y-113723800D01*
X154317995Y-113676180D01*
X154556090Y-113676180D01*
X154651328Y-113723800D01*
X154698947Y-113771419D01*
X154746566Y-113866657D01*
X154746566Y-113961895D01*
X154698947Y-114104752D01*
X154127519Y-114676180D01*
X154746566Y-114676180D01*
X155698947Y-114676180D02*
X155127519Y-114676180D01*
X155413233Y-114676180D02*
X155413233Y-113676180D01*
X155317995Y-113819038D01*
X155222757Y-113914276D01*
X155127519Y-113961895D01*
D11*
X152220952Y-98667866D02*
X152697142Y-98667866D01*
X152090000Y-98953580D02*
X152548333Y-97953580D01*
X152756666Y-98953580D01*
X153518571Y-98953580D02*
X153643571Y-97953580D01*
X153524523Y-98905961D02*
X153423333Y-98953580D01*
X153232857Y-98953580D01*
X153143571Y-98905961D01*
X153101904Y-98858342D01*
X153066190Y-98763104D01*
X153101904Y-98477390D01*
X153161428Y-98382152D01*
X153215000Y-98334533D01*
X153316190Y-98286914D01*
X153506666Y-98286914D01*
X153595952Y-98334533D01*
X153982857Y-98286914D02*
X154137619Y-98953580D01*
X154459047Y-98286914D01*
X155185238Y-98953580D02*
X155250714Y-98429771D01*
X155215000Y-98334533D01*
X155125714Y-98286914D01*
X154935238Y-98286914D01*
X154834047Y-98334533D01*
X155191190Y-98905961D02*
X155090000Y-98953580D01*
X154851904Y-98953580D01*
X154762619Y-98905961D01*
X154726904Y-98810723D01*
X154738809Y-98715485D01*
X154798333Y-98620247D01*
X154899523Y-98572628D01*
X155137619Y-98572628D01*
X155238809Y-98525009D01*
X155744761Y-98286914D02*
X155661428Y-98953580D01*
X155732857Y-98382152D02*
X155786428Y-98334533D01*
X155887619Y-98286914D01*
X156030476Y-98286914D01*
X156119761Y-98334533D01*
X156155476Y-98429771D01*
X156090000Y-98953580D01*
X157000714Y-98905961D02*
X156899523Y-98953580D01*
X156709047Y-98953580D01*
X156619761Y-98905961D01*
X156578095Y-98858342D01*
X156542380Y-98763104D01*
X156578095Y-98477390D01*
X156637619Y-98382152D01*
X156691190Y-98334533D01*
X156792380Y-98286914D01*
X156982857Y-98286914D01*
X157072142Y-98334533D01*
X157810238Y-98905961D02*
X157709047Y-98953580D01*
X157518571Y-98953580D01*
X157429285Y-98905961D01*
X157393571Y-98810723D01*
X157441190Y-98429771D01*
X157500714Y-98334533D01*
X157601904Y-98286914D01*
X157792380Y-98286914D01*
X157881666Y-98334533D01*
X157917380Y-98429771D01*
X157905476Y-98525009D01*
X157417380Y-98620247D01*
X158709047Y-98953580D02*
X158834047Y-97953580D01*
X158715000Y-98905961D02*
X158613809Y-98953580D01*
X158423333Y-98953580D01*
X158334047Y-98905961D01*
X158292380Y-98858342D01*
X158256666Y-98763104D01*
X158292380Y-98477390D01*
X158351904Y-98382152D01*
X158405476Y-98334533D01*
X158506666Y-98286914D01*
X158697142Y-98286914D01*
X158786428Y-98334533D01*
D12*
X184394790Y-104465428D02*
X183632885Y-104465428D01*
X183823361Y-104655904D02*
X183632885Y-104465428D01*
X183823361Y-104274952D01*
X184728123Y-103846380D02*
X185061457Y-104846380D01*
X185394790Y-103846380D01*
X185918600Y-103846380D02*
X186109076Y-103846380D01*
X186204314Y-103894000D01*
X186299552Y-103989238D01*
X186347171Y-104179714D01*
X186347171Y-104513047D01*
X186299552Y-104703523D01*
X186204314Y-104798761D01*
X186109076Y-104846380D01*
X185918600Y-104846380D01*
X185823361Y-104798761D01*
X185728123Y-104703523D01*
X185680504Y-104513047D01*
X185680504Y-104179714D01*
X185728123Y-103989238D01*
X185823361Y-103894000D01*
X185918600Y-103846380D01*
X186775742Y-103846380D02*
X186775742Y-104655904D01*
X186823361Y-104751142D01*
X186870980Y-104798761D01*
X186966219Y-104846380D01*
X187156695Y-104846380D01*
X187251933Y-104798761D01*
X187299552Y-104751142D01*
X187347171Y-104655904D01*
X187347171Y-103846380D01*
X187680504Y-103846380D02*
X188251933Y-103846380D01*
X187966219Y-104846380D02*
X187966219Y-103846380D01*
X189537647Y-103846380D02*
X189728123Y-103846380D01*
X189823361Y-103894000D01*
X189918600Y-103989238D01*
X189966219Y-104179714D01*
X189966219Y-104513047D01*
X189918600Y-104703523D01*
X189823361Y-104798761D01*
X189728123Y-104846380D01*
X189537647Y-104846380D01*
X189442409Y-104798761D01*
X189347171Y-104703523D01*
X189299552Y-104513047D01*
X189299552Y-104179714D01*
X189347171Y-103989238D01*
X189442409Y-103894000D01*
X189537647Y-103846380D01*
X190394790Y-104846380D02*
X190394790Y-103846380D01*
X190966219Y-104846380D01*
X190966219Y-103846380D01*
X152462509Y-99692980D02*
X152462509Y-100407266D01*
X152414890Y-100550123D01*
X152319652Y-100645361D01*
X152176795Y-100692980D01*
X152081557Y-100692980D01*
X153081557Y-100121552D02*
X152986319Y-100073933D01*
X152938700Y-100026314D01*
X152891080Y-99931076D01*
X152891080Y-99883457D01*
X152938700Y-99788219D01*
X152986319Y-99740600D01*
X153081557Y-99692980D01*
X153272033Y-99692980D01*
X153367271Y-99740600D01*
X153414890Y-99788219D01*
X153462509Y-99883457D01*
X153462509Y-99931076D01*
X153414890Y-100026314D01*
X153367271Y-100073933D01*
X153272033Y-100121552D01*
X153081557Y-100121552D01*
X152986319Y-100169171D01*
X152938700Y-100216790D01*
X152891080Y-100312028D01*
X152891080Y-100502504D01*
X152938700Y-100597742D01*
X152986319Y-100645361D01*
X153081557Y-100692980D01*
X153272033Y-100692980D01*
X153367271Y-100645361D01*
X153414890Y-100597742D01*
X153462509Y-100502504D01*
X153462509Y-100312028D01*
X153414890Y-100216790D01*
X153367271Y-100169171D01*
X153272033Y-100121552D01*
X154367271Y-100692980D02*
X153891080Y-100692980D01*
X153891080Y-99692980D01*
X154700604Y-100692980D02*
X154700604Y-100026314D01*
X154700604Y-99692980D02*
X154652985Y-99740600D01*
X154700604Y-99788219D01*
X154748223Y-99740600D01*
X154700604Y-99692980D01*
X154700604Y-99788219D01*
X155176795Y-100026314D02*
X155176795Y-100692980D01*
X155176795Y-100121552D02*
X155224414Y-100073933D01*
X155319652Y-100026314D01*
X155462509Y-100026314D01*
X155557747Y-100073933D01*
X155605366Y-100169171D01*
X155605366Y-100692980D01*
X156081557Y-100692980D02*
X156081557Y-99692980D01*
X156176795Y-100312028D02*
X156462509Y-100692980D01*
X156462509Y-100026314D02*
X156081557Y-100407266D01*
D13*
X210526020Y-111889880D02*
X209976020Y-111889880D01*
X210526020Y-100819880D02*
X210526020Y-111889880D01*
X209976020Y-100819880D02*
X210526020Y-100819880D01*
X204856020Y-111889880D02*
X204856020Y-110039880D01*
X206656020Y-111889880D02*
X204856020Y-111889880D01*
X204856020Y-102669880D02*
X204116020Y-102669880D01*
X204856020Y-100819880D02*
X204856020Y-102669880D01*
X206656020Y-100819880D02*
X204856020Y-100819880D01*
X162435759Y-104953340D02*
X162110201Y-104953340D01*
X162435759Y-105973340D02*
X162110201Y-105973340D01*
X195401200Y-108497160D02*
X195401200Y-113897160D01*
X192101200Y-108497160D02*
X192101200Y-113897160D01*
X195401200Y-108497160D02*
X192101200Y-108497160D01*
X178763660Y-105586780D02*
X178763660Y-109586780D01*
X182063660Y-105586780D02*
X178763660Y-105586780D01*
X200680101Y-108269500D02*
X201005659Y-108269500D01*
X200680101Y-107249500D02*
X201005659Y-107249500D01*
X172272741Y-114774440D02*
X172598299Y-114774440D01*
X172272741Y-113754440D02*
X172598299Y-113754440D01*
X197952579Y-114399600D02*
X197627021Y-114399600D01*
X197952579Y-115419600D02*
X197627021Y-115419600D01*
X184322501Y-107459240D02*
X184648059Y-107459240D01*
X184322501Y-106439240D02*
X184648059Y-106439240D01*
X187428921Y-107484640D02*
X187754479Y-107484640D01*
X187428921Y-106464640D02*
X187754479Y-106464640D01*
X200680101Y-106504200D02*
X201005659Y-106504200D01*
X200680101Y-105484200D02*
X201005659Y-105484200D01*
X200680101Y-99290600D02*
X201005659Y-99290600D01*
X200680101Y-98270600D02*
X201005659Y-98270600D01*
X201000579Y-112875600D02*
X200675021Y-112875600D01*
X201000579Y-113895600D02*
X200675021Y-113895600D01*
X201000579Y-111351600D02*
X200675021Y-111351600D01*
X201000579Y-112371600D02*
X200675021Y-112371600D01*
X184000359Y-112652080D02*
X183674801Y-112652080D01*
X184000359Y-113672080D02*
X183674801Y-113672080D01*
X193702400Y-100442079D02*
X193702400Y-100116521D01*
X192682400Y-100442079D02*
X192682400Y-100116521D01*
X195251800Y-100441979D02*
X195251800Y-100116421D01*
X194231800Y-100441979D02*
X194231800Y-100116421D01*
X201005659Y-102123780D02*
X200680101Y-102123780D01*
X201005659Y-103143780D02*
X200680101Y-103143780D01*
X158988541Y-113639060D02*
X159314099Y-113639060D01*
X158988541Y-112619060D02*
X159314099Y-112619060D01*
X158915319Y-100183220D02*
X158589761Y-100183220D01*
X158915319Y-101203220D02*
X158589761Y-101203220D01*
X190521661Y-107499880D02*
X190847219Y-107499880D01*
X190521661Y-106479880D02*
X190847219Y-106479880D01*
X190521661Y-109117860D02*
X190847219Y-109117860D01*
X190521661Y-108097860D02*
X190847219Y-108097860D01*
X201005659Y-103909400D02*
X200680101Y-103909400D01*
X201005659Y-104929400D02*
X200680101Y-104929400D01*
X162445919Y-109022420D02*
X162120361Y-109022420D01*
X162445919Y-110042420D02*
X162120361Y-110042420D01*
X165394421Y-98909600D02*
X165719979Y-98909600D01*
X165394421Y-97889600D02*
X165719979Y-97889600D01*
X186752960Y-114081779D02*
X186752960Y-113756221D01*
X185732960Y-114081779D02*
X185732960Y-113756221D01*
X177180021Y-100586000D02*
X177505579Y-100586000D01*
X177180021Y-99566000D02*
X177505579Y-99566000D01*
X165719979Y-99464400D02*
X165394421Y-99464400D01*
X165719979Y-100484400D02*
X165394421Y-100484400D01*
X176883600Y-111902021D02*
X176883600Y-112227579D01*
X177903600Y-111902021D02*
X177903600Y-112227579D01*
X162461159Y-110615000D02*
X162135601Y-110615000D01*
X162461159Y-111635000D02*
X162135601Y-111635000D01*
X187876720Y-109626181D02*
X187876720Y-109951739D01*
X188896720Y-109626181D02*
X188896720Y-109951739D01*
X184018039Y-114325940D02*
X183692481Y-114325940D01*
X184018039Y-115345940D02*
X183692481Y-115345940D01*
X162054321Y-99282980D02*
X162379879Y-99282980D01*
X162054321Y-98262980D02*
X162379879Y-98262980D01*
X162435759Y-103383620D02*
X162110201Y-103383620D01*
X162435759Y-104403620D02*
X162110201Y-104403620D01*
X169349639Y-113754440D02*
X169024081Y-113754440D01*
X169349639Y-114774440D02*
X169024081Y-114774440D01*
X180266121Y-111093980D02*
X180591679Y-111093980D01*
X180266121Y-110073980D02*
X180591679Y-110073980D01*
X180177221Y-105310400D02*
X180502779Y-105310400D01*
X180177221Y-104290400D02*
X180502779Y-104290400D01*
X201662880Y-109046440D02*
X200062880Y-109046440D01*
X200062880Y-110846440D02*
X201962880Y-110846440D01*
X201662880Y-99882120D02*
X200062880Y-99882120D01*
X200062880Y-101682120D02*
X201962880Y-101682120D01*
X186740440Y-111153780D02*
X186740440Y-108703780D01*
X183520440Y-109353780D02*
X183520440Y-111153780D01*
X161493300Y-108390260D02*
X163093300Y-108390260D01*
X163093300Y-106590260D02*
X161193300Y-106590260D01*
X160710760Y-102156800D02*
X160710760Y-100696800D01*
X163870760Y-102156800D02*
X163870760Y-99996800D01*
X163870760Y-102156800D02*
X162940760Y-102156800D01*
X160710760Y-102156800D02*
X161640760Y-102156800D01*
X176399980Y-110207540D02*
X177739980Y-110207540D01*
X176399980Y-111157540D02*
X176399980Y-110207540D01*
X175449980Y-111157540D02*
X176399980Y-111157540D01*
X166179980Y-111157540D02*
X166179980Y-110207540D01*
X167129980Y-111157540D02*
X166179980Y-111157540D01*
X176399980Y-100937540D02*
X176399980Y-101887540D01*
X175449980Y-100937540D02*
X176399980Y-100937540D01*
X166179980Y-100937540D02*
X166179980Y-101887540D01*
X167129980Y-100937540D02*
X166179980Y-100937540D01*
X187689440Y-95615600D02*
X187689440Y-95615600D01*
X186889440Y-95615600D02*
X187689440Y-95615600D01*
X186589440Y-95615600D02*
X186589440Y-95615600D01*
X186089440Y-95615600D02*
X186589440Y-95615600D01*
X187989440Y-95615600D02*
X187989440Y-95615600D01*
X188489440Y-95615600D02*
X187989440Y-95615600D01*
X189289440Y-96915600D02*
X189289440Y-96915600D01*
X189289440Y-96415600D02*
X189289440Y-96915600D01*
X185289440Y-96915600D02*
X185289440Y-96915600D01*
X185289440Y-96415600D02*
X185289440Y-96915600D01*
X185289440Y-96115600D02*
X185289440Y-96115600D01*
X185289440Y-95615600D02*
X185289440Y-96115600D01*
X185789440Y-95615600D02*
X185789440Y-95615600D01*
X185289440Y-95615600D02*
X185789440Y-95615600D01*
X188789440Y-95615600D02*
X188789440Y-95615600D01*
X189289440Y-95615600D02*
X188789440Y-95615600D01*
X189289440Y-96115600D02*
X189289440Y-96115600D01*
X189289440Y-95615600D02*
X189289440Y-96115600D01*
X191889440Y-97515600D02*
X191889440Y-97515600D01*
X190189440Y-97515600D02*
X191889440Y-97515600D01*
X190189440Y-97215600D02*
X190189440Y-97515600D01*
X189389440Y-97215600D02*
X190189440Y-97215600D01*
X189389440Y-97515600D02*
X189389440Y-97215600D01*
X187689440Y-97515600D02*
X189389440Y-97515600D01*
X187689440Y-97215600D02*
X187689440Y-97515600D01*
X186889440Y-97215600D02*
X187689440Y-97215600D01*
X186889440Y-97515600D02*
X186889440Y-97215600D01*
X185189440Y-97515600D02*
X186889440Y-97515600D01*
X185189440Y-97215600D02*
X185189440Y-97515600D01*
X184389440Y-97215600D02*
X185189440Y-97215600D01*
X184389440Y-97515600D02*
X184389440Y-97215600D01*
X182689440Y-97515600D02*
X184389440Y-97515600D01*
X189089440Y-101315600D02*
X189089440Y-101315600D01*
X187989440Y-101315600D02*
X189089440Y-101315600D01*
X186589440Y-101315600D02*
X186589440Y-101315600D01*
X185489440Y-101315600D02*
X186589440Y-101315600D01*
X191889440Y-101315600D02*
X190489440Y-101315600D01*
X191889440Y-97515600D02*
X191889440Y-101315600D01*
X182689440Y-101315600D02*
X182689440Y-97515600D01*
X184089440Y-101315600D02*
X182689440Y-101315600D01*
X189504340Y-112135600D02*
X189504340Y-114635600D01*
X187284340Y-114635600D02*
X187284340Y-112135600D01*
X162231800Y-115582400D02*
X162231800Y-114452400D01*
X162991800Y-115582400D02*
X162231800Y-115582400D01*
X162296800Y-112874870D02*
X162296800Y-112052400D01*
X162296800Y-113692400D02*
X162296800Y-113489930D01*
X162428329Y-113692400D02*
X162296800Y-113692400D01*
X163698329Y-113692400D02*
X163555271Y-113692400D01*
X163751800Y-113888929D02*
X163751800Y-113745871D01*
X163751800Y-115582400D02*
X163751800Y-115015871D01*
X162296800Y-112052400D02*
X166226800Y-112052400D01*
X163751800Y-115582400D02*
X166226800Y-115582400D01*
X166226800Y-114144870D02*
X166226800Y-113489930D01*
X166226800Y-112874870D02*
X166226800Y-112052400D01*
X166226800Y-115582400D02*
X166226800Y-114759930D01*
X151055240Y-102223840D02*
X151055240Y-111623840D01*
X156855240Y-111623840D02*
X154855240Y-111623840D01*
X152955240Y-111623840D02*
X151055240Y-111623840D01*
X156855240Y-102223840D02*
X154855240Y-102223840D01*
X152955240Y-102223840D02*
X151055240Y-102223840D01*
X202650200Y-114174600D02*
X200190200Y-114174600D01*
X202650200Y-115644600D02*
X202650200Y-114174600D01*
X200190200Y-115644600D02*
X202650200Y-115644600D01*
X191873380Y-110757140D02*
X191873380Y-114657140D01*
X189873380Y-110757140D02*
X189873380Y-114657140D01*
X191873380Y-110757140D02*
X189873380Y-110757140D01*
X192457400Y-101438600D02*
X192457400Y-103898600D01*
X193927400Y-101438600D02*
X192457400Y-101438600D01*
X193927400Y-103898600D02*
X193927400Y-101438600D01*
X194006800Y-101438600D02*
X194006800Y-103898600D01*
X195476800Y-101438600D02*
X194006800Y-101438600D01*
X195476800Y-103898600D02*
X195476800Y-101438600D01*
M02*
