M48
; DRILL file {KiCad (5.1.5)-3} date 2020/6/14 17:26:12
; FORMAT={-:-/ absolute / inch / decimal}
; #@! TF.CreationDate,2020-06-14T17:26:12+08:00
; #@! TF.GenerationSoftware,Kicad,Pcbnew,(5.1.5)-3
FMAT,2
INCH
T1C0.0118
T2C0.0157
T3C0.0236
T4C0.0256
T5C0.0295
T6C0.0197
T7C0.0256
T8C0.0354
T9C0.0984
%
G90
G05
T1
X6.7283Y-3.9528
X6.7323Y-4.2756
X6.7464Y-4.1191
X6.748Y-3.9803
X6.748Y-4.248
X6.752Y-4.1496
X6.8819Y-4.189
X7.0945Y-4.126
X7.1102Y-4.0394
X7.1175Y-4.1444
X7.2008Y-4.0512
X7.2283Y-4.3858
X7.2362Y-4.1063
X7.2362Y-4.1516
X7.2441Y-4.2165
X7.2441Y-4.2402
X7.2874Y-4.1299
X7.3029Y-4.104
X7.3031Y-4.3346
X7.3071Y-4.0748
X7.3189Y-4.2559
X7.3305Y-4.0023
X7.3346Y-4.0315
X7.3583Y-3.8543
X7.3622Y-3.9567
X7.4173Y-4.3071
X7.4596Y-4.0049
X7.4685Y-4.0669
X7.4843Y-3.9409
X7.4852Y-3.8386
X7.4921Y-4.0945
X7.4921Y-4.2323
X7.4946Y-3.9843
X7.5148Y-3.9537
X7.5276Y-4.3908
X7.5433Y-4.0825
X7.5472Y-3.8386
X7.5709Y-4.2835
X7.5787Y-4.3898
X7.5793Y-4.2289
X7.6024Y-4.0669
X7.626Y-4.0079
X7.6285Y-4.2815
X7.6496Y-3.8386
X7.6496Y-4.0315
X7.6614Y-4.2598
X7.6654Y-3.9606
X7.6673Y-4.3898
X7.6959Y-3.9575
X7.6985Y-4.0329
X7.7008Y-3.8425
X7.7008Y-4.1969
X7.748Y-3.8386
X7.7638Y-4.0354
X7.7795Y-4.3908
X7.7795Y-3.8425
X7.7874Y-4.122
X7.7992Y-4.2165
X7.8425Y-4.3268
X7.8465Y-3.9331
X7.8819Y-3.9213
X7.9016Y-4.0827
X7.9016Y-4.3701
X7.9055Y-4.2677
X7.9094Y-4.122
X7.9291Y-4.0512
X7.9291Y-4.1535
X8.1654Y-4.252
X8.1937Y-4.2439
T2
X6.748Y-4.0197
X6.748Y-4.2126
X6.9224Y-4.061
X6.9232Y-4.1
X6.9764Y-4.1772
X7.122Y-4.3465
X7.122Y-4.3819
X7.3898Y-4.3189
X7.4626Y-3.9695
X7.5394Y-4.122
X7.5945Y-4.1614
X7.6339Y-4.2323
X7.6417Y-4.0945
X7.685Y-4.122
X7.7402Y-4.126
X7.748Y-3.9449
X7.9803Y-4.0866
X8.0433Y-4.1378
X8.0472Y-4.0906
X8.1496Y-4.0866
X8.1535Y-3.9213
X8.1575Y-4.311
X8.2323Y-3.874
X8.2323Y-3.9606
X8.2323Y-4.2677
T4
X7.1008Y-3.8976
X7.1008Y-3.9476
X7.1508Y-3.8976
X7.1508Y-3.9476
X7.2008Y-3.8976
X7.2008Y-3.9476
T5
X8.2217Y-4.0642
X8.2217Y-4.1142
X8.2217Y-4.1642
X8.2717Y-4.0642
X8.2717Y-4.1142
X8.2717Y-4.1642
T6
X7.983Y-3.75
X7.983Y-3.8091
X8.0125Y-3.75
X8.0125Y-3.8091
X8.042Y-3.75
X8.042Y-3.8091
X8.0725Y-3.75
X8.0725Y-3.8091
X8.1025Y-3.75
X8.1025Y-3.8091
X6.6334Y-3.75
X6.6334Y-3.8091
X6.6629Y-3.75
X6.6629Y-3.8091
X6.6924Y-3.75
X6.6924Y-3.8091
X6.7229Y-3.75
X6.7229Y-3.8091
X6.7529Y-3.75
X6.7529Y-3.8091
T7
X6.6447Y-4.0024
X6.6447Y-4.2299
T8
X7.0157Y-3.9528
X7.2835Y-3.9528
T9
X8.003Y-4.2805
X8.003Y-3.9528
X6.8602Y-3.9537
X6.8602Y-4.2687
T3
G00X6.5128Y-3.9461
M15
G01X6.4892Y-3.9461
M16
G05
G00X6.5128Y-4.2862
M15
G01X6.4892Y-4.2862
M16
G05
G00X6.6872Y-3.9461
M15
G01X6.6439Y-3.9461
M16
G05
G00X6.6872Y-4.2862
M15
G01X6.6439Y-4.2862
M16
G05
T0
M30
