G04 #@! TF.GenerationSoftware,KiCad,Pcbnew,(5.1.5)-3*
G04 #@! TF.CreationDate,2020-06-14T17:26:14+08:00*
G04 #@! TF.ProjectId,AdvancedSTLink,41647661-6e63-4656-9453-544c696e6b2e,rev?*
G04 #@! TF.SameCoordinates,Original*
G04 #@! TF.FileFunction,Paste,Top*
G04 #@! TF.FilePolarity,Positive*
%FSLAX46Y46*%
G04 Gerber Fmt 4.6, Leading zero omitted, Abs format (unit mm)*
G04 Created by KiCad (PCBNEW (5.1.5)-3) date 2020-06-14 17:26:14*
%MOMM*%
%LPD*%
G04 APERTURE LIST*
%ADD10C,0.100000*%
%ADD11R,1.250000X0.700000*%
%ADD12R,0.550000X0.400000*%
%ADD13R,0.550000X0.300000*%
%ADD14R,0.500000X0.375000*%
%ADD15R,0.650000X0.300000*%
%ADD16R,1.450000X0.600000*%
%ADD17R,1.450000X0.300000*%
%ADD18R,2.000000X2.000000*%
%ADD19R,0.830000X1.000000*%
%ADD20R,0.600000X1.100000*%
%ADD21R,1.200000X1.400000*%
%ADD22R,1.000000X1.500000*%
G04 APERTURE END LIST*
D10*
G36*
X177367642Y-102921174D02*
G01*
X177391303Y-102924684D01*
X177414507Y-102930496D01*
X177437029Y-102938554D01*
X177458653Y-102948782D01*
X177479170Y-102961079D01*
X177498383Y-102975329D01*
X177516107Y-102991393D01*
X177532171Y-103009117D01*
X177546421Y-103028330D01*
X177558718Y-103048847D01*
X177568946Y-103070471D01*
X177577004Y-103092993D01*
X177582816Y-103116197D01*
X177586326Y-103139858D01*
X177587500Y-103163750D01*
X177587500Y-104076250D01*
X177586326Y-104100142D01*
X177582816Y-104123803D01*
X177577004Y-104147007D01*
X177568946Y-104169529D01*
X177558718Y-104191153D01*
X177546421Y-104211670D01*
X177532171Y-104230883D01*
X177516107Y-104248607D01*
X177498383Y-104264671D01*
X177479170Y-104278921D01*
X177458653Y-104291218D01*
X177437029Y-104301446D01*
X177414507Y-104309504D01*
X177391303Y-104315316D01*
X177367642Y-104318826D01*
X177343750Y-104320000D01*
X176856250Y-104320000D01*
X176832358Y-104318826D01*
X176808697Y-104315316D01*
X176785493Y-104309504D01*
X176762971Y-104301446D01*
X176741347Y-104291218D01*
X176720830Y-104278921D01*
X176701617Y-104264671D01*
X176683893Y-104248607D01*
X176667829Y-104230883D01*
X176653579Y-104211670D01*
X176641282Y-104191153D01*
X176631054Y-104169529D01*
X176622996Y-104147007D01*
X176617184Y-104123803D01*
X176613674Y-104100142D01*
X176612500Y-104076250D01*
X176612500Y-103163750D01*
X176613674Y-103139858D01*
X176617184Y-103116197D01*
X176622996Y-103092993D01*
X176631054Y-103070471D01*
X176641282Y-103048847D01*
X176653579Y-103028330D01*
X176667829Y-103009117D01*
X176683893Y-102991393D01*
X176701617Y-102975329D01*
X176720830Y-102961079D01*
X176741347Y-102948782D01*
X176762971Y-102938554D01*
X176785493Y-102930496D01*
X176808697Y-102924684D01*
X176832358Y-102921174D01*
X176856250Y-102920000D01*
X177343750Y-102920000D01*
X177367642Y-102921174D01*
G37*
G36*
X179242642Y-102921174D02*
G01*
X179266303Y-102924684D01*
X179289507Y-102930496D01*
X179312029Y-102938554D01*
X179333653Y-102948782D01*
X179354170Y-102961079D01*
X179373383Y-102975329D01*
X179391107Y-102991393D01*
X179407171Y-103009117D01*
X179421421Y-103028330D01*
X179433718Y-103048847D01*
X179443946Y-103070471D01*
X179452004Y-103092993D01*
X179457816Y-103116197D01*
X179461326Y-103139858D01*
X179462500Y-103163750D01*
X179462500Y-104076250D01*
X179461326Y-104100142D01*
X179457816Y-104123803D01*
X179452004Y-104147007D01*
X179443946Y-104169529D01*
X179433718Y-104191153D01*
X179421421Y-104211670D01*
X179407171Y-104230883D01*
X179391107Y-104248607D01*
X179373383Y-104264671D01*
X179354170Y-104278921D01*
X179333653Y-104291218D01*
X179312029Y-104301446D01*
X179289507Y-104309504D01*
X179266303Y-104315316D01*
X179242642Y-104318826D01*
X179218750Y-104320000D01*
X178731250Y-104320000D01*
X178707358Y-104318826D01*
X178683697Y-104315316D01*
X178660493Y-104309504D01*
X178637971Y-104301446D01*
X178616347Y-104291218D01*
X178595830Y-104278921D01*
X178576617Y-104264671D01*
X178558893Y-104248607D01*
X178542829Y-104230883D01*
X178528579Y-104211670D01*
X178516282Y-104191153D01*
X178506054Y-104169529D01*
X178497996Y-104147007D01*
X178492184Y-104123803D01*
X178488674Y-104100142D01*
X178487500Y-104076250D01*
X178487500Y-103163750D01*
X178488674Y-103139858D01*
X178492184Y-103116197D01*
X178497996Y-103092993D01*
X178506054Y-103070471D01*
X178516282Y-103048847D01*
X178528579Y-103028330D01*
X178542829Y-103009117D01*
X178558893Y-102991393D01*
X178576617Y-102975329D01*
X178595830Y-102961079D01*
X178616347Y-102948782D01*
X178637971Y-102938554D01*
X178660493Y-102930496D01*
X178683697Y-102924684D01*
X178707358Y-102921174D01*
X178731250Y-102920000D01*
X179218750Y-102920000D01*
X179242642Y-102921174D01*
G37*
D11*
X194850000Y-105700000D03*
X192350000Y-106650000D03*
X192350000Y-104750000D03*
D10*
G36*
X185661958Y-98490710D02*
G01*
X185676276Y-98492834D01*
X185690317Y-98496351D01*
X185703946Y-98501228D01*
X185717031Y-98507417D01*
X185729447Y-98514858D01*
X185741073Y-98523481D01*
X185751798Y-98533202D01*
X185761519Y-98543927D01*
X185770142Y-98555553D01*
X185777583Y-98567969D01*
X185783772Y-98581054D01*
X185788649Y-98594683D01*
X185792166Y-98608724D01*
X185794290Y-98623042D01*
X185795000Y-98637500D01*
X185795000Y-98932500D01*
X185794290Y-98946958D01*
X185792166Y-98961276D01*
X185788649Y-98975317D01*
X185783772Y-98988946D01*
X185777583Y-99002031D01*
X185770142Y-99014447D01*
X185761519Y-99026073D01*
X185751798Y-99036798D01*
X185741073Y-99046519D01*
X185729447Y-99055142D01*
X185717031Y-99062583D01*
X185703946Y-99068772D01*
X185690317Y-99073649D01*
X185676276Y-99077166D01*
X185661958Y-99079290D01*
X185647500Y-99080000D01*
X185302500Y-99080000D01*
X185288042Y-99079290D01*
X185273724Y-99077166D01*
X185259683Y-99073649D01*
X185246054Y-99068772D01*
X185232969Y-99062583D01*
X185220553Y-99055142D01*
X185208927Y-99046519D01*
X185198202Y-99036798D01*
X185188481Y-99026073D01*
X185179858Y-99014447D01*
X185172417Y-99002031D01*
X185166228Y-98988946D01*
X185161351Y-98975317D01*
X185157834Y-98961276D01*
X185155710Y-98946958D01*
X185155000Y-98932500D01*
X185155000Y-98637500D01*
X185155710Y-98623042D01*
X185157834Y-98608724D01*
X185161351Y-98594683D01*
X185166228Y-98581054D01*
X185172417Y-98567969D01*
X185179858Y-98555553D01*
X185188481Y-98543927D01*
X185198202Y-98533202D01*
X185208927Y-98523481D01*
X185220553Y-98514858D01*
X185232969Y-98507417D01*
X185246054Y-98501228D01*
X185259683Y-98496351D01*
X185273724Y-98492834D01*
X185288042Y-98490710D01*
X185302500Y-98490000D01*
X185647500Y-98490000D01*
X185661958Y-98490710D01*
G37*
G36*
X185661958Y-97520710D02*
G01*
X185676276Y-97522834D01*
X185690317Y-97526351D01*
X185703946Y-97531228D01*
X185717031Y-97537417D01*
X185729447Y-97544858D01*
X185741073Y-97553481D01*
X185751798Y-97563202D01*
X185761519Y-97573927D01*
X185770142Y-97585553D01*
X185777583Y-97597969D01*
X185783772Y-97611054D01*
X185788649Y-97624683D01*
X185792166Y-97638724D01*
X185794290Y-97653042D01*
X185795000Y-97667500D01*
X185795000Y-97962500D01*
X185794290Y-97976958D01*
X185792166Y-97991276D01*
X185788649Y-98005317D01*
X185783772Y-98018946D01*
X185777583Y-98032031D01*
X185770142Y-98044447D01*
X185761519Y-98056073D01*
X185751798Y-98066798D01*
X185741073Y-98076519D01*
X185729447Y-98085142D01*
X185717031Y-98092583D01*
X185703946Y-98098772D01*
X185690317Y-98103649D01*
X185676276Y-98107166D01*
X185661958Y-98109290D01*
X185647500Y-98110000D01*
X185302500Y-98110000D01*
X185288042Y-98109290D01*
X185273724Y-98107166D01*
X185259683Y-98103649D01*
X185246054Y-98098772D01*
X185232969Y-98092583D01*
X185220553Y-98085142D01*
X185208927Y-98076519D01*
X185198202Y-98066798D01*
X185188481Y-98056073D01*
X185179858Y-98044447D01*
X185172417Y-98032031D01*
X185166228Y-98018946D01*
X185161351Y-98005317D01*
X185157834Y-97991276D01*
X185155710Y-97976958D01*
X185155000Y-97962500D01*
X185155000Y-97667500D01*
X185155710Y-97653042D01*
X185157834Y-97638724D01*
X185161351Y-97624683D01*
X185166228Y-97611054D01*
X185172417Y-97597969D01*
X185179858Y-97585553D01*
X185188481Y-97573927D01*
X185198202Y-97563202D01*
X185208927Y-97553481D01*
X185220553Y-97544858D01*
X185232969Y-97537417D01*
X185246054Y-97531228D01*
X185259683Y-97526351D01*
X185273724Y-97522834D01*
X185288042Y-97520710D01*
X185302500Y-97520000D01*
X185647500Y-97520000D01*
X185661958Y-97520710D01*
G37*
D11*
X186800000Y-98825000D03*
X189300000Y-97875000D03*
X189300000Y-99775000D03*
D10*
G36*
X203686958Y-103720710D02*
G01*
X203701276Y-103722834D01*
X203715317Y-103726351D01*
X203728946Y-103731228D01*
X203742031Y-103737417D01*
X203754447Y-103744858D01*
X203766073Y-103753481D01*
X203776798Y-103763202D01*
X203786519Y-103773927D01*
X203795142Y-103785553D01*
X203802583Y-103797969D01*
X203808772Y-103811054D01*
X203813649Y-103824683D01*
X203817166Y-103838724D01*
X203819290Y-103853042D01*
X203820000Y-103867500D01*
X203820000Y-104162500D01*
X203819290Y-104176958D01*
X203817166Y-104191276D01*
X203813649Y-104205317D01*
X203808772Y-104218946D01*
X203802583Y-104232031D01*
X203795142Y-104244447D01*
X203786519Y-104256073D01*
X203776798Y-104266798D01*
X203766073Y-104276519D01*
X203754447Y-104285142D01*
X203742031Y-104292583D01*
X203728946Y-104298772D01*
X203715317Y-104303649D01*
X203701276Y-104307166D01*
X203686958Y-104309290D01*
X203672500Y-104310000D01*
X203327500Y-104310000D01*
X203313042Y-104309290D01*
X203298724Y-104307166D01*
X203284683Y-104303649D01*
X203271054Y-104298772D01*
X203257969Y-104292583D01*
X203245553Y-104285142D01*
X203233927Y-104276519D01*
X203223202Y-104266798D01*
X203213481Y-104256073D01*
X203204858Y-104244447D01*
X203197417Y-104232031D01*
X203191228Y-104218946D01*
X203186351Y-104205317D01*
X203182834Y-104191276D01*
X203180710Y-104176958D01*
X203180000Y-104162500D01*
X203180000Y-103867500D01*
X203180710Y-103853042D01*
X203182834Y-103838724D01*
X203186351Y-103824683D01*
X203191228Y-103811054D01*
X203197417Y-103797969D01*
X203204858Y-103785553D01*
X203213481Y-103773927D01*
X203223202Y-103763202D01*
X203233927Y-103753481D01*
X203245553Y-103744858D01*
X203257969Y-103737417D01*
X203271054Y-103731228D01*
X203284683Y-103726351D01*
X203298724Y-103722834D01*
X203313042Y-103720710D01*
X203327500Y-103720000D01*
X203672500Y-103720000D01*
X203686958Y-103720710D01*
G37*
G36*
X203686958Y-104690710D02*
G01*
X203701276Y-104692834D01*
X203715317Y-104696351D01*
X203728946Y-104701228D01*
X203742031Y-104707417D01*
X203754447Y-104714858D01*
X203766073Y-104723481D01*
X203776798Y-104733202D01*
X203786519Y-104743927D01*
X203795142Y-104755553D01*
X203802583Y-104767969D01*
X203808772Y-104781054D01*
X203813649Y-104794683D01*
X203817166Y-104808724D01*
X203819290Y-104823042D01*
X203820000Y-104837500D01*
X203820000Y-105132500D01*
X203819290Y-105146958D01*
X203817166Y-105161276D01*
X203813649Y-105175317D01*
X203808772Y-105188946D01*
X203802583Y-105202031D01*
X203795142Y-105214447D01*
X203786519Y-105226073D01*
X203776798Y-105236798D01*
X203766073Y-105246519D01*
X203754447Y-105255142D01*
X203742031Y-105262583D01*
X203728946Y-105268772D01*
X203715317Y-105273649D01*
X203701276Y-105277166D01*
X203686958Y-105279290D01*
X203672500Y-105280000D01*
X203327500Y-105280000D01*
X203313042Y-105279290D01*
X203298724Y-105277166D01*
X203284683Y-105273649D01*
X203271054Y-105268772D01*
X203257969Y-105262583D01*
X203245553Y-105255142D01*
X203233927Y-105246519D01*
X203223202Y-105236798D01*
X203213481Y-105226073D01*
X203204858Y-105214447D01*
X203197417Y-105202031D01*
X203191228Y-105188946D01*
X203186351Y-105175317D01*
X203182834Y-105161276D01*
X203180710Y-105146958D01*
X203180000Y-105132500D01*
X203180000Y-104837500D01*
X203180710Y-104823042D01*
X203182834Y-104808724D01*
X203186351Y-104794683D01*
X203191228Y-104781054D01*
X203197417Y-104767969D01*
X203204858Y-104755553D01*
X203213481Y-104743927D01*
X203223202Y-104733202D01*
X203233927Y-104723481D01*
X203245553Y-104714858D01*
X203257969Y-104707417D01*
X203271054Y-104701228D01*
X203284683Y-104696351D01*
X203298724Y-104692834D01*
X203313042Y-104690710D01*
X203327500Y-104690000D01*
X203672500Y-104690000D01*
X203686958Y-104690710D01*
G37*
G36*
X200211958Y-107845710D02*
G01*
X200226276Y-107847834D01*
X200240317Y-107851351D01*
X200253946Y-107856228D01*
X200267031Y-107862417D01*
X200279447Y-107869858D01*
X200291073Y-107878481D01*
X200301798Y-107888202D01*
X200311519Y-107898927D01*
X200320142Y-107910553D01*
X200327583Y-107922969D01*
X200333772Y-107936054D01*
X200338649Y-107949683D01*
X200342166Y-107963724D01*
X200344290Y-107978042D01*
X200345000Y-107992500D01*
X200345000Y-108287500D01*
X200344290Y-108301958D01*
X200342166Y-108316276D01*
X200338649Y-108330317D01*
X200333772Y-108343946D01*
X200327583Y-108357031D01*
X200320142Y-108369447D01*
X200311519Y-108381073D01*
X200301798Y-108391798D01*
X200291073Y-108401519D01*
X200279447Y-108410142D01*
X200267031Y-108417583D01*
X200253946Y-108423772D01*
X200240317Y-108428649D01*
X200226276Y-108432166D01*
X200211958Y-108434290D01*
X200197500Y-108435000D01*
X199852500Y-108435000D01*
X199838042Y-108434290D01*
X199823724Y-108432166D01*
X199809683Y-108428649D01*
X199796054Y-108423772D01*
X199782969Y-108417583D01*
X199770553Y-108410142D01*
X199758927Y-108401519D01*
X199748202Y-108391798D01*
X199738481Y-108381073D01*
X199729858Y-108369447D01*
X199722417Y-108357031D01*
X199716228Y-108343946D01*
X199711351Y-108330317D01*
X199707834Y-108316276D01*
X199705710Y-108301958D01*
X199705000Y-108287500D01*
X199705000Y-107992500D01*
X199705710Y-107978042D01*
X199707834Y-107963724D01*
X199711351Y-107949683D01*
X199716228Y-107936054D01*
X199722417Y-107922969D01*
X199729858Y-107910553D01*
X199738481Y-107898927D01*
X199748202Y-107888202D01*
X199758927Y-107878481D01*
X199770553Y-107869858D01*
X199782969Y-107862417D01*
X199796054Y-107856228D01*
X199809683Y-107851351D01*
X199823724Y-107847834D01*
X199838042Y-107845710D01*
X199852500Y-107845000D01*
X200197500Y-107845000D01*
X200211958Y-107845710D01*
G37*
G36*
X200211958Y-108815710D02*
G01*
X200226276Y-108817834D01*
X200240317Y-108821351D01*
X200253946Y-108826228D01*
X200267031Y-108832417D01*
X200279447Y-108839858D01*
X200291073Y-108848481D01*
X200301798Y-108858202D01*
X200311519Y-108868927D01*
X200320142Y-108880553D01*
X200327583Y-108892969D01*
X200333772Y-108906054D01*
X200338649Y-108919683D01*
X200342166Y-108933724D01*
X200344290Y-108948042D01*
X200345000Y-108962500D01*
X200345000Y-109257500D01*
X200344290Y-109271958D01*
X200342166Y-109286276D01*
X200338649Y-109300317D01*
X200333772Y-109313946D01*
X200327583Y-109327031D01*
X200320142Y-109339447D01*
X200311519Y-109351073D01*
X200301798Y-109361798D01*
X200291073Y-109371519D01*
X200279447Y-109380142D01*
X200267031Y-109387583D01*
X200253946Y-109393772D01*
X200240317Y-109398649D01*
X200226276Y-109402166D01*
X200211958Y-109404290D01*
X200197500Y-109405000D01*
X199852500Y-109405000D01*
X199838042Y-109404290D01*
X199823724Y-109402166D01*
X199809683Y-109398649D01*
X199796054Y-109393772D01*
X199782969Y-109387583D01*
X199770553Y-109380142D01*
X199758927Y-109371519D01*
X199748202Y-109361798D01*
X199738481Y-109351073D01*
X199729858Y-109339447D01*
X199722417Y-109327031D01*
X199716228Y-109313946D01*
X199711351Y-109300317D01*
X199707834Y-109286276D01*
X199705710Y-109271958D01*
X199705000Y-109257500D01*
X199705000Y-108962500D01*
X199705710Y-108948042D01*
X199707834Y-108933724D01*
X199711351Y-108919683D01*
X199716228Y-108906054D01*
X199722417Y-108892969D01*
X199729858Y-108880553D01*
X199738481Y-108868927D01*
X199748202Y-108858202D01*
X199758927Y-108848481D01*
X199770553Y-108839858D01*
X199782969Y-108832417D01*
X199796054Y-108826228D01*
X199809683Y-108821351D01*
X199823724Y-108817834D01*
X199838042Y-108815710D01*
X199852500Y-108815000D01*
X200197500Y-108815000D01*
X200211958Y-108815710D01*
G37*
D12*
X190900000Y-102800000D03*
D13*
X190900000Y-102250000D03*
X190900000Y-101750000D03*
D12*
X190900000Y-101200000D03*
X191700000Y-101200000D03*
D13*
X191700000Y-101750000D03*
X191700000Y-102250000D03*
D12*
X191700000Y-102800000D03*
D10*
G36*
X194176958Y-103080710D02*
G01*
X194191276Y-103082834D01*
X194205317Y-103086351D01*
X194218946Y-103091228D01*
X194232031Y-103097417D01*
X194244447Y-103104858D01*
X194256073Y-103113481D01*
X194266798Y-103123202D01*
X194276519Y-103133927D01*
X194285142Y-103145553D01*
X194292583Y-103157969D01*
X194298772Y-103171054D01*
X194303649Y-103184683D01*
X194307166Y-103198724D01*
X194309290Y-103213042D01*
X194310000Y-103227500D01*
X194310000Y-103572500D01*
X194309290Y-103586958D01*
X194307166Y-103601276D01*
X194303649Y-103615317D01*
X194298772Y-103628946D01*
X194292583Y-103642031D01*
X194285142Y-103654447D01*
X194276519Y-103666073D01*
X194266798Y-103676798D01*
X194256073Y-103686519D01*
X194244447Y-103695142D01*
X194232031Y-103702583D01*
X194218946Y-103708772D01*
X194205317Y-103713649D01*
X194191276Y-103717166D01*
X194176958Y-103719290D01*
X194162500Y-103720000D01*
X193867500Y-103720000D01*
X193853042Y-103719290D01*
X193838724Y-103717166D01*
X193824683Y-103713649D01*
X193811054Y-103708772D01*
X193797969Y-103702583D01*
X193785553Y-103695142D01*
X193773927Y-103686519D01*
X193763202Y-103676798D01*
X193753481Y-103666073D01*
X193744858Y-103654447D01*
X193737417Y-103642031D01*
X193731228Y-103628946D01*
X193726351Y-103615317D01*
X193722834Y-103601276D01*
X193720710Y-103586958D01*
X193720000Y-103572500D01*
X193720000Y-103227500D01*
X193720710Y-103213042D01*
X193722834Y-103198724D01*
X193726351Y-103184683D01*
X193731228Y-103171054D01*
X193737417Y-103157969D01*
X193744858Y-103145553D01*
X193753481Y-103133927D01*
X193763202Y-103123202D01*
X193773927Y-103113481D01*
X193785553Y-103104858D01*
X193797969Y-103097417D01*
X193811054Y-103091228D01*
X193824683Y-103086351D01*
X193838724Y-103082834D01*
X193853042Y-103080710D01*
X193867500Y-103080000D01*
X194162500Y-103080000D01*
X194176958Y-103080710D01*
G37*
G36*
X195146958Y-103080710D02*
G01*
X195161276Y-103082834D01*
X195175317Y-103086351D01*
X195188946Y-103091228D01*
X195202031Y-103097417D01*
X195214447Y-103104858D01*
X195226073Y-103113481D01*
X195236798Y-103123202D01*
X195246519Y-103133927D01*
X195255142Y-103145553D01*
X195262583Y-103157969D01*
X195268772Y-103171054D01*
X195273649Y-103184683D01*
X195277166Y-103198724D01*
X195279290Y-103213042D01*
X195280000Y-103227500D01*
X195280000Y-103572500D01*
X195279290Y-103586958D01*
X195277166Y-103601276D01*
X195273649Y-103615317D01*
X195268772Y-103628946D01*
X195262583Y-103642031D01*
X195255142Y-103654447D01*
X195246519Y-103666073D01*
X195236798Y-103676798D01*
X195226073Y-103686519D01*
X195214447Y-103695142D01*
X195202031Y-103702583D01*
X195188946Y-103708772D01*
X195175317Y-103713649D01*
X195161276Y-103717166D01*
X195146958Y-103719290D01*
X195132500Y-103720000D01*
X194837500Y-103720000D01*
X194823042Y-103719290D01*
X194808724Y-103717166D01*
X194794683Y-103713649D01*
X194781054Y-103708772D01*
X194767969Y-103702583D01*
X194755553Y-103695142D01*
X194743927Y-103686519D01*
X194733202Y-103676798D01*
X194723481Y-103666073D01*
X194714858Y-103654447D01*
X194707417Y-103642031D01*
X194701228Y-103628946D01*
X194696351Y-103615317D01*
X194692834Y-103601276D01*
X194690710Y-103586958D01*
X194690000Y-103572500D01*
X194690000Y-103227500D01*
X194690710Y-103213042D01*
X194692834Y-103198724D01*
X194696351Y-103184683D01*
X194701228Y-103171054D01*
X194707417Y-103157969D01*
X194714858Y-103145553D01*
X194723481Y-103133927D01*
X194733202Y-103123202D01*
X194743927Y-103113481D01*
X194755553Y-103104858D01*
X194767969Y-103097417D01*
X194781054Y-103091228D01*
X194794683Y-103086351D01*
X194808724Y-103082834D01*
X194823042Y-103080710D01*
X194837500Y-103080000D01*
X195132500Y-103080000D01*
X195146958Y-103080710D01*
G37*
D14*
X186350000Y-103087500D03*
X186350000Y-104162500D03*
D15*
X184575000Y-103625000D03*
X186425000Y-103625000D03*
D14*
X184650000Y-104162500D03*
X184650000Y-103087500D03*
D16*
X170220000Y-107800000D03*
X170220000Y-107000000D03*
X170220000Y-102100000D03*
X170220000Y-101300000D03*
X170220000Y-101300000D03*
X170220000Y-102100000D03*
X170220000Y-107000000D03*
X170220000Y-107800000D03*
D17*
X170220000Y-102800000D03*
X170220000Y-103300000D03*
X170220000Y-103800000D03*
X170220000Y-104800000D03*
X170220000Y-105300000D03*
X170220000Y-105800000D03*
X170220000Y-106300000D03*
X170220000Y-104300000D03*
D10*
G36*
X200086958Y-105120710D02*
G01*
X200101276Y-105122834D01*
X200115317Y-105126351D01*
X200128946Y-105131228D01*
X200142031Y-105137417D01*
X200154447Y-105144858D01*
X200166073Y-105153481D01*
X200176798Y-105163202D01*
X200186519Y-105173927D01*
X200195142Y-105185553D01*
X200202583Y-105197969D01*
X200208772Y-105211054D01*
X200213649Y-105224683D01*
X200217166Y-105238724D01*
X200219290Y-105253042D01*
X200220000Y-105267500D01*
X200220000Y-105562500D01*
X200219290Y-105576958D01*
X200217166Y-105591276D01*
X200213649Y-105605317D01*
X200208772Y-105618946D01*
X200202583Y-105632031D01*
X200195142Y-105644447D01*
X200186519Y-105656073D01*
X200176798Y-105666798D01*
X200166073Y-105676519D01*
X200154447Y-105685142D01*
X200142031Y-105692583D01*
X200128946Y-105698772D01*
X200115317Y-105703649D01*
X200101276Y-105707166D01*
X200086958Y-105709290D01*
X200072500Y-105710000D01*
X199727500Y-105710000D01*
X199713042Y-105709290D01*
X199698724Y-105707166D01*
X199684683Y-105703649D01*
X199671054Y-105698772D01*
X199657969Y-105692583D01*
X199645553Y-105685142D01*
X199633927Y-105676519D01*
X199623202Y-105666798D01*
X199613481Y-105656073D01*
X199604858Y-105644447D01*
X199597417Y-105632031D01*
X199591228Y-105618946D01*
X199586351Y-105605317D01*
X199582834Y-105591276D01*
X199580710Y-105576958D01*
X199580000Y-105562500D01*
X199580000Y-105267500D01*
X199580710Y-105253042D01*
X199582834Y-105238724D01*
X199586351Y-105224683D01*
X199591228Y-105211054D01*
X199597417Y-105197969D01*
X199604858Y-105185553D01*
X199613481Y-105173927D01*
X199623202Y-105163202D01*
X199633927Y-105153481D01*
X199645553Y-105144858D01*
X199657969Y-105137417D01*
X199671054Y-105131228D01*
X199684683Y-105126351D01*
X199698724Y-105122834D01*
X199713042Y-105120710D01*
X199727500Y-105120000D01*
X200072500Y-105120000D01*
X200086958Y-105120710D01*
G37*
G36*
X200086958Y-106090710D02*
G01*
X200101276Y-106092834D01*
X200115317Y-106096351D01*
X200128946Y-106101228D01*
X200142031Y-106107417D01*
X200154447Y-106114858D01*
X200166073Y-106123481D01*
X200176798Y-106133202D01*
X200186519Y-106143927D01*
X200195142Y-106155553D01*
X200202583Y-106167969D01*
X200208772Y-106181054D01*
X200213649Y-106194683D01*
X200217166Y-106208724D01*
X200219290Y-106223042D01*
X200220000Y-106237500D01*
X200220000Y-106532500D01*
X200219290Y-106546958D01*
X200217166Y-106561276D01*
X200213649Y-106575317D01*
X200208772Y-106588946D01*
X200202583Y-106602031D01*
X200195142Y-106614447D01*
X200186519Y-106626073D01*
X200176798Y-106636798D01*
X200166073Y-106646519D01*
X200154447Y-106655142D01*
X200142031Y-106662583D01*
X200128946Y-106668772D01*
X200115317Y-106673649D01*
X200101276Y-106677166D01*
X200086958Y-106679290D01*
X200072500Y-106680000D01*
X199727500Y-106680000D01*
X199713042Y-106679290D01*
X199698724Y-106677166D01*
X199684683Y-106673649D01*
X199671054Y-106668772D01*
X199657969Y-106662583D01*
X199645553Y-106655142D01*
X199633927Y-106646519D01*
X199623202Y-106636798D01*
X199613481Y-106626073D01*
X199604858Y-106614447D01*
X199597417Y-106602031D01*
X199591228Y-106588946D01*
X199586351Y-106575317D01*
X199582834Y-106561276D01*
X199580710Y-106546958D01*
X199580000Y-106532500D01*
X199580000Y-106237500D01*
X199580710Y-106223042D01*
X199582834Y-106208724D01*
X199586351Y-106194683D01*
X199591228Y-106181054D01*
X199597417Y-106167969D01*
X199604858Y-106155553D01*
X199613481Y-106143927D01*
X199623202Y-106133202D01*
X199633927Y-106123481D01*
X199645553Y-106114858D01*
X199657969Y-106107417D01*
X199671054Y-106101228D01*
X199684683Y-106096351D01*
X199698724Y-106092834D01*
X199713042Y-106090710D01*
X199727500Y-106090000D01*
X200072500Y-106090000D01*
X200086958Y-106090710D01*
G37*
G36*
X184736958Y-109645710D02*
G01*
X184751276Y-109647834D01*
X184765317Y-109651351D01*
X184778946Y-109656228D01*
X184792031Y-109662417D01*
X184804447Y-109669858D01*
X184816073Y-109678481D01*
X184826798Y-109688202D01*
X184836519Y-109698927D01*
X184845142Y-109710553D01*
X184852583Y-109722969D01*
X184858772Y-109736054D01*
X184863649Y-109749683D01*
X184867166Y-109763724D01*
X184869290Y-109778042D01*
X184870000Y-109792500D01*
X184870000Y-110087500D01*
X184869290Y-110101958D01*
X184867166Y-110116276D01*
X184863649Y-110130317D01*
X184858772Y-110143946D01*
X184852583Y-110157031D01*
X184845142Y-110169447D01*
X184836519Y-110181073D01*
X184826798Y-110191798D01*
X184816073Y-110201519D01*
X184804447Y-110210142D01*
X184792031Y-110217583D01*
X184778946Y-110223772D01*
X184765317Y-110228649D01*
X184751276Y-110232166D01*
X184736958Y-110234290D01*
X184722500Y-110235000D01*
X184377500Y-110235000D01*
X184363042Y-110234290D01*
X184348724Y-110232166D01*
X184334683Y-110228649D01*
X184321054Y-110223772D01*
X184307969Y-110217583D01*
X184295553Y-110210142D01*
X184283927Y-110201519D01*
X184273202Y-110191798D01*
X184263481Y-110181073D01*
X184254858Y-110169447D01*
X184247417Y-110157031D01*
X184241228Y-110143946D01*
X184236351Y-110130317D01*
X184232834Y-110116276D01*
X184230710Y-110101958D01*
X184230000Y-110087500D01*
X184230000Y-109792500D01*
X184230710Y-109778042D01*
X184232834Y-109763724D01*
X184236351Y-109749683D01*
X184241228Y-109736054D01*
X184247417Y-109722969D01*
X184254858Y-109710553D01*
X184263481Y-109698927D01*
X184273202Y-109688202D01*
X184283927Y-109678481D01*
X184295553Y-109669858D01*
X184307969Y-109662417D01*
X184321054Y-109656228D01*
X184334683Y-109651351D01*
X184348724Y-109647834D01*
X184363042Y-109645710D01*
X184377500Y-109645000D01*
X184722500Y-109645000D01*
X184736958Y-109645710D01*
G37*
G36*
X184736958Y-110615710D02*
G01*
X184751276Y-110617834D01*
X184765317Y-110621351D01*
X184778946Y-110626228D01*
X184792031Y-110632417D01*
X184804447Y-110639858D01*
X184816073Y-110648481D01*
X184826798Y-110658202D01*
X184836519Y-110668927D01*
X184845142Y-110680553D01*
X184852583Y-110692969D01*
X184858772Y-110706054D01*
X184863649Y-110719683D01*
X184867166Y-110733724D01*
X184869290Y-110748042D01*
X184870000Y-110762500D01*
X184870000Y-111057500D01*
X184869290Y-111071958D01*
X184867166Y-111086276D01*
X184863649Y-111100317D01*
X184858772Y-111113946D01*
X184852583Y-111127031D01*
X184845142Y-111139447D01*
X184836519Y-111151073D01*
X184826798Y-111161798D01*
X184816073Y-111171519D01*
X184804447Y-111180142D01*
X184792031Y-111187583D01*
X184778946Y-111193772D01*
X184765317Y-111198649D01*
X184751276Y-111202166D01*
X184736958Y-111204290D01*
X184722500Y-111205000D01*
X184377500Y-111205000D01*
X184363042Y-111204290D01*
X184348724Y-111202166D01*
X184334683Y-111198649D01*
X184321054Y-111193772D01*
X184307969Y-111187583D01*
X184295553Y-111180142D01*
X184283927Y-111171519D01*
X184273202Y-111161798D01*
X184263481Y-111151073D01*
X184254858Y-111139447D01*
X184247417Y-111127031D01*
X184241228Y-111113946D01*
X184236351Y-111100317D01*
X184232834Y-111086276D01*
X184230710Y-111071958D01*
X184230000Y-111057500D01*
X184230000Y-110762500D01*
X184230710Y-110748042D01*
X184232834Y-110733724D01*
X184236351Y-110719683D01*
X184241228Y-110706054D01*
X184247417Y-110692969D01*
X184254858Y-110680553D01*
X184263481Y-110668927D01*
X184273202Y-110658202D01*
X184283927Y-110648481D01*
X184295553Y-110639858D01*
X184307969Y-110632417D01*
X184321054Y-110626228D01*
X184334683Y-110621351D01*
X184348724Y-110617834D01*
X184363042Y-110615710D01*
X184377500Y-110615000D01*
X184722500Y-110615000D01*
X184736958Y-110615710D01*
G37*
D18*
X178750000Y-106175000D03*
X178750000Y-110375000D03*
D19*
X191300000Y-108020000D03*
X191300000Y-110380000D03*
D10*
G36*
X173961958Y-104680710D02*
G01*
X173976276Y-104682834D01*
X173990317Y-104686351D01*
X174003946Y-104691228D01*
X174017031Y-104697417D01*
X174029447Y-104704858D01*
X174041073Y-104713481D01*
X174051798Y-104723202D01*
X174061519Y-104733927D01*
X174070142Y-104745553D01*
X174077583Y-104757969D01*
X174083772Y-104771054D01*
X174088649Y-104784683D01*
X174092166Y-104798724D01*
X174094290Y-104813042D01*
X174095000Y-104827500D01*
X174095000Y-105172500D01*
X174094290Y-105186958D01*
X174092166Y-105201276D01*
X174088649Y-105215317D01*
X174083772Y-105228946D01*
X174077583Y-105242031D01*
X174070142Y-105254447D01*
X174061519Y-105266073D01*
X174051798Y-105276798D01*
X174041073Y-105286519D01*
X174029447Y-105295142D01*
X174017031Y-105302583D01*
X174003946Y-105308772D01*
X173990317Y-105313649D01*
X173976276Y-105317166D01*
X173961958Y-105319290D01*
X173947500Y-105320000D01*
X173652500Y-105320000D01*
X173638042Y-105319290D01*
X173623724Y-105317166D01*
X173609683Y-105313649D01*
X173596054Y-105308772D01*
X173582969Y-105302583D01*
X173570553Y-105295142D01*
X173558927Y-105286519D01*
X173548202Y-105276798D01*
X173538481Y-105266073D01*
X173529858Y-105254447D01*
X173522417Y-105242031D01*
X173516228Y-105228946D01*
X173511351Y-105215317D01*
X173507834Y-105201276D01*
X173505710Y-105186958D01*
X173505000Y-105172500D01*
X173505000Y-104827500D01*
X173505710Y-104813042D01*
X173507834Y-104798724D01*
X173511351Y-104784683D01*
X173516228Y-104771054D01*
X173522417Y-104757969D01*
X173529858Y-104745553D01*
X173538481Y-104733927D01*
X173548202Y-104723202D01*
X173558927Y-104713481D01*
X173570553Y-104704858D01*
X173582969Y-104697417D01*
X173596054Y-104691228D01*
X173609683Y-104686351D01*
X173623724Y-104682834D01*
X173638042Y-104680710D01*
X173652500Y-104680000D01*
X173947500Y-104680000D01*
X173961958Y-104680710D01*
G37*
G36*
X174931958Y-104680710D02*
G01*
X174946276Y-104682834D01*
X174960317Y-104686351D01*
X174973946Y-104691228D01*
X174987031Y-104697417D01*
X174999447Y-104704858D01*
X175011073Y-104713481D01*
X175021798Y-104723202D01*
X175031519Y-104733927D01*
X175040142Y-104745553D01*
X175047583Y-104757969D01*
X175053772Y-104771054D01*
X175058649Y-104784683D01*
X175062166Y-104798724D01*
X175064290Y-104813042D01*
X175065000Y-104827500D01*
X175065000Y-105172500D01*
X175064290Y-105186958D01*
X175062166Y-105201276D01*
X175058649Y-105215317D01*
X175053772Y-105228946D01*
X175047583Y-105242031D01*
X175040142Y-105254447D01*
X175031519Y-105266073D01*
X175021798Y-105276798D01*
X175011073Y-105286519D01*
X174999447Y-105295142D01*
X174987031Y-105302583D01*
X174973946Y-105308772D01*
X174960317Y-105313649D01*
X174946276Y-105317166D01*
X174931958Y-105319290D01*
X174917500Y-105320000D01*
X174622500Y-105320000D01*
X174608042Y-105319290D01*
X174593724Y-105317166D01*
X174579683Y-105313649D01*
X174566054Y-105308772D01*
X174552969Y-105302583D01*
X174540553Y-105295142D01*
X174528927Y-105286519D01*
X174518202Y-105276798D01*
X174508481Y-105266073D01*
X174499858Y-105254447D01*
X174492417Y-105242031D01*
X174486228Y-105228946D01*
X174481351Y-105215317D01*
X174477834Y-105201276D01*
X174475710Y-105186958D01*
X174475000Y-105172500D01*
X174475000Y-104827500D01*
X174475710Y-104813042D01*
X174477834Y-104798724D01*
X174481351Y-104784683D01*
X174486228Y-104771054D01*
X174492417Y-104757969D01*
X174499858Y-104745553D01*
X174508481Y-104733927D01*
X174518202Y-104723202D01*
X174528927Y-104713481D01*
X174540553Y-104704858D01*
X174552969Y-104697417D01*
X174566054Y-104691228D01*
X174579683Y-104686351D01*
X174593724Y-104682834D01*
X174608042Y-104680710D01*
X174622500Y-104680000D01*
X174917500Y-104680000D01*
X174931958Y-104680710D01*
G37*
D20*
X186450000Y-108075000D03*
X187400000Y-108075000D03*
X188350000Y-108075000D03*
X188350000Y-110875000D03*
X187400000Y-110875000D03*
X186450000Y-110875000D03*
D12*
X190900000Y-100000000D03*
D13*
X190900000Y-99450000D03*
X190900000Y-98950000D03*
D12*
X190900000Y-98400000D03*
X191700000Y-98400000D03*
D13*
X191700000Y-98950000D03*
X191700000Y-99450000D03*
D12*
X191700000Y-100000000D03*
D10*
G36*
X196386958Y-99590710D02*
G01*
X196401276Y-99592834D01*
X196415317Y-99596351D01*
X196428946Y-99601228D01*
X196442031Y-99607417D01*
X196454447Y-99614858D01*
X196466073Y-99623481D01*
X196476798Y-99633202D01*
X196486519Y-99643927D01*
X196495142Y-99655553D01*
X196502583Y-99667969D01*
X196508772Y-99681054D01*
X196513649Y-99694683D01*
X196517166Y-99708724D01*
X196519290Y-99723042D01*
X196520000Y-99737500D01*
X196520000Y-100032500D01*
X196519290Y-100046958D01*
X196517166Y-100061276D01*
X196513649Y-100075317D01*
X196508772Y-100088946D01*
X196502583Y-100102031D01*
X196495142Y-100114447D01*
X196486519Y-100126073D01*
X196476798Y-100136798D01*
X196466073Y-100146519D01*
X196454447Y-100155142D01*
X196442031Y-100162583D01*
X196428946Y-100168772D01*
X196415317Y-100173649D01*
X196401276Y-100177166D01*
X196386958Y-100179290D01*
X196372500Y-100180000D01*
X196027500Y-100180000D01*
X196013042Y-100179290D01*
X195998724Y-100177166D01*
X195984683Y-100173649D01*
X195971054Y-100168772D01*
X195957969Y-100162583D01*
X195945553Y-100155142D01*
X195933927Y-100146519D01*
X195923202Y-100136798D01*
X195913481Y-100126073D01*
X195904858Y-100114447D01*
X195897417Y-100102031D01*
X195891228Y-100088946D01*
X195886351Y-100075317D01*
X195882834Y-100061276D01*
X195880710Y-100046958D01*
X195880000Y-100032500D01*
X195880000Y-99737500D01*
X195880710Y-99723042D01*
X195882834Y-99708724D01*
X195886351Y-99694683D01*
X195891228Y-99681054D01*
X195897417Y-99667969D01*
X195904858Y-99655553D01*
X195913481Y-99643927D01*
X195923202Y-99633202D01*
X195933927Y-99623481D01*
X195945553Y-99614858D01*
X195957969Y-99607417D01*
X195971054Y-99601228D01*
X195984683Y-99596351D01*
X195998724Y-99592834D01*
X196013042Y-99590710D01*
X196027500Y-99590000D01*
X196372500Y-99590000D01*
X196386958Y-99590710D01*
G37*
G36*
X196386958Y-98620710D02*
G01*
X196401276Y-98622834D01*
X196415317Y-98626351D01*
X196428946Y-98631228D01*
X196442031Y-98637417D01*
X196454447Y-98644858D01*
X196466073Y-98653481D01*
X196476798Y-98663202D01*
X196486519Y-98673927D01*
X196495142Y-98685553D01*
X196502583Y-98697969D01*
X196508772Y-98711054D01*
X196513649Y-98724683D01*
X196517166Y-98738724D01*
X196519290Y-98753042D01*
X196520000Y-98767500D01*
X196520000Y-99062500D01*
X196519290Y-99076958D01*
X196517166Y-99091276D01*
X196513649Y-99105317D01*
X196508772Y-99118946D01*
X196502583Y-99132031D01*
X196495142Y-99144447D01*
X196486519Y-99156073D01*
X196476798Y-99166798D01*
X196466073Y-99176519D01*
X196454447Y-99185142D01*
X196442031Y-99192583D01*
X196428946Y-99198772D01*
X196415317Y-99203649D01*
X196401276Y-99207166D01*
X196386958Y-99209290D01*
X196372500Y-99210000D01*
X196027500Y-99210000D01*
X196013042Y-99209290D01*
X195998724Y-99207166D01*
X195984683Y-99203649D01*
X195971054Y-99198772D01*
X195957969Y-99192583D01*
X195945553Y-99185142D01*
X195933927Y-99176519D01*
X195923202Y-99166798D01*
X195913481Y-99156073D01*
X195904858Y-99144447D01*
X195897417Y-99132031D01*
X195891228Y-99118946D01*
X195886351Y-99105317D01*
X195882834Y-99091276D01*
X195880710Y-99076958D01*
X195880000Y-99062500D01*
X195880000Y-98767500D01*
X195880710Y-98753042D01*
X195882834Y-98738724D01*
X195886351Y-98724683D01*
X195891228Y-98711054D01*
X195897417Y-98697969D01*
X195904858Y-98685553D01*
X195913481Y-98673927D01*
X195923202Y-98663202D01*
X195933927Y-98653481D01*
X195945553Y-98644858D01*
X195957969Y-98637417D01*
X195971054Y-98631228D01*
X195984683Y-98626351D01*
X195998724Y-98622834D01*
X196013042Y-98620710D01*
X196027500Y-98620000D01*
X196372500Y-98620000D01*
X196386958Y-98620710D01*
G37*
G36*
X189711958Y-110690710D02*
G01*
X189726276Y-110692834D01*
X189740317Y-110696351D01*
X189753946Y-110701228D01*
X189767031Y-110707417D01*
X189779447Y-110714858D01*
X189791073Y-110723481D01*
X189801798Y-110733202D01*
X189811519Y-110743927D01*
X189820142Y-110755553D01*
X189827583Y-110767969D01*
X189833772Y-110781054D01*
X189838649Y-110794683D01*
X189842166Y-110808724D01*
X189844290Y-110823042D01*
X189845000Y-110837500D01*
X189845000Y-111132500D01*
X189844290Y-111146958D01*
X189842166Y-111161276D01*
X189838649Y-111175317D01*
X189833772Y-111188946D01*
X189827583Y-111202031D01*
X189820142Y-111214447D01*
X189811519Y-111226073D01*
X189801798Y-111236798D01*
X189791073Y-111246519D01*
X189779447Y-111255142D01*
X189767031Y-111262583D01*
X189753946Y-111268772D01*
X189740317Y-111273649D01*
X189726276Y-111277166D01*
X189711958Y-111279290D01*
X189697500Y-111280000D01*
X189352500Y-111280000D01*
X189338042Y-111279290D01*
X189323724Y-111277166D01*
X189309683Y-111273649D01*
X189296054Y-111268772D01*
X189282969Y-111262583D01*
X189270553Y-111255142D01*
X189258927Y-111246519D01*
X189248202Y-111236798D01*
X189238481Y-111226073D01*
X189229858Y-111214447D01*
X189222417Y-111202031D01*
X189216228Y-111188946D01*
X189211351Y-111175317D01*
X189207834Y-111161276D01*
X189205710Y-111146958D01*
X189205000Y-111132500D01*
X189205000Y-110837500D01*
X189205710Y-110823042D01*
X189207834Y-110808724D01*
X189211351Y-110794683D01*
X189216228Y-110781054D01*
X189222417Y-110767969D01*
X189229858Y-110755553D01*
X189238481Y-110743927D01*
X189248202Y-110733202D01*
X189258927Y-110723481D01*
X189270553Y-110714858D01*
X189282969Y-110707417D01*
X189296054Y-110701228D01*
X189309683Y-110696351D01*
X189323724Y-110692834D01*
X189338042Y-110690710D01*
X189352500Y-110690000D01*
X189697500Y-110690000D01*
X189711958Y-110690710D01*
G37*
G36*
X189711958Y-109720710D02*
G01*
X189726276Y-109722834D01*
X189740317Y-109726351D01*
X189753946Y-109731228D01*
X189767031Y-109737417D01*
X189779447Y-109744858D01*
X189791073Y-109753481D01*
X189801798Y-109763202D01*
X189811519Y-109773927D01*
X189820142Y-109785553D01*
X189827583Y-109797969D01*
X189833772Y-109811054D01*
X189838649Y-109824683D01*
X189842166Y-109838724D01*
X189844290Y-109853042D01*
X189845000Y-109867500D01*
X189845000Y-110162500D01*
X189844290Y-110176958D01*
X189842166Y-110191276D01*
X189838649Y-110205317D01*
X189833772Y-110218946D01*
X189827583Y-110232031D01*
X189820142Y-110244447D01*
X189811519Y-110256073D01*
X189801798Y-110266798D01*
X189791073Y-110276519D01*
X189779447Y-110285142D01*
X189767031Y-110292583D01*
X189753946Y-110298772D01*
X189740317Y-110303649D01*
X189726276Y-110307166D01*
X189711958Y-110309290D01*
X189697500Y-110310000D01*
X189352500Y-110310000D01*
X189338042Y-110309290D01*
X189323724Y-110307166D01*
X189309683Y-110303649D01*
X189296054Y-110298772D01*
X189282969Y-110292583D01*
X189270553Y-110285142D01*
X189258927Y-110276519D01*
X189248202Y-110266798D01*
X189238481Y-110256073D01*
X189229858Y-110244447D01*
X189222417Y-110232031D01*
X189216228Y-110218946D01*
X189211351Y-110205317D01*
X189207834Y-110191276D01*
X189205710Y-110176958D01*
X189205000Y-110162500D01*
X189205000Y-109867500D01*
X189205710Y-109853042D01*
X189207834Y-109838724D01*
X189211351Y-109824683D01*
X189216228Y-109811054D01*
X189222417Y-109797969D01*
X189229858Y-109785553D01*
X189238481Y-109773927D01*
X189248202Y-109763202D01*
X189258927Y-109753481D01*
X189270553Y-109744858D01*
X189282969Y-109737417D01*
X189296054Y-109731228D01*
X189309683Y-109726351D01*
X189323724Y-109722834D01*
X189338042Y-109720710D01*
X189352500Y-109720000D01*
X189697500Y-109720000D01*
X189711958Y-109720710D01*
G37*
G36*
X189711958Y-107620710D02*
G01*
X189726276Y-107622834D01*
X189740317Y-107626351D01*
X189753946Y-107631228D01*
X189767031Y-107637417D01*
X189779447Y-107644858D01*
X189791073Y-107653481D01*
X189801798Y-107663202D01*
X189811519Y-107673927D01*
X189820142Y-107685553D01*
X189827583Y-107697969D01*
X189833772Y-107711054D01*
X189838649Y-107724683D01*
X189842166Y-107738724D01*
X189844290Y-107753042D01*
X189845000Y-107767500D01*
X189845000Y-108062500D01*
X189844290Y-108076958D01*
X189842166Y-108091276D01*
X189838649Y-108105317D01*
X189833772Y-108118946D01*
X189827583Y-108132031D01*
X189820142Y-108144447D01*
X189811519Y-108156073D01*
X189801798Y-108166798D01*
X189791073Y-108176519D01*
X189779447Y-108185142D01*
X189767031Y-108192583D01*
X189753946Y-108198772D01*
X189740317Y-108203649D01*
X189726276Y-108207166D01*
X189711958Y-108209290D01*
X189697500Y-108210000D01*
X189352500Y-108210000D01*
X189338042Y-108209290D01*
X189323724Y-108207166D01*
X189309683Y-108203649D01*
X189296054Y-108198772D01*
X189282969Y-108192583D01*
X189270553Y-108185142D01*
X189258927Y-108176519D01*
X189248202Y-108166798D01*
X189238481Y-108156073D01*
X189229858Y-108144447D01*
X189222417Y-108132031D01*
X189216228Y-108118946D01*
X189211351Y-108105317D01*
X189207834Y-108091276D01*
X189205710Y-108076958D01*
X189205000Y-108062500D01*
X189205000Y-107767500D01*
X189205710Y-107753042D01*
X189207834Y-107738724D01*
X189211351Y-107724683D01*
X189216228Y-107711054D01*
X189222417Y-107697969D01*
X189229858Y-107685553D01*
X189238481Y-107673927D01*
X189248202Y-107663202D01*
X189258927Y-107653481D01*
X189270553Y-107644858D01*
X189282969Y-107637417D01*
X189296054Y-107631228D01*
X189309683Y-107626351D01*
X189323724Y-107622834D01*
X189338042Y-107620710D01*
X189352500Y-107620000D01*
X189697500Y-107620000D01*
X189711958Y-107620710D01*
G37*
G36*
X189711958Y-108590710D02*
G01*
X189726276Y-108592834D01*
X189740317Y-108596351D01*
X189753946Y-108601228D01*
X189767031Y-108607417D01*
X189779447Y-108614858D01*
X189791073Y-108623481D01*
X189801798Y-108633202D01*
X189811519Y-108643927D01*
X189820142Y-108655553D01*
X189827583Y-108667969D01*
X189833772Y-108681054D01*
X189838649Y-108694683D01*
X189842166Y-108708724D01*
X189844290Y-108723042D01*
X189845000Y-108737500D01*
X189845000Y-109032500D01*
X189844290Y-109046958D01*
X189842166Y-109061276D01*
X189838649Y-109075317D01*
X189833772Y-109088946D01*
X189827583Y-109102031D01*
X189820142Y-109114447D01*
X189811519Y-109126073D01*
X189801798Y-109136798D01*
X189791073Y-109146519D01*
X189779447Y-109155142D01*
X189767031Y-109162583D01*
X189753946Y-109168772D01*
X189740317Y-109173649D01*
X189726276Y-109177166D01*
X189711958Y-109179290D01*
X189697500Y-109180000D01*
X189352500Y-109180000D01*
X189338042Y-109179290D01*
X189323724Y-109177166D01*
X189309683Y-109173649D01*
X189296054Y-109168772D01*
X189282969Y-109162583D01*
X189270553Y-109155142D01*
X189258927Y-109146519D01*
X189248202Y-109136798D01*
X189238481Y-109126073D01*
X189229858Y-109114447D01*
X189222417Y-109102031D01*
X189216228Y-109088946D01*
X189211351Y-109075317D01*
X189207834Y-109061276D01*
X189205710Y-109046958D01*
X189205000Y-109032500D01*
X189205000Y-108737500D01*
X189205710Y-108723042D01*
X189207834Y-108708724D01*
X189211351Y-108694683D01*
X189216228Y-108681054D01*
X189222417Y-108667969D01*
X189229858Y-108655553D01*
X189238481Y-108643927D01*
X189248202Y-108633202D01*
X189258927Y-108623481D01*
X189270553Y-108614858D01*
X189282969Y-108607417D01*
X189296054Y-108601228D01*
X189309683Y-108596351D01*
X189323724Y-108592834D01*
X189338042Y-108590710D01*
X189352500Y-108590000D01*
X189697500Y-108590000D01*
X189711958Y-108590710D01*
G37*
G36*
X187786958Y-102790710D02*
G01*
X187801276Y-102792834D01*
X187815317Y-102796351D01*
X187828946Y-102801228D01*
X187842031Y-102807417D01*
X187854447Y-102814858D01*
X187866073Y-102823481D01*
X187876798Y-102833202D01*
X187886519Y-102843927D01*
X187895142Y-102855553D01*
X187902583Y-102867969D01*
X187908772Y-102881054D01*
X187913649Y-102894683D01*
X187917166Y-102908724D01*
X187919290Y-102923042D01*
X187920000Y-102937500D01*
X187920000Y-103232500D01*
X187919290Y-103246958D01*
X187917166Y-103261276D01*
X187913649Y-103275317D01*
X187908772Y-103288946D01*
X187902583Y-103302031D01*
X187895142Y-103314447D01*
X187886519Y-103326073D01*
X187876798Y-103336798D01*
X187866073Y-103346519D01*
X187854447Y-103355142D01*
X187842031Y-103362583D01*
X187828946Y-103368772D01*
X187815317Y-103373649D01*
X187801276Y-103377166D01*
X187786958Y-103379290D01*
X187772500Y-103380000D01*
X187427500Y-103380000D01*
X187413042Y-103379290D01*
X187398724Y-103377166D01*
X187384683Y-103373649D01*
X187371054Y-103368772D01*
X187357969Y-103362583D01*
X187345553Y-103355142D01*
X187333927Y-103346519D01*
X187323202Y-103336798D01*
X187313481Y-103326073D01*
X187304858Y-103314447D01*
X187297417Y-103302031D01*
X187291228Y-103288946D01*
X187286351Y-103275317D01*
X187282834Y-103261276D01*
X187280710Y-103246958D01*
X187280000Y-103232500D01*
X187280000Y-102937500D01*
X187280710Y-102923042D01*
X187282834Y-102908724D01*
X187286351Y-102894683D01*
X187291228Y-102881054D01*
X187297417Y-102867969D01*
X187304858Y-102855553D01*
X187313481Y-102843927D01*
X187323202Y-102833202D01*
X187333927Y-102823481D01*
X187345553Y-102814858D01*
X187357969Y-102807417D01*
X187371054Y-102801228D01*
X187384683Y-102796351D01*
X187398724Y-102792834D01*
X187413042Y-102790710D01*
X187427500Y-102790000D01*
X187772500Y-102790000D01*
X187786958Y-102790710D01*
G37*
G36*
X187786958Y-101820710D02*
G01*
X187801276Y-101822834D01*
X187815317Y-101826351D01*
X187828946Y-101831228D01*
X187842031Y-101837417D01*
X187854447Y-101844858D01*
X187866073Y-101853481D01*
X187876798Y-101863202D01*
X187886519Y-101873927D01*
X187895142Y-101885553D01*
X187902583Y-101897969D01*
X187908772Y-101911054D01*
X187913649Y-101924683D01*
X187917166Y-101938724D01*
X187919290Y-101953042D01*
X187920000Y-101967500D01*
X187920000Y-102262500D01*
X187919290Y-102276958D01*
X187917166Y-102291276D01*
X187913649Y-102305317D01*
X187908772Y-102318946D01*
X187902583Y-102332031D01*
X187895142Y-102344447D01*
X187886519Y-102356073D01*
X187876798Y-102366798D01*
X187866073Y-102376519D01*
X187854447Y-102385142D01*
X187842031Y-102392583D01*
X187828946Y-102398772D01*
X187815317Y-102403649D01*
X187801276Y-102407166D01*
X187786958Y-102409290D01*
X187772500Y-102410000D01*
X187427500Y-102410000D01*
X187413042Y-102409290D01*
X187398724Y-102407166D01*
X187384683Y-102403649D01*
X187371054Y-102398772D01*
X187357969Y-102392583D01*
X187345553Y-102385142D01*
X187333927Y-102376519D01*
X187323202Y-102366798D01*
X187313481Y-102356073D01*
X187304858Y-102344447D01*
X187297417Y-102332031D01*
X187291228Y-102318946D01*
X187286351Y-102305317D01*
X187282834Y-102291276D01*
X187280710Y-102276958D01*
X187280000Y-102262500D01*
X187280000Y-101967500D01*
X187280710Y-101953042D01*
X187282834Y-101938724D01*
X187286351Y-101924683D01*
X187291228Y-101911054D01*
X187297417Y-101897969D01*
X187304858Y-101885553D01*
X187313481Y-101873927D01*
X187323202Y-101863202D01*
X187333927Y-101853481D01*
X187345553Y-101844858D01*
X187357969Y-101837417D01*
X187371054Y-101831228D01*
X187384683Y-101826351D01*
X187398724Y-101822834D01*
X187413042Y-101820710D01*
X187427500Y-101820000D01*
X187772500Y-101820000D01*
X187786958Y-101820710D01*
G37*
G36*
X194776958Y-108680710D02*
G01*
X194791276Y-108682834D01*
X194805317Y-108686351D01*
X194818946Y-108691228D01*
X194832031Y-108697417D01*
X194844447Y-108704858D01*
X194856073Y-108713481D01*
X194866798Y-108723202D01*
X194876519Y-108733927D01*
X194885142Y-108745553D01*
X194892583Y-108757969D01*
X194898772Y-108771054D01*
X194903649Y-108784683D01*
X194907166Y-108798724D01*
X194909290Y-108813042D01*
X194910000Y-108827500D01*
X194910000Y-109172500D01*
X194909290Y-109186958D01*
X194907166Y-109201276D01*
X194903649Y-109215317D01*
X194898772Y-109228946D01*
X194892583Y-109242031D01*
X194885142Y-109254447D01*
X194876519Y-109266073D01*
X194866798Y-109276798D01*
X194856073Y-109286519D01*
X194844447Y-109295142D01*
X194832031Y-109302583D01*
X194818946Y-109308772D01*
X194805317Y-109313649D01*
X194791276Y-109317166D01*
X194776958Y-109319290D01*
X194762500Y-109320000D01*
X194467500Y-109320000D01*
X194453042Y-109319290D01*
X194438724Y-109317166D01*
X194424683Y-109313649D01*
X194411054Y-109308772D01*
X194397969Y-109302583D01*
X194385553Y-109295142D01*
X194373927Y-109286519D01*
X194363202Y-109276798D01*
X194353481Y-109266073D01*
X194344858Y-109254447D01*
X194337417Y-109242031D01*
X194331228Y-109228946D01*
X194326351Y-109215317D01*
X194322834Y-109201276D01*
X194320710Y-109186958D01*
X194320000Y-109172500D01*
X194320000Y-108827500D01*
X194320710Y-108813042D01*
X194322834Y-108798724D01*
X194326351Y-108784683D01*
X194331228Y-108771054D01*
X194337417Y-108757969D01*
X194344858Y-108745553D01*
X194353481Y-108733927D01*
X194363202Y-108723202D01*
X194373927Y-108713481D01*
X194385553Y-108704858D01*
X194397969Y-108697417D01*
X194411054Y-108691228D01*
X194424683Y-108686351D01*
X194438724Y-108682834D01*
X194453042Y-108680710D01*
X194467500Y-108680000D01*
X194762500Y-108680000D01*
X194776958Y-108680710D01*
G37*
G36*
X195746958Y-108680710D02*
G01*
X195761276Y-108682834D01*
X195775317Y-108686351D01*
X195788946Y-108691228D01*
X195802031Y-108697417D01*
X195814447Y-108704858D01*
X195826073Y-108713481D01*
X195836798Y-108723202D01*
X195846519Y-108733927D01*
X195855142Y-108745553D01*
X195862583Y-108757969D01*
X195868772Y-108771054D01*
X195873649Y-108784683D01*
X195877166Y-108798724D01*
X195879290Y-108813042D01*
X195880000Y-108827500D01*
X195880000Y-109172500D01*
X195879290Y-109186958D01*
X195877166Y-109201276D01*
X195873649Y-109215317D01*
X195868772Y-109228946D01*
X195862583Y-109242031D01*
X195855142Y-109254447D01*
X195846519Y-109266073D01*
X195836798Y-109276798D01*
X195826073Y-109286519D01*
X195814447Y-109295142D01*
X195802031Y-109302583D01*
X195788946Y-109308772D01*
X195775317Y-109313649D01*
X195761276Y-109317166D01*
X195746958Y-109319290D01*
X195732500Y-109320000D01*
X195437500Y-109320000D01*
X195423042Y-109319290D01*
X195408724Y-109317166D01*
X195394683Y-109313649D01*
X195381054Y-109308772D01*
X195367969Y-109302583D01*
X195355553Y-109295142D01*
X195343927Y-109286519D01*
X195333202Y-109276798D01*
X195323481Y-109266073D01*
X195314858Y-109254447D01*
X195307417Y-109242031D01*
X195301228Y-109228946D01*
X195296351Y-109215317D01*
X195292834Y-109201276D01*
X195290710Y-109186958D01*
X195290000Y-109172500D01*
X195290000Y-108827500D01*
X195290710Y-108813042D01*
X195292834Y-108798724D01*
X195296351Y-108784683D01*
X195301228Y-108771054D01*
X195307417Y-108757969D01*
X195314858Y-108745553D01*
X195323481Y-108733927D01*
X195333202Y-108723202D01*
X195343927Y-108713481D01*
X195355553Y-108704858D01*
X195367969Y-108697417D01*
X195381054Y-108691228D01*
X195394683Y-108686351D01*
X195408724Y-108682834D01*
X195423042Y-108680710D01*
X195437500Y-108680000D01*
X195732500Y-108680000D01*
X195746958Y-108680710D01*
G37*
G36*
X194776958Y-109780710D02*
G01*
X194791276Y-109782834D01*
X194805317Y-109786351D01*
X194818946Y-109791228D01*
X194832031Y-109797417D01*
X194844447Y-109804858D01*
X194856073Y-109813481D01*
X194866798Y-109823202D01*
X194876519Y-109833927D01*
X194885142Y-109845553D01*
X194892583Y-109857969D01*
X194898772Y-109871054D01*
X194903649Y-109884683D01*
X194907166Y-109898724D01*
X194909290Y-109913042D01*
X194910000Y-109927500D01*
X194910000Y-110272500D01*
X194909290Y-110286958D01*
X194907166Y-110301276D01*
X194903649Y-110315317D01*
X194898772Y-110328946D01*
X194892583Y-110342031D01*
X194885142Y-110354447D01*
X194876519Y-110366073D01*
X194866798Y-110376798D01*
X194856073Y-110386519D01*
X194844447Y-110395142D01*
X194832031Y-110402583D01*
X194818946Y-110408772D01*
X194805317Y-110413649D01*
X194791276Y-110417166D01*
X194776958Y-110419290D01*
X194762500Y-110420000D01*
X194467500Y-110420000D01*
X194453042Y-110419290D01*
X194438724Y-110417166D01*
X194424683Y-110413649D01*
X194411054Y-110408772D01*
X194397969Y-110402583D01*
X194385553Y-110395142D01*
X194373927Y-110386519D01*
X194363202Y-110376798D01*
X194353481Y-110366073D01*
X194344858Y-110354447D01*
X194337417Y-110342031D01*
X194331228Y-110328946D01*
X194326351Y-110315317D01*
X194322834Y-110301276D01*
X194320710Y-110286958D01*
X194320000Y-110272500D01*
X194320000Y-109927500D01*
X194320710Y-109913042D01*
X194322834Y-109898724D01*
X194326351Y-109884683D01*
X194331228Y-109871054D01*
X194337417Y-109857969D01*
X194344858Y-109845553D01*
X194353481Y-109833927D01*
X194363202Y-109823202D01*
X194373927Y-109813481D01*
X194385553Y-109804858D01*
X194397969Y-109797417D01*
X194411054Y-109791228D01*
X194424683Y-109786351D01*
X194438724Y-109782834D01*
X194453042Y-109780710D01*
X194467500Y-109780000D01*
X194762500Y-109780000D01*
X194776958Y-109780710D01*
G37*
G36*
X195746958Y-109780710D02*
G01*
X195761276Y-109782834D01*
X195775317Y-109786351D01*
X195788946Y-109791228D01*
X195802031Y-109797417D01*
X195814447Y-109804858D01*
X195826073Y-109813481D01*
X195836798Y-109823202D01*
X195846519Y-109833927D01*
X195855142Y-109845553D01*
X195862583Y-109857969D01*
X195868772Y-109871054D01*
X195873649Y-109884683D01*
X195877166Y-109898724D01*
X195879290Y-109913042D01*
X195880000Y-109927500D01*
X195880000Y-110272500D01*
X195879290Y-110286958D01*
X195877166Y-110301276D01*
X195873649Y-110315317D01*
X195868772Y-110328946D01*
X195862583Y-110342031D01*
X195855142Y-110354447D01*
X195846519Y-110366073D01*
X195836798Y-110376798D01*
X195826073Y-110386519D01*
X195814447Y-110395142D01*
X195802031Y-110402583D01*
X195788946Y-110408772D01*
X195775317Y-110413649D01*
X195761276Y-110417166D01*
X195746958Y-110419290D01*
X195732500Y-110420000D01*
X195437500Y-110420000D01*
X195423042Y-110419290D01*
X195408724Y-110417166D01*
X195394683Y-110413649D01*
X195381054Y-110408772D01*
X195367969Y-110402583D01*
X195355553Y-110395142D01*
X195343927Y-110386519D01*
X195333202Y-110376798D01*
X195323481Y-110366073D01*
X195314858Y-110354447D01*
X195307417Y-110342031D01*
X195301228Y-110328946D01*
X195296351Y-110315317D01*
X195292834Y-110301276D01*
X195290710Y-110286958D01*
X195290000Y-110272500D01*
X195290000Y-109927500D01*
X195290710Y-109913042D01*
X195292834Y-109898724D01*
X195296351Y-109884683D01*
X195301228Y-109871054D01*
X195307417Y-109857969D01*
X195314858Y-109845553D01*
X195323481Y-109833927D01*
X195333202Y-109823202D01*
X195343927Y-109813481D01*
X195355553Y-109804858D01*
X195367969Y-109797417D01*
X195381054Y-109791228D01*
X195394683Y-109786351D01*
X195408724Y-109782834D01*
X195423042Y-109780710D01*
X195437500Y-109780000D01*
X195732500Y-109780000D01*
X195746958Y-109780710D01*
G37*
G36*
X173976958Y-103580710D02*
G01*
X173991276Y-103582834D01*
X174005317Y-103586351D01*
X174018946Y-103591228D01*
X174032031Y-103597417D01*
X174044447Y-103604858D01*
X174056073Y-103613481D01*
X174066798Y-103623202D01*
X174076519Y-103633927D01*
X174085142Y-103645553D01*
X174092583Y-103657969D01*
X174098772Y-103671054D01*
X174103649Y-103684683D01*
X174107166Y-103698724D01*
X174109290Y-103713042D01*
X174110000Y-103727500D01*
X174110000Y-104072500D01*
X174109290Y-104086958D01*
X174107166Y-104101276D01*
X174103649Y-104115317D01*
X174098772Y-104128946D01*
X174092583Y-104142031D01*
X174085142Y-104154447D01*
X174076519Y-104166073D01*
X174066798Y-104176798D01*
X174056073Y-104186519D01*
X174044447Y-104195142D01*
X174032031Y-104202583D01*
X174018946Y-104208772D01*
X174005317Y-104213649D01*
X173991276Y-104217166D01*
X173976958Y-104219290D01*
X173962500Y-104220000D01*
X173667500Y-104220000D01*
X173653042Y-104219290D01*
X173638724Y-104217166D01*
X173624683Y-104213649D01*
X173611054Y-104208772D01*
X173597969Y-104202583D01*
X173585553Y-104195142D01*
X173573927Y-104186519D01*
X173563202Y-104176798D01*
X173553481Y-104166073D01*
X173544858Y-104154447D01*
X173537417Y-104142031D01*
X173531228Y-104128946D01*
X173526351Y-104115317D01*
X173522834Y-104101276D01*
X173520710Y-104086958D01*
X173520000Y-104072500D01*
X173520000Y-103727500D01*
X173520710Y-103713042D01*
X173522834Y-103698724D01*
X173526351Y-103684683D01*
X173531228Y-103671054D01*
X173537417Y-103657969D01*
X173544858Y-103645553D01*
X173553481Y-103633927D01*
X173563202Y-103623202D01*
X173573927Y-103613481D01*
X173585553Y-103604858D01*
X173597969Y-103597417D01*
X173611054Y-103591228D01*
X173624683Y-103586351D01*
X173638724Y-103582834D01*
X173653042Y-103580710D01*
X173667500Y-103580000D01*
X173962500Y-103580000D01*
X173976958Y-103580710D01*
G37*
G36*
X174946958Y-103580710D02*
G01*
X174961276Y-103582834D01*
X174975317Y-103586351D01*
X174988946Y-103591228D01*
X175002031Y-103597417D01*
X175014447Y-103604858D01*
X175026073Y-103613481D01*
X175036798Y-103623202D01*
X175046519Y-103633927D01*
X175055142Y-103645553D01*
X175062583Y-103657969D01*
X175068772Y-103671054D01*
X175073649Y-103684683D01*
X175077166Y-103698724D01*
X175079290Y-103713042D01*
X175080000Y-103727500D01*
X175080000Y-104072500D01*
X175079290Y-104086958D01*
X175077166Y-104101276D01*
X175073649Y-104115317D01*
X175068772Y-104128946D01*
X175062583Y-104142031D01*
X175055142Y-104154447D01*
X175046519Y-104166073D01*
X175036798Y-104176798D01*
X175026073Y-104186519D01*
X175014447Y-104195142D01*
X175002031Y-104202583D01*
X174988946Y-104208772D01*
X174975317Y-104213649D01*
X174961276Y-104217166D01*
X174946958Y-104219290D01*
X174932500Y-104220000D01*
X174637500Y-104220000D01*
X174623042Y-104219290D01*
X174608724Y-104217166D01*
X174594683Y-104213649D01*
X174581054Y-104208772D01*
X174567969Y-104202583D01*
X174555553Y-104195142D01*
X174543927Y-104186519D01*
X174533202Y-104176798D01*
X174523481Y-104166073D01*
X174514858Y-104154447D01*
X174507417Y-104142031D01*
X174501228Y-104128946D01*
X174496351Y-104115317D01*
X174492834Y-104101276D01*
X174490710Y-104086958D01*
X174490000Y-104072500D01*
X174490000Y-103727500D01*
X174490710Y-103713042D01*
X174492834Y-103698724D01*
X174496351Y-103684683D01*
X174501228Y-103671054D01*
X174507417Y-103657969D01*
X174514858Y-103645553D01*
X174523481Y-103633927D01*
X174533202Y-103623202D01*
X174543927Y-103613481D01*
X174555553Y-103604858D01*
X174567969Y-103597417D01*
X174581054Y-103591228D01*
X174594683Y-103586351D01*
X174608724Y-103582834D01*
X174623042Y-103580710D01*
X174637500Y-103580000D01*
X174932500Y-103580000D01*
X174946958Y-103580710D01*
G37*
G36*
X198986958Y-105120710D02*
G01*
X199001276Y-105122834D01*
X199015317Y-105126351D01*
X199028946Y-105131228D01*
X199042031Y-105137417D01*
X199054447Y-105144858D01*
X199066073Y-105153481D01*
X199076798Y-105163202D01*
X199086519Y-105173927D01*
X199095142Y-105185553D01*
X199102583Y-105197969D01*
X199108772Y-105211054D01*
X199113649Y-105224683D01*
X199117166Y-105238724D01*
X199119290Y-105253042D01*
X199120000Y-105267500D01*
X199120000Y-105562500D01*
X199119290Y-105576958D01*
X199117166Y-105591276D01*
X199113649Y-105605317D01*
X199108772Y-105618946D01*
X199102583Y-105632031D01*
X199095142Y-105644447D01*
X199086519Y-105656073D01*
X199076798Y-105666798D01*
X199066073Y-105676519D01*
X199054447Y-105685142D01*
X199042031Y-105692583D01*
X199028946Y-105698772D01*
X199015317Y-105703649D01*
X199001276Y-105707166D01*
X198986958Y-105709290D01*
X198972500Y-105710000D01*
X198627500Y-105710000D01*
X198613042Y-105709290D01*
X198598724Y-105707166D01*
X198584683Y-105703649D01*
X198571054Y-105698772D01*
X198557969Y-105692583D01*
X198545553Y-105685142D01*
X198533927Y-105676519D01*
X198523202Y-105666798D01*
X198513481Y-105656073D01*
X198504858Y-105644447D01*
X198497417Y-105632031D01*
X198491228Y-105618946D01*
X198486351Y-105605317D01*
X198482834Y-105591276D01*
X198480710Y-105576958D01*
X198480000Y-105562500D01*
X198480000Y-105267500D01*
X198480710Y-105253042D01*
X198482834Y-105238724D01*
X198486351Y-105224683D01*
X198491228Y-105211054D01*
X198497417Y-105197969D01*
X198504858Y-105185553D01*
X198513481Y-105173927D01*
X198523202Y-105163202D01*
X198533927Y-105153481D01*
X198545553Y-105144858D01*
X198557969Y-105137417D01*
X198571054Y-105131228D01*
X198584683Y-105126351D01*
X198598724Y-105122834D01*
X198613042Y-105120710D01*
X198627500Y-105120000D01*
X198972500Y-105120000D01*
X198986958Y-105120710D01*
G37*
G36*
X198986958Y-106090710D02*
G01*
X199001276Y-106092834D01*
X199015317Y-106096351D01*
X199028946Y-106101228D01*
X199042031Y-106107417D01*
X199054447Y-106114858D01*
X199066073Y-106123481D01*
X199076798Y-106133202D01*
X199086519Y-106143927D01*
X199095142Y-106155553D01*
X199102583Y-106167969D01*
X199108772Y-106181054D01*
X199113649Y-106194683D01*
X199117166Y-106208724D01*
X199119290Y-106223042D01*
X199120000Y-106237500D01*
X199120000Y-106532500D01*
X199119290Y-106546958D01*
X199117166Y-106561276D01*
X199113649Y-106575317D01*
X199108772Y-106588946D01*
X199102583Y-106602031D01*
X199095142Y-106614447D01*
X199086519Y-106626073D01*
X199076798Y-106636798D01*
X199066073Y-106646519D01*
X199054447Y-106655142D01*
X199042031Y-106662583D01*
X199028946Y-106668772D01*
X199015317Y-106673649D01*
X199001276Y-106677166D01*
X198986958Y-106679290D01*
X198972500Y-106680000D01*
X198627500Y-106680000D01*
X198613042Y-106679290D01*
X198598724Y-106677166D01*
X198584683Y-106673649D01*
X198571054Y-106668772D01*
X198557969Y-106662583D01*
X198545553Y-106655142D01*
X198533927Y-106646519D01*
X198523202Y-106636798D01*
X198513481Y-106626073D01*
X198504858Y-106614447D01*
X198497417Y-106602031D01*
X198491228Y-106588946D01*
X198486351Y-106575317D01*
X198482834Y-106561276D01*
X198480710Y-106546958D01*
X198480000Y-106532500D01*
X198480000Y-106237500D01*
X198480710Y-106223042D01*
X198482834Y-106208724D01*
X198486351Y-106194683D01*
X198491228Y-106181054D01*
X198497417Y-106167969D01*
X198504858Y-106155553D01*
X198513481Y-106143927D01*
X198523202Y-106133202D01*
X198533927Y-106123481D01*
X198545553Y-106114858D01*
X198557969Y-106107417D01*
X198571054Y-106101228D01*
X198584683Y-106096351D01*
X198598724Y-106092834D01*
X198613042Y-106090710D01*
X198627500Y-106090000D01*
X198972500Y-106090000D01*
X198986958Y-106090710D01*
G37*
G36*
X187861958Y-103780710D02*
G01*
X187876276Y-103782834D01*
X187890317Y-103786351D01*
X187903946Y-103791228D01*
X187917031Y-103797417D01*
X187929447Y-103804858D01*
X187941073Y-103813481D01*
X187951798Y-103823202D01*
X187961519Y-103833927D01*
X187970142Y-103845553D01*
X187977583Y-103857969D01*
X187983772Y-103871054D01*
X187988649Y-103884683D01*
X187992166Y-103898724D01*
X187994290Y-103913042D01*
X187995000Y-103927500D01*
X187995000Y-104272500D01*
X187994290Y-104286958D01*
X187992166Y-104301276D01*
X187988649Y-104315317D01*
X187983772Y-104328946D01*
X187977583Y-104342031D01*
X187970142Y-104354447D01*
X187961519Y-104366073D01*
X187951798Y-104376798D01*
X187941073Y-104386519D01*
X187929447Y-104395142D01*
X187917031Y-104402583D01*
X187903946Y-104408772D01*
X187890317Y-104413649D01*
X187876276Y-104417166D01*
X187861958Y-104419290D01*
X187847500Y-104420000D01*
X187552500Y-104420000D01*
X187538042Y-104419290D01*
X187523724Y-104417166D01*
X187509683Y-104413649D01*
X187496054Y-104408772D01*
X187482969Y-104402583D01*
X187470553Y-104395142D01*
X187458927Y-104386519D01*
X187448202Y-104376798D01*
X187438481Y-104366073D01*
X187429858Y-104354447D01*
X187422417Y-104342031D01*
X187416228Y-104328946D01*
X187411351Y-104315317D01*
X187407834Y-104301276D01*
X187405710Y-104286958D01*
X187405000Y-104272500D01*
X187405000Y-103927500D01*
X187405710Y-103913042D01*
X187407834Y-103898724D01*
X187411351Y-103884683D01*
X187416228Y-103871054D01*
X187422417Y-103857969D01*
X187429858Y-103845553D01*
X187438481Y-103833927D01*
X187448202Y-103823202D01*
X187458927Y-103813481D01*
X187470553Y-103804858D01*
X187482969Y-103797417D01*
X187496054Y-103791228D01*
X187509683Y-103786351D01*
X187523724Y-103782834D01*
X187538042Y-103780710D01*
X187552500Y-103780000D01*
X187847500Y-103780000D01*
X187861958Y-103780710D01*
G37*
G36*
X188831958Y-103780710D02*
G01*
X188846276Y-103782834D01*
X188860317Y-103786351D01*
X188873946Y-103791228D01*
X188887031Y-103797417D01*
X188899447Y-103804858D01*
X188911073Y-103813481D01*
X188921798Y-103823202D01*
X188931519Y-103833927D01*
X188940142Y-103845553D01*
X188947583Y-103857969D01*
X188953772Y-103871054D01*
X188958649Y-103884683D01*
X188962166Y-103898724D01*
X188964290Y-103913042D01*
X188965000Y-103927500D01*
X188965000Y-104272500D01*
X188964290Y-104286958D01*
X188962166Y-104301276D01*
X188958649Y-104315317D01*
X188953772Y-104328946D01*
X188947583Y-104342031D01*
X188940142Y-104354447D01*
X188931519Y-104366073D01*
X188921798Y-104376798D01*
X188911073Y-104386519D01*
X188899447Y-104395142D01*
X188887031Y-104402583D01*
X188873946Y-104408772D01*
X188860317Y-104413649D01*
X188846276Y-104417166D01*
X188831958Y-104419290D01*
X188817500Y-104420000D01*
X188522500Y-104420000D01*
X188508042Y-104419290D01*
X188493724Y-104417166D01*
X188479683Y-104413649D01*
X188466054Y-104408772D01*
X188452969Y-104402583D01*
X188440553Y-104395142D01*
X188428927Y-104386519D01*
X188418202Y-104376798D01*
X188408481Y-104366073D01*
X188399858Y-104354447D01*
X188392417Y-104342031D01*
X188386228Y-104328946D01*
X188381351Y-104315317D01*
X188377834Y-104301276D01*
X188375710Y-104286958D01*
X188375000Y-104272500D01*
X188375000Y-103927500D01*
X188375710Y-103913042D01*
X188377834Y-103898724D01*
X188381351Y-103884683D01*
X188386228Y-103871054D01*
X188392417Y-103857969D01*
X188399858Y-103845553D01*
X188408481Y-103833927D01*
X188418202Y-103823202D01*
X188428927Y-103813481D01*
X188440553Y-103804858D01*
X188452969Y-103797417D01*
X188466054Y-103791228D01*
X188479683Y-103786351D01*
X188493724Y-103782834D01*
X188508042Y-103780710D01*
X188522500Y-103780000D01*
X188817500Y-103780000D01*
X188831958Y-103780710D01*
G37*
G36*
X180935779Y-102926144D02*
G01*
X180958834Y-102929563D01*
X180981443Y-102935227D01*
X181003387Y-102943079D01*
X181024457Y-102953044D01*
X181044448Y-102965026D01*
X181063168Y-102978910D01*
X181080438Y-102994562D01*
X181096090Y-103011832D01*
X181109974Y-103030552D01*
X181121956Y-103050543D01*
X181131921Y-103071613D01*
X181139773Y-103093557D01*
X181145437Y-103116166D01*
X181148856Y-103139221D01*
X181150000Y-103162500D01*
X181150000Y-103637500D01*
X181148856Y-103660779D01*
X181145437Y-103683834D01*
X181139773Y-103706443D01*
X181131921Y-103728387D01*
X181121956Y-103749457D01*
X181109974Y-103769448D01*
X181096090Y-103788168D01*
X181080438Y-103805438D01*
X181063168Y-103821090D01*
X181044448Y-103834974D01*
X181024457Y-103846956D01*
X181003387Y-103856921D01*
X180981443Y-103864773D01*
X180958834Y-103870437D01*
X180935779Y-103873856D01*
X180912500Y-103875000D01*
X180337500Y-103875000D01*
X180314221Y-103873856D01*
X180291166Y-103870437D01*
X180268557Y-103864773D01*
X180246613Y-103856921D01*
X180225543Y-103846956D01*
X180205552Y-103834974D01*
X180186832Y-103821090D01*
X180169562Y-103805438D01*
X180153910Y-103788168D01*
X180140026Y-103769448D01*
X180128044Y-103749457D01*
X180118079Y-103728387D01*
X180110227Y-103706443D01*
X180104563Y-103683834D01*
X180101144Y-103660779D01*
X180100000Y-103637500D01*
X180100000Y-103162500D01*
X180101144Y-103139221D01*
X180104563Y-103116166D01*
X180110227Y-103093557D01*
X180118079Y-103071613D01*
X180128044Y-103050543D01*
X180140026Y-103030552D01*
X180153910Y-103011832D01*
X180169562Y-102994562D01*
X180186832Y-102978910D01*
X180205552Y-102965026D01*
X180225543Y-102953044D01*
X180246613Y-102943079D01*
X180268557Y-102935227D01*
X180291166Y-102929563D01*
X180314221Y-102926144D01*
X180337500Y-102925000D01*
X180912500Y-102925000D01*
X180935779Y-102926144D01*
G37*
G36*
X182685779Y-102926144D02*
G01*
X182708834Y-102929563D01*
X182731443Y-102935227D01*
X182753387Y-102943079D01*
X182774457Y-102953044D01*
X182794448Y-102965026D01*
X182813168Y-102978910D01*
X182830438Y-102994562D01*
X182846090Y-103011832D01*
X182859974Y-103030552D01*
X182871956Y-103050543D01*
X182881921Y-103071613D01*
X182889773Y-103093557D01*
X182895437Y-103116166D01*
X182898856Y-103139221D01*
X182900000Y-103162500D01*
X182900000Y-103637500D01*
X182898856Y-103660779D01*
X182895437Y-103683834D01*
X182889773Y-103706443D01*
X182881921Y-103728387D01*
X182871956Y-103749457D01*
X182859974Y-103769448D01*
X182846090Y-103788168D01*
X182830438Y-103805438D01*
X182813168Y-103821090D01*
X182794448Y-103834974D01*
X182774457Y-103846956D01*
X182753387Y-103856921D01*
X182731443Y-103864773D01*
X182708834Y-103870437D01*
X182685779Y-103873856D01*
X182662500Y-103875000D01*
X182087500Y-103875000D01*
X182064221Y-103873856D01*
X182041166Y-103870437D01*
X182018557Y-103864773D01*
X181996613Y-103856921D01*
X181975543Y-103846956D01*
X181955552Y-103834974D01*
X181936832Y-103821090D01*
X181919562Y-103805438D01*
X181903910Y-103788168D01*
X181890026Y-103769448D01*
X181878044Y-103749457D01*
X181868079Y-103728387D01*
X181860227Y-103706443D01*
X181854563Y-103683834D01*
X181851144Y-103660779D01*
X181850000Y-103637500D01*
X181850000Y-103162500D01*
X181851144Y-103139221D01*
X181854563Y-103116166D01*
X181860227Y-103093557D01*
X181868079Y-103071613D01*
X181878044Y-103050543D01*
X181890026Y-103030552D01*
X181903910Y-103011832D01*
X181919562Y-102994562D01*
X181936832Y-102978910D01*
X181955552Y-102965026D01*
X181975543Y-102953044D01*
X181996613Y-102943079D01*
X182018557Y-102935227D01*
X182041166Y-102929563D01*
X182064221Y-102926144D01*
X182087500Y-102925000D01*
X182662500Y-102925000D01*
X182685779Y-102926144D01*
G37*
D18*
X182250000Y-110350000D03*
X182250000Y-106150000D03*
D10*
G36*
X188886958Y-101820710D02*
G01*
X188901276Y-101822834D01*
X188915317Y-101826351D01*
X188928946Y-101831228D01*
X188942031Y-101837417D01*
X188954447Y-101844858D01*
X188966073Y-101853481D01*
X188976798Y-101863202D01*
X188986519Y-101873927D01*
X188995142Y-101885553D01*
X189002583Y-101897969D01*
X189008772Y-101911054D01*
X189013649Y-101924683D01*
X189017166Y-101938724D01*
X189019290Y-101953042D01*
X189020000Y-101967500D01*
X189020000Y-102262500D01*
X189019290Y-102276958D01*
X189017166Y-102291276D01*
X189013649Y-102305317D01*
X189008772Y-102318946D01*
X189002583Y-102332031D01*
X188995142Y-102344447D01*
X188986519Y-102356073D01*
X188976798Y-102366798D01*
X188966073Y-102376519D01*
X188954447Y-102385142D01*
X188942031Y-102392583D01*
X188928946Y-102398772D01*
X188915317Y-102403649D01*
X188901276Y-102407166D01*
X188886958Y-102409290D01*
X188872500Y-102410000D01*
X188527500Y-102410000D01*
X188513042Y-102409290D01*
X188498724Y-102407166D01*
X188484683Y-102403649D01*
X188471054Y-102398772D01*
X188457969Y-102392583D01*
X188445553Y-102385142D01*
X188433927Y-102376519D01*
X188423202Y-102366798D01*
X188413481Y-102356073D01*
X188404858Y-102344447D01*
X188397417Y-102332031D01*
X188391228Y-102318946D01*
X188386351Y-102305317D01*
X188382834Y-102291276D01*
X188380710Y-102276958D01*
X188380000Y-102262500D01*
X188380000Y-101967500D01*
X188380710Y-101953042D01*
X188382834Y-101938724D01*
X188386351Y-101924683D01*
X188391228Y-101911054D01*
X188397417Y-101897969D01*
X188404858Y-101885553D01*
X188413481Y-101873927D01*
X188423202Y-101863202D01*
X188433927Y-101853481D01*
X188445553Y-101844858D01*
X188457969Y-101837417D01*
X188471054Y-101831228D01*
X188484683Y-101826351D01*
X188498724Y-101822834D01*
X188513042Y-101820710D01*
X188527500Y-101820000D01*
X188872500Y-101820000D01*
X188886958Y-101820710D01*
G37*
G36*
X188886958Y-102790710D02*
G01*
X188901276Y-102792834D01*
X188915317Y-102796351D01*
X188928946Y-102801228D01*
X188942031Y-102807417D01*
X188954447Y-102814858D01*
X188966073Y-102823481D01*
X188976798Y-102833202D01*
X188986519Y-102843927D01*
X188995142Y-102855553D01*
X189002583Y-102867969D01*
X189008772Y-102881054D01*
X189013649Y-102894683D01*
X189017166Y-102908724D01*
X189019290Y-102923042D01*
X189020000Y-102937500D01*
X189020000Y-103232500D01*
X189019290Y-103246958D01*
X189017166Y-103261276D01*
X189013649Y-103275317D01*
X189008772Y-103288946D01*
X189002583Y-103302031D01*
X188995142Y-103314447D01*
X188986519Y-103326073D01*
X188976798Y-103336798D01*
X188966073Y-103346519D01*
X188954447Y-103355142D01*
X188942031Y-103362583D01*
X188928946Y-103368772D01*
X188915317Y-103373649D01*
X188901276Y-103377166D01*
X188886958Y-103379290D01*
X188872500Y-103380000D01*
X188527500Y-103380000D01*
X188513042Y-103379290D01*
X188498724Y-103377166D01*
X188484683Y-103373649D01*
X188471054Y-103368772D01*
X188457969Y-103362583D01*
X188445553Y-103355142D01*
X188433927Y-103346519D01*
X188423202Y-103336798D01*
X188413481Y-103326073D01*
X188404858Y-103314447D01*
X188397417Y-103302031D01*
X188391228Y-103288946D01*
X188386351Y-103275317D01*
X188382834Y-103261276D01*
X188380710Y-103246958D01*
X188380000Y-103232500D01*
X188380000Y-102937500D01*
X188380710Y-102923042D01*
X188382834Y-102908724D01*
X188386351Y-102894683D01*
X188391228Y-102881054D01*
X188397417Y-102867969D01*
X188404858Y-102855553D01*
X188413481Y-102843927D01*
X188423202Y-102833202D01*
X188433927Y-102823481D01*
X188445553Y-102814858D01*
X188457969Y-102807417D01*
X188471054Y-102801228D01*
X188484683Y-102796351D01*
X188498724Y-102792834D01*
X188513042Y-102790710D01*
X188527500Y-102790000D01*
X188872500Y-102790000D01*
X188886958Y-102790710D01*
G37*
G36*
X192776958Y-109780710D02*
G01*
X192791276Y-109782834D01*
X192805317Y-109786351D01*
X192818946Y-109791228D01*
X192832031Y-109797417D01*
X192844447Y-109804858D01*
X192856073Y-109813481D01*
X192866798Y-109823202D01*
X192876519Y-109833927D01*
X192885142Y-109845553D01*
X192892583Y-109857969D01*
X192898772Y-109871054D01*
X192903649Y-109884683D01*
X192907166Y-109898724D01*
X192909290Y-109913042D01*
X192910000Y-109927500D01*
X192910000Y-110272500D01*
X192909290Y-110286958D01*
X192907166Y-110301276D01*
X192903649Y-110315317D01*
X192898772Y-110328946D01*
X192892583Y-110342031D01*
X192885142Y-110354447D01*
X192876519Y-110366073D01*
X192866798Y-110376798D01*
X192856073Y-110386519D01*
X192844447Y-110395142D01*
X192832031Y-110402583D01*
X192818946Y-110408772D01*
X192805317Y-110413649D01*
X192791276Y-110417166D01*
X192776958Y-110419290D01*
X192762500Y-110420000D01*
X192467500Y-110420000D01*
X192453042Y-110419290D01*
X192438724Y-110417166D01*
X192424683Y-110413649D01*
X192411054Y-110408772D01*
X192397969Y-110402583D01*
X192385553Y-110395142D01*
X192373927Y-110386519D01*
X192363202Y-110376798D01*
X192353481Y-110366073D01*
X192344858Y-110354447D01*
X192337417Y-110342031D01*
X192331228Y-110328946D01*
X192326351Y-110315317D01*
X192322834Y-110301276D01*
X192320710Y-110286958D01*
X192320000Y-110272500D01*
X192320000Y-109927500D01*
X192320710Y-109913042D01*
X192322834Y-109898724D01*
X192326351Y-109884683D01*
X192331228Y-109871054D01*
X192337417Y-109857969D01*
X192344858Y-109845553D01*
X192353481Y-109833927D01*
X192363202Y-109823202D01*
X192373927Y-109813481D01*
X192385553Y-109804858D01*
X192397969Y-109797417D01*
X192411054Y-109791228D01*
X192424683Y-109786351D01*
X192438724Y-109782834D01*
X192453042Y-109780710D01*
X192467500Y-109780000D01*
X192762500Y-109780000D01*
X192776958Y-109780710D01*
G37*
G36*
X193746958Y-109780710D02*
G01*
X193761276Y-109782834D01*
X193775317Y-109786351D01*
X193788946Y-109791228D01*
X193802031Y-109797417D01*
X193814447Y-109804858D01*
X193826073Y-109813481D01*
X193836798Y-109823202D01*
X193846519Y-109833927D01*
X193855142Y-109845553D01*
X193862583Y-109857969D01*
X193868772Y-109871054D01*
X193873649Y-109884683D01*
X193877166Y-109898724D01*
X193879290Y-109913042D01*
X193880000Y-109927500D01*
X193880000Y-110272500D01*
X193879290Y-110286958D01*
X193877166Y-110301276D01*
X193873649Y-110315317D01*
X193868772Y-110328946D01*
X193862583Y-110342031D01*
X193855142Y-110354447D01*
X193846519Y-110366073D01*
X193836798Y-110376798D01*
X193826073Y-110386519D01*
X193814447Y-110395142D01*
X193802031Y-110402583D01*
X193788946Y-110408772D01*
X193775317Y-110413649D01*
X193761276Y-110417166D01*
X193746958Y-110419290D01*
X193732500Y-110420000D01*
X193437500Y-110420000D01*
X193423042Y-110419290D01*
X193408724Y-110417166D01*
X193394683Y-110413649D01*
X193381054Y-110408772D01*
X193367969Y-110402583D01*
X193355553Y-110395142D01*
X193343927Y-110386519D01*
X193333202Y-110376798D01*
X193323481Y-110366073D01*
X193314858Y-110354447D01*
X193307417Y-110342031D01*
X193301228Y-110328946D01*
X193296351Y-110315317D01*
X193292834Y-110301276D01*
X193290710Y-110286958D01*
X193290000Y-110272500D01*
X193290000Y-109927500D01*
X193290710Y-109913042D01*
X193292834Y-109898724D01*
X193296351Y-109884683D01*
X193301228Y-109871054D01*
X193307417Y-109857969D01*
X193314858Y-109845553D01*
X193323481Y-109833927D01*
X193333202Y-109823202D01*
X193343927Y-109813481D01*
X193355553Y-109804858D01*
X193367969Y-109797417D01*
X193381054Y-109791228D01*
X193394683Y-109786351D01*
X193408724Y-109782834D01*
X193423042Y-109780710D01*
X193437500Y-109780000D01*
X193732500Y-109780000D01*
X193746958Y-109780710D01*
G37*
G36*
X200211958Y-110790710D02*
G01*
X200226276Y-110792834D01*
X200240317Y-110796351D01*
X200253946Y-110801228D01*
X200267031Y-110807417D01*
X200279447Y-110814858D01*
X200291073Y-110823481D01*
X200301798Y-110833202D01*
X200311519Y-110843927D01*
X200320142Y-110855553D01*
X200327583Y-110867969D01*
X200333772Y-110881054D01*
X200338649Y-110894683D01*
X200342166Y-110908724D01*
X200344290Y-110923042D01*
X200345000Y-110937500D01*
X200345000Y-111232500D01*
X200344290Y-111246958D01*
X200342166Y-111261276D01*
X200338649Y-111275317D01*
X200333772Y-111288946D01*
X200327583Y-111302031D01*
X200320142Y-111314447D01*
X200311519Y-111326073D01*
X200301798Y-111336798D01*
X200291073Y-111346519D01*
X200279447Y-111355142D01*
X200267031Y-111362583D01*
X200253946Y-111368772D01*
X200240317Y-111373649D01*
X200226276Y-111377166D01*
X200211958Y-111379290D01*
X200197500Y-111380000D01*
X199852500Y-111380000D01*
X199838042Y-111379290D01*
X199823724Y-111377166D01*
X199809683Y-111373649D01*
X199796054Y-111368772D01*
X199782969Y-111362583D01*
X199770553Y-111355142D01*
X199758927Y-111346519D01*
X199748202Y-111336798D01*
X199738481Y-111326073D01*
X199729858Y-111314447D01*
X199722417Y-111302031D01*
X199716228Y-111288946D01*
X199711351Y-111275317D01*
X199707834Y-111261276D01*
X199705710Y-111246958D01*
X199705000Y-111232500D01*
X199705000Y-110937500D01*
X199705710Y-110923042D01*
X199707834Y-110908724D01*
X199711351Y-110894683D01*
X199716228Y-110881054D01*
X199722417Y-110867969D01*
X199729858Y-110855553D01*
X199738481Y-110843927D01*
X199748202Y-110833202D01*
X199758927Y-110823481D01*
X199770553Y-110814858D01*
X199782969Y-110807417D01*
X199796054Y-110801228D01*
X199809683Y-110796351D01*
X199823724Y-110792834D01*
X199838042Y-110790710D01*
X199852500Y-110790000D01*
X200197500Y-110790000D01*
X200211958Y-110790710D01*
G37*
G36*
X200211958Y-109820710D02*
G01*
X200226276Y-109822834D01*
X200240317Y-109826351D01*
X200253946Y-109831228D01*
X200267031Y-109837417D01*
X200279447Y-109844858D01*
X200291073Y-109853481D01*
X200301798Y-109863202D01*
X200311519Y-109873927D01*
X200320142Y-109885553D01*
X200327583Y-109897969D01*
X200333772Y-109911054D01*
X200338649Y-109924683D01*
X200342166Y-109938724D01*
X200344290Y-109953042D01*
X200345000Y-109967500D01*
X200345000Y-110262500D01*
X200344290Y-110276958D01*
X200342166Y-110291276D01*
X200338649Y-110305317D01*
X200333772Y-110318946D01*
X200327583Y-110332031D01*
X200320142Y-110344447D01*
X200311519Y-110356073D01*
X200301798Y-110366798D01*
X200291073Y-110376519D01*
X200279447Y-110385142D01*
X200267031Y-110392583D01*
X200253946Y-110398772D01*
X200240317Y-110403649D01*
X200226276Y-110407166D01*
X200211958Y-110409290D01*
X200197500Y-110410000D01*
X199852500Y-110410000D01*
X199838042Y-110409290D01*
X199823724Y-110407166D01*
X199809683Y-110403649D01*
X199796054Y-110398772D01*
X199782969Y-110392583D01*
X199770553Y-110385142D01*
X199758927Y-110376519D01*
X199748202Y-110366798D01*
X199738481Y-110356073D01*
X199729858Y-110344447D01*
X199722417Y-110332031D01*
X199716228Y-110318946D01*
X199711351Y-110305317D01*
X199707834Y-110291276D01*
X199705710Y-110276958D01*
X199705000Y-110262500D01*
X199705000Y-109967500D01*
X199705710Y-109953042D01*
X199707834Y-109938724D01*
X199711351Y-109924683D01*
X199716228Y-109911054D01*
X199722417Y-109897969D01*
X199729858Y-109885553D01*
X199738481Y-109873927D01*
X199748202Y-109863202D01*
X199758927Y-109853481D01*
X199770553Y-109844858D01*
X199782969Y-109837417D01*
X199796054Y-109831228D01*
X199809683Y-109826351D01*
X199823724Y-109822834D01*
X199838042Y-109820710D01*
X199852500Y-109820000D01*
X200197500Y-109820000D01*
X200211958Y-109820710D01*
G37*
G36*
X196786958Y-105120710D02*
G01*
X196801276Y-105122834D01*
X196815317Y-105126351D01*
X196828946Y-105131228D01*
X196842031Y-105137417D01*
X196854447Y-105144858D01*
X196866073Y-105153481D01*
X196876798Y-105163202D01*
X196886519Y-105173927D01*
X196895142Y-105185553D01*
X196902583Y-105197969D01*
X196908772Y-105211054D01*
X196913649Y-105224683D01*
X196917166Y-105238724D01*
X196919290Y-105253042D01*
X196920000Y-105267500D01*
X196920000Y-105562500D01*
X196919290Y-105576958D01*
X196917166Y-105591276D01*
X196913649Y-105605317D01*
X196908772Y-105618946D01*
X196902583Y-105632031D01*
X196895142Y-105644447D01*
X196886519Y-105656073D01*
X196876798Y-105666798D01*
X196866073Y-105676519D01*
X196854447Y-105685142D01*
X196842031Y-105692583D01*
X196828946Y-105698772D01*
X196815317Y-105703649D01*
X196801276Y-105707166D01*
X196786958Y-105709290D01*
X196772500Y-105710000D01*
X196427500Y-105710000D01*
X196413042Y-105709290D01*
X196398724Y-105707166D01*
X196384683Y-105703649D01*
X196371054Y-105698772D01*
X196357969Y-105692583D01*
X196345553Y-105685142D01*
X196333927Y-105676519D01*
X196323202Y-105666798D01*
X196313481Y-105656073D01*
X196304858Y-105644447D01*
X196297417Y-105632031D01*
X196291228Y-105618946D01*
X196286351Y-105605317D01*
X196282834Y-105591276D01*
X196280710Y-105576958D01*
X196280000Y-105562500D01*
X196280000Y-105267500D01*
X196280710Y-105253042D01*
X196282834Y-105238724D01*
X196286351Y-105224683D01*
X196291228Y-105211054D01*
X196297417Y-105197969D01*
X196304858Y-105185553D01*
X196313481Y-105173927D01*
X196323202Y-105163202D01*
X196333927Y-105153481D01*
X196345553Y-105144858D01*
X196357969Y-105137417D01*
X196371054Y-105131228D01*
X196384683Y-105126351D01*
X196398724Y-105122834D01*
X196413042Y-105120710D01*
X196427500Y-105120000D01*
X196772500Y-105120000D01*
X196786958Y-105120710D01*
G37*
G36*
X196786958Y-106090710D02*
G01*
X196801276Y-106092834D01*
X196815317Y-106096351D01*
X196828946Y-106101228D01*
X196842031Y-106107417D01*
X196854447Y-106114858D01*
X196866073Y-106123481D01*
X196876798Y-106133202D01*
X196886519Y-106143927D01*
X196895142Y-106155553D01*
X196902583Y-106167969D01*
X196908772Y-106181054D01*
X196913649Y-106194683D01*
X196917166Y-106208724D01*
X196919290Y-106223042D01*
X196920000Y-106237500D01*
X196920000Y-106532500D01*
X196919290Y-106546958D01*
X196917166Y-106561276D01*
X196913649Y-106575317D01*
X196908772Y-106588946D01*
X196902583Y-106602031D01*
X196895142Y-106614447D01*
X196886519Y-106626073D01*
X196876798Y-106636798D01*
X196866073Y-106646519D01*
X196854447Y-106655142D01*
X196842031Y-106662583D01*
X196828946Y-106668772D01*
X196815317Y-106673649D01*
X196801276Y-106677166D01*
X196786958Y-106679290D01*
X196772500Y-106680000D01*
X196427500Y-106680000D01*
X196413042Y-106679290D01*
X196398724Y-106677166D01*
X196384683Y-106673649D01*
X196371054Y-106668772D01*
X196357969Y-106662583D01*
X196345553Y-106655142D01*
X196333927Y-106646519D01*
X196323202Y-106636798D01*
X196313481Y-106626073D01*
X196304858Y-106614447D01*
X196297417Y-106602031D01*
X196291228Y-106588946D01*
X196286351Y-106575317D01*
X196282834Y-106561276D01*
X196280710Y-106546958D01*
X196280000Y-106532500D01*
X196280000Y-106237500D01*
X196280710Y-106223042D01*
X196282834Y-106208724D01*
X196286351Y-106194683D01*
X196291228Y-106181054D01*
X196297417Y-106167969D01*
X196304858Y-106155553D01*
X196313481Y-106143927D01*
X196323202Y-106133202D01*
X196333927Y-106123481D01*
X196345553Y-106114858D01*
X196357969Y-106107417D01*
X196371054Y-106101228D01*
X196384683Y-106096351D01*
X196398724Y-106092834D01*
X196413042Y-106090710D01*
X196427500Y-106090000D01*
X196772500Y-106090000D01*
X196786958Y-106090710D01*
G37*
G36*
X188771958Y-100780710D02*
G01*
X188786276Y-100782834D01*
X188800317Y-100786351D01*
X188813946Y-100791228D01*
X188827031Y-100797417D01*
X188839447Y-100804858D01*
X188851073Y-100813481D01*
X188861798Y-100823202D01*
X188871519Y-100833927D01*
X188880142Y-100845553D01*
X188887583Y-100857969D01*
X188893772Y-100871054D01*
X188898649Y-100884683D01*
X188902166Y-100898724D01*
X188904290Y-100913042D01*
X188905000Y-100927500D01*
X188905000Y-101272500D01*
X188904290Y-101286958D01*
X188902166Y-101301276D01*
X188898649Y-101315317D01*
X188893772Y-101328946D01*
X188887583Y-101342031D01*
X188880142Y-101354447D01*
X188871519Y-101366073D01*
X188861798Y-101376798D01*
X188851073Y-101386519D01*
X188839447Y-101395142D01*
X188827031Y-101402583D01*
X188813946Y-101408772D01*
X188800317Y-101413649D01*
X188786276Y-101417166D01*
X188771958Y-101419290D01*
X188757500Y-101420000D01*
X188462500Y-101420000D01*
X188448042Y-101419290D01*
X188433724Y-101417166D01*
X188419683Y-101413649D01*
X188406054Y-101408772D01*
X188392969Y-101402583D01*
X188380553Y-101395142D01*
X188368927Y-101386519D01*
X188358202Y-101376798D01*
X188348481Y-101366073D01*
X188339858Y-101354447D01*
X188332417Y-101342031D01*
X188326228Y-101328946D01*
X188321351Y-101315317D01*
X188317834Y-101301276D01*
X188315710Y-101286958D01*
X188315000Y-101272500D01*
X188315000Y-100927500D01*
X188315710Y-100913042D01*
X188317834Y-100898724D01*
X188321351Y-100884683D01*
X188326228Y-100871054D01*
X188332417Y-100857969D01*
X188339858Y-100845553D01*
X188348481Y-100833927D01*
X188358202Y-100823202D01*
X188368927Y-100813481D01*
X188380553Y-100804858D01*
X188392969Y-100797417D01*
X188406054Y-100791228D01*
X188419683Y-100786351D01*
X188433724Y-100782834D01*
X188448042Y-100780710D01*
X188462500Y-100780000D01*
X188757500Y-100780000D01*
X188771958Y-100780710D01*
G37*
G36*
X187801958Y-100780710D02*
G01*
X187816276Y-100782834D01*
X187830317Y-100786351D01*
X187843946Y-100791228D01*
X187857031Y-100797417D01*
X187869447Y-100804858D01*
X187881073Y-100813481D01*
X187891798Y-100823202D01*
X187901519Y-100833927D01*
X187910142Y-100845553D01*
X187917583Y-100857969D01*
X187923772Y-100871054D01*
X187928649Y-100884683D01*
X187932166Y-100898724D01*
X187934290Y-100913042D01*
X187935000Y-100927500D01*
X187935000Y-101272500D01*
X187934290Y-101286958D01*
X187932166Y-101301276D01*
X187928649Y-101315317D01*
X187923772Y-101328946D01*
X187917583Y-101342031D01*
X187910142Y-101354447D01*
X187901519Y-101366073D01*
X187891798Y-101376798D01*
X187881073Y-101386519D01*
X187869447Y-101395142D01*
X187857031Y-101402583D01*
X187843946Y-101408772D01*
X187830317Y-101413649D01*
X187816276Y-101417166D01*
X187801958Y-101419290D01*
X187787500Y-101420000D01*
X187492500Y-101420000D01*
X187478042Y-101419290D01*
X187463724Y-101417166D01*
X187449683Y-101413649D01*
X187436054Y-101408772D01*
X187422969Y-101402583D01*
X187410553Y-101395142D01*
X187398927Y-101386519D01*
X187388202Y-101376798D01*
X187378481Y-101366073D01*
X187369858Y-101354447D01*
X187362417Y-101342031D01*
X187356228Y-101328946D01*
X187351351Y-101315317D01*
X187347834Y-101301276D01*
X187345710Y-101286958D01*
X187345000Y-101272500D01*
X187345000Y-100927500D01*
X187345710Y-100913042D01*
X187347834Y-100898724D01*
X187351351Y-100884683D01*
X187356228Y-100871054D01*
X187362417Y-100857969D01*
X187369858Y-100845553D01*
X187378481Y-100833927D01*
X187388202Y-100823202D01*
X187398927Y-100813481D01*
X187410553Y-100804858D01*
X187422969Y-100797417D01*
X187436054Y-100791228D01*
X187449683Y-100786351D01*
X187463724Y-100782834D01*
X187478042Y-100780710D01*
X187492500Y-100780000D01*
X187787500Y-100780000D01*
X187801958Y-100780710D01*
G37*
G36*
X197486958Y-99590710D02*
G01*
X197501276Y-99592834D01*
X197515317Y-99596351D01*
X197528946Y-99601228D01*
X197542031Y-99607417D01*
X197554447Y-99614858D01*
X197566073Y-99623481D01*
X197576798Y-99633202D01*
X197586519Y-99643927D01*
X197595142Y-99655553D01*
X197602583Y-99667969D01*
X197608772Y-99681054D01*
X197613649Y-99694683D01*
X197617166Y-99708724D01*
X197619290Y-99723042D01*
X197620000Y-99737500D01*
X197620000Y-100032500D01*
X197619290Y-100046958D01*
X197617166Y-100061276D01*
X197613649Y-100075317D01*
X197608772Y-100088946D01*
X197602583Y-100102031D01*
X197595142Y-100114447D01*
X197586519Y-100126073D01*
X197576798Y-100136798D01*
X197566073Y-100146519D01*
X197554447Y-100155142D01*
X197542031Y-100162583D01*
X197528946Y-100168772D01*
X197515317Y-100173649D01*
X197501276Y-100177166D01*
X197486958Y-100179290D01*
X197472500Y-100180000D01*
X197127500Y-100180000D01*
X197113042Y-100179290D01*
X197098724Y-100177166D01*
X197084683Y-100173649D01*
X197071054Y-100168772D01*
X197057969Y-100162583D01*
X197045553Y-100155142D01*
X197033927Y-100146519D01*
X197023202Y-100136798D01*
X197013481Y-100126073D01*
X197004858Y-100114447D01*
X196997417Y-100102031D01*
X196991228Y-100088946D01*
X196986351Y-100075317D01*
X196982834Y-100061276D01*
X196980710Y-100046958D01*
X196980000Y-100032500D01*
X196980000Y-99737500D01*
X196980710Y-99723042D01*
X196982834Y-99708724D01*
X196986351Y-99694683D01*
X196991228Y-99681054D01*
X196997417Y-99667969D01*
X197004858Y-99655553D01*
X197013481Y-99643927D01*
X197023202Y-99633202D01*
X197033927Y-99623481D01*
X197045553Y-99614858D01*
X197057969Y-99607417D01*
X197071054Y-99601228D01*
X197084683Y-99596351D01*
X197098724Y-99592834D01*
X197113042Y-99590710D01*
X197127500Y-99590000D01*
X197472500Y-99590000D01*
X197486958Y-99590710D01*
G37*
G36*
X197486958Y-98620710D02*
G01*
X197501276Y-98622834D01*
X197515317Y-98626351D01*
X197528946Y-98631228D01*
X197542031Y-98637417D01*
X197554447Y-98644858D01*
X197566073Y-98653481D01*
X197576798Y-98663202D01*
X197586519Y-98673927D01*
X197595142Y-98685553D01*
X197602583Y-98697969D01*
X197608772Y-98711054D01*
X197613649Y-98724683D01*
X197617166Y-98738724D01*
X197619290Y-98753042D01*
X197620000Y-98767500D01*
X197620000Y-99062500D01*
X197619290Y-99076958D01*
X197617166Y-99091276D01*
X197613649Y-99105317D01*
X197608772Y-99118946D01*
X197602583Y-99132031D01*
X197595142Y-99144447D01*
X197586519Y-99156073D01*
X197576798Y-99166798D01*
X197566073Y-99176519D01*
X197554447Y-99185142D01*
X197542031Y-99192583D01*
X197528946Y-99198772D01*
X197515317Y-99203649D01*
X197501276Y-99207166D01*
X197486958Y-99209290D01*
X197472500Y-99210000D01*
X197127500Y-99210000D01*
X197113042Y-99209290D01*
X197098724Y-99207166D01*
X197084683Y-99203649D01*
X197071054Y-99198772D01*
X197057969Y-99192583D01*
X197045553Y-99185142D01*
X197033927Y-99176519D01*
X197023202Y-99166798D01*
X197013481Y-99156073D01*
X197004858Y-99144447D01*
X196997417Y-99132031D01*
X196991228Y-99118946D01*
X196986351Y-99105317D01*
X196982834Y-99091276D01*
X196980710Y-99076958D01*
X196980000Y-99062500D01*
X196980000Y-98767500D01*
X196980710Y-98753042D01*
X196982834Y-98738724D01*
X196986351Y-98724683D01*
X196991228Y-98711054D01*
X196997417Y-98697969D01*
X197004858Y-98685553D01*
X197013481Y-98673927D01*
X197023202Y-98663202D01*
X197033927Y-98653481D01*
X197045553Y-98644858D01*
X197057969Y-98637417D01*
X197071054Y-98631228D01*
X197084683Y-98626351D01*
X197098724Y-98622834D01*
X197113042Y-98620710D01*
X197127500Y-98620000D01*
X197472500Y-98620000D01*
X197486958Y-98620710D01*
G37*
G36*
X193646958Y-107580710D02*
G01*
X193661276Y-107582834D01*
X193675317Y-107586351D01*
X193688946Y-107591228D01*
X193702031Y-107597417D01*
X193714447Y-107604858D01*
X193726073Y-107613481D01*
X193736798Y-107623202D01*
X193746519Y-107633927D01*
X193755142Y-107645553D01*
X193762583Y-107657969D01*
X193768772Y-107671054D01*
X193773649Y-107684683D01*
X193777166Y-107698724D01*
X193779290Y-107713042D01*
X193780000Y-107727500D01*
X193780000Y-108072500D01*
X193779290Y-108086958D01*
X193777166Y-108101276D01*
X193773649Y-108115317D01*
X193768772Y-108128946D01*
X193762583Y-108142031D01*
X193755142Y-108154447D01*
X193746519Y-108166073D01*
X193736798Y-108176798D01*
X193726073Y-108186519D01*
X193714447Y-108195142D01*
X193702031Y-108202583D01*
X193688946Y-108208772D01*
X193675317Y-108213649D01*
X193661276Y-108217166D01*
X193646958Y-108219290D01*
X193632500Y-108220000D01*
X193337500Y-108220000D01*
X193323042Y-108219290D01*
X193308724Y-108217166D01*
X193294683Y-108213649D01*
X193281054Y-108208772D01*
X193267969Y-108202583D01*
X193255553Y-108195142D01*
X193243927Y-108186519D01*
X193233202Y-108176798D01*
X193223481Y-108166073D01*
X193214858Y-108154447D01*
X193207417Y-108142031D01*
X193201228Y-108128946D01*
X193196351Y-108115317D01*
X193192834Y-108101276D01*
X193190710Y-108086958D01*
X193190000Y-108072500D01*
X193190000Y-107727500D01*
X193190710Y-107713042D01*
X193192834Y-107698724D01*
X193196351Y-107684683D01*
X193201228Y-107671054D01*
X193207417Y-107657969D01*
X193214858Y-107645553D01*
X193223481Y-107633927D01*
X193233202Y-107623202D01*
X193243927Y-107613481D01*
X193255553Y-107604858D01*
X193267969Y-107597417D01*
X193281054Y-107591228D01*
X193294683Y-107586351D01*
X193308724Y-107582834D01*
X193323042Y-107580710D01*
X193337500Y-107580000D01*
X193632500Y-107580000D01*
X193646958Y-107580710D01*
G37*
G36*
X192676958Y-107580710D02*
G01*
X192691276Y-107582834D01*
X192705317Y-107586351D01*
X192718946Y-107591228D01*
X192732031Y-107597417D01*
X192744447Y-107604858D01*
X192756073Y-107613481D01*
X192766798Y-107623202D01*
X192776519Y-107633927D01*
X192785142Y-107645553D01*
X192792583Y-107657969D01*
X192798772Y-107671054D01*
X192803649Y-107684683D01*
X192807166Y-107698724D01*
X192809290Y-107713042D01*
X192810000Y-107727500D01*
X192810000Y-108072500D01*
X192809290Y-108086958D01*
X192807166Y-108101276D01*
X192803649Y-108115317D01*
X192798772Y-108128946D01*
X192792583Y-108142031D01*
X192785142Y-108154447D01*
X192776519Y-108166073D01*
X192766798Y-108176798D01*
X192756073Y-108186519D01*
X192744447Y-108195142D01*
X192732031Y-108202583D01*
X192718946Y-108208772D01*
X192705317Y-108213649D01*
X192691276Y-108217166D01*
X192676958Y-108219290D01*
X192662500Y-108220000D01*
X192367500Y-108220000D01*
X192353042Y-108219290D01*
X192338724Y-108217166D01*
X192324683Y-108213649D01*
X192311054Y-108208772D01*
X192297969Y-108202583D01*
X192285553Y-108195142D01*
X192273927Y-108186519D01*
X192263202Y-108176798D01*
X192253481Y-108166073D01*
X192244858Y-108154447D01*
X192237417Y-108142031D01*
X192231228Y-108128946D01*
X192226351Y-108115317D01*
X192222834Y-108101276D01*
X192220710Y-108086958D01*
X192220000Y-108072500D01*
X192220000Y-107727500D01*
X192220710Y-107713042D01*
X192222834Y-107698724D01*
X192226351Y-107684683D01*
X192231228Y-107671054D01*
X192237417Y-107657969D01*
X192244858Y-107645553D01*
X192253481Y-107633927D01*
X192263202Y-107623202D01*
X192273927Y-107613481D01*
X192285553Y-107604858D01*
X192297969Y-107597417D01*
X192311054Y-107591228D01*
X192324683Y-107586351D01*
X192338724Y-107582834D01*
X192353042Y-107580710D01*
X192367500Y-107580000D01*
X192662500Y-107580000D01*
X192676958Y-107580710D01*
G37*
G36*
X200086958Y-103975710D02*
G01*
X200101276Y-103977834D01*
X200115317Y-103981351D01*
X200128946Y-103986228D01*
X200142031Y-103992417D01*
X200154447Y-103999858D01*
X200166073Y-104008481D01*
X200176798Y-104018202D01*
X200186519Y-104028927D01*
X200195142Y-104040553D01*
X200202583Y-104052969D01*
X200208772Y-104066054D01*
X200213649Y-104079683D01*
X200217166Y-104093724D01*
X200219290Y-104108042D01*
X200220000Y-104122500D01*
X200220000Y-104417500D01*
X200219290Y-104431958D01*
X200217166Y-104446276D01*
X200213649Y-104460317D01*
X200208772Y-104473946D01*
X200202583Y-104487031D01*
X200195142Y-104499447D01*
X200186519Y-104511073D01*
X200176798Y-104521798D01*
X200166073Y-104531519D01*
X200154447Y-104540142D01*
X200142031Y-104547583D01*
X200128946Y-104553772D01*
X200115317Y-104558649D01*
X200101276Y-104562166D01*
X200086958Y-104564290D01*
X200072500Y-104565000D01*
X199727500Y-104565000D01*
X199713042Y-104564290D01*
X199698724Y-104562166D01*
X199684683Y-104558649D01*
X199671054Y-104553772D01*
X199657969Y-104547583D01*
X199645553Y-104540142D01*
X199633927Y-104531519D01*
X199623202Y-104521798D01*
X199613481Y-104511073D01*
X199604858Y-104499447D01*
X199597417Y-104487031D01*
X199591228Y-104473946D01*
X199586351Y-104460317D01*
X199582834Y-104446276D01*
X199580710Y-104431958D01*
X199580000Y-104417500D01*
X199580000Y-104122500D01*
X199580710Y-104108042D01*
X199582834Y-104093724D01*
X199586351Y-104079683D01*
X199591228Y-104066054D01*
X199597417Y-104052969D01*
X199604858Y-104040553D01*
X199613481Y-104028927D01*
X199623202Y-104018202D01*
X199633927Y-104008481D01*
X199645553Y-103999858D01*
X199657969Y-103992417D01*
X199671054Y-103986228D01*
X199684683Y-103981351D01*
X199698724Y-103977834D01*
X199713042Y-103975710D01*
X199727500Y-103975000D01*
X200072500Y-103975000D01*
X200086958Y-103975710D01*
G37*
G36*
X200086958Y-103005710D02*
G01*
X200101276Y-103007834D01*
X200115317Y-103011351D01*
X200128946Y-103016228D01*
X200142031Y-103022417D01*
X200154447Y-103029858D01*
X200166073Y-103038481D01*
X200176798Y-103048202D01*
X200186519Y-103058927D01*
X200195142Y-103070553D01*
X200202583Y-103082969D01*
X200208772Y-103096054D01*
X200213649Y-103109683D01*
X200217166Y-103123724D01*
X200219290Y-103138042D01*
X200220000Y-103152500D01*
X200220000Y-103447500D01*
X200219290Y-103461958D01*
X200217166Y-103476276D01*
X200213649Y-103490317D01*
X200208772Y-103503946D01*
X200202583Y-103517031D01*
X200195142Y-103529447D01*
X200186519Y-103541073D01*
X200176798Y-103551798D01*
X200166073Y-103561519D01*
X200154447Y-103570142D01*
X200142031Y-103577583D01*
X200128946Y-103583772D01*
X200115317Y-103588649D01*
X200101276Y-103592166D01*
X200086958Y-103594290D01*
X200072500Y-103595000D01*
X199727500Y-103595000D01*
X199713042Y-103594290D01*
X199698724Y-103592166D01*
X199684683Y-103588649D01*
X199671054Y-103583772D01*
X199657969Y-103577583D01*
X199645553Y-103570142D01*
X199633927Y-103561519D01*
X199623202Y-103551798D01*
X199613481Y-103541073D01*
X199604858Y-103529447D01*
X199597417Y-103517031D01*
X199591228Y-103503946D01*
X199586351Y-103490317D01*
X199582834Y-103476276D01*
X199580710Y-103461958D01*
X199580000Y-103447500D01*
X199580000Y-103152500D01*
X199580710Y-103138042D01*
X199582834Y-103123724D01*
X199586351Y-103109683D01*
X199591228Y-103096054D01*
X199597417Y-103082969D01*
X199604858Y-103070553D01*
X199613481Y-103058927D01*
X199623202Y-103048202D01*
X199633927Y-103038481D01*
X199645553Y-103029858D01*
X199657969Y-103022417D01*
X199671054Y-103016228D01*
X199684683Y-103011351D01*
X199698724Y-103007834D01*
X199713042Y-103005710D01*
X199727500Y-103005000D01*
X200072500Y-103005000D01*
X200086958Y-103005710D01*
G37*
G36*
X200086958Y-101790710D02*
G01*
X200101276Y-101792834D01*
X200115317Y-101796351D01*
X200128946Y-101801228D01*
X200142031Y-101807417D01*
X200154447Y-101814858D01*
X200166073Y-101823481D01*
X200176798Y-101833202D01*
X200186519Y-101843927D01*
X200195142Y-101855553D01*
X200202583Y-101867969D01*
X200208772Y-101881054D01*
X200213649Y-101894683D01*
X200217166Y-101908724D01*
X200219290Y-101923042D01*
X200220000Y-101937500D01*
X200220000Y-102232500D01*
X200219290Y-102246958D01*
X200217166Y-102261276D01*
X200213649Y-102275317D01*
X200208772Y-102288946D01*
X200202583Y-102302031D01*
X200195142Y-102314447D01*
X200186519Y-102326073D01*
X200176798Y-102336798D01*
X200166073Y-102346519D01*
X200154447Y-102355142D01*
X200142031Y-102362583D01*
X200128946Y-102368772D01*
X200115317Y-102373649D01*
X200101276Y-102377166D01*
X200086958Y-102379290D01*
X200072500Y-102380000D01*
X199727500Y-102380000D01*
X199713042Y-102379290D01*
X199698724Y-102377166D01*
X199684683Y-102373649D01*
X199671054Y-102368772D01*
X199657969Y-102362583D01*
X199645553Y-102355142D01*
X199633927Y-102346519D01*
X199623202Y-102336798D01*
X199613481Y-102326073D01*
X199604858Y-102314447D01*
X199597417Y-102302031D01*
X199591228Y-102288946D01*
X199586351Y-102275317D01*
X199582834Y-102261276D01*
X199580710Y-102246958D01*
X199580000Y-102232500D01*
X199580000Y-101937500D01*
X199580710Y-101923042D01*
X199582834Y-101908724D01*
X199586351Y-101894683D01*
X199591228Y-101881054D01*
X199597417Y-101867969D01*
X199604858Y-101855553D01*
X199613481Y-101843927D01*
X199623202Y-101833202D01*
X199633927Y-101823481D01*
X199645553Y-101814858D01*
X199657969Y-101807417D01*
X199671054Y-101801228D01*
X199684683Y-101796351D01*
X199698724Y-101792834D01*
X199713042Y-101790710D01*
X199727500Y-101790000D01*
X200072500Y-101790000D01*
X200086958Y-101790710D01*
G37*
G36*
X200086958Y-100820710D02*
G01*
X200101276Y-100822834D01*
X200115317Y-100826351D01*
X200128946Y-100831228D01*
X200142031Y-100837417D01*
X200154447Y-100844858D01*
X200166073Y-100853481D01*
X200176798Y-100863202D01*
X200186519Y-100873927D01*
X200195142Y-100885553D01*
X200202583Y-100897969D01*
X200208772Y-100911054D01*
X200213649Y-100924683D01*
X200217166Y-100938724D01*
X200219290Y-100953042D01*
X200220000Y-100967500D01*
X200220000Y-101262500D01*
X200219290Y-101276958D01*
X200217166Y-101291276D01*
X200213649Y-101305317D01*
X200208772Y-101318946D01*
X200202583Y-101332031D01*
X200195142Y-101344447D01*
X200186519Y-101356073D01*
X200176798Y-101366798D01*
X200166073Y-101376519D01*
X200154447Y-101385142D01*
X200142031Y-101392583D01*
X200128946Y-101398772D01*
X200115317Y-101403649D01*
X200101276Y-101407166D01*
X200086958Y-101409290D01*
X200072500Y-101410000D01*
X199727500Y-101410000D01*
X199713042Y-101409290D01*
X199698724Y-101407166D01*
X199684683Y-101403649D01*
X199671054Y-101398772D01*
X199657969Y-101392583D01*
X199645553Y-101385142D01*
X199633927Y-101376519D01*
X199623202Y-101366798D01*
X199613481Y-101356073D01*
X199604858Y-101344447D01*
X199597417Y-101332031D01*
X199591228Y-101318946D01*
X199586351Y-101305317D01*
X199582834Y-101291276D01*
X199580710Y-101276958D01*
X199580000Y-101262500D01*
X199580000Y-100967500D01*
X199580710Y-100953042D01*
X199582834Y-100938724D01*
X199586351Y-100924683D01*
X199591228Y-100911054D01*
X199597417Y-100897969D01*
X199604858Y-100885553D01*
X199613481Y-100873927D01*
X199623202Y-100863202D01*
X199633927Y-100853481D01*
X199645553Y-100844858D01*
X199657969Y-100837417D01*
X199671054Y-100831228D01*
X199684683Y-100826351D01*
X199698724Y-100822834D01*
X199713042Y-100820710D01*
X199727500Y-100820000D01*
X200072500Y-100820000D01*
X200086958Y-100820710D01*
G37*
G36*
X197911958Y-106090710D02*
G01*
X197926276Y-106092834D01*
X197940317Y-106096351D01*
X197953946Y-106101228D01*
X197967031Y-106107417D01*
X197979447Y-106114858D01*
X197991073Y-106123481D01*
X198001798Y-106133202D01*
X198011519Y-106143927D01*
X198020142Y-106155553D01*
X198027583Y-106167969D01*
X198033772Y-106181054D01*
X198038649Y-106194683D01*
X198042166Y-106208724D01*
X198044290Y-106223042D01*
X198045000Y-106237500D01*
X198045000Y-106532500D01*
X198044290Y-106546958D01*
X198042166Y-106561276D01*
X198038649Y-106575317D01*
X198033772Y-106588946D01*
X198027583Y-106602031D01*
X198020142Y-106614447D01*
X198011519Y-106626073D01*
X198001798Y-106636798D01*
X197991073Y-106646519D01*
X197979447Y-106655142D01*
X197967031Y-106662583D01*
X197953946Y-106668772D01*
X197940317Y-106673649D01*
X197926276Y-106677166D01*
X197911958Y-106679290D01*
X197897500Y-106680000D01*
X197552500Y-106680000D01*
X197538042Y-106679290D01*
X197523724Y-106677166D01*
X197509683Y-106673649D01*
X197496054Y-106668772D01*
X197482969Y-106662583D01*
X197470553Y-106655142D01*
X197458927Y-106646519D01*
X197448202Y-106636798D01*
X197438481Y-106626073D01*
X197429858Y-106614447D01*
X197422417Y-106602031D01*
X197416228Y-106588946D01*
X197411351Y-106575317D01*
X197407834Y-106561276D01*
X197405710Y-106546958D01*
X197405000Y-106532500D01*
X197405000Y-106237500D01*
X197405710Y-106223042D01*
X197407834Y-106208724D01*
X197411351Y-106194683D01*
X197416228Y-106181054D01*
X197422417Y-106167969D01*
X197429858Y-106155553D01*
X197438481Y-106143927D01*
X197448202Y-106133202D01*
X197458927Y-106123481D01*
X197470553Y-106114858D01*
X197482969Y-106107417D01*
X197496054Y-106101228D01*
X197509683Y-106096351D01*
X197523724Y-106092834D01*
X197538042Y-106090710D01*
X197552500Y-106090000D01*
X197897500Y-106090000D01*
X197911958Y-106090710D01*
G37*
G36*
X197911958Y-105120710D02*
G01*
X197926276Y-105122834D01*
X197940317Y-105126351D01*
X197953946Y-105131228D01*
X197967031Y-105137417D01*
X197979447Y-105144858D01*
X197991073Y-105153481D01*
X198001798Y-105163202D01*
X198011519Y-105173927D01*
X198020142Y-105185553D01*
X198027583Y-105197969D01*
X198033772Y-105211054D01*
X198038649Y-105224683D01*
X198042166Y-105238724D01*
X198044290Y-105253042D01*
X198045000Y-105267500D01*
X198045000Y-105562500D01*
X198044290Y-105576958D01*
X198042166Y-105591276D01*
X198038649Y-105605317D01*
X198033772Y-105618946D01*
X198027583Y-105632031D01*
X198020142Y-105644447D01*
X198011519Y-105656073D01*
X198001798Y-105666798D01*
X197991073Y-105676519D01*
X197979447Y-105685142D01*
X197967031Y-105692583D01*
X197953946Y-105698772D01*
X197940317Y-105703649D01*
X197926276Y-105707166D01*
X197911958Y-105709290D01*
X197897500Y-105710000D01*
X197552500Y-105710000D01*
X197538042Y-105709290D01*
X197523724Y-105707166D01*
X197509683Y-105703649D01*
X197496054Y-105698772D01*
X197482969Y-105692583D01*
X197470553Y-105685142D01*
X197458927Y-105676519D01*
X197448202Y-105666798D01*
X197438481Y-105656073D01*
X197429858Y-105644447D01*
X197422417Y-105632031D01*
X197416228Y-105618946D01*
X197411351Y-105605317D01*
X197407834Y-105591276D01*
X197405710Y-105576958D01*
X197405000Y-105562500D01*
X197405000Y-105267500D01*
X197405710Y-105253042D01*
X197407834Y-105238724D01*
X197411351Y-105224683D01*
X197416228Y-105211054D01*
X197422417Y-105197969D01*
X197429858Y-105185553D01*
X197438481Y-105173927D01*
X197448202Y-105163202D01*
X197458927Y-105153481D01*
X197470553Y-105144858D01*
X197482969Y-105137417D01*
X197496054Y-105131228D01*
X197509683Y-105126351D01*
X197523724Y-105122834D01*
X197538042Y-105120710D01*
X197552500Y-105120000D01*
X197897500Y-105120000D01*
X197911958Y-105120710D01*
G37*
D21*
X196550000Y-103713220D03*
X196550000Y-101513220D03*
X198250000Y-101513220D03*
X198250000Y-103713220D03*
D10*
G36*
X191077691Y-104576053D02*
G01*
X191098926Y-104579203D01*
X191119750Y-104584419D01*
X191139962Y-104591651D01*
X191159368Y-104600830D01*
X191177781Y-104611866D01*
X191195024Y-104624654D01*
X191210930Y-104639070D01*
X191225346Y-104654976D01*
X191238134Y-104672219D01*
X191249170Y-104690632D01*
X191258349Y-104710038D01*
X191265581Y-104730250D01*
X191270797Y-104751074D01*
X191273947Y-104772309D01*
X191275000Y-104793750D01*
X191275000Y-105231250D01*
X191273947Y-105252691D01*
X191270797Y-105273926D01*
X191265581Y-105294750D01*
X191258349Y-105314962D01*
X191249170Y-105334368D01*
X191238134Y-105352781D01*
X191225346Y-105370024D01*
X191210930Y-105385930D01*
X191195024Y-105400346D01*
X191177781Y-105413134D01*
X191159368Y-105424170D01*
X191139962Y-105433349D01*
X191119750Y-105440581D01*
X191098926Y-105445797D01*
X191077691Y-105448947D01*
X191056250Y-105450000D01*
X190543750Y-105450000D01*
X190522309Y-105448947D01*
X190501074Y-105445797D01*
X190480250Y-105440581D01*
X190460038Y-105433349D01*
X190440632Y-105424170D01*
X190422219Y-105413134D01*
X190404976Y-105400346D01*
X190389070Y-105385930D01*
X190374654Y-105370024D01*
X190361866Y-105352781D01*
X190350830Y-105334368D01*
X190341651Y-105314962D01*
X190334419Y-105294750D01*
X190329203Y-105273926D01*
X190326053Y-105252691D01*
X190325000Y-105231250D01*
X190325000Y-104793750D01*
X190326053Y-104772309D01*
X190329203Y-104751074D01*
X190334419Y-104730250D01*
X190341651Y-104710038D01*
X190350830Y-104690632D01*
X190361866Y-104672219D01*
X190374654Y-104654976D01*
X190389070Y-104639070D01*
X190404976Y-104624654D01*
X190422219Y-104611866D01*
X190440632Y-104600830D01*
X190460038Y-104591651D01*
X190480250Y-104584419D01*
X190501074Y-104579203D01*
X190522309Y-104576053D01*
X190543750Y-104575000D01*
X191056250Y-104575000D01*
X191077691Y-104576053D01*
G37*
G36*
X191077691Y-106151053D02*
G01*
X191098926Y-106154203D01*
X191119750Y-106159419D01*
X191139962Y-106166651D01*
X191159368Y-106175830D01*
X191177781Y-106186866D01*
X191195024Y-106199654D01*
X191210930Y-106214070D01*
X191225346Y-106229976D01*
X191238134Y-106247219D01*
X191249170Y-106265632D01*
X191258349Y-106285038D01*
X191265581Y-106305250D01*
X191270797Y-106326074D01*
X191273947Y-106347309D01*
X191275000Y-106368750D01*
X191275000Y-106806250D01*
X191273947Y-106827691D01*
X191270797Y-106848926D01*
X191265581Y-106869750D01*
X191258349Y-106889962D01*
X191249170Y-106909368D01*
X191238134Y-106927781D01*
X191225346Y-106945024D01*
X191210930Y-106960930D01*
X191195024Y-106975346D01*
X191177781Y-106988134D01*
X191159368Y-106999170D01*
X191139962Y-107008349D01*
X191119750Y-107015581D01*
X191098926Y-107020797D01*
X191077691Y-107023947D01*
X191056250Y-107025000D01*
X190543750Y-107025000D01*
X190522309Y-107023947D01*
X190501074Y-107020797D01*
X190480250Y-107015581D01*
X190460038Y-107008349D01*
X190440632Y-106999170D01*
X190422219Y-106988134D01*
X190404976Y-106975346D01*
X190389070Y-106960930D01*
X190374654Y-106945024D01*
X190361866Y-106927781D01*
X190350830Y-106909368D01*
X190341651Y-106889962D01*
X190334419Y-106869750D01*
X190329203Y-106848926D01*
X190326053Y-106827691D01*
X190325000Y-106806250D01*
X190325000Y-106368750D01*
X190326053Y-106347309D01*
X190329203Y-106326074D01*
X190334419Y-106305250D01*
X190341651Y-106285038D01*
X190350830Y-106265632D01*
X190361866Y-106247219D01*
X190374654Y-106229976D01*
X190389070Y-106214070D01*
X190404976Y-106199654D01*
X190422219Y-106186866D01*
X190440632Y-106175830D01*
X190460038Y-106166651D01*
X190480250Y-106159419D01*
X190501074Y-106154203D01*
X190522309Y-106151053D01*
X190543750Y-106150000D01*
X191056250Y-106150000D01*
X191077691Y-106151053D01*
G37*
G36*
X184977691Y-106776053D02*
G01*
X184998926Y-106779203D01*
X185019750Y-106784419D01*
X185039962Y-106791651D01*
X185059368Y-106800830D01*
X185077781Y-106811866D01*
X185095024Y-106824654D01*
X185110930Y-106839070D01*
X185125346Y-106854976D01*
X185138134Y-106872219D01*
X185149170Y-106890632D01*
X185158349Y-106910038D01*
X185165581Y-106930250D01*
X185170797Y-106951074D01*
X185173947Y-106972309D01*
X185175000Y-106993750D01*
X185175000Y-107431250D01*
X185173947Y-107452691D01*
X185170797Y-107473926D01*
X185165581Y-107494750D01*
X185158349Y-107514962D01*
X185149170Y-107534368D01*
X185138134Y-107552781D01*
X185125346Y-107570024D01*
X185110930Y-107585930D01*
X185095024Y-107600346D01*
X185077781Y-107613134D01*
X185059368Y-107624170D01*
X185039962Y-107633349D01*
X185019750Y-107640581D01*
X184998926Y-107645797D01*
X184977691Y-107648947D01*
X184956250Y-107650000D01*
X184443750Y-107650000D01*
X184422309Y-107648947D01*
X184401074Y-107645797D01*
X184380250Y-107640581D01*
X184360038Y-107633349D01*
X184340632Y-107624170D01*
X184322219Y-107613134D01*
X184304976Y-107600346D01*
X184289070Y-107585930D01*
X184274654Y-107570024D01*
X184261866Y-107552781D01*
X184250830Y-107534368D01*
X184241651Y-107514962D01*
X184234419Y-107494750D01*
X184229203Y-107473926D01*
X184226053Y-107452691D01*
X184225000Y-107431250D01*
X184225000Y-106993750D01*
X184226053Y-106972309D01*
X184229203Y-106951074D01*
X184234419Y-106930250D01*
X184241651Y-106910038D01*
X184250830Y-106890632D01*
X184261866Y-106872219D01*
X184274654Y-106854976D01*
X184289070Y-106839070D01*
X184304976Y-106824654D01*
X184322219Y-106811866D01*
X184340632Y-106800830D01*
X184360038Y-106791651D01*
X184380250Y-106784419D01*
X184401074Y-106779203D01*
X184422309Y-106776053D01*
X184443750Y-106775000D01*
X184956250Y-106775000D01*
X184977691Y-106776053D01*
G37*
G36*
X184977691Y-108351053D02*
G01*
X184998926Y-108354203D01*
X185019750Y-108359419D01*
X185039962Y-108366651D01*
X185059368Y-108375830D01*
X185077781Y-108386866D01*
X185095024Y-108399654D01*
X185110930Y-108414070D01*
X185125346Y-108429976D01*
X185138134Y-108447219D01*
X185149170Y-108465632D01*
X185158349Y-108485038D01*
X185165581Y-108505250D01*
X185170797Y-108526074D01*
X185173947Y-108547309D01*
X185175000Y-108568750D01*
X185175000Y-109006250D01*
X185173947Y-109027691D01*
X185170797Y-109048926D01*
X185165581Y-109069750D01*
X185158349Y-109089962D01*
X185149170Y-109109368D01*
X185138134Y-109127781D01*
X185125346Y-109145024D01*
X185110930Y-109160930D01*
X185095024Y-109175346D01*
X185077781Y-109188134D01*
X185059368Y-109199170D01*
X185039962Y-109208349D01*
X185019750Y-109215581D01*
X184998926Y-109220797D01*
X184977691Y-109223947D01*
X184956250Y-109225000D01*
X184443750Y-109225000D01*
X184422309Y-109223947D01*
X184401074Y-109220797D01*
X184380250Y-109215581D01*
X184360038Y-109208349D01*
X184340632Y-109199170D01*
X184322219Y-109188134D01*
X184304976Y-109175346D01*
X184289070Y-109160930D01*
X184274654Y-109145024D01*
X184261866Y-109127781D01*
X184250830Y-109109368D01*
X184241651Y-109089962D01*
X184234419Y-109069750D01*
X184229203Y-109048926D01*
X184226053Y-109027691D01*
X184225000Y-109006250D01*
X184225000Y-108568750D01*
X184226053Y-108547309D01*
X184229203Y-108526074D01*
X184234419Y-108505250D01*
X184241651Y-108485038D01*
X184250830Y-108465632D01*
X184261866Y-108447219D01*
X184274654Y-108429976D01*
X184289070Y-108414070D01*
X184304976Y-108399654D01*
X184322219Y-108386866D01*
X184340632Y-108375830D01*
X184360038Y-108366651D01*
X184380250Y-108359419D01*
X184401074Y-108354203D01*
X184422309Y-108351053D01*
X184443750Y-108350000D01*
X184956250Y-108350000D01*
X184977691Y-108351053D01*
G37*
D14*
X193050000Y-102337500D03*
X193050000Y-101262500D03*
D15*
X194825000Y-101800000D03*
X192975000Y-101800000D03*
D14*
X194750000Y-101262500D03*
X194750000Y-102337500D03*
X193050000Y-99937500D03*
X193050000Y-98862500D03*
D15*
X194825000Y-99400000D03*
X192975000Y-99400000D03*
D14*
X194750000Y-98862500D03*
X194750000Y-99937500D03*
D22*
X189150000Y-106075000D03*
X186650000Y-106075000D03*
D10*
G36*
X198985779Y-110426144D02*
G01*
X199008834Y-110429563D01*
X199031443Y-110435227D01*
X199053387Y-110443079D01*
X199074457Y-110453044D01*
X199094448Y-110465026D01*
X199113168Y-110478910D01*
X199130438Y-110494562D01*
X199146090Y-110511832D01*
X199159974Y-110530552D01*
X199171956Y-110550543D01*
X199181921Y-110571613D01*
X199189773Y-110593557D01*
X199195437Y-110616166D01*
X199198856Y-110639221D01*
X199200000Y-110662500D01*
X199200000Y-111137500D01*
X199198856Y-111160779D01*
X199195437Y-111183834D01*
X199189773Y-111206443D01*
X199181921Y-111228387D01*
X199171956Y-111249457D01*
X199159974Y-111269448D01*
X199146090Y-111288168D01*
X199130438Y-111305438D01*
X199113168Y-111321090D01*
X199094448Y-111334974D01*
X199074457Y-111346956D01*
X199053387Y-111356921D01*
X199031443Y-111364773D01*
X199008834Y-111370437D01*
X198985779Y-111373856D01*
X198962500Y-111375000D01*
X198387500Y-111375000D01*
X198364221Y-111373856D01*
X198341166Y-111370437D01*
X198318557Y-111364773D01*
X198296613Y-111356921D01*
X198275543Y-111346956D01*
X198255552Y-111334974D01*
X198236832Y-111321090D01*
X198219562Y-111305438D01*
X198203910Y-111288168D01*
X198190026Y-111269448D01*
X198178044Y-111249457D01*
X198168079Y-111228387D01*
X198160227Y-111206443D01*
X198154563Y-111183834D01*
X198151144Y-111160779D01*
X198150000Y-111137500D01*
X198150000Y-110662500D01*
X198151144Y-110639221D01*
X198154563Y-110616166D01*
X198160227Y-110593557D01*
X198168079Y-110571613D01*
X198178044Y-110550543D01*
X198190026Y-110530552D01*
X198203910Y-110511832D01*
X198219562Y-110494562D01*
X198236832Y-110478910D01*
X198255552Y-110465026D01*
X198275543Y-110453044D01*
X198296613Y-110443079D01*
X198318557Y-110435227D01*
X198341166Y-110429563D01*
X198364221Y-110426144D01*
X198387500Y-110425000D01*
X198962500Y-110425000D01*
X198985779Y-110426144D01*
G37*
G36*
X197235779Y-110426144D02*
G01*
X197258834Y-110429563D01*
X197281443Y-110435227D01*
X197303387Y-110443079D01*
X197324457Y-110453044D01*
X197344448Y-110465026D01*
X197363168Y-110478910D01*
X197380438Y-110494562D01*
X197396090Y-110511832D01*
X197409974Y-110530552D01*
X197421956Y-110550543D01*
X197431921Y-110571613D01*
X197439773Y-110593557D01*
X197445437Y-110616166D01*
X197448856Y-110639221D01*
X197450000Y-110662500D01*
X197450000Y-111137500D01*
X197448856Y-111160779D01*
X197445437Y-111183834D01*
X197439773Y-111206443D01*
X197431921Y-111228387D01*
X197421956Y-111249457D01*
X197409974Y-111269448D01*
X197396090Y-111288168D01*
X197380438Y-111305438D01*
X197363168Y-111321090D01*
X197344448Y-111334974D01*
X197324457Y-111346956D01*
X197303387Y-111356921D01*
X197281443Y-111364773D01*
X197258834Y-111370437D01*
X197235779Y-111373856D01*
X197212500Y-111375000D01*
X196637500Y-111375000D01*
X196614221Y-111373856D01*
X196591166Y-111370437D01*
X196568557Y-111364773D01*
X196546613Y-111356921D01*
X196525543Y-111346956D01*
X196505552Y-111334974D01*
X196486832Y-111321090D01*
X196469562Y-111305438D01*
X196453910Y-111288168D01*
X196440026Y-111269448D01*
X196428044Y-111249457D01*
X196418079Y-111228387D01*
X196410227Y-111206443D01*
X196404563Y-111183834D01*
X196401144Y-111160779D01*
X196400000Y-111137500D01*
X196400000Y-110662500D01*
X196401144Y-110639221D01*
X196404563Y-110616166D01*
X196410227Y-110593557D01*
X196418079Y-110571613D01*
X196428044Y-110550543D01*
X196440026Y-110530552D01*
X196453910Y-110511832D01*
X196469562Y-110494562D01*
X196486832Y-110478910D01*
X196505552Y-110465026D01*
X196525543Y-110453044D01*
X196546613Y-110443079D01*
X196568557Y-110435227D01*
X196591166Y-110429563D01*
X196614221Y-110426144D01*
X196637500Y-110425000D01*
X197212500Y-110425000D01*
X197235779Y-110426144D01*
G37*
G36*
X198985779Y-107226144D02*
G01*
X199008834Y-107229563D01*
X199031443Y-107235227D01*
X199053387Y-107243079D01*
X199074457Y-107253044D01*
X199094448Y-107265026D01*
X199113168Y-107278910D01*
X199130438Y-107294562D01*
X199146090Y-107311832D01*
X199159974Y-107330552D01*
X199171956Y-107350543D01*
X199181921Y-107371613D01*
X199189773Y-107393557D01*
X199195437Y-107416166D01*
X199198856Y-107439221D01*
X199200000Y-107462500D01*
X199200000Y-107937500D01*
X199198856Y-107960779D01*
X199195437Y-107983834D01*
X199189773Y-108006443D01*
X199181921Y-108028387D01*
X199171956Y-108049457D01*
X199159974Y-108069448D01*
X199146090Y-108088168D01*
X199130438Y-108105438D01*
X199113168Y-108121090D01*
X199094448Y-108134974D01*
X199074457Y-108146956D01*
X199053387Y-108156921D01*
X199031443Y-108164773D01*
X199008834Y-108170437D01*
X198985779Y-108173856D01*
X198962500Y-108175000D01*
X198387500Y-108175000D01*
X198364221Y-108173856D01*
X198341166Y-108170437D01*
X198318557Y-108164773D01*
X198296613Y-108156921D01*
X198275543Y-108146956D01*
X198255552Y-108134974D01*
X198236832Y-108121090D01*
X198219562Y-108105438D01*
X198203910Y-108088168D01*
X198190026Y-108069448D01*
X198178044Y-108049457D01*
X198168079Y-108028387D01*
X198160227Y-108006443D01*
X198154563Y-107983834D01*
X198151144Y-107960779D01*
X198150000Y-107937500D01*
X198150000Y-107462500D01*
X198151144Y-107439221D01*
X198154563Y-107416166D01*
X198160227Y-107393557D01*
X198168079Y-107371613D01*
X198178044Y-107350543D01*
X198190026Y-107330552D01*
X198203910Y-107311832D01*
X198219562Y-107294562D01*
X198236832Y-107278910D01*
X198255552Y-107265026D01*
X198275543Y-107253044D01*
X198296613Y-107243079D01*
X198318557Y-107235227D01*
X198341166Y-107229563D01*
X198364221Y-107226144D01*
X198387500Y-107225000D01*
X198962500Y-107225000D01*
X198985779Y-107226144D01*
G37*
G36*
X197235779Y-107226144D02*
G01*
X197258834Y-107229563D01*
X197281443Y-107235227D01*
X197303387Y-107243079D01*
X197324457Y-107253044D01*
X197344448Y-107265026D01*
X197363168Y-107278910D01*
X197380438Y-107294562D01*
X197396090Y-107311832D01*
X197409974Y-107330552D01*
X197421956Y-107350543D01*
X197431921Y-107371613D01*
X197439773Y-107393557D01*
X197445437Y-107416166D01*
X197448856Y-107439221D01*
X197450000Y-107462500D01*
X197450000Y-107937500D01*
X197448856Y-107960779D01*
X197445437Y-107983834D01*
X197439773Y-108006443D01*
X197431921Y-108028387D01*
X197421956Y-108049457D01*
X197409974Y-108069448D01*
X197396090Y-108088168D01*
X197380438Y-108105438D01*
X197363168Y-108121090D01*
X197344448Y-108134974D01*
X197324457Y-108146956D01*
X197303387Y-108156921D01*
X197281443Y-108164773D01*
X197258834Y-108170437D01*
X197235779Y-108173856D01*
X197212500Y-108175000D01*
X196637500Y-108175000D01*
X196614221Y-108173856D01*
X196591166Y-108170437D01*
X196568557Y-108164773D01*
X196546613Y-108156921D01*
X196525543Y-108146956D01*
X196505552Y-108134974D01*
X196486832Y-108121090D01*
X196469562Y-108105438D01*
X196453910Y-108088168D01*
X196440026Y-108069448D01*
X196428044Y-108049457D01*
X196418079Y-108028387D01*
X196410227Y-108006443D01*
X196404563Y-107983834D01*
X196401144Y-107960779D01*
X196400000Y-107937500D01*
X196400000Y-107462500D01*
X196401144Y-107439221D01*
X196404563Y-107416166D01*
X196410227Y-107393557D01*
X196418079Y-107371613D01*
X196428044Y-107350543D01*
X196440026Y-107330552D01*
X196453910Y-107311832D01*
X196469562Y-107294562D01*
X196486832Y-107278910D01*
X196505552Y-107265026D01*
X196525543Y-107253044D01*
X196546613Y-107243079D01*
X196568557Y-107235227D01*
X196591166Y-107229563D01*
X196614221Y-107226144D01*
X196637500Y-107225000D01*
X197212500Y-107225000D01*
X197235779Y-107226144D01*
G37*
G36*
X198985779Y-108826144D02*
G01*
X199008834Y-108829563D01*
X199031443Y-108835227D01*
X199053387Y-108843079D01*
X199074457Y-108853044D01*
X199094448Y-108865026D01*
X199113168Y-108878910D01*
X199130438Y-108894562D01*
X199146090Y-108911832D01*
X199159974Y-108930552D01*
X199171956Y-108950543D01*
X199181921Y-108971613D01*
X199189773Y-108993557D01*
X199195437Y-109016166D01*
X199198856Y-109039221D01*
X199200000Y-109062500D01*
X199200000Y-109537500D01*
X199198856Y-109560779D01*
X199195437Y-109583834D01*
X199189773Y-109606443D01*
X199181921Y-109628387D01*
X199171956Y-109649457D01*
X199159974Y-109669448D01*
X199146090Y-109688168D01*
X199130438Y-109705438D01*
X199113168Y-109721090D01*
X199094448Y-109734974D01*
X199074457Y-109746956D01*
X199053387Y-109756921D01*
X199031443Y-109764773D01*
X199008834Y-109770437D01*
X198985779Y-109773856D01*
X198962500Y-109775000D01*
X198387500Y-109775000D01*
X198364221Y-109773856D01*
X198341166Y-109770437D01*
X198318557Y-109764773D01*
X198296613Y-109756921D01*
X198275543Y-109746956D01*
X198255552Y-109734974D01*
X198236832Y-109721090D01*
X198219562Y-109705438D01*
X198203910Y-109688168D01*
X198190026Y-109669448D01*
X198178044Y-109649457D01*
X198168079Y-109628387D01*
X198160227Y-109606443D01*
X198154563Y-109583834D01*
X198151144Y-109560779D01*
X198150000Y-109537500D01*
X198150000Y-109062500D01*
X198151144Y-109039221D01*
X198154563Y-109016166D01*
X198160227Y-108993557D01*
X198168079Y-108971613D01*
X198178044Y-108950543D01*
X198190026Y-108930552D01*
X198203910Y-108911832D01*
X198219562Y-108894562D01*
X198236832Y-108878910D01*
X198255552Y-108865026D01*
X198275543Y-108853044D01*
X198296613Y-108843079D01*
X198318557Y-108835227D01*
X198341166Y-108829563D01*
X198364221Y-108826144D01*
X198387500Y-108825000D01*
X198962500Y-108825000D01*
X198985779Y-108826144D01*
G37*
G36*
X197235779Y-108826144D02*
G01*
X197258834Y-108829563D01*
X197281443Y-108835227D01*
X197303387Y-108843079D01*
X197324457Y-108853044D01*
X197344448Y-108865026D01*
X197363168Y-108878910D01*
X197380438Y-108894562D01*
X197396090Y-108911832D01*
X197409974Y-108930552D01*
X197421956Y-108950543D01*
X197431921Y-108971613D01*
X197439773Y-108993557D01*
X197445437Y-109016166D01*
X197448856Y-109039221D01*
X197450000Y-109062500D01*
X197450000Y-109537500D01*
X197448856Y-109560779D01*
X197445437Y-109583834D01*
X197439773Y-109606443D01*
X197431921Y-109628387D01*
X197421956Y-109649457D01*
X197409974Y-109669448D01*
X197396090Y-109688168D01*
X197380438Y-109705438D01*
X197363168Y-109721090D01*
X197344448Y-109734974D01*
X197324457Y-109746956D01*
X197303387Y-109756921D01*
X197281443Y-109764773D01*
X197258834Y-109770437D01*
X197235779Y-109773856D01*
X197212500Y-109775000D01*
X196637500Y-109775000D01*
X196614221Y-109773856D01*
X196591166Y-109770437D01*
X196568557Y-109764773D01*
X196546613Y-109756921D01*
X196525543Y-109746956D01*
X196505552Y-109734974D01*
X196486832Y-109721090D01*
X196469562Y-109705438D01*
X196453910Y-109688168D01*
X196440026Y-109669448D01*
X196428044Y-109649457D01*
X196418079Y-109628387D01*
X196410227Y-109606443D01*
X196404563Y-109583834D01*
X196401144Y-109560779D01*
X196400000Y-109537500D01*
X196400000Y-109062500D01*
X196401144Y-109039221D01*
X196404563Y-109016166D01*
X196410227Y-108993557D01*
X196418079Y-108971613D01*
X196428044Y-108950543D01*
X196440026Y-108930552D01*
X196453910Y-108911832D01*
X196469562Y-108894562D01*
X196486832Y-108878910D01*
X196505552Y-108865026D01*
X196525543Y-108853044D01*
X196546613Y-108843079D01*
X196568557Y-108835227D01*
X196591166Y-108829563D01*
X196614221Y-108826144D01*
X196637500Y-108825000D01*
X197212500Y-108825000D01*
X197235779Y-108826144D01*
G37*
M02*
