G04 #@! TF.GenerationSoftware,KiCad,Pcbnew,(5.1.5)-3*
G04 #@! TF.CreationDate,2020-05-21T21:25:23+08:00*
G04 #@! TF.ProjectId,AdvancedSTLink,41647661-6e63-4656-9453-544c696e6b2e,rev?*
G04 #@! TF.SameCoordinates,Original*
G04 #@! TF.FileFunction,Copper,L2,Bot*
G04 #@! TF.FilePolarity,Positive*
%FSLAX46Y46*%
G04 Gerber Fmt 4.6, Leading zero omitted, Abs format (unit mm)*
G04 Created by KiCad (PCBNEW (5.1.5)-3) date 2020-05-21 21:25:23*
%MOMM*%
%LPD*%
G04 APERTURE LIST*
%ADD10O,1.000000X1.000000*%
%ADD11R,1.000000X1.000000*%
%ADD12O,2.100000X1.000000*%
%ADD13O,1.600000X1.000000*%
%ADD14C,0.600000*%
%ADD15C,0.127000*%
%ADD16C,0.381000*%
%ADD17C,0.254000*%
G04 APERTURE END LIST*
D10*
X165531800Y-113182400D03*
X165531800Y-114452400D03*
X164261800Y-113182400D03*
X164261800Y-114452400D03*
X162991800Y-113182400D03*
D11*
X162991800Y-114452400D03*
D12*
X158085240Y-111243840D03*
X158085240Y-102603840D03*
D13*
X153905240Y-102603840D03*
X153905240Y-111243840D03*
D14*
X163779200Y-98094800D03*
X163880800Y-99466400D03*
X174543720Y-101518720D03*
X182046880Y-104965500D03*
X178236880Y-104297480D03*
X168097200Y-104800400D03*
X170738800Y-104800400D03*
X173075600Y-103479600D03*
X168046400Y-106781600D03*
X167894000Y-108559600D03*
X172415200Y-107746800D03*
X175107600Y-107746800D03*
X170434000Y-109423200D03*
X175107600Y-109474000D03*
X182118000Y-114706400D03*
X182118000Y-115265200D03*
X187147200Y-113182400D03*
X187706000Y-113182400D03*
X185115200Y-110185200D03*
X184353200Y-110185200D03*
X190449200Y-109626400D03*
X190855600Y-110032800D03*
X200914000Y-100787200D03*
X200863200Y-109982000D03*
X174193200Y-113182400D03*
X170027600Y-113233200D03*
X168656000Y-113233200D03*
X161340800Y-113080800D03*
X161340800Y-114503200D03*
X190906400Y-102108000D03*
X190906400Y-103022400D03*
X187401200Y-99466400D03*
X180644800Y-99923600D03*
X182575200Y-101295200D03*
X196113400Y-101701600D03*
X198069200Y-98348800D03*
X198170800Y-107035600D03*
X197154800Y-112674400D03*
X196164200Y-111480600D03*
X198247000Y-113309400D03*
X193141600Y-107035600D03*
X194056000Y-107950000D03*
X182270400Y-106299000D03*
X183565800Y-107950000D03*
X178460400Y-108686600D03*
X192405000Y-113715800D03*
X179578000Y-111912400D03*
X181152800Y-111963200D03*
X178714400Y-112979200D03*
X192405000Y-114528600D03*
X193751200Y-112242600D03*
X202793600Y-114884200D03*
X162229800Y-108000800D03*
X203644500Y-107124500D03*
X203644500Y-108407200D03*
X203568300Y-105867200D03*
X186065160Y-102925880D03*
X204750000Y-98900000D03*
X209850000Y-99000000D03*
X207200000Y-99850000D03*
X208250000Y-103800000D03*
X210700000Y-103450000D03*
X210500000Y-106600000D03*
X208750000Y-106250000D03*
X209100000Y-108900000D03*
X211050000Y-110350000D03*
X210000000Y-113850000D03*
X206600000Y-113000000D03*
X205900000Y-114300000D03*
X203950000Y-111400000D03*
X177000000Y-114950000D03*
X179800000Y-114900000D03*
X152900000Y-105400000D03*
X154150000Y-108350000D03*
X152550000Y-110250000D03*
X153200000Y-113150000D03*
X156600000Y-114600000D03*
X152250000Y-103100000D03*
X156750000Y-99550000D03*
X159650000Y-99050000D03*
X152650000Y-101450000D03*
X167436800Y-114096800D03*
X164236400Y-111455200D03*
X164236400Y-105968800D03*
X168605200Y-110337600D03*
X198884220Y-109471780D03*
X198882000Y-102514400D03*
X196545200Y-102514400D03*
X196545200Y-109474000D03*
X171805600Y-101803200D03*
X166319200Y-111455200D03*
X173730920Y-101787960D03*
X203073000Y-113817400D03*
X203708000Y-113817400D03*
X195326000Y-113995200D03*
X195326000Y-113360200D03*
X157632400Y-106019600D03*
X155041600Y-106019600D03*
X167538400Y-113131600D03*
X179070000Y-103428800D03*
X175209200Y-103378000D03*
X169011600Y-98704400D03*
X195605400Y-99466400D03*
X192328800Y-99491800D03*
X169646600Y-98171000D03*
X183438800Y-102412800D03*
X182732680Y-106918760D03*
X171610020Y-98996500D03*
X170985180Y-103789480D03*
X198932800Y-103759000D03*
X195640960Y-104754680D03*
X176410620Y-101587300D03*
X179024280Y-101793040D03*
X199136000Y-104627680D03*
X174183040Y-103525320D03*
X195694300Y-105511600D03*
X179003960Y-102590600D03*
D15*
X164261800Y-115159506D02*
X164519894Y-115417600D01*
X164261800Y-114452400D02*
X164261800Y-115159506D01*
X166116000Y-115417600D02*
X167436800Y-114096800D01*
X164519894Y-115417600D02*
X166116000Y-115417600D01*
D16*
X164236400Y-106393064D02*
X164236400Y-111455200D01*
X164236400Y-105968800D02*
X164236400Y-106393064D01*
X164236400Y-111455200D02*
X166319200Y-111455200D01*
X167487600Y-111455200D02*
X168605200Y-110337600D01*
X168605200Y-110337600D02*
X168605200Y-110337600D01*
D17*
X198882000Y-102514400D02*
X198457736Y-102514400D01*
X198457736Y-102514400D02*
X196545200Y-102514400D01*
X196545200Y-102514400D02*
X196545200Y-102514400D01*
X196547420Y-109471780D02*
X196545200Y-109474000D01*
X198884220Y-109471780D02*
X196547420Y-109471780D01*
D16*
X166319200Y-111455200D02*
X167487600Y-111455200D01*
X173715680Y-101803200D02*
X173730920Y-101787960D01*
X171805600Y-101803200D02*
X173715680Y-101803200D01*
X195326000Y-113360200D02*
X195326000Y-113995200D01*
X195326000Y-113995200D02*
X201904600Y-113995200D01*
X202082400Y-113817400D02*
X203708000Y-113817400D01*
X201904600Y-113995200D02*
X202082400Y-113817400D01*
D15*
X155041600Y-106019600D02*
X157632400Y-106019600D01*
X164261800Y-112475294D02*
X164418294Y-112318800D01*
X164261800Y-113182400D02*
X164261800Y-112475294D01*
X166725600Y-112318800D02*
X167538400Y-113131600D01*
X164418294Y-112318800D02*
X166725600Y-112318800D01*
X175260000Y-103428800D02*
X175209200Y-103378000D01*
X179070000Y-103428800D02*
X175260000Y-103428800D01*
X195605400Y-99466400D02*
X195605400Y-99042136D01*
X195605400Y-99042136D02*
X195605400Y-97815400D01*
X195605400Y-97815400D02*
X195199000Y-97409000D01*
X195199000Y-97409000D02*
X169519600Y-97409000D01*
X169011600Y-97917000D02*
X169519600Y-97409000D01*
X169011600Y-98704400D02*
X169011600Y-97917000D01*
X169646600Y-97746736D02*
X169646600Y-98171000D01*
X169730326Y-97663010D02*
X169646600Y-97746736D01*
X192328800Y-97790010D02*
X192201800Y-97663010D01*
X192201800Y-97663010D02*
X169730326Y-97663010D01*
X192328800Y-99491800D02*
X192328800Y-97790010D01*
X183438800Y-102412800D02*
X183438800Y-104673400D01*
X183438800Y-104673400D02*
X183438800Y-106212640D01*
X183438800Y-106212640D02*
X182732680Y-106918760D01*
X182732680Y-106918760D02*
X182732680Y-106918760D01*
X170985180Y-103789480D02*
X170985180Y-103789480D01*
X170985180Y-99621340D02*
X170985180Y-103789480D01*
X171610020Y-98996500D02*
X170985180Y-99621340D01*
X198932800Y-103759000D02*
X196636640Y-103759000D01*
X196636640Y-103759000D02*
X195640960Y-104754680D01*
X195640960Y-104754680D02*
X195640960Y-104754680D01*
X176616360Y-101793040D02*
X176410620Y-101587300D01*
X179024280Y-101793040D02*
X176616360Y-101793040D01*
X195691760Y-105425240D02*
X195691760Y-105425240D01*
X175117760Y-102590600D02*
X179003960Y-102590600D01*
X174183040Y-103525320D02*
X175117760Y-102590600D01*
X196578220Y-104627680D02*
X195694300Y-105511600D01*
X199136000Y-104627680D02*
X196578220Y-104627680D01*
D17*
G36*
X210521650Y-97432840D02*
G01*
X210791898Y-97514433D01*
X211041147Y-97646961D01*
X211259907Y-97825377D01*
X211439849Y-98042889D01*
X211574114Y-98291209D01*
X211657590Y-98560875D01*
X211689081Y-98860491D01*
X211689080Y-114076774D01*
X211659587Y-114377572D01*
X211577994Y-114647818D01*
X211445467Y-114897065D01*
X211267046Y-115115831D01*
X211049535Y-115295771D01*
X210801222Y-115430033D01*
X210531550Y-115513510D01*
X210231931Y-115545002D01*
X166613349Y-115548868D01*
X167384418Y-114777800D01*
X167503873Y-114777800D01*
X167635440Y-114751629D01*
X167759374Y-114700294D01*
X167870912Y-114625767D01*
X167965767Y-114530912D01*
X168040294Y-114419374D01*
X168091629Y-114295440D01*
X168117800Y-114163873D01*
X168117800Y-114029727D01*
X168091629Y-113898160D01*
X168040294Y-113774226D01*
X167966869Y-113664337D01*
X167972512Y-113660567D01*
X168067367Y-113565712D01*
X168141894Y-113454174D01*
X168193229Y-113330240D01*
X168200611Y-113293127D01*
X194645000Y-113293127D01*
X194645000Y-113427273D01*
X194671171Y-113558840D01*
X194720404Y-113677700D01*
X194671171Y-113796560D01*
X194645000Y-113928127D01*
X194645000Y-114062273D01*
X194671171Y-114193840D01*
X194722506Y-114317774D01*
X194797033Y-114429312D01*
X194891888Y-114524167D01*
X195003426Y-114598694D01*
X195127360Y-114650029D01*
X195258927Y-114676200D01*
X195393073Y-114676200D01*
X195524640Y-114650029D01*
X195648574Y-114598694D01*
X195696457Y-114566700D01*
X201876526Y-114566700D01*
X201904600Y-114569465D01*
X201932674Y-114566700D01*
X202016634Y-114558431D01*
X202124362Y-114525752D01*
X202223645Y-114472684D01*
X202310667Y-114401267D01*
X202320816Y-114388900D01*
X202702543Y-114388900D01*
X202750426Y-114420894D01*
X202874360Y-114472229D01*
X203005927Y-114498400D01*
X203140073Y-114498400D01*
X203271640Y-114472229D01*
X203390500Y-114422996D01*
X203509360Y-114472229D01*
X203640927Y-114498400D01*
X203775073Y-114498400D01*
X203906640Y-114472229D01*
X204030574Y-114420894D01*
X204142112Y-114346367D01*
X204236967Y-114251512D01*
X204311494Y-114139974D01*
X204362829Y-114016040D01*
X204389000Y-113884473D01*
X204389000Y-113750327D01*
X204362829Y-113618760D01*
X204311494Y-113494826D01*
X204236967Y-113383288D01*
X204142112Y-113288433D01*
X204030574Y-113213906D01*
X203906640Y-113162571D01*
X203775073Y-113136400D01*
X203640927Y-113136400D01*
X203509360Y-113162571D01*
X203390500Y-113211804D01*
X203271640Y-113162571D01*
X203140073Y-113136400D01*
X203005927Y-113136400D01*
X202874360Y-113162571D01*
X202750426Y-113213906D01*
X202702543Y-113245900D01*
X202110471Y-113245900D01*
X202082399Y-113243135D01*
X202054327Y-113245900D01*
X202054326Y-113245900D01*
X201970366Y-113254169D01*
X201862638Y-113286848D01*
X201763355Y-113339916D01*
X201676333Y-113411333D01*
X201666184Y-113423700D01*
X196007000Y-113423700D01*
X196007000Y-113293127D01*
X195980829Y-113161560D01*
X195929494Y-113037626D01*
X195854967Y-112926088D01*
X195760112Y-112831233D01*
X195648574Y-112756706D01*
X195524640Y-112705371D01*
X195393073Y-112679200D01*
X195258927Y-112679200D01*
X195127360Y-112705371D01*
X195003426Y-112756706D01*
X194891888Y-112831233D01*
X194797033Y-112926088D01*
X194722506Y-113037626D01*
X194671171Y-113161560D01*
X194645000Y-113293127D01*
X168200611Y-113293127D01*
X168219400Y-113198673D01*
X168219400Y-113064527D01*
X168193229Y-112932960D01*
X168141894Y-112809026D01*
X168067367Y-112697488D01*
X167972512Y-112602633D01*
X167860974Y-112528106D01*
X167737040Y-112476771D01*
X167605473Y-112450600D01*
X167486018Y-112450600D01*
X167062117Y-112026700D01*
X167459526Y-112026700D01*
X167487600Y-112029465D01*
X167515674Y-112026700D01*
X167599634Y-112018431D01*
X167707362Y-111985752D01*
X167806645Y-111932684D01*
X167893667Y-111861267D01*
X167911570Y-111839452D01*
X168747359Y-111003664D01*
X168803840Y-110992429D01*
X168927774Y-110941094D01*
X169039312Y-110866567D01*
X169134167Y-110771712D01*
X169208694Y-110660174D01*
X169260029Y-110536240D01*
X169286200Y-110404673D01*
X169286200Y-110270527D01*
X169260029Y-110138960D01*
X169208694Y-110015026D01*
X169134167Y-109903488D01*
X169039312Y-109808633D01*
X168927774Y-109734106D01*
X168803840Y-109682771D01*
X168672273Y-109656600D01*
X168538127Y-109656600D01*
X168406560Y-109682771D01*
X168282626Y-109734106D01*
X168171088Y-109808633D01*
X168076233Y-109903488D01*
X168001706Y-110015026D01*
X167950371Y-110138960D01*
X167939136Y-110195441D01*
X167250878Y-110883700D01*
X166689657Y-110883700D01*
X166641774Y-110851706D01*
X166517840Y-110800371D01*
X166386273Y-110774200D01*
X166252127Y-110774200D01*
X166120560Y-110800371D01*
X165996626Y-110851706D01*
X165948743Y-110883700D01*
X164807900Y-110883700D01*
X164807900Y-109406927D01*
X195864200Y-109406927D01*
X195864200Y-109541073D01*
X195890371Y-109672640D01*
X195941706Y-109796574D01*
X196016233Y-109908112D01*
X196111088Y-110002967D01*
X196222626Y-110077494D01*
X196346560Y-110128829D01*
X196478127Y-110155000D01*
X196612273Y-110155000D01*
X196743840Y-110128829D01*
X196867774Y-110077494D01*
X196979312Y-110002967D01*
X197002499Y-109979780D01*
X198429141Y-109979780D01*
X198450108Y-110000747D01*
X198561646Y-110075274D01*
X198685580Y-110126609D01*
X198817147Y-110152780D01*
X198951293Y-110152780D01*
X199082860Y-110126609D01*
X199206794Y-110075274D01*
X199318332Y-110000747D01*
X199413187Y-109905892D01*
X199487714Y-109794354D01*
X199539049Y-109670420D01*
X199565220Y-109538853D01*
X199565220Y-109404707D01*
X199539049Y-109273140D01*
X199487714Y-109149206D01*
X199413187Y-109037668D01*
X199318332Y-108942813D01*
X199206794Y-108868286D01*
X199082860Y-108816951D01*
X198951293Y-108790780D01*
X198817147Y-108790780D01*
X198685580Y-108816951D01*
X198561646Y-108868286D01*
X198450108Y-108942813D01*
X198429141Y-108963780D01*
X196998059Y-108963780D01*
X196979312Y-108945033D01*
X196867774Y-108870506D01*
X196743840Y-108819171D01*
X196612273Y-108793000D01*
X196478127Y-108793000D01*
X196346560Y-108819171D01*
X196222626Y-108870506D01*
X196111088Y-108945033D01*
X196016233Y-109039888D01*
X195941706Y-109151426D01*
X195890371Y-109275360D01*
X195864200Y-109406927D01*
X164807900Y-109406927D01*
X164807900Y-106851687D01*
X182051680Y-106851687D01*
X182051680Y-106985833D01*
X182077851Y-107117400D01*
X182129186Y-107241334D01*
X182203713Y-107352872D01*
X182298568Y-107447727D01*
X182410106Y-107522254D01*
X182534040Y-107573589D01*
X182665607Y-107599760D01*
X182799753Y-107599760D01*
X182931320Y-107573589D01*
X183055254Y-107522254D01*
X183166792Y-107447727D01*
X183261647Y-107352872D01*
X183336174Y-107241334D01*
X183387509Y-107117400D01*
X183413680Y-106985833D01*
X183413680Y-106866378D01*
X183737676Y-106542382D01*
X183754629Y-106528469D01*
X183768544Y-106511514D01*
X183810175Y-106460787D01*
X183831368Y-106421138D01*
X183851451Y-106383566D01*
X183876868Y-106299777D01*
X183883300Y-106234470D01*
X183883300Y-106234461D01*
X183885449Y-106212641D01*
X183883300Y-106190821D01*
X183883300Y-104687607D01*
X194959960Y-104687607D01*
X194959960Y-104821753D01*
X194986131Y-104953320D01*
X195037466Y-105077254D01*
X195101478Y-105173055D01*
X195090806Y-105189026D01*
X195039471Y-105312960D01*
X195013300Y-105444527D01*
X195013300Y-105578673D01*
X195039471Y-105710240D01*
X195090806Y-105834174D01*
X195165333Y-105945712D01*
X195260188Y-106040567D01*
X195371726Y-106115094D01*
X195495660Y-106166429D01*
X195627227Y-106192600D01*
X195761373Y-106192600D01*
X195892940Y-106166429D01*
X196016874Y-106115094D01*
X196128412Y-106040567D01*
X196223267Y-105945712D01*
X196297794Y-105834174D01*
X196349129Y-105710240D01*
X196375300Y-105578673D01*
X196375300Y-105459217D01*
X196762338Y-105072180D01*
X198617421Y-105072180D01*
X198701888Y-105156647D01*
X198813426Y-105231174D01*
X198937360Y-105282509D01*
X199068927Y-105308680D01*
X199203073Y-105308680D01*
X199334640Y-105282509D01*
X199458574Y-105231174D01*
X199570112Y-105156647D01*
X199664967Y-105061792D01*
X199739494Y-104950254D01*
X199790829Y-104826320D01*
X199817000Y-104694753D01*
X199817000Y-104560607D01*
X199790829Y-104429040D01*
X199739494Y-104305106D01*
X199664967Y-104193568D01*
X199570112Y-104098713D01*
X199538064Y-104077300D01*
X199587629Y-103957640D01*
X199613800Y-103826073D01*
X199613800Y-103691927D01*
X199587629Y-103560360D01*
X199536294Y-103436426D01*
X199461767Y-103324888D01*
X199366912Y-103230033D01*
X199255374Y-103155506D01*
X199184572Y-103126179D01*
X199204574Y-103117894D01*
X199316112Y-103043367D01*
X199410967Y-102948512D01*
X199485494Y-102836974D01*
X199536829Y-102713040D01*
X199563000Y-102581473D01*
X199563000Y-102447327D01*
X199536829Y-102315760D01*
X199485494Y-102191826D01*
X199410967Y-102080288D01*
X199316112Y-101985433D01*
X199204574Y-101910906D01*
X199080640Y-101859571D01*
X198949073Y-101833400D01*
X198814927Y-101833400D01*
X198683360Y-101859571D01*
X198559426Y-101910906D01*
X198447888Y-101985433D01*
X198426921Y-102006400D01*
X197000279Y-102006400D01*
X196979312Y-101985433D01*
X196867774Y-101910906D01*
X196743840Y-101859571D01*
X196612273Y-101833400D01*
X196478127Y-101833400D01*
X196346560Y-101859571D01*
X196222626Y-101910906D01*
X196111088Y-101985433D01*
X196016233Y-102080288D01*
X195941706Y-102191826D01*
X195890371Y-102315760D01*
X195864200Y-102447327D01*
X195864200Y-102581473D01*
X195890371Y-102713040D01*
X195941706Y-102836974D01*
X196016233Y-102948512D01*
X196111088Y-103043367D01*
X196222626Y-103117894D01*
X196346560Y-103169229D01*
X196478127Y-103195400D01*
X196612273Y-103195400D01*
X196743840Y-103169229D01*
X196867774Y-103117894D01*
X196979312Y-103043367D01*
X197000279Y-103022400D01*
X198426921Y-103022400D01*
X198447888Y-103043367D01*
X198559426Y-103117894D01*
X198630228Y-103147221D01*
X198610226Y-103155506D01*
X198498688Y-103230033D01*
X198414221Y-103314500D01*
X196658459Y-103314500D01*
X196636639Y-103312351D01*
X196614819Y-103314500D01*
X196614810Y-103314500D01*
X196549503Y-103320932D01*
X196465714Y-103346349D01*
X196388495Y-103387624D01*
X196320811Y-103443171D01*
X196306893Y-103460130D01*
X195693343Y-104073680D01*
X195573887Y-104073680D01*
X195442320Y-104099851D01*
X195318386Y-104151186D01*
X195206848Y-104225713D01*
X195111993Y-104320568D01*
X195037466Y-104432106D01*
X194986131Y-104556040D01*
X194959960Y-104687607D01*
X183883300Y-104687607D01*
X183883300Y-102931379D01*
X183967767Y-102846912D01*
X184042294Y-102735374D01*
X184093629Y-102611440D01*
X184119800Y-102479873D01*
X184119800Y-102345727D01*
X184093629Y-102214160D01*
X184042294Y-102090226D01*
X183967767Y-101978688D01*
X183872912Y-101883833D01*
X183761374Y-101809306D01*
X183637440Y-101757971D01*
X183505873Y-101731800D01*
X183371727Y-101731800D01*
X183240160Y-101757971D01*
X183116226Y-101809306D01*
X183004688Y-101883833D01*
X182909833Y-101978688D01*
X182835306Y-102090226D01*
X182783971Y-102214160D01*
X182757800Y-102345727D01*
X182757800Y-102479873D01*
X182783971Y-102611440D01*
X182835306Y-102735374D01*
X182909833Y-102846912D01*
X182994300Y-102931379D01*
X182994301Y-104651561D01*
X182994300Y-104651571D01*
X182994301Y-106028521D01*
X182785062Y-106237760D01*
X182665607Y-106237760D01*
X182534040Y-106263931D01*
X182410106Y-106315266D01*
X182298568Y-106389793D01*
X182203713Y-106484648D01*
X182129186Y-106596186D01*
X182077851Y-106720120D01*
X182051680Y-106851687D01*
X164807900Y-106851687D01*
X164807900Y-106339257D01*
X164839894Y-106291374D01*
X164891229Y-106167440D01*
X164917400Y-106035873D01*
X164917400Y-105901727D01*
X164891229Y-105770160D01*
X164839894Y-105646226D01*
X164765367Y-105534688D01*
X164670512Y-105439833D01*
X164558974Y-105365306D01*
X164435040Y-105313971D01*
X164303473Y-105287800D01*
X164169327Y-105287800D01*
X164037760Y-105313971D01*
X163913826Y-105365306D01*
X163802288Y-105439833D01*
X163707433Y-105534688D01*
X163632906Y-105646226D01*
X163581571Y-105770160D01*
X163555400Y-105901727D01*
X163555400Y-106035873D01*
X163581571Y-106167440D01*
X163632906Y-106291374D01*
X163664900Y-106339257D01*
X163664900Y-106364991D01*
X163664901Y-111084742D01*
X163632906Y-111132626D01*
X163581571Y-111256560D01*
X163555400Y-111388127D01*
X163555400Y-111522273D01*
X163581571Y-111653840D01*
X163632906Y-111777774D01*
X163707433Y-111889312D01*
X163802288Y-111984167D01*
X163913826Y-112058694D01*
X164009962Y-112098515D01*
X163962925Y-112145552D01*
X163945972Y-112159465D01*
X163932059Y-112176418D01*
X163932055Y-112176422D01*
X163890424Y-112227149D01*
X163849149Y-112304369D01*
X163823733Y-112388157D01*
X163820846Y-112417466D01*
X163700195Y-112498082D01*
X163577482Y-112620795D01*
X163481068Y-112765090D01*
X163414656Y-112925422D01*
X163380800Y-113095629D01*
X163380800Y-113269171D01*
X163414656Y-113439378D01*
X163468578Y-113569557D01*
X162491800Y-113569557D01*
X162417111Y-113576913D01*
X162345292Y-113598699D01*
X162279104Y-113634078D01*
X162221089Y-113681689D01*
X162173478Y-113739704D01*
X162138099Y-113805892D01*
X162116313Y-113877711D01*
X162108957Y-113952400D01*
X162108957Y-114952400D01*
X162116313Y-115027089D01*
X162138099Y-115098908D01*
X162173478Y-115165096D01*
X162221089Y-115223111D01*
X162279104Y-115270722D01*
X162345292Y-115306101D01*
X162417111Y-115327887D01*
X162491800Y-115335243D01*
X163491800Y-115335243D01*
X163566489Y-115327887D01*
X163638308Y-115306101D01*
X163704496Y-115270722D01*
X163762511Y-115223111D01*
X163786232Y-115194206D01*
X163820846Y-115217334D01*
X163823733Y-115246643D01*
X163849149Y-115330431D01*
X163890424Y-115407651D01*
X163932055Y-115458378D01*
X163932059Y-115458382D01*
X163945972Y-115475335D01*
X163962925Y-115489248D01*
X164022774Y-115549097D01*
X152953410Y-115550078D01*
X152652628Y-115520587D01*
X152382382Y-115438994D01*
X152133135Y-115306467D01*
X151914369Y-115128046D01*
X151734429Y-114910535D01*
X151600167Y-114662222D01*
X151516690Y-114392550D01*
X151485200Y-114092943D01*
X151485151Y-109744305D01*
X156849240Y-109744305D01*
X156849240Y-109883375D01*
X156876371Y-110019773D01*
X156929591Y-110148256D01*
X157006854Y-110263889D01*
X157105191Y-110362226D01*
X157220824Y-110439489D01*
X157349307Y-110492709D01*
X157485705Y-110519840D01*
X157624775Y-110519840D01*
X157761173Y-110492709D01*
X157889656Y-110439489D01*
X158005289Y-110362226D01*
X158103626Y-110263889D01*
X158180889Y-110148256D01*
X158234109Y-110019773D01*
X158261240Y-109883375D01*
X158261240Y-109744305D01*
X158234109Y-109607907D01*
X158180889Y-109479424D01*
X158103626Y-109363791D01*
X158005289Y-109265454D01*
X157889656Y-109188191D01*
X157761173Y-109134971D01*
X157624775Y-109107840D01*
X157485705Y-109107840D01*
X157349307Y-109134971D01*
X157220824Y-109188191D01*
X157105191Y-109265454D01*
X157006854Y-109363791D01*
X156929591Y-109479424D01*
X156876371Y-109607907D01*
X156849240Y-109744305D01*
X151485151Y-109744305D01*
X151485107Y-105952527D01*
X154360600Y-105952527D01*
X154360600Y-106086673D01*
X154386771Y-106218240D01*
X154438106Y-106342174D01*
X154512633Y-106453712D01*
X154607488Y-106548567D01*
X154719026Y-106623094D01*
X154842960Y-106674429D01*
X154974527Y-106700600D01*
X155108673Y-106700600D01*
X155240240Y-106674429D01*
X155364174Y-106623094D01*
X155475712Y-106548567D01*
X155560179Y-106464100D01*
X157113821Y-106464100D01*
X157198288Y-106548567D01*
X157309826Y-106623094D01*
X157433760Y-106674429D01*
X157565327Y-106700600D01*
X157699473Y-106700600D01*
X157831040Y-106674429D01*
X157954974Y-106623094D01*
X158066512Y-106548567D01*
X158161367Y-106453712D01*
X158235894Y-106342174D01*
X158287229Y-106218240D01*
X158313400Y-106086673D01*
X158313400Y-105952527D01*
X158287229Y-105820960D01*
X158235894Y-105697026D01*
X158161367Y-105585488D01*
X158066512Y-105490633D01*
X157954974Y-105416106D01*
X157831040Y-105364771D01*
X157699473Y-105338600D01*
X157565327Y-105338600D01*
X157433760Y-105364771D01*
X157309826Y-105416106D01*
X157198288Y-105490633D01*
X157113821Y-105575100D01*
X155560179Y-105575100D01*
X155475712Y-105490633D01*
X155364174Y-105416106D01*
X155240240Y-105364771D01*
X155108673Y-105338600D01*
X154974527Y-105338600D01*
X154842960Y-105364771D01*
X154719026Y-105416106D01*
X154607488Y-105490633D01*
X154512633Y-105585488D01*
X154438106Y-105697026D01*
X154386771Y-105820960D01*
X154360600Y-105952527D01*
X151485107Y-105952527D01*
X151485085Y-103964305D01*
X156849240Y-103964305D01*
X156849240Y-104103375D01*
X156876371Y-104239773D01*
X156929591Y-104368256D01*
X157006854Y-104483889D01*
X157105191Y-104582226D01*
X157220824Y-104659489D01*
X157349307Y-104712709D01*
X157485705Y-104739840D01*
X157624775Y-104739840D01*
X157761173Y-104712709D01*
X157889656Y-104659489D01*
X158005289Y-104582226D01*
X158103626Y-104483889D01*
X158180889Y-104368256D01*
X158234109Y-104239773D01*
X158261240Y-104103375D01*
X158261240Y-103964305D01*
X158234109Y-103827907D01*
X158190409Y-103722407D01*
X170304180Y-103722407D01*
X170304180Y-103856553D01*
X170330351Y-103988120D01*
X170381686Y-104112054D01*
X170456213Y-104223592D01*
X170551068Y-104318447D01*
X170662606Y-104392974D01*
X170786540Y-104444309D01*
X170918107Y-104470480D01*
X171052253Y-104470480D01*
X171183820Y-104444309D01*
X171307754Y-104392974D01*
X171419292Y-104318447D01*
X171514147Y-104223592D01*
X171588674Y-104112054D01*
X171640009Y-103988120D01*
X171666180Y-103856553D01*
X171666180Y-103722407D01*
X171640009Y-103590840D01*
X171588674Y-103466906D01*
X171582889Y-103458247D01*
X173502040Y-103458247D01*
X173502040Y-103592393D01*
X173528211Y-103723960D01*
X173579546Y-103847894D01*
X173654073Y-103959432D01*
X173748928Y-104054287D01*
X173860466Y-104128814D01*
X173984400Y-104180149D01*
X174115967Y-104206320D01*
X174250113Y-104206320D01*
X174381680Y-104180149D01*
X174505614Y-104128814D01*
X174617152Y-104054287D01*
X174712007Y-103959432D01*
X174758288Y-103890167D01*
X174775088Y-103906967D01*
X174886626Y-103981494D01*
X175010560Y-104032829D01*
X175142127Y-104059000D01*
X175276273Y-104059000D01*
X175407840Y-104032829D01*
X175531774Y-103981494D01*
X175643312Y-103906967D01*
X175676979Y-103873300D01*
X178551421Y-103873300D01*
X178635888Y-103957767D01*
X178747426Y-104032294D01*
X178871360Y-104083629D01*
X179002927Y-104109800D01*
X179137073Y-104109800D01*
X179268640Y-104083629D01*
X179392574Y-104032294D01*
X179504112Y-103957767D01*
X179598967Y-103862912D01*
X179673494Y-103751374D01*
X179724829Y-103627440D01*
X179751000Y-103495873D01*
X179751000Y-103361727D01*
X179724829Y-103230160D01*
X179673494Y-103106226D01*
X179598967Y-102994688D01*
X179571405Y-102967126D01*
X179607454Y-102913174D01*
X179658789Y-102789240D01*
X179684960Y-102657673D01*
X179684960Y-102523527D01*
X179658789Y-102391960D01*
X179607454Y-102268026D01*
X179566695Y-102207026D01*
X179627774Y-102115614D01*
X179679109Y-101991680D01*
X179705280Y-101860113D01*
X179705280Y-101725967D01*
X179679109Y-101594400D01*
X179627774Y-101470466D01*
X179553247Y-101358928D01*
X179458392Y-101264073D01*
X179346854Y-101189546D01*
X179222920Y-101138211D01*
X179091353Y-101112040D01*
X178957207Y-101112040D01*
X178825640Y-101138211D01*
X178701706Y-101189546D01*
X178590168Y-101264073D01*
X178505701Y-101348540D01*
X177048831Y-101348540D01*
X177014114Y-101264726D01*
X176939587Y-101153188D01*
X176844732Y-101058333D01*
X176733194Y-100983806D01*
X176609260Y-100932471D01*
X176477693Y-100906300D01*
X176343547Y-100906300D01*
X176211980Y-100932471D01*
X176088046Y-100983806D01*
X175976508Y-101058333D01*
X175881653Y-101153188D01*
X175807126Y-101264726D01*
X175755791Y-101388660D01*
X175729620Y-101520227D01*
X175729620Y-101654373D01*
X175755791Y-101785940D01*
X175807126Y-101909874D01*
X175881653Y-102021412D01*
X175976508Y-102116267D01*
X176021156Y-102146100D01*
X175139580Y-102146100D01*
X175117760Y-102143951D01*
X175095940Y-102146100D01*
X175095930Y-102146100D01*
X175030623Y-102152532D01*
X174946834Y-102177949D01*
X174869614Y-102219224D01*
X174818887Y-102260855D01*
X174818884Y-102260858D01*
X174801931Y-102274771D01*
X174788018Y-102291724D01*
X174235423Y-102844320D01*
X174115967Y-102844320D01*
X173984400Y-102870491D01*
X173860466Y-102921826D01*
X173748928Y-102996353D01*
X173654073Y-103091208D01*
X173579546Y-103202746D01*
X173528211Y-103326680D01*
X173502040Y-103458247D01*
X171582889Y-103458247D01*
X171514147Y-103355368D01*
X171429680Y-103270901D01*
X171429680Y-102371049D01*
X171483026Y-102406694D01*
X171606960Y-102458029D01*
X171738527Y-102484200D01*
X171872673Y-102484200D01*
X172004240Y-102458029D01*
X172128174Y-102406694D01*
X172176057Y-102374700D01*
X173383272Y-102374700D01*
X173408346Y-102391454D01*
X173532280Y-102442789D01*
X173663847Y-102468960D01*
X173797993Y-102468960D01*
X173929560Y-102442789D01*
X174053494Y-102391454D01*
X174165032Y-102316927D01*
X174259887Y-102222072D01*
X174334414Y-102110534D01*
X174385749Y-101986600D01*
X174411920Y-101855033D01*
X174411920Y-101720887D01*
X174385749Y-101589320D01*
X174334414Y-101465386D01*
X174259887Y-101353848D01*
X174165032Y-101258993D01*
X174053494Y-101184466D01*
X173929560Y-101133131D01*
X173797993Y-101106960D01*
X173663847Y-101106960D01*
X173532280Y-101133131D01*
X173408346Y-101184466D01*
X173337655Y-101231700D01*
X172176057Y-101231700D01*
X172128174Y-101199706D01*
X172004240Y-101148371D01*
X171872673Y-101122200D01*
X171738527Y-101122200D01*
X171606960Y-101148371D01*
X171483026Y-101199706D01*
X171429680Y-101235351D01*
X171429680Y-99805457D01*
X171557637Y-99677500D01*
X171677093Y-99677500D01*
X171808660Y-99651329D01*
X171932594Y-99599994D01*
X172044132Y-99525467D01*
X172138987Y-99430612D01*
X172203705Y-99333754D01*
X183058440Y-99333754D01*
X183058440Y-99497446D01*
X183090375Y-99657994D01*
X183153017Y-99809226D01*
X183243960Y-99945332D01*
X183359708Y-100061080D01*
X183495814Y-100152023D01*
X183647046Y-100214665D01*
X183807594Y-100246600D01*
X183971286Y-100246600D01*
X184131834Y-100214665D01*
X184283066Y-100152023D01*
X184419172Y-100061080D01*
X184534920Y-99945332D01*
X184625863Y-99809226D01*
X184688505Y-99657994D01*
X184720440Y-99497446D01*
X184720440Y-99333754D01*
X189858440Y-99333754D01*
X189858440Y-99497446D01*
X189890375Y-99657994D01*
X189953017Y-99809226D01*
X190043960Y-99945332D01*
X190159708Y-100061080D01*
X190295814Y-100152023D01*
X190447046Y-100214665D01*
X190607594Y-100246600D01*
X190771286Y-100246600D01*
X190931834Y-100214665D01*
X191083066Y-100152023D01*
X191219172Y-100061080D01*
X191334920Y-99945332D01*
X191425863Y-99809226D01*
X191488505Y-99657994D01*
X191520440Y-99497446D01*
X191520440Y-99333754D01*
X191488505Y-99173206D01*
X191425863Y-99021974D01*
X191334920Y-98885868D01*
X191219172Y-98770120D01*
X191083066Y-98679177D01*
X190931834Y-98616535D01*
X190771286Y-98584600D01*
X190607594Y-98584600D01*
X190447046Y-98616535D01*
X190295814Y-98679177D01*
X190159708Y-98770120D01*
X190043960Y-98885868D01*
X189953017Y-99021974D01*
X189890375Y-99173206D01*
X189858440Y-99333754D01*
X184720440Y-99333754D01*
X184688505Y-99173206D01*
X184625863Y-99021974D01*
X184534920Y-98885868D01*
X184419172Y-98770120D01*
X184283066Y-98679177D01*
X184131834Y-98616535D01*
X183971286Y-98584600D01*
X183807594Y-98584600D01*
X183647046Y-98616535D01*
X183495814Y-98679177D01*
X183359708Y-98770120D01*
X183243960Y-98885868D01*
X183153017Y-99021974D01*
X183090375Y-99173206D01*
X183058440Y-99333754D01*
X172203705Y-99333754D01*
X172213514Y-99319074D01*
X172264849Y-99195140D01*
X172291020Y-99063573D01*
X172291020Y-98929427D01*
X172264849Y-98797860D01*
X172213514Y-98673926D01*
X172138987Y-98562388D01*
X172044132Y-98467533D01*
X171932594Y-98393006D01*
X171808660Y-98341671D01*
X171677093Y-98315500D01*
X171542947Y-98315500D01*
X171411380Y-98341671D01*
X171287446Y-98393006D01*
X171175908Y-98467533D01*
X171081053Y-98562388D01*
X171006526Y-98673926D01*
X170955191Y-98797860D01*
X170929020Y-98929427D01*
X170929020Y-99048883D01*
X170686310Y-99291593D01*
X170669351Y-99305511D01*
X170655435Y-99322468D01*
X170613804Y-99373195D01*
X170599836Y-99399327D01*
X170572529Y-99450415D01*
X170547112Y-99534204D01*
X170540680Y-99599511D01*
X170540680Y-99599520D01*
X170538531Y-99621340D01*
X170540680Y-99643160D01*
X170540681Y-103270900D01*
X170456213Y-103355368D01*
X170381686Y-103466906D01*
X170330351Y-103590840D01*
X170304180Y-103722407D01*
X158190409Y-103722407D01*
X158180889Y-103699424D01*
X158103626Y-103583791D01*
X158005289Y-103485454D01*
X157889656Y-103408191D01*
X157761173Y-103354971D01*
X157624775Y-103327840D01*
X157485705Y-103327840D01*
X157349307Y-103354971D01*
X157220824Y-103408191D01*
X157105191Y-103485454D01*
X157006854Y-103583791D01*
X156929591Y-103699424D01*
X156876371Y-103827907D01*
X156849240Y-103964305D01*
X151485085Y-103964305D01*
X151485026Y-98871751D01*
X151514520Y-98570950D01*
X151596113Y-98300702D01*
X151728641Y-98051453D01*
X151907057Y-97832693D01*
X152124569Y-97652751D01*
X152372889Y-97518486D01*
X152642555Y-97435010D01*
X152942162Y-97403520D01*
X168896511Y-97403472D01*
X168712725Y-97587258D01*
X168695772Y-97601171D01*
X168681859Y-97618124D01*
X168681855Y-97618128D01*
X168640224Y-97668855D01*
X168598949Y-97746075D01*
X168573533Y-97829863D01*
X168564951Y-97917000D01*
X168567101Y-97938829D01*
X168567101Y-98185820D01*
X168482633Y-98270288D01*
X168408106Y-98381826D01*
X168356771Y-98505760D01*
X168330600Y-98637327D01*
X168330600Y-98771473D01*
X168356771Y-98903040D01*
X168408106Y-99026974D01*
X168482633Y-99138512D01*
X168577488Y-99233367D01*
X168689026Y-99307894D01*
X168812960Y-99359229D01*
X168944527Y-99385400D01*
X169078673Y-99385400D01*
X169210240Y-99359229D01*
X169334174Y-99307894D01*
X169445712Y-99233367D01*
X169540567Y-99138512D01*
X169615094Y-99026974D01*
X169666429Y-98903040D01*
X169676582Y-98852000D01*
X169713673Y-98852000D01*
X169845240Y-98825829D01*
X169969174Y-98774494D01*
X170080712Y-98699967D01*
X170175567Y-98605112D01*
X170250094Y-98493574D01*
X170301429Y-98369640D01*
X170327600Y-98238073D01*
X170327600Y-98107510D01*
X191884301Y-98107510D01*
X191884300Y-98973221D01*
X191799833Y-99057688D01*
X191725306Y-99169226D01*
X191673971Y-99293160D01*
X191647800Y-99424727D01*
X191647800Y-99558873D01*
X191673971Y-99690440D01*
X191725306Y-99814374D01*
X191799833Y-99925912D01*
X191894688Y-100020767D01*
X192006226Y-100095294D01*
X192130160Y-100146629D01*
X192261727Y-100172800D01*
X192395873Y-100172800D01*
X192527440Y-100146629D01*
X192651374Y-100095294D01*
X192762912Y-100020767D01*
X192857767Y-99925912D01*
X192932294Y-99814374D01*
X192983629Y-99690440D01*
X193009800Y-99558873D01*
X193009800Y-99424727D01*
X192983629Y-99293160D01*
X192932294Y-99169226D01*
X192857767Y-99057688D01*
X192773300Y-98973221D01*
X192773300Y-97853500D01*
X195014883Y-97853500D01*
X195160901Y-97999519D01*
X195160900Y-98947821D01*
X195076433Y-99032288D01*
X195001906Y-99143826D01*
X194950571Y-99267760D01*
X194924400Y-99399327D01*
X194924400Y-99533473D01*
X194950571Y-99665040D01*
X195001906Y-99788974D01*
X195076433Y-99900512D01*
X195171288Y-99995367D01*
X195282826Y-100069894D01*
X195406760Y-100121229D01*
X195538327Y-100147400D01*
X195672473Y-100147400D01*
X195804040Y-100121229D01*
X195927974Y-100069894D01*
X196039512Y-99995367D01*
X196134367Y-99900512D01*
X196208894Y-99788974D01*
X196260229Y-99665040D01*
X196286400Y-99533473D01*
X196286400Y-99399327D01*
X196260229Y-99267760D01*
X196208894Y-99143826D01*
X196134367Y-99032288D01*
X196049900Y-98947821D01*
X196049900Y-97837219D01*
X196052049Y-97815399D01*
X196049900Y-97793579D01*
X196049900Y-97793570D01*
X196043468Y-97728263D01*
X196018051Y-97644474D01*
X195976776Y-97567255D01*
X195921229Y-97499571D01*
X195904276Y-97485658D01*
X195822008Y-97403390D01*
X210220845Y-97403346D01*
X210521650Y-97432840D01*
G37*
X210521650Y-97432840D02*
X210791898Y-97514433D01*
X211041147Y-97646961D01*
X211259907Y-97825377D01*
X211439849Y-98042889D01*
X211574114Y-98291209D01*
X211657590Y-98560875D01*
X211689081Y-98860491D01*
X211689080Y-114076774D01*
X211659587Y-114377572D01*
X211577994Y-114647818D01*
X211445467Y-114897065D01*
X211267046Y-115115831D01*
X211049535Y-115295771D01*
X210801222Y-115430033D01*
X210531550Y-115513510D01*
X210231931Y-115545002D01*
X166613349Y-115548868D01*
X167384418Y-114777800D01*
X167503873Y-114777800D01*
X167635440Y-114751629D01*
X167759374Y-114700294D01*
X167870912Y-114625767D01*
X167965767Y-114530912D01*
X168040294Y-114419374D01*
X168091629Y-114295440D01*
X168117800Y-114163873D01*
X168117800Y-114029727D01*
X168091629Y-113898160D01*
X168040294Y-113774226D01*
X167966869Y-113664337D01*
X167972512Y-113660567D01*
X168067367Y-113565712D01*
X168141894Y-113454174D01*
X168193229Y-113330240D01*
X168200611Y-113293127D01*
X194645000Y-113293127D01*
X194645000Y-113427273D01*
X194671171Y-113558840D01*
X194720404Y-113677700D01*
X194671171Y-113796560D01*
X194645000Y-113928127D01*
X194645000Y-114062273D01*
X194671171Y-114193840D01*
X194722506Y-114317774D01*
X194797033Y-114429312D01*
X194891888Y-114524167D01*
X195003426Y-114598694D01*
X195127360Y-114650029D01*
X195258927Y-114676200D01*
X195393073Y-114676200D01*
X195524640Y-114650029D01*
X195648574Y-114598694D01*
X195696457Y-114566700D01*
X201876526Y-114566700D01*
X201904600Y-114569465D01*
X201932674Y-114566700D01*
X202016634Y-114558431D01*
X202124362Y-114525752D01*
X202223645Y-114472684D01*
X202310667Y-114401267D01*
X202320816Y-114388900D01*
X202702543Y-114388900D01*
X202750426Y-114420894D01*
X202874360Y-114472229D01*
X203005927Y-114498400D01*
X203140073Y-114498400D01*
X203271640Y-114472229D01*
X203390500Y-114422996D01*
X203509360Y-114472229D01*
X203640927Y-114498400D01*
X203775073Y-114498400D01*
X203906640Y-114472229D01*
X204030574Y-114420894D01*
X204142112Y-114346367D01*
X204236967Y-114251512D01*
X204311494Y-114139974D01*
X204362829Y-114016040D01*
X204389000Y-113884473D01*
X204389000Y-113750327D01*
X204362829Y-113618760D01*
X204311494Y-113494826D01*
X204236967Y-113383288D01*
X204142112Y-113288433D01*
X204030574Y-113213906D01*
X203906640Y-113162571D01*
X203775073Y-113136400D01*
X203640927Y-113136400D01*
X203509360Y-113162571D01*
X203390500Y-113211804D01*
X203271640Y-113162571D01*
X203140073Y-113136400D01*
X203005927Y-113136400D01*
X202874360Y-113162571D01*
X202750426Y-113213906D01*
X202702543Y-113245900D01*
X202110471Y-113245900D01*
X202082399Y-113243135D01*
X202054327Y-113245900D01*
X202054326Y-113245900D01*
X201970366Y-113254169D01*
X201862638Y-113286848D01*
X201763355Y-113339916D01*
X201676333Y-113411333D01*
X201666184Y-113423700D01*
X196007000Y-113423700D01*
X196007000Y-113293127D01*
X195980829Y-113161560D01*
X195929494Y-113037626D01*
X195854967Y-112926088D01*
X195760112Y-112831233D01*
X195648574Y-112756706D01*
X195524640Y-112705371D01*
X195393073Y-112679200D01*
X195258927Y-112679200D01*
X195127360Y-112705371D01*
X195003426Y-112756706D01*
X194891888Y-112831233D01*
X194797033Y-112926088D01*
X194722506Y-113037626D01*
X194671171Y-113161560D01*
X194645000Y-113293127D01*
X168200611Y-113293127D01*
X168219400Y-113198673D01*
X168219400Y-113064527D01*
X168193229Y-112932960D01*
X168141894Y-112809026D01*
X168067367Y-112697488D01*
X167972512Y-112602633D01*
X167860974Y-112528106D01*
X167737040Y-112476771D01*
X167605473Y-112450600D01*
X167486018Y-112450600D01*
X167062117Y-112026700D01*
X167459526Y-112026700D01*
X167487600Y-112029465D01*
X167515674Y-112026700D01*
X167599634Y-112018431D01*
X167707362Y-111985752D01*
X167806645Y-111932684D01*
X167893667Y-111861267D01*
X167911570Y-111839452D01*
X168747359Y-111003664D01*
X168803840Y-110992429D01*
X168927774Y-110941094D01*
X169039312Y-110866567D01*
X169134167Y-110771712D01*
X169208694Y-110660174D01*
X169260029Y-110536240D01*
X169286200Y-110404673D01*
X169286200Y-110270527D01*
X169260029Y-110138960D01*
X169208694Y-110015026D01*
X169134167Y-109903488D01*
X169039312Y-109808633D01*
X168927774Y-109734106D01*
X168803840Y-109682771D01*
X168672273Y-109656600D01*
X168538127Y-109656600D01*
X168406560Y-109682771D01*
X168282626Y-109734106D01*
X168171088Y-109808633D01*
X168076233Y-109903488D01*
X168001706Y-110015026D01*
X167950371Y-110138960D01*
X167939136Y-110195441D01*
X167250878Y-110883700D01*
X166689657Y-110883700D01*
X166641774Y-110851706D01*
X166517840Y-110800371D01*
X166386273Y-110774200D01*
X166252127Y-110774200D01*
X166120560Y-110800371D01*
X165996626Y-110851706D01*
X165948743Y-110883700D01*
X164807900Y-110883700D01*
X164807900Y-109406927D01*
X195864200Y-109406927D01*
X195864200Y-109541073D01*
X195890371Y-109672640D01*
X195941706Y-109796574D01*
X196016233Y-109908112D01*
X196111088Y-110002967D01*
X196222626Y-110077494D01*
X196346560Y-110128829D01*
X196478127Y-110155000D01*
X196612273Y-110155000D01*
X196743840Y-110128829D01*
X196867774Y-110077494D01*
X196979312Y-110002967D01*
X197002499Y-109979780D01*
X198429141Y-109979780D01*
X198450108Y-110000747D01*
X198561646Y-110075274D01*
X198685580Y-110126609D01*
X198817147Y-110152780D01*
X198951293Y-110152780D01*
X199082860Y-110126609D01*
X199206794Y-110075274D01*
X199318332Y-110000747D01*
X199413187Y-109905892D01*
X199487714Y-109794354D01*
X199539049Y-109670420D01*
X199565220Y-109538853D01*
X199565220Y-109404707D01*
X199539049Y-109273140D01*
X199487714Y-109149206D01*
X199413187Y-109037668D01*
X199318332Y-108942813D01*
X199206794Y-108868286D01*
X199082860Y-108816951D01*
X198951293Y-108790780D01*
X198817147Y-108790780D01*
X198685580Y-108816951D01*
X198561646Y-108868286D01*
X198450108Y-108942813D01*
X198429141Y-108963780D01*
X196998059Y-108963780D01*
X196979312Y-108945033D01*
X196867774Y-108870506D01*
X196743840Y-108819171D01*
X196612273Y-108793000D01*
X196478127Y-108793000D01*
X196346560Y-108819171D01*
X196222626Y-108870506D01*
X196111088Y-108945033D01*
X196016233Y-109039888D01*
X195941706Y-109151426D01*
X195890371Y-109275360D01*
X195864200Y-109406927D01*
X164807900Y-109406927D01*
X164807900Y-106851687D01*
X182051680Y-106851687D01*
X182051680Y-106985833D01*
X182077851Y-107117400D01*
X182129186Y-107241334D01*
X182203713Y-107352872D01*
X182298568Y-107447727D01*
X182410106Y-107522254D01*
X182534040Y-107573589D01*
X182665607Y-107599760D01*
X182799753Y-107599760D01*
X182931320Y-107573589D01*
X183055254Y-107522254D01*
X183166792Y-107447727D01*
X183261647Y-107352872D01*
X183336174Y-107241334D01*
X183387509Y-107117400D01*
X183413680Y-106985833D01*
X183413680Y-106866378D01*
X183737676Y-106542382D01*
X183754629Y-106528469D01*
X183768544Y-106511514D01*
X183810175Y-106460787D01*
X183831368Y-106421138D01*
X183851451Y-106383566D01*
X183876868Y-106299777D01*
X183883300Y-106234470D01*
X183883300Y-106234461D01*
X183885449Y-106212641D01*
X183883300Y-106190821D01*
X183883300Y-104687607D01*
X194959960Y-104687607D01*
X194959960Y-104821753D01*
X194986131Y-104953320D01*
X195037466Y-105077254D01*
X195101478Y-105173055D01*
X195090806Y-105189026D01*
X195039471Y-105312960D01*
X195013300Y-105444527D01*
X195013300Y-105578673D01*
X195039471Y-105710240D01*
X195090806Y-105834174D01*
X195165333Y-105945712D01*
X195260188Y-106040567D01*
X195371726Y-106115094D01*
X195495660Y-106166429D01*
X195627227Y-106192600D01*
X195761373Y-106192600D01*
X195892940Y-106166429D01*
X196016874Y-106115094D01*
X196128412Y-106040567D01*
X196223267Y-105945712D01*
X196297794Y-105834174D01*
X196349129Y-105710240D01*
X196375300Y-105578673D01*
X196375300Y-105459217D01*
X196762338Y-105072180D01*
X198617421Y-105072180D01*
X198701888Y-105156647D01*
X198813426Y-105231174D01*
X198937360Y-105282509D01*
X199068927Y-105308680D01*
X199203073Y-105308680D01*
X199334640Y-105282509D01*
X199458574Y-105231174D01*
X199570112Y-105156647D01*
X199664967Y-105061792D01*
X199739494Y-104950254D01*
X199790829Y-104826320D01*
X199817000Y-104694753D01*
X199817000Y-104560607D01*
X199790829Y-104429040D01*
X199739494Y-104305106D01*
X199664967Y-104193568D01*
X199570112Y-104098713D01*
X199538064Y-104077300D01*
X199587629Y-103957640D01*
X199613800Y-103826073D01*
X199613800Y-103691927D01*
X199587629Y-103560360D01*
X199536294Y-103436426D01*
X199461767Y-103324888D01*
X199366912Y-103230033D01*
X199255374Y-103155506D01*
X199184572Y-103126179D01*
X199204574Y-103117894D01*
X199316112Y-103043367D01*
X199410967Y-102948512D01*
X199485494Y-102836974D01*
X199536829Y-102713040D01*
X199563000Y-102581473D01*
X199563000Y-102447327D01*
X199536829Y-102315760D01*
X199485494Y-102191826D01*
X199410967Y-102080288D01*
X199316112Y-101985433D01*
X199204574Y-101910906D01*
X199080640Y-101859571D01*
X198949073Y-101833400D01*
X198814927Y-101833400D01*
X198683360Y-101859571D01*
X198559426Y-101910906D01*
X198447888Y-101985433D01*
X198426921Y-102006400D01*
X197000279Y-102006400D01*
X196979312Y-101985433D01*
X196867774Y-101910906D01*
X196743840Y-101859571D01*
X196612273Y-101833400D01*
X196478127Y-101833400D01*
X196346560Y-101859571D01*
X196222626Y-101910906D01*
X196111088Y-101985433D01*
X196016233Y-102080288D01*
X195941706Y-102191826D01*
X195890371Y-102315760D01*
X195864200Y-102447327D01*
X195864200Y-102581473D01*
X195890371Y-102713040D01*
X195941706Y-102836974D01*
X196016233Y-102948512D01*
X196111088Y-103043367D01*
X196222626Y-103117894D01*
X196346560Y-103169229D01*
X196478127Y-103195400D01*
X196612273Y-103195400D01*
X196743840Y-103169229D01*
X196867774Y-103117894D01*
X196979312Y-103043367D01*
X197000279Y-103022400D01*
X198426921Y-103022400D01*
X198447888Y-103043367D01*
X198559426Y-103117894D01*
X198630228Y-103147221D01*
X198610226Y-103155506D01*
X198498688Y-103230033D01*
X198414221Y-103314500D01*
X196658459Y-103314500D01*
X196636639Y-103312351D01*
X196614819Y-103314500D01*
X196614810Y-103314500D01*
X196549503Y-103320932D01*
X196465714Y-103346349D01*
X196388495Y-103387624D01*
X196320811Y-103443171D01*
X196306893Y-103460130D01*
X195693343Y-104073680D01*
X195573887Y-104073680D01*
X195442320Y-104099851D01*
X195318386Y-104151186D01*
X195206848Y-104225713D01*
X195111993Y-104320568D01*
X195037466Y-104432106D01*
X194986131Y-104556040D01*
X194959960Y-104687607D01*
X183883300Y-104687607D01*
X183883300Y-102931379D01*
X183967767Y-102846912D01*
X184042294Y-102735374D01*
X184093629Y-102611440D01*
X184119800Y-102479873D01*
X184119800Y-102345727D01*
X184093629Y-102214160D01*
X184042294Y-102090226D01*
X183967767Y-101978688D01*
X183872912Y-101883833D01*
X183761374Y-101809306D01*
X183637440Y-101757971D01*
X183505873Y-101731800D01*
X183371727Y-101731800D01*
X183240160Y-101757971D01*
X183116226Y-101809306D01*
X183004688Y-101883833D01*
X182909833Y-101978688D01*
X182835306Y-102090226D01*
X182783971Y-102214160D01*
X182757800Y-102345727D01*
X182757800Y-102479873D01*
X182783971Y-102611440D01*
X182835306Y-102735374D01*
X182909833Y-102846912D01*
X182994300Y-102931379D01*
X182994301Y-104651561D01*
X182994300Y-104651571D01*
X182994301Y-106028521D01*
X182785062Y-106237760D01*
X182665607Y-106237760D01*
X182534040Y-106263931D01*
X182410106Y-106315266D01*
X182298568Y-106389793D01*
X182203713Y-106484648D01*
X182129186Y-106596186D01*
X182077851Y-106720120D01*
X182051680Y-106851687D01*
X164807900Y-106851687D01*
X164807900Y-106339257D01*
X164839894Y-106291374D01*
X164891229Y-106167440D01*
X164917400Y-106035873D01*
X164917400Y-105901727D01*
X164891229Y-105770160D01*
X164839894Y-105646226D01*
X164765367Y-105534688D01*
X164670512Y-105439833D01*
X164558974Y-105365306D01*
X164435040Y-105313971D01*
X164303473Y-105287800D01*
X164169327Y-105287800D01*
X164037760Y-105313971D01*
X163913826Y-105365306D01*
X163802288Y-105439833D01*
X163707433Y-105534688D01*
X163632906Y-105646226D01*
X163581571Y-105770160D01*
X163555400Y-105901727D01*
X163555400Y-106035873D01*
X163581571Y-106167440D01*
X163632906Y-106291374D01*
X163664900Y-106339257D01*
X163664900Y-106364991D01*
X163664901Y-111084742D01*
X163632906Y-111132626D01*
X163581571Y-111256560D01*
X163555400Y-111388127D01*
X163555400Y-111522273D01*
X163581571Y-111653840D01*
X163632906Y-111777774D01*
X163707433Y-111889312D01*
X163802288Y-111984167D01*
X163913826Y-112058694D01*
X164009962Y-112098515D01*
X163962925Y-112145552D01*
X163945972Y-112159465D01*
X163932059Y-112176418D01*
X163932055Y-112176422D01*
X163890424Y-112227149D01*
X163849149Y-112304369D01*
X163823733Y-112388157D01*
X163820846Y-112417466D01*
X163700195Y-112498082D01*
X163577482Y-112620795D01*
X163481068Y-112765090D01*
X163414656Y-112925422D01*
X163380800Y-113095629D01*
X163380800Y-113269171D01*
X163414656Y-113439378D01*
X163468578Y-113569557D01*
X162491800Y-113569557D01*
X162417111Y-113576913D01*
X162345292Y-113598699D01*
X162279104Y-113634078D01*
X162221089Y-113681689D01*
X162173478Y-113739704D01*
X162138099Y-113805892D01*
X162116313Y-113877711D01*
X162108957Y-113952400D01*
X162108957Y-114952400D01*
X162116313Y-115027089D01*
X162138099Y-115098908D01*
X162173478Y-115165096D01*
X162221089Y-115223111D01*
X162279104Y-115270722D01*
X162345292Y-115306101D01*
X162417111Y-115327887D01*
X162491800Y-115335243D01*
X163491800Y-115335243D01*
X163566489Y-115327887D01*
X163638308Y-115306101D01*
X163704496Y-115270722D01*
X163762511Y-115223111D01*
X163786232Y-115194206D01*
X163820846Y-115217334D01*
X163823733Y-115246643D01*
X163849149Y-115330431D01*
X163890424Y-115407651D01*
X163932055Y-115458378D01*
X163932059Y-115458382D01*
X163945972Y-115475335D01*
X163962925Y-115489248D01*
X164022774Y-115549097D01*
X152953410Y-115550078D01*
X152652628Y-115520587D01*
X152382382Y-115438994D01*
X152133135Y-115306467D01*
X151914369Y-115128046D01*
X151734429Y-114910535D01*
X151600167Y-114662222D01*
X151516690Y-114392550D01*
X151485200Y-114092943D01*
X151485151Y-109744305D01*
X156849240Y-109744305D01*
X156849240Y-109883375D01*
X156876371Y-110019773D01*
X156929591Y-110148256D01*
X157006854Y-110263889D01*
X157105191Y-110362226D01*
X157220824Y-110439489D01*
X157349307Y-110492709D01*
X157485705Y-110519840D01*
X157624775Y-110519840D01*
X157761173Y-110492709D01*
X157889656Y-110439489D01*
X158005289Y-110362226D01*
X158103626Y-110263889D01*
X158180889Y-110148256D01*
X158234109Y-110019773D01*
X158261240Y-109883375D01*
X158261240Y-109744305D01*
X158234109Y-109607907D01*
X158180889Y-109479424D01*
X158103626Y-109363791D01*
X158005289Y-109265454D01*
X157889656Y-109188191D01*
X157761173Y-109134971D01*
X157624775Y-109107840D01*
X157485705Y-109107840D01*
X157349307Y-109134971D01*
X157220824Y-109188191D01*
X157105191Y-109265454D01*
X157006854Y-109363791D01*
X156929591Y-109479424D01*
X156876371Y-109607907D01*
X156849240Y-109744305D01*
X151485151Y-109744305D01*
X151485107Y-105952527D01*
X154360600Y-105952527D01*
X154360600Y-106086673D01*
X154386771Y-106218240D01*
X154438106Y-106342174D01*
X154512633Y-106453712D01*
X154607488Y-106548567D01*
X154719026Y-106623094D01*
X154842960Y-106674429D01*
X154974527Y-106700600D01*
X155108673Y-106700600D01*
X155240240Y-106674429D01*
X155364174Y-106623094D01*
X155475712Y-106548567D01*
X155560179Y-106464100D01*
X157113821Y-106464100D01*
X157198288Y-106548567D01*
X157309826Y-106623094D01*
X157433760Y-106674429D01*
X157565327Y-106700600D01*
X157699473Y-106700600D01*
X157831040Y-106674429D01*
X157954974Y-106623094D01*
X158066512Y-106548567D01*
X158161367Y-106453712D01*
X158235894Y-106342174D01*
X158287229Y-106218240D01*
X158313400Y-106086673D01*
X158313400Y-105952527D01*
X158287229Y-105820960D01*
X158235894Y-105697026D01*
X158161367Y-105585488D01*
X158066512Y-105490633D01*
X157954974Y-105416106D01*
X157831040Y-105364771D01*
X157699473Y-105338600D01*
X157565327Y-105338600D01*
X157433760Y-105364771D01*
X157309826Y-105416106D01*
X157198288Y-105490633D01*
X157113821Y-105575100D01*
X155560179Y-105575100D01*
X155475712Y-105490633D01*
X155364174Y-105416106D01*
X155240240Y-105364771D01*
X155108673Y-105338600D01*
X154974527Y-105338600D01*
X154842960Y-105364771D01*
X154719026Y-105416106D01*
X154607488Y-105490633D01*
X154512633Y-105585488D01*
X154438106Y-105697026D01*
X154386771Y-105820960D01*
X154360600Y-105952527D01*
X151485107Y-105952527D01*
X151485085Y-103964305D01*
X156849240Y-103964305D01*
X156849240Y-104103375D01*
X156876371Y-104239773D01*
X156929591Y-104368256D01*
X157006854Y-104483889D01*
X157105191Y-104582226D01*
X157220824Y-104659489D01*
X157349307Y-104712709D01*
X157485705Y-104739840D01*
X157624775Y-104739840D01*
X157761173Y-104712709D01*
X157889656Y-104659489D01*
X158005289Y-104582226D01*
X158103626Y-104483889D01*
X158180889Y-104368256D01*
X158234109Y-104239773D01*
X158261240Y-104103375D01*
X158261240Y-103964305D01*
X158234109Y-103827907D01*
X158190409Y-103722407D01*
X170304180Y-103722407D01*
X170304180Y-103856553D01*
X170330351Y-103988120D01*
X170381686Y-104112054D01*
X170456213Y-104223592D01*
X170551068Y-104318447D01*
X170662606Y-104392974D01*
X170786540Y-104444309D01*
X170918107Y-104470480D01*
X171052253Y-104470480D01*
X171183820Y-104444309D01*
X171307754Y-104392974D01*
X171419292Y-104318447D01*
X171514147Y-104223592D01*
X171588674Y-104112054D01*
X171640009Y-103988120D01*
X171666180Y-103856553D01*
X171666180Y-103722407D01*
X171640009Y-103590840D01*
X171588674Y-103466906D01*
X171582889Y-103458247D01*
X173502040Y-103458247D01*
X173502040Y-103592393D01*
X173528211Y-103723960D01*
X173579546Y-103847894D01*
X173654073Y-103959432D01*
X173748928Y-104054287D01*
X173860466Y-104128814D01*
X173984400Y-104180149D01*
X174115967Y-104206320D01*
X174250113Y-104206320D01*
X174381680Y-104180149D01*
X174505614Y-104128814D01*
X174617152Y-104054287D01*
X174712007Y-103959432D01*
X174758288Y-103890167D01*
X174775088Y-103906967D01*
X174886626Y-103981494D01*
X175010560Y-104032829D01*
X175142127Y-104059000D01*
X175276273Y-104059000D01*
X175407840Y-104032829D01*
X175531774Y-103981494D01*
X175643312Y-103906967D01*
X175676979Y-103873300D01*
X178551421Y-103873300D01*
X178635888Y-103957767D01*
X178747426Y-104032294D01*
X178871360Y-104083629D01*
X179002927Y-104109800D01*
X179137073Y-104109800D01*
X179268640Y-104083629D01*
X179392574Y-104032294D01*
X179504112Y-103957767D01*
X179598967Y-103862912D01*
X179673494Y-103751374D01*
X179724829Y-103627440D01*
X179751000Y-103495873D01*
X179751000Y-103361727D01*
X179724829Y-103230160D01*
X179673494Y-103106226D01*
X179598967Y-102994688D01*
X179571405Y-102967126D01*
X179607454Y-102913174D01*
X179658789Y-102789240D01*
X179684960Y-102657673D01*
X179684960Y-102523527D01*
X179658789Y-102391960D01*
X179607454Y-102268026D01*
X179566695Y-102207026D01*
X179627774Y-102115614D01*
X179679109Y-101991680D01*
X179705280Y-101860113D01*
X179705280Y-101725967D01*
X179679109Y-101594400D01*
X179627774Y-101470466D01*
X179553247Y-101358928D01*
X179458392Y-101264073D01*
X179346854Y-101189546D01*
X179222920Y-101138211D01*
X179091353Y-101112040D01*
X178957207Y-101112040D01*
X178825640Y-101138211D01*
X178701706Y-101189546D01*
X178590168Y-101264073D01*
X178505701Y-101348540D01*
X177048831Y-101348540D01*
X177014114Y-101264726D01*
X176939587Y-101153188D01*
X176844732Y-101058333D01*
X176733194Y-100983806D01*
X176609260Y-100932471D01*
X176477693Y-100906300D01*
X176343547Y-100906300D01*
X176211980Y-100932471D01*
X176088046Y-100983806D01*
X175976508Y-101058333D01*
X175881653Y-101153188D01*
X175807126Y-101264726D01*
X175755791Y-101388660D01*
X175729620Y-101520227D01*
X175729620Y-101654373D01*
X175755791Y-101785940D01*
X175807126Y-101909874D01*
X175881653Y-102021412D01*
X175976508Y-102116267D01*
X176021156Y-102146100D01*
X175139580Y-102146100D01*
X175117760Y-102143951D01*
X175095940Y-102146100D01*
X175095930Y-102146100D01*
X175030623Y-102152532D01*
X174946834Y-102177949D01*
X174869614Y-102219224D01*
X174818887Y-102260855D01*
X174818884Y-102260858D01*
X174801931Y-102274771D01*
X174788018Y-102291724D01*
X174235423Y-102844320D01*
X174115967Y-102844320D01*
X173984400Y-102870491D01*
X173860466Y-102921826D01*
X173748928Y-102996353D01*
X173654073Y-103091208D01*
X173579546Y-103202746D01*
X173528211Y-103326680D01*
X173502040Y-103458247D01*
X171582889Y-103458247D01*
X171514147Y-103355368D01*
X171429680Y-103270901D01*
X171429680Y-102371049D01*
X171483026Y-102406694D01*
X171606960Y-102458029D01*
X171738527Y-102484200D01*
X171872673Y-102484200D01*
X172004240Y-102458029D01*
X172128174Y-102406694D01*
X172176057Y-102374700D01*
X173383272Y-102374700D01*
X173408346Y-102391454D01*
X173532280Y-102442789D01*
X173663847Y-102468960D01*
X173797993Y-102468960D01*
X173929560Y-102442789D01*
X174053494Y-102391454D01*
X174165032Y-102316927D01*
X174259887Y-102222072D01*
X174334414Y-102110534D01*
X174385749Y-101986600D01*
X174411920Y-101855033D01*
X174411920Y-101720887D01*
X174385749Y-101589320D01*
X174334414Y-101465386D01*
X174259887Y-101353848D01*
X174165032Y-101258993D01*
X174053494Y-101184466D01*
X173929560Y-101133131D01*
X173797993Y-101106960D01*
X173663847Y-101106960D01*
X173532280Y-101133131D01*
X173408346Y-101184466D01*
X173337655Y-101231700D01*
X172176057Y-101231700D01*
X172128174Y-101199706D01*
X172004240Y-101148371D01*
X171872673Y-101122200D01*
X171738527Y-101122200D01*
X171606960Y-101148371D01*
X171483026Y-101199706D01*
X171429680Y-101235351D01*
X171429680Y-99805457D01*
X171557637Y-99677500D01*
X171677093Y-99677500D01*
X171808660Y-99651329D01*
X171932594Y-99599994D01*
X172044132Y-99525467D01*
X172138987Y-99430612D01*
X172203705Y-99333754D01*
X183058440Y-99333754D01*
X183058440Y-99497446D01*
X183090375Y-99657994D01*
X183153017Y-99809226D01*
X183243960Y-99945332D01*
X183359708Y-100061080D01*
X183495814Y-100152023D01*
X183647046Y-100214665D01*
X183807594Y-100246600D01*
X183971286Y-100246600D01*
X184131834Y-100214665D01*
X184283066Y-100152023D01*
X184419172Y-100061080D01*
X184534920Y-99945332D01*
X184625863Y-99809226D01*
X184688505Y-99657994D01*
X184720440Y-99497446D01*
X184720440Y-99333754D01*
X189858440Y-99333754D01*
X189858440Y-99497446D01*
X189890375Y-99657994D01*
X189953017Y-99809226D01*
X190043960Y-99945332D01*
X190159708Y-100061080D01*
X190295814Y-100152023D01*
X190447046Y-100214665D01*
X190607594Y-100246600D01*
X190771286Y-100246600D01*
X190931834Y-100214665D01*
X191083066Y-100152023D01*
X191219172Y-100061080D01*
X191334920Y-99945332D01*
X191425863Y-99809226D01*
X191488505Y-99657994D01*
X191520440Y-99497446D01*
X191520440Y-99333754D01*
X191488505Y-99173206D01*
X191425863Y-99021974D01*
X191334920Y-98885868D01*
X191219172Y-98770120D01*
X191083066Y-98679177D01*
X190931834Y-98616535D01*
X190771286Y-98584600D01*
X190607594Y-98584600D01*
X190447046Y-98616535D01*
X190295814Y-98679177D01*
X190159708Y-98770120D01*
X190043960Y-98885868D01*
X189953017Y-99021974D01*
X189890375Y-99173206D01*
X189858440Y-99333754D01*
X184720440Y-99333754D01*
X184688505Y-99173206D01*
X184625863Y-99021974D01*
X184534920Y-98885868D01*
X184419172Y-98770120D01*
X184283066Y-98679177D01*
X184131834Y-98616535D01*
X183971286Y-98584600D01*
X183807594Y-98584600D01*
X183647046Y-98616535D01*
X183495814Y-98679177D01*
X183359708Y-98770120D01*
X183243960Y-98885868D01*
X183153017Y-99021974D01*
X183090375Y-99173206D01*
X183058440Y-99333754D01*
X172203705Y-99333754D01*
X172213514Y-99319074D01*
X172264849Y-99195140D01*
X172291020Y-99063573D01*
X172291020Y-98929427D01*
X172264849Y-98797860D01*
X172213514Y-98673926D01*
X172138987Y-98562388D01*
X172044132Y-98467533D01*
X171932594Y-98393006D01*
X171808660Y-98341671D01*
X171677093Y-98315500D01*
X171542947Y-98315500D01*
X171411380Y-98341671D01*
X171287446Y-98393006D01*
X171175908Y-98467533D01*
X171081053Y-98562388D01*
X171006526Y-98673926D01*
X170955191Y-98797860D01*
X170929020Y-98929427D01*
X170929020Y-99048883D01*
X170686310Y-99291593D01*
X170669351Y-99305511D01*
X170655435Y-99322468D01*
X170613804Y-99373195D01*
X170599836Y-99399327D01*
X170572529Y-99450415D01*
X170547112Y-99534204D01*
X170540680Y-99599511D01*
X170540680Y-99599520D01*
X170538531Y-99621340D01*
X170540680Y-99643160D01*
X170540681Y-103270900D01*
X170456213Y-103355368D01*
X170381686Y-103466906D01*
X170330351Y-103590840D01*
X170304180Y-103722407D01*
X158190409Y-103722407D01*
X158180889Y-103699424D01*
X158103626Y-103583791D01*
X158005289Y-103485454D01*
X157889656Y-103408191D01*
X157761173Y-103354971D01*
X157624775Y-103327840D01*
X157485705Y-103327840D01*
X157349307Y-103354971D01*
X157220824Y-103408191D01*
X157105191Y-103485454D01*
X157006854Y-103583791D01*
X156929591Y-103699424D01*
X156876371Y-103827907D01*
X156849240Y-103964305D01*
X151485085Y-103964305D01*
X151485026Y-98871751D01*
X151514520Y-98570950D01*
X151596113Y-98300702D01*
X151728641Y-98051453D01*
X151907057Y-97832693D01*
X152124569Y-97652751D01*
X152372889Y-97518486D01*
X152642555Y-97435010D01*
X152942162Y-97403520D01*
X168896511Y-97403472D01*
X168712725Y-97587258D01*
X168695772Y-97601171D01*
X168681859Y-97618124D01*
X168681855Y-97618128D01*
X168640224Y-97668855D01*
X168598949Y-97746075D01*
X168573533Y-97829863D01*
X168564951Y-97917000D01*
X168567101Y-97938829D01*
X168567101Y-98185820D01*
X168482633Y-98270288D01*
X168408106Y-98381826D01*
X168356771Y-98505760D01*
X168330600Y-98637327D01*
X168330600Y-98771473D01*
X168356771Y-98903040D01*
X168408106Y-99026974D01*
X168482633Y-99138512D01*
X168577488Y-99233367D01*
X168689026Y-99307894D01*
X168812960Y-99359229D01*
X168944527Y-99385400D01*
X169078673Y-99385400D01*
X169210240Y-99359229D01*
X169334174Y-99307894D01*
X169445712Y-99233367D01*
X169540567Y-99138512D01*
X169615094Y-99026974D01*
X169666429Y-98903040D01*
X169676582Y-98852000D01*
X169713673Y-98852000D01*
X169845240Y-98825829D01*
X169969174Y-98774494D01*
X170080712Y-98699967D01*
X170175567Y-98605112D01*
X170250094Y-98493574D01*
X170301429Y-98369640D01*
X170327600Y-98238073D01*
X170327600Y-98107510D01*
X191884301Y-98107510D01*
X191884300Y-98973221D01*
X191799833Y-99057688D01*
X191725306Y-99169226D01*
X191673971Y-99293160D01*
X191647800Y-99424727D01*
X191647800Y-99558873D01*
X191673971Y-99690440D01*
X191725306Y-99814374D01*
X191799833Y-99925912D01*
X191894688Y-100020767D01*
X192006226Y-100095294D01*
X192130160Y-100146629D01*
X192261727Y-100172800D01*
X192395873Y-100172800D01*
X192527440Y-100146629D01*
X192651374Y-100095294D01*
X192762912Y-100020767D01*
X192857767Y-99925912D01*
X192932294Y-99814374D01*
X192983629Y-99690440D01*
X193009800Y-99558873D01*
X193009800Y-99424727D01*
X192983629Y-99293160D01*
X192932294Y-99169226D01*
X192857767Y-99057688D01*
X192773300Y-98973221D01*
X192773300Y-97853500D01*
X195014883Y-97853500D01*
X195160901Y-97999519D01*
X195160900Y-98947821D01*
X195076433Y-99032288D01*
X195001906Y-99143826D01*
X194950571Y-99267760D01*
X194924400Y-99399327D01*
X194924400Y-99533473D01*
X194950571Y-99665040D01*
X195001906Y-99788974D01*
X195076433Y-99900512D01*
X195171288Y-99995367D01*
X195282826Y-100069894D01*
X195406760Y-100121229D01*
X195538327Y-100147400D01*
X195672473Y-100147400D01*
X195804040Y-100121229D01*
X195927974Y-100069894D01*
X196039512Y-99995367D01*
X196134367Y-99900512D01*
X196208894Y-99788974D01*
X196260229Y-99665040D01*
X196286400Y-99533473D01*
X196286400Y-99399327D01*
X196260229Y-99267760D01*
X196208894Y-99143826D01*
X196134367Y-99032288D01*
X196049900Y-98947821D01*
X196049900Y-97837219D01*
X196052049Y-97815399D01*
X196049900Y-97793579D01*
X196049900Y-97793570D01*
X196043468Y-97728263D01*
X196018051Y-97644474D01*
X195976776Y-97567255D01*
X195921229Y-97499571D01*
X195904276Y-97485658D01*
X195822008Y-97403390D01*
X210220845Y-97403346D01*
X210521650Y-97432840D01*
M02*
