M48
; DRILL file {KiCad (5.1.5)-3} date 2020/5/21 21:25:17
; FORMAT={-:-/ absolute / inch / decimal}
; #@! TF.CreationDate,2020-05-21T21:25:17+08:00
; #@! TF.GenerationSoftware,Kicad,Pcbnew,(5.1.5)-3
FMAT,2
INCH
T1C0.0118
T2C0.0236
T3C0.0256
T4C0.0256
T5C0.0354
%
G90
G05
T1
X5.9941Y-4.0591
X6.0059Y-4.3406
X6.0098Y-3.9941
X6.0197Y-4.1496
X6.0315Y-4.4547
X6.0689Y-4.2657
X6.104Y-4.174
X6.1654Y-4.5118
X6.1713Y-3.9193
X6.206Y-4.174
X6.2854Y-3.8996
X6.352Y-4.452
X6.352Y-4.508
X6.387Y-4.252
X6.448Y-3.862
X6.452Y-3.916
X6.466Y-4.172
X6.466Y-4.388
X6.548Y-4.388
X6.592Y-4.492
X6.596Y-4.454
X6.61Y-4.274
X6.616Y-4.204
X6.618Y-4.126
X6.638Y-4.344
X6.64Y-4.458
X6.654Y-3.886
X6.679Y-3.865
X6.694Y-4.458
X6.71Y-4.308
X6.722Y-4.126
X6.7317Y-4.0862
X6.7563Y-3.8975
X6.764Y-4.008
X6.788Y-4.242
X6.814Y-4.074
X6.8398Y-4.0074
X6.8576Y-4.0758
X6.858Y-4.456
X6.8718Y-3.9968
X6.894Y-4.242
X6.894Y-4.31
X6.898Y-4.07
X6.9453Y-3.9995
X6.9685Y-4.5256
X7.0172Y-4.1062
X7.026Y-4.279
X7.036Y-4.448
X7.0474Y-4.039
X7.0482Y-4.0076
X7.05Y-4.072
X7.07Y-4.406
X7.0787Y-4.5236
X7.112Y-3.934
X7.132Y-4.408
X7.1672Y-4.1325
X7.17Y-4.516
X7.17Y-4.538
X7.176Y-4.185
X7.188Y-3.988
X7.1942Y-4.2094
X7.222Y-4.032
X7.227Y-4.25
X7.258Y-4.338
X7.288Y-4.338
X7.3254Y-4.0522
X7.368Y-4.456
X7.378Y-3.916
X7.39Y-4.456
X7.498Y-4.316
X7.514Y-4.332
X7.516Y-4.02
X7.516Y-4.056
X7.572Y-3.917
X7.575Y-4.477
X7.575Y-4.509
X7.604Y-4.214
X7.628Y-4.419
X7.64Y-4.25
X7.69Y-4.463
X7.69Y-4.488
X7.701Y-3.916
X7.7024Y-4.1242
X7.7045Y-4.154
X7.721Y-4.004
X7.723Y-4.389
X7.738Y-4.036
X7.738Y-4.31
X7.762Y-4.436
X7.798Y-3.872
X7.802Y-4.214
X7.805Y-4.461
X7.83Y-4.036
X7.8301Y-4.3099
X7.832Y-4.085
X7.84Y-4.1192
X7.908Y-4.33
X7.91Y-3.968
X7.984Y-4.523
X7.995Y-4.481
X8.0145Y-4.168
X8.0175Y-4.2175
X8.0175Y-4.268
X8.02Y-4.481
X8.0295Y-4.3858
X8.061Y-3.8937
X8.1063Y-4.5
X8.1339Y-4.4488
X8.1575Y-3.9311
X8.1988Y-4.0866
X8.2185Y-4.1831
X8.2323Y-4.2874
X8.2618Y-3.8976
X8.2677Y-4.4823
X8.2874Y-4.1969
X8.2953Y-4.0728
X8.3091Y-4.3445
T3
X6.417Y-4.456
X6.417Y-4.506
X6.467Y-4.456
X6.467Y-4.506
X6.517Y-4.456
X6.517Y-4.506
T4
X6.203Y-4.0958
X6.203Y-4.3234
T5
X7.2397Y-3.914
X7.5075Y-3.914
T2
G00X6.0711Y-4.0395
M15
G01X6.0475Y-4.0395
M16
G05
G00X6.0711Y-4.3797
M15
G01X6.0475Y-4.3797
M16
G05
G00X6.2455Y-4.0395
M15
G01X6.2022Y-4.0395
M16
G05
G00X6.2455Y-4.3797
M15
G01X6.2022Y-4.3797
M16
G05
T0
M30
