G04 #@! TF.GenerationSoftware,KiCad,Pcbnew,(5.1.5)-3*
G04 #@! TF.CreationDate,2020-06-14T17:26:15+08:00*
G04 #@! TF.ProjectId,AdvancedSTLink,41647661-6e63-4656-9453-544c696e6b2e,rev?*
G04 #@! TF.SameCoordinates,Original*
G04 #@! TF.FileFunction,Legend,Top*
G04 #@! TF.FilePolarity,Positive*
%FSLAX46Y46*%
G04 Gerber Fmt 4.6, Leading zero omitted, Abs format (unit mm)*
G04 Created by KiCad (PCBNEW (5.1.5)-3) date 2020-06-14 17:26:15*
%MOMM*%
%LPD*%
G04 APERTURE LIST*
%ADD10C,0.200000*%
%ADD11C,0.250000*%
%ADD12C,0.120000*%
%ADD13C,0.100000*%
%ADD14C,0.254000*%
%ADD15C,0.150000*%
G04 APERTURE END LIST*
D10*
X205846904Y-110695714D02*
X206227857Y-110695714D01*
X206031428Y-110362380D02*
X205924285Y-111219523D01*
X205960000Y-111314761D01*
X206049285Y-111362380D01*
X206144523Y-111362380D01*
X207001666Y-111362380D02*
X206430238Y-111362380D01*
X206715952Y-111362380D02*
X206840952Y-110362380D01*
X206727857Y-110505238D01*
X206620714Y-110600476D01*
X206519523Y-110648095D01*
X207495714Y-110457619D02*
X207549285Y-110410000D01*
X207650476Y-110362380D01*
X207888571Y-110362380D01*
X207977857Y-110410000D01*
X208019523Y-110457619D01*
X208055238Y-110552857D01*
X208043333Y-110648095D01*
X207977857Y-110790952D01*
X207335000Y-111362380D01*
X207954047Y-111362380D01*
X208412380Y-110362380D02*
X209031428Y-110362380D01*
X208650476Y-110743333D01*
X208793333Y-110743333D01*
X208882619Y-110790952D01*
X208924285Y-110838571D01*
X208960000Y-110933809D01*
X208930238Y-111171904D01*
X208870714Y-111267142D01*
X208817142Y-111314761D01*
X208715952Y-111362380D01*
X208430238Y-111362380D01*
X208340952Y-111314761D01*
X208299285Y-111267142D01*
X209323095Y-110695714D02*
X209477857Y-111362380D01*
X209799285Y-110695714D02*
X209477857Y-111362380D01*
X209352857Y-111600476D01*
X209299285Y-111648095D01*
X209198095Y-111695714D01*
X210096904Y-111362380D02*
X210221904Y-110362380D01*
X210525476Y-111362380D02*
X210590952Y-110838571D01*
X210555238Y-110743333D01*
X210465952Y-110695714D01*
X210323095Y-110695714D01*
X210221904Y-110743333D01*
X210168333Y-110790952D01*
D11*
X163532976Y-97847619D02*
X163580595Y-97800000D01*
X163675833Y-97752380D01*
X163913928Y-97752380D01*
X164009166Y-97800000D01*
X164056785Y-97847619D01*
X164104404Y-97942857D01*
X164104404Y-98038095D01*
X164056785Y-98180952D01*
X163485357Y-98752380D01*
X164104404Y-98752380D01*
X164723452Y-97752380D02*
X164818690Y-97752380D01*
X164913928Y-97800000D01*
X164961547Y-97847619D01*
X165009166Y-97942857D01*
X165056785Y-98133333D01*
X165056785Y-98371428D01*
X165009166Y-98561904D01*
X164961547Y-98657142D01*
X164913928Y-98704761D01*
X164818690Y-98752380D01*
X164723452Y-98752380D01*
X164628214Y-98704761D01*
X164580595Y-98657142D01*
X164532976Y-98561904D01*
X164485357Y-98371428D01*
X164485357Y-98133333D01*
X164532976Y-97942857D01*
X164580595Y-97847619D01*
X164628214Y-97800000D01*
X164723452Y-97752380D01*
X165485357Y-98371428D02*
X166247261Y-98371428D01*
X166675833Y-97847619D02*
X166723452Y-97800000D01*
X166818690Y-97752380D01*
X167056785Y-97752380D01*
X167152023Y-97800000D01*
X167199642Y-97847619D01*
X167247261Y-97942857D01*
X167247261Y-98038095D01*
X167199642Y-98180952D01*
X166628214Y-98752380D01*
X167247261Y-98752380D01*
X168104404Y-98085714D02*
X168104404Y-98752380D01*
X167866309Y-97704761D02*
X167628214Y-98419047D01*
X168247261Y-98419047D01*
D10*
X163341190Y-110966666D02*
X163817380Y-110966666D01*
X163210238Y-111252380D02*
X163668571Y-110252380D01*
X163876904Y-111252380D01*
X164638809Y-111252380D02*
X164763809Y-110252380D01*
X164644761Y-111204761D02*
X164543571Y-111252380D01*
X164353095Y-111252380D01*
X164263809Y-111204761D01*
X164222142Y-111157142D01*
X164186428Y-111061904D01*
X164222142Y-110776190D01*
X164281666Y-110680952D01*
X164335238Y-110633333D01*
X164436428Y-110585714D01*
X164626904Y-110585714D01*
X164716190Y-110633333D01*
X165103095Y-110585714D02*
X165257857Y-111252380D01*
X165579285Y-110585714D01*
X165888809Y-111157142D02*
X165930476Y-111204761D01*
X165876904Y-111252380D01*
X165835238Y-111204761D01*
X165888809Y-111157142D01*
X165876904Y-111252380D01*
X167525714Y-110252380D02*
X167436428Y-110966666D01*
X167370952Y-111109523D01*
X167263809Y-111204761D01*
X167115000Y-111252380D01*
X167019761Y-111252380D01*
X167924523Y-110871428D02*
X168686428Y-110871428D01*
X169591190Y-111252380D02*
X169115000Y-111252380D01*
X169240000Y-110252380D01*
X169924523Y-111252380D02*
X170007857Y-110585714D01*
X170049523Y-110252380D02*
X169995952Y-110300000D01*
X170037619Y-110347619D01*
X170091190Y-110300000D01*
X170049523Y-110252380D01*
X170037619Y-110347619D01*
X170484047Y-110585714D02*
X170400714Y-111252380D01*
X170472142Y-110680952D02*
X170525714Y-110633333D01*
X170626904Y-110585714D01*
X170769761Y-110585714D01*
X170859047Y-110633333D01*
X170894761Y-110728571D01*
X170829285Y-111252380D01*
X171305476Y-111252380D02*
X171430476Y-110252380D01*
X171448333Y-110871428D02*
X171686428Y-111252380D01*
X171769761Y-110585714D02*
X171341190Y-110966666D01*
D12*
X178296078Y-102910000D02*
X177778922Y-102910000D01*
X178296078Y-104330000D02*
X177778922Y-104330000D01*
D13*
X172762000Y-95000000D02*
G75*
G03X172762000Y-97000000I0J-1000000D01*
G01*
X167238000Y-97000000D02*
G75*
G03X167238000Y-95000000I0J1000000D01*
G01*
X201518000Y-97000000D02*
G75*
G03X201518000Y-95000000I0J1000000D01*
G01*
X207042000Y-95000000D02*
G75*
G03X207042000Y-97000000I0J-1000000D01*
G01*
D14*
X194250000Y-106500000D02*
X194250000Y-107160000D01*
X194250000Y-106500000D02*
X194250000Y-107160000D01*
X194250000Y-106500000D02*
X194250000Y-107160000D01*
X194250000Y-107160000D02*
X193435000Y-107160000D01*
X194250000Y-104240000D02*
X193435000Y-104240000D01*
X194250000Y-104240000D02*
X194250000Y-104900000D01*
D10*
X192700000Y-105400000D02*
X192700000Y-106000000D01*
D14*
X187400000Y-98025000D02*
X187400000Y-97365000D01*
X187400000Y-98025000D02*
X187400000Y-97365000D01*
X187400000Y-98025000D02*
X187400000Y-97365000D01*
X187400000Y-97365000D02*
X188215000Y-97365000D01*
X187400000Y-100285000D02*
X188215000Y-100285000D01*
X187400000Y-100285000D02*
X187400000Y-99625000D01*
D10*
X188950000Y-99125000D02*
X188950000Y-98525000D01*
X190375000Y-103250000D02*
X190375000Y-100750000D01*
X192225000Y-103250000D02*
X192225000Y-100750000D01*
X191050000Y-103250000D02*
X190375000Y-103250000D01*
X191050000Y-100750000D02*
X190375000Y-100750000D01*
X192225000Y-100750000D02*
X191550000Y-100750000D01*
X192225000Y-103250000D02*
X191550000Y-103250000D01*
D12*
X184700000Y-104525000D02*
X186300000Y-104525000D01*
X186300000Y-102725000D02*
X184400000Y-102725000D01*
X162275000Y-99850000D02*
X162275000Y-109250000D01*
X168075000Y-109250000D02*
X166075000Y-109250000D01*
X164175000Y-109250000D02*
X162275000Y-109250000D01*
X168075000Y-99850000D02*
X166075000Y-99850000D01*
X164175000Y-99850000D02*
X162275000Y-99850000D01*
D14*
X180050000Y-110625000D02*
X180250000Y-110625000D01*
X177250000Y-110625000D02*
X177450000Y-110625000D01*
X177250000Y-105925000D02*
X177450000Y-105925000D01*
X180050000Y-105925000D02*
X180250000Y-105925000D01*
X180250000Y-105925000D02*
X180250000Y-110625000D01*
X177250000Y-107525000D02*
X180250000Y-107525000D01*
X177250000Y-105925000D02*
X177250000Y-110625000D01*
D10*
X190700000Y-109600000D02*
X191900000Y-109600000D01*
X190700000Y-108800000D02*
X191900000Y-108800000D01*
X190700000Y-109070000D02*
X191900000Y-109070000D01*
X190700000Y-108800000D02*
X190700000Y-109600000D01*
X191900000Y-108800000D02*
X191900000Y-109600000D01*
D14*
X186000000Y-108975000D02*
X188800000Y-108975000D01*
X186000000Y-109975000D02*
X188800000Y-109975000D01*
X188800000Y-108975000D02*
X188800000Y-109975000D01*
X186000000Y-108975000D02*
X186000000Y-109975000D01*
D11*
X185775000Y-111075000D02*
G75*
G03X185775000Y-111075000I-125000J0D01*
G01*
D10*
X190375000Y-100450000D02*
X190375000Y-97950000D01*
X192225000Y-100450000D02*
X192225000Y-97950000D01*
X191050000Y-100450000D02*
X190375000Y-100450000D01*
X191050000Y-97950000D02*
X190375000Y-97950000D01*
X192225000Y-97950000D02*
X191550000Y-97950000D01*
X192225000Y-100450000D02*
X191550000Y-100450000D01*
D12*
X207700000Y-106465000D02*
X208522470Y-106465000D01*
X210407530Y-106465000D02*
X211230000Y-106465000D01*
X209137530Y-106465000D02*
X209792470Y-106465000D01*
X207700000Y-103990000D02*
X207700000Y-106465000D01*
X211230000Y-102535000D02*
X211230000Y-106465000D01*
X207700000Y-103990000D02*
X208266529Y-103990000D01*
X209393471Y-103990000D02*
X209536529Y-103990000D01*
X209590000Y-103936529D02*
X209590000Y-103793471D01*
X209590000Y-102666529D02*
X209590000Y-102535000D01*
X209590000Y-102535000D02*
X209792470Y-102535000D01*
X210407530Y-102535000D02*
X211230000Y-102535000D01*
X207700000Y-103230000D02*
X207700000Y-102470000D01*
X207700000Y-102470000D02*
X208830000Y-102470000D01*
X183160000Y-102665000D02*
X180700000Y-102665000D01*
X183160000Y-104135000D02*
X183160000Y-102665000D01*
X180700000Y-104135000D02*
X183160000Y-104135000D01*
D14*
X183750000Y-110600000D02*
X183750000Y-105900000D01*
X183750000Y-109000000D02*
X180750000Y-109000000D01*
X180750000Y-110600000D02*
X180750000Y-105900000D01*
X180950000Y-110600000D02*
X180750000Y-110600000D01*
X183750000Y-110600000D02*
X183550000Y-110600000D01*
X183750000Y-105900000D02*
X183550000Y-105900000D01*
X180950000Y-105900000D02*
X180750000Y-105900000D01*
D12*
X199050000Y-104613220D02*
X199050000Y-100613220D01*
X195750000Y-104613220D02*
X199050000Y-104613220D01*
X191310000Y-105962779D02*
X191310000Y-105637221D01*
X190290000Y-105962779D02*
X190290000Y-105637221D01*
X185210000Y-108162779D02*
X185210000Y-107837221D01*
X184190000Y-108162779D02*
X184190000Y-107837221D01*
X194700000Y-100900000D02*
X193100000Y-100900000D01*
X193100000Y-102700000D02*
X195000000Y-102700000D01*
X194700000Y-98500000D02*
X193100000Y-98500000D01*
X193100000Y-100300000D02*
X195000000Y-100300000D01*
X186650000Y-104965000D02*
X189150000Y-104965000D01*
X189150000Y-107185000D02*
X186650000Y-107185000D01*
X183660000Y-97870000D02*
X183660000Y-99000000D01*
X182900000Y-97870000D02*
X183660000Y-97870000D01*
X183595000Y-100577530D02*
X183595000Y-101400000D01*
X183595000Y-99760000D02*
X183595000Y-99962470D01*
X183463471Y-99760000D02*
X183595000Y-99760000D01*
X182193471Y-99760000D02*
X182336529Y-99760000D01*
X182140000Y-99563471D02*
X182140000Y-99706529D01*
X182140000Y-97870000D02*
X182140000Y-98436529D01*
X183595000Y-101400000D02*
X179665000Y-101400000D01*
X182140000Y-97870000D02*
X179665000Y-97870000D01*
X179665000Y-99307530D02*
X179665000Y-99962470D01*
X179665000Y-100577530D02*
X179665000Y-101400000D01*
X179665000Y-97870000D02*
X179665000Y-98692470D01*
X196140000Y-111635000D02*
X198600000Y-111635000D01*
X196140000Y-110165000D02*
X196140000Y-111635000D01*
X198600000Y-110165000D02*
X196140000Y-110165000D01*
X196140000Y-108435000D02*
X198600000Y-108435000D01*
X196140000Y-106965000D02*
X196140000Y-108435000D01*
X198600000Y-106965000D02*
X196140000Y-106965000D01*
X196140000Y-110035000D02*
X198600000Y-110035000D01*
X196140000Y-108565000D02*
X196140000Y-110035000D01*
X198600000Y-108565000D02*
X196140000Y-108565000D01*
D15*
X209131666Y-100987380D02*
X209131666Y-101701666D01*
X209084047Y-101844523D01*
X208988809Y-101939761D01*
X208845952Y-101987380D01*
X208750714Y-101987380D01*
X210036428Y-101320714D02*
X210036428Y-101987380D01*
X209798333Y-100939761D02*
X209560238Y-101654047D01*
X210179285Y-101654047D01*
M02*
