G04 #@! TF.GenerationSoftware,KiCad,Pcbnew,(5.1.5)-3*
G04 #@! TF.CreationDate,2020-05-21T21:25:24+08:00*
G04 #@! TF.ProjectId,AdvancedSTLink,41647661-6e63-4656-9453-544c696e6b2e,rev?*
G04 #@! TF.SameCoordinates,Original*
G04 #@! TF.FileFunction,Soldermask,Top*
G04 #@! TF.FilePolarity,Negative*
%FSLAX46Y46*%
G04 Gerber Fmt 4.6, Leading zero omitted, Abs format (unit mm)*
G04 Created by KiCad (PCBNEW (5.1.5)-3) date 2020-05-21 21:25:24*
%MOMM*%
%LPD*%
G04 APERTURE LIST*
%ADD10C,0.100000*%
G04 APERTURE END LIST*
D10*
G36*
X202279699Y-114388045D02*
G01*
X202317195Y-114399420D01*
X202351754Y-114417892D01*
X202382047Y-114442753D01*
X202406908Y-114473046D01*
X202425380Y-114507605D01*
X202436755Y-114545101D01*
X202441200Y-114590238D01*
X202441200Y-115228962D01*
X202436755Y-115274099D01*
X202425380Y-115311595D01*
X202406908Y-115346154D01*
X202382047Y-115376447D01*
X202351754Y-115401308D01*
X202317195Y-115419780D01*
X202279699Y-115431155D01*
X202234562Y-115435600D01*
X201495838Y-115435600D01*
X201450701Y-115431155D01*
X201413205Y-115419780D01*
X201378646Y-115401308D01*
X201348353Y-115376447D01*
X201323492Y-115346154D01*
X201305020Y-115311595D01*
X201293645Y-115274099D01*
X201289200Y-115228962D01*
X201289200Y-114590238D01*
X201293645Y-114545101D01*
X201305020Y-114507605D01*
X201323492Y-114473046D01*
X201348353Y-114442753D01*
X201378646Y-114417892D01*
X201413205Y-114399420D01*
X201450701Y-114388045D01*
X201495838Y-114383600D01*
X202234562Y-114383600D01*
X202279699Y-114388045D01*
G37*
G36*
X200529699Y-114388045D02*
G01*
X200567195Y-114399420D01*
X200601754Y-114417892D01*
X200632047Y-114442753D01*
X200656908Y-114473046D01*
X200675380Y-114507605D01*
X200686755Y-114545101D01*
X200691200Y-114590238D01*
X200691200Y-115228962D01*
X200686755Y-115274099D01*
X200675380Y-115311595D01*
X200656908Y-115346154D01*
X200632047Y-115376447D01*
X200601754Y-115401308D01*
X200567195Y-115419780D01*
X200529699Y-115431155D01*
X200484562Y-115435600D01*
X199745838Y-115435600D01*
X199700701Y-115431155D01*
X199663205Y-115419780D01*
X199628646Y-115401308D01*
X199598353Y-115376447D01*
X199573492Y-115346154D01*
X199555020Y-115311595D01*
X199543645Y-115274099D01*
X199539200Y-115228962D01*
X199539200Y-114590238D01*
X199543645Y-114545101D01*
X199555020Y-114507605D01*
X199573492Y-114473046D01*
X199598353Y-114442753D01*
X199628646Y-114417892D01*
X199663205Y-114399420D01*
X199700701Y-114388045D01*
X199745838Y-114383600D01*
X200484562Y-114383600D01*
X200529699Y-114388045D01*
G37*
G36*
X198919391Y-114387685D02*
G01*
X198953369Y-114397993D01*
X198984690Y-114414734D01*
X199012139Y-114437261D01*
X199034666Y-114464710D01*
X199051407Y-114496031D01*
X199061715Y-114530009D01*
X199065800Y-114571490D01*
X199065800Y-115247710D01*
X199061715Y-115289191D01*
X199051407Y-115323169D01*
X199034666Y-115354490D01*
X199012139Y-115381939D01*
X198984690Y-115404466D01*
X198953369Y-115421207D01*
X198919391Y-115431515D01*
X198877910Y-115435600D01*
X198276690Y-115435600D01*
X198235209Y-115431515D01*
X198201231Y-115421207D01*
X198169910Y-115404466D01*
X198142461Y-115381939D01*
X198119934Y-115354490D01*
X198103193Y-115323169D01*
X198092885Y-115289191D01*
X198088800Y-115247710D01*
X198088800Y-114571490D01*
X198092885Y-114530009D01*
X198103193Y-114496031D01*
X198119934Y-114464710D01*
X198142461Y-114437261D01*
X198169910Y-114414734D01*
X198201231Y-114397993D01*
X198235209Y-114387685D01*
X198276690Y-114383600D01*
X198877910Y-114383600D01*
X198919391Y-114387685D01*
G37*
G36*
X197344391Y-114387685D02*
G01*
X197378369Y-114397993D01*
X197409690Y-114414734D01*
X197437139Y-114437261D01*
X197459666Y-114464710D01*
X197476407Y-114496031D01*
X197486715Y-114530009D01*
X197490800Y-114571490D01*
X197490800Y-115247710D01*
X197486715Y-115289191D01*
X197476407Y-115323169D01*
X197459666Y-115354490D01*
X197437139Y-115381939D01*
X197409690Y-115404466D01*
X197378369Y-115421207D01*
X197344391Y-115431515D01*
X197302910Y-115435600D01*
X196701690Y-115435600D01*
X196660209Y-115431515D01*
X196626231Y-115421207D01*
X196594910Y-115404466D01*
X196567461Y-115381939D01*
X196544934Y-115354490D01*
X196528193Y-115323169D01*
X196517885Y-115289191D01*
X196513800Y-115247710D01*
X196513800Y-114571490D01*
X196517885Y-114530009D01*
X196528193Y-114496031D01*
X196544934Y-114464710D01*
X196567461Y-114437261D01*
X196594910Y-114414734D01*
X196626231Y-114397993D01*
X196660209Y-114387685D01*
X196701690Y-114383600D01*
X197302910Y-114383600D01*
X197344391Y-114387685D01*
G37*
G36*
X183409851Y-114314025D02*
G01*
X183443829Y-114324333D01*
X183475150Y-114341074D01*
X183502599Y-114363601D01*
X183525126Y-114391050D01*
X183541867Y-114422371D01*
X183552175Y-114456349D01*
X183556260Y-114497830D01*
X183556260Y-115174050D01*
X183552175Y-115215531D01*
X183541867Y-115249509D01*
X183525126Y-115280830D01*
X183502599Y-115308279D01*
X183475150Y-115330806D01*
X183443829Y-115347547D01*
X183409851Y-115357855D01*
X183368370Y-115361940D01*
X182767150Y-115361940D01*
X182725669Y-115357855D01*
X182691691Y-115347547D01*
X182660370Y-115330806D01*
X182632921Y-115308279D01*
X182610394Y-115280830D01*
X182593653Y-115249509D01*
X182583345Y-115215531D01*
X182579260Y-115174050D01*
X182579260Y-114497830D01*
X182583345Y-114456349D01*
X182593653Y-114422371D01*
X182610394Y-114391050D01*
X182632921Y-114363601D01*
X182660370Y-114341074D01*
X182691691Y-114324333D01*
X182725669Y-114314025D01*
X182767150Y-114309940D01*
X183368370Y-114309940D01*
X183409851Y-114314025D01*
G37*
G36*
X184984851Y-114314025D02*
G01*
X185018829Y-114324333D01*
X185050150Y-114341074D01*
X185077599Y-114363601D01*
X185100126Y-114391050D01*
X185116867Y-114422371D01*
X185127175Y-114456349D01*
X185131260Y-114497830D01*
X185131260Y-115174050D01*
X185127175Y-115215531D01*
X185116867Y-115249509D01*
X185100126Y-115280830D01*
X185077599Y-115308279D01*
X185050150Y-115330806D01*
X185018829Y-115347547D01*
X184984851Y-115357855D01*
X184943370Y-115361940D01*
X184342150Y-115361940D01*
X184300669Y-115357855D01*
X184266691Y-115347547D01*
X184235370Y-115330806D01*
X184207921Y-115308279D01*
X184185394Y-115280830D01*
X184168653Y-115249509D01*
X184158345Y-115215531D01*
X184154260Y-115174050D01*
X184154260Y-114497830D01*
X184158345Y-114456349D01*
X184168653Y-114422371D01*
X184185394Y-114391050D01*
X184207921Y-114363601D01*
X184235370Y-114341074D01*
X184266691Y-114324333D01*
X184300669Y-114314025D01*
X184342150Y-114309940D01*
X184943370Y-114309940D01*
X184984851Y-114314025D01*
G37*
G36*
X194702200Y-115198160D02*
G01*
X192800200Y-115198160D01*
X192800200Y-112596160D01*
X194702200Y-112596160D01*
X194702200Y-115198160D01*
G37*
G36*
X186622551Y-114222085D02*
G01*
X186656529Y-114232393D01*
X186687850Y-114249134D01*
X186715299Y-114271661D01*
X186737826Y-114299110D01*
X186754567Y-114330431D01*
X186764875Y-114364409D01*
X186768960Y-114405890D01*
X186768960Y-115007110D01*
X186764875Y-115048591D01*
X186754567Y-115082569D01*
X186737826Y-115113890D01*
X186715299Y-115141339D01*
X186687850Y-115163866D01*
X186656529Y-115180607D01*
X186622551Y-115190915D01*
X186581070Y-115195000D01*
X185904850Y-115195000D01*
X185863369Y-115190915D01*
X185829391Y-115180607D01*
X185798070Y-115163866D01*
X185770621Y-115141339D01*
X185748094Y-115113890D01*
X185731353Y-115082569D01*
X185721045Y-115048591D01*
X185716960Y-115007110D01*
X185716960Y-114405890D01*
X185721045Y-114364409D01*
X185731353Y-114330431D01*
X185748094Y-114299110D01*
X185770621Y-114271661D01*
X185798070Y-114249134D01*
X185829391Y-114232393D01*
X185863369Y-114222085D01*
X185904850Y-114218000D01*
X186581070Y-114218000D01*
X186622551Y-114222085D01*
G37*
G36*
X189195340Y-115186600D02*
G01*
X187593340Y-115186600D01*
X187593340Y-114084600D01*
X189195340Y-114084600D01*
X189195340Y-115186600D01*
G37*
G36*
X191524380Y-115158140D02*
G01*
X190222380Y-115158140D01*
X190222380Y-114156140D01*
X191524380Y-114156140D01*
X191524380Y-115158140D01*
G37*
G36*
X163152521Y-112652574D02*
G01*
X163252795Y-112694109D01*
X163284795Y-112715491D01*
X163343042Y-112754410D01*
X163419790Y-112831158D01*
X163419791Y-112831160D01*
X163480091Y-112921405D01*
X163511316Y-112996789D01*
X163522867Y-113018400D01*
X163538412Y-113037341D01*
X163557354Y-113052887D01*
X163578965Y-113064438D01*
X163602414Y-113071551D01*
X163626800Y-113073953D01*
X163651186Y-113071551D01*
X163674635Y-113064438D01*
X163696246Y-113052887D01*
X163715187Y-113037342D01*
X163730733Y-113018400D01*
X163742284Y-112996789D01*
X163773509Y-112921405D01*
X163833809Y-112831160D01*
X163833810Y-112831158D01*
X163910558Y-112754410D01*
X163968805Y-112715491D01*
X164000805Y-112694109D01*
X164101079Y-112652574D01*
X164207530Y-112631400D01*
X164316070Y-112631400D01*
X164422521Y-112652574D01*
X164522795Y-112694109D01*
X164554795Y-112715491D01*
X164613042Y-112754410D01*
X164689790Y-112831158D01*
X164689791Y-112831160D01*
X164750091Y-112921405D01*
X164781316Y-112996789D01*
X164792867Y-113018400D01*
X164808412Y-113037341D01*
X164827354Y-113052887D01*
X164848965Y-113064438D01*
X164872414Y-113071551D01*
X164896800Y-113073953D01*
X164921186Y-113071551D01*
X164944635Y-113064438D01*
X164966246Y-113052887D01*
X164985187Y-113037342D01*
X165000733Y-113018400D01*
X165012284Y-112996789D01*
X165043509Y-112921405D01*
X165103809Y-112831160D01*
X165103810Y-112831158D01*
X165180558Y-112754410D01*
X165238805Y-112715491D01*
X165270805Y-112694109D01*
X165371079Y-112652574D01*
X165477530Y-112631400D01*
X165586070Y-112631400D01*
X165692521Y-112652574D01*
X165792795Y-112694109D01*
X165824795Y-112715491D01*
X165883042Y-112754410D01*
X165959790Y-112831158D01*
X165959791Y-112831160D01*
X166020091Y-112921405D01*
X166061626Y-113021679D01*
X166082800Y-113128130D01*
X166082800Y-113236670D01*
X166061626Y-113343121D01*
X166020091Y-113443395D01*
X165990145Y-113488212D01*
X165959790Y-113533642D01*
X165883042Y-113610390D01*
X165862784Y-113623926D01*
X165792795Y-113670691D01*
X165717411Y-113701916D01*
X165695800Y-113713467D01*
X165676859Y-113729012D01*
X165661313Y-113747954D01*
X165649762Y-113769565D01*
X165642649Y-113793014D01*
X165640247Y-113817400D01*
X165642649Y-113841786D01*
X165649762Y-113865235D01*
X165661313Y-113886846D01*
X165676858Y-113905787D01*
X165695800Y-113921333D01*
X165717411Y-113932884D01*
X165792795Y-113964109D01*
X165792796Y-113964110D01*
X165883042Y-114024410D01*
X165959790Y-114101158D01*
X165959791Y-114101160D01*
X166020091Y-114191405D01*
X166061626Y-114291679D01*
X166082800Y-114398130D01*
X166082800Y-114506670D01*
X166061626Y-114613121D01*
X166020091Y-114713395D01*
X166020090Y-114713396D01*
X165959790Y-114803642D01*
X165883042Y-114880390D01*
X165837612Y-114910745D01*
X165792795Y-114940691D01*
X165692521Y-114982226D01*
X165586070Y-115003400D01*
X165477530Y-115003400D01*
X165371079Y-114982226D01*
X165270805Y-114940691D01*
X165225988Y-114910745D01*
X165180558Y-114880390D01*
X165103810Y-114803642D01*
X165043510Y-114713396D01*
X165043509Y-114713395D01*
X165012284Y-114638011D01*
X165000733Y-114616400D01*
X164985188Y-114597459D01*
X164966246Y-114581913D01*
X164944635Y-114570362D01*
X164921186Y-114563249D01*
X164896800Y-114560847D01*
X164872414Y-114563249D01*
X164848965Y-114570362D01*
X164827354Y-114581913D01*
X164808413Y-114597458D01*
X164792867Y-114616400D01*
X164781316Y-114638011D01*
X164750091Y-114713395D01*
X164750090Y-114713396D01*
X164689790Y-114803642D01*
X164613042Y-114880390D01*
X164567612Y-114910745D01*
X164522795Y-114940691D01*
X164422521Y-114982226D01*
X164316070Y-115003400D01*
X164207530Y-115003400D01*
X164101079Y-114982226D01*
X164000805Y-114940691D01*
X163955988Y-114910745D01*
X163910558Y-114880390D01*
X163833810Y-114803642D01*
X163804186Y-114759306D01*
X163771732Y-114710736D01*
X163756186Y-114691794D01*
X163737244Y-114676249D01*
X163715633Y-114664698D01*
X163692185Y-114657585D01*
X163667798Y-114655183D01*
X163643412Y-114657585D01*
X163619963Y-114664698D01*
X163598353Y-114676249D01*
X163579411Y-114691795D01*
X163563866Y-114710737D01*
X163552315Y-114732348D01*
X163545202Y-114755796D01*
X163542800Y-114780182D01*
X163542800Y-115003400D01*
X162440800Y-115003400D01*
X162440800Y-113901400D01*
X162664018Y-113901400D01*
X162688404Y-113898998D01*
X162711853Y-113891885D01*
X162733464Y-113880334D01*
X162752406Y-113864789D01*
X162767951Y-113845847D01*
X162779502Y-113824236D01*
X162786615Y-113800787D01*
X162789016Y-113776402D01*
X163194583Y-113776402D01*
X163196985Y-113800788D01*
X163204098Y-113824237D01*
X163215649Y-113845847D01*
X163231195Y-113864789D01*
X163250137Y-113880334D01*
X163271748Y-113891885D01*
X163295196Y-113898998D01*
X163319582Y-113901400D01*
X163542800Y-113901400D01*
X163542800Y-114124618D01*
X163545202Y-114149004D01*
X163552315Y-114172453D01*
X163563866Y-114194064D01*
X163579411Y-114213006D01*
X163598353Y-114228551D01*
X163619964Y-114240102D01*
X163643413Y-114247215D01*
X163667799Y-114249617D01*
X163692185Y-114247215D01*
X163715634Y-114240102D01*
X163737245Y-114228551D01*
X163756187Y-114213006D01*
X163771732Y-114194064D01*
X163833809Y-114101160D01*
X163833810Y-114101158D01*
X163910558Y-114024410D01*
X164000804Y-113964110D01*
X164000805Y-113964109D01*
X164076189Y-113932884D01*
X164097800Y-113921333D01*
X164116741Y-113905788D01*
X164132287Y-113886846D01*
X164143838Y-113865235D01*
X164150951Y-113841786D01*
X164153353Y-113817400D01*
X164370247Y-113817400D01*
X164372649Y-113841786D01*
X164379762Y-113865235D01*
X164391313Y-113886846D01*
X164406858Y-113905787D01*
X164425800Y-113921333D01*
X164447411Y-113932884D01*
X164522795Y-113964109D01*
X164522796Y-113964110D01*
X164613042Y-114024410D01*
X164689790Y-114101158D01*
X164689791Y-114101160D01*
X164750091Y-114191405D01*
X164781316Y-114266789D01*
X164792867Y-114288400D01*
X164808412Y-114307341D01*
X164827354Y-114322887D01*
X164848965Y-114334438D01*
X164872414Y-114341551D01*
X164896800Y-114343953D01*
X164921186Y-114341551D01*
X164944635Y-114334438D01*
X164966246Y-114322887D01*
X164985187Y-114307342D01*
X165000733Y-114288400D01*
X165012284Y-114266789D01*
X165043509Y-114191405D01*
X165103809Y-114101160D01*
X165103810Y-114101158D01*
X165180558Y-114024410D01*
X165270804Y-113964110D01*
X165270805Y-113964109D01*
X165346189Y-113932884D01*
X165367800Y-113921333D01*
X165386741Y-113905788D01*
X165402287Y-113886846D01*
X165413838Y-113865235D01*
X165420951Y-113841786D01*
X165423353Y-113817400D01*
X165420951Y-113793014D01*
X165413838Y-113769565D01*
X165402287Y-113747954D01*
X165386742Y-113729013D01*
X165367800Y-113713467D01*
X165346189Y-113701916D01*
X165270805Y-113670691D01*
X165200816Y-113623926D01*
X165180558Y-113610390D01*
X165103810Y-113533642D01*
X165073455Y-113488212D01*
X165043509Y-113443395D01*
X165012284Y-113368011D01*
X165000733Y-113346400D01*
X164985188Y-113327459D01*
X164966246Y-113311913D01*
X164944635Y-113300362D01*
X164921186Y-113293249D01*
X164896800Y-113290847D01*
X164872414Y-113293249D01*
X164848965Y-113300362D01*
X164827354Y-113311913D01*
X164808413Y-113327458D01*
X164792867Y-113346400D01*
X164781316Y-113368011D01*
X164750091Y-113443395D01*
X164720145Y-113488212D01*
X164689790Y-113533642D01*
X164613042Y-113610390D01*
X164592784Y-113623926D01*
X164522795Y-113670691D01*
X164447411Y-113701916D01*
X164425800Y-113713467D01*
X164406859Y-113729012D01*
X164391313Y-113747954D01*
X164379762Y-113769565D01*
X164372649Y-113793014D01*
X164370247Y-113817400D01*
X164153353Y-113817400D01*
X164150951Y-113793014D01*
X164143838Y-113769565D01*
X164132287Y-113747954D01*
X164116742Y-113729013D01*
X164097800Y-113713467D01*
X164076189Y-113701916D01*
X164000805Y-113670691D01*
X163930816Y-113623926D01*
X163910558Y-113610390D01*
X163833810Y-113533642D01*
X163803455Y-113488212D01*
X163773509Y-113443395D01*
X163742284Y-113368011D01*
X163730733Y-113346400D01*
X163715188Y-113327459D01*
X163696246Y-113311913D01*
X163674635Y-113300362D01*
X163651186Y-113293249D01*
X163626800Y-113290847D01*
X163602414Y-113293249D01*
X163578965Y-113300362D01*
X163557354Y-113311913D01*
X163538413Y-113327458D01*
X163522867Y-113346400D01*
X163511316Y-113368011D01*
X163480091Y-113443395D01*
X163450145Y-113488212D01*
X163419790Y-113533642D01*
X163343042Y-113610390D01*
X163322784Y-113623926D01*
X163250136Y-113672468D01*
X163231194Y-113688014D01*
X163215649Y-113706956D01*
X163204098Y-113728567D01*
X163196985Y-113752015D01*
X163194583Y-113776402D01*
X162789016Y-113776402D01*
X162789017Y-113776401D01*
X162786615Y-113752015D01*
X162779502Y-113728566D01*
X162767951Y-113706955D01*
X162752406Y-113688013D01*
X162733464Y-113672468D01*
X162660816Y-113623926D01*
X162640558Y-113610390D01*
X162563810Y-113533642D01*
X162533455Y-113488212D01*
X162503509Y-113443395D01*
X162461974Y-113343121D01*
X162440800Y-113236670D01*
X162440800Y-113128130D01*
X162461974Y-113021679D01*
X162503509Y-112921405D01*
X162563809Y-112831160D01*
X162563810Y-112831158D01*
X162640558Y-112754410D01*
X162698805Y-112715491D01*
X162730805Y-112694109D01*
X162831079Y-112652574D01*
X162937530Y-112631400D01*
X163046070Y-112631400D01*
X163152521Y-112652574D01*
G37*
G36*
X170316451Y-113742525D02*
G01*
X170350429Y-113752833D01*
X170381750Y-113769574D01*
X170409199Y-113792101D01*
X170431726Y-113819550D01*
X170448467Y-113850871D01*
X170458775Y-113884849D01*
X170462860Y-113926330D01*
X170462860Y-114602550D01*
X170458775Y-114644031D01*
X170448467Y-114678009D01*
X170431726Y-114709330D01*
X170409199Y-114736779D01*
X170381750Y-114759306D01*
X170350429Y-114776047D01*
X170316451Y-114786355D01*
X170274970Y-114790440D01*
X169673750Y-114790440D01*
X169632269Y-114786355D01*
X169598291Y-114776047D01*
X169566970Y-114759306D01*
X169539521Y-114736779D01*
X169516994Y-114709330D01*
X169500253Y-114678009D01*
X169489945Y-114644031D01*
X169485860Y-114602550D01*
X169485860Y-113926330D01*
X169489945Y-113884849D01*
X169500253Y-113850871D01*
X169516994Y-113819550D01*
X169539521Y-113792101D01*
X169566970Y-113769574D01*
X169598291Y-113752833D01*
X169632269Y-113742525D01*
X169673750Y-113738440D01*
X170274970Y-113738440D01*
X170316451Y-113742525D01*
G37*
G36*
X168741451Y-113742525D02*
G01*
X168775429Y-113752833D01*
X168806750Y-113769574D01*
X168834199Y-113792101D01*
X168856726Y-113819550D01*
X168873467Y-113850871D01*
X168883775Y-113884849D01*
X168887860Y-113926330D01*
X168887860Y-114602550D01*
X168883775Y-114644031D01*
X168873467Y-114678009D01*
X168856726Y-114709330D01*
X168834199Y-114736779D01*
X168806750Y-114759306D01*
X168775429Y-114776047D01*
X168741451Y-114786355D01*
X168699970Y-114790440D01*
X168098750Y-114790440D01*
X168057269Y-114786355D01*
X168023291Y-114776047D01*
X167991970Y-114759306D01*
X167964521Y-114736779D01*
X167941994Y-114709330D01*
X167925253Y-114678009D01*
X167914945Y-114644031D01*
X167910860Y-114602550D01*
X167910860Y-113926330D01*
X167914945Y-113884849D01*
X167925253Y-113850871D01*
X167941994Y-113819550D01*
X167964521Y-113792101D01*
X167991970Y-113769574D01*
X168023291Y-113752833D01*
X168057269Y-113742525D01*
X168098750Y-113738440D01*
X168699970Y-113738440D01*
X168741451Y-113742525D01*
G37*
G36*
X171990111Y-113742525D02*
G01*
X172024089Y-113752833D01*
X172055410Y-113769574D01*
X172082859Y-113792101D01*
X172105386Y-113819550D01*
X172122127Y-113850871D01*
X172132435Y-113884849D01*
X172136520Y-113926330D01*
X172136520Y-114602550D01*
X172132435Y-114644031D01*
X172122127Y-114678009D01*
X172105386Y-114709330D01*
X172082859Y-114736779D01*
X172055410Y-114759306D01*
X172024089Y-114776047D01*
X171990111Y-114786355D01*
X171948630Y-114790440D01*
X171347410Y-114790440D01*
X171305929Y-114786355D01*
X171271951Y-114776047D01*
X171240630Y-114759306D01*
X171213181Y-114736779D01*
X171190654Y-114709330D01*
X171173913Y-114678009D01*
X171163605Y-114644031D01*
X171159520Y-114602550D01*
X171159520Y-113926330D01*
X171163605Y-113884849D01*
X171173913Y-113850871D01*
X171190654Y-113819550D01*
X171213181Y-113792101D01*
X171240630Y-113769574D01*
X171271951Y-113752833D01*
X171305929Y-113742525D01*
X171347410Y-113738440D01*
X171948630Y-113738440D01*
X171990111Y-113742525D01*
G37*
G36*
X173565111Y-113742525D02*
G01*
X173599089Y-113752833D01*
X173630410Y-113769574D01*
X173657859Y-113792101D01*
X173680386Y-113819550D01*
X173697127Y-113850871D01*
X173707435Y-113884849D01*
X173711520Y-113926330D01*
X173711520Y-114602550D01*
X173707435Y-114644031D01*
X173697127Y-114678009D01*
X173680386Y-114709330D01*
X173657859Y-114736779D01*
X173630410Y-114759306D01*
X173599089Y-114776047D01*
X173565111Y-114786355D01*
X173523630Y-114790440D01*
X172922410Y-114790440D01*
X172880929Y-114786355D01*
X172846951Y-114776047D01*
X172815630Y-114759306D01*
X172788181Y-114736779D01*
X172765654Y-114709330D01*
X172748913Y-114678009D01*
X172738605Y-114644031D01*
X172734520Y-114602550D01*
X172734520Y-113926330D01*
X172738605Y-113884849D01*
X172748913Y-113850871D01*
X172765654Y-113819550D01*
X172788181Y-113792101D01*
X172815630Y-113769574D01*
X172846951Y-113752833D01*
X172880929Y-113742525D01*
X172922410Y-113738440D01*
X173523630Y-113738440D01*
X173565111Y-113742525D01*
G37*
G36*
X200392391Y-112863685D02*
G01*
X200426369Y-112873993D01*
X200457690Y-112890734D01*
X200485139Y-112913261D01*
X200507666Y-112940710D01*
X200524407Y-112972031D01*
X200534715Y-113006009D01*
X200538800Y-113047490D01*
X200538800Y-113723710D01*
X200534715Y-113765191D01*
X200524407Y-113799169D01*
X200507666Y-113830490D01*
X200485139Y-113857939D01*
X200457690Y-113880466D01*
X200426369Y-113897207D01*
X200392391Y-113907515D01*
X200350910Y-113911600D01*
X199749690Y-113911600D01*
X199708209Y-113907515D01*
X199674231Y-113897207D01*
X199642910Y-113880466D01*
X199615461Y-113857939D01*
X199592934Y-113830490D01*
X199576193Y-113799169D01*
X199565885Y-113765191D01*
X199561800Y-113723710D01*
X199561800Y-113047490D01*
X199565885Y-113006009D01*
X199576193Y-112972031D01*
X199592934Y-112940710D01*
X199615461Y-112913261D01*
X199642910Y-112890734D01*
X199674231Y-112873993D01*
X199708209Y-112863685D01*
X199749690Y-112859600D01*
X200350910Y-112859600D01*
X200392391Y-112863685D01*
G37*
G36*
X201967391Y-112863685D02*
G01*
X202001369Y-112873993D01*
X202032690Y-112890734D01*
X202060139Y-112913261D01*
X202082666Y-112940710D01*
X202099407Y-112972031D01*
X202109715Y-113006009D01*
X202113800Y-113047490D01*
X202113800Y-113723710D01*
X202109715Y-113765191D01*
X202099407Y-113799169D01*
X202082666Y-113830490D01*
X202060139Y-113857939D01*
X202032690Y-113880466D01*
X202001369Y-113897207D01*
X201967391Y-113907515D01*
X201925910Y-113911600D01*
X201324690Y-113911600D01*
X201283209Y-113907515D01*
X201249231Y-113897207D01*
X201217910Y-113880466D01*
X201190461Y-113857939D01*
X201167934Y-113830490D01*
X201151193Y-113799169D01*
X201140885Y-113765191D01*
X201136800Y-113723710D01*
X201136800Y-113047490D01*
X201140885Y-113006009D01*
X201151193Y-112972031D01*
X201167934Y-112940710D01*
X201190461Y-112913261D01*
X201217910Y-112890734D01*
X201249231Y-112873993D01*
X201283209Y-112863685D01*
X201324690Y-112859600D01*
X201925910Y-112859600D01*
X201967391Y-112863685D01*
G37*
G36*
X183392171Y-112640165D02*
G01*
X183426149Y-112650473D01*
X183457470Y-112667214D01*
X183484919Y-112689741D01*
X183507446Y-112717190D01*
X183524187Y-112748511D01*
X183534495Y-112782489D01*
X183538580Y-112823970D01*
X183538580Y-113500190D01*
X183534495Y-113541671D01*
X183524187Y-113575649D01*
X183507446Y-113606970D01*
X183484919Y-113634419D01*
X183457470Y-113656946D01*
X183426149Y-113673687D01*
X183392171Y-113683995D01*
X183350690Y-113688080D01*
X182749470Y-113688080D01*
X182707989Y-113683995D01*
X182674011Y-113673687D01*
X182642690Y-113656946D01*
X182615241Y-113634419D01*
X182592714Y-113606970D01*
X182575973Y-113575649D01*
X182565665Y-113541671D01*
X182561580Y-113500190D01*
X182561580Y-112823970D01*
X182565665Y-112782489D01*
X182575973Y-112748511D01*
X182592714Y-112717190D01*
X182615241Y-112689741D01*
X182642690Y-112667214D01*
X182674011Y-112650473D01*
X182707989Y-112640165D01*
X182749470Y-112636080D01*
X183350690Y-112636080D01*
X183392171Y-112640165D01*
G37*
G36*
X184967171Y-112640165D02*
G01*
X185001149Y-112650473D01*
X185032470Y-112667214D01*
X185059919Y-112689741D01*
X185082446Y-112717190D01*
X185099187Y-112748511D01*
X185109495Y-112782489D01*
X185113580Y-112823970D01*
X185113580Y-113500190D01*
X185109495Y-113541671D01*
X185099187Y-113575649D01*
X185082446Y-113606970D01*
X185059919Y-113634419D01*
X185032470Y-113656946D01*
X185001149Y-113673687D01*
X184967171Y-113683995D01*
X184925690Y-113688080D01*
X184324470Y-113688080D01*
X184282989Y-113683995D01*
X184249011Y-113673687D01*
X184217690Y-113656946D01*
X184190241Y-113634419D01*
X184167714Y-113606970D01*
X184150973Y-113575649D01*
X184140665Y-113541671D01*
X184136580Y-113500190D01*
X184136580Y-112823970D01*
X184140665Y-112782489D01*
X184150973Y-112748511D01*
X184167714Y-112717190D01*
X184190241Y-112689741D01*
X184217690Y-112667214D01*
X184249011Y-112650473D01*
X184282989Y-112640165D01*
X184324470Y-112636080D01*
X184925690Y-112636080D01*
X184967171Y-112640165D01*
G37*
G36*
X160280911Y-112607145D02*
G01*
X160314889Y-112617453D01*
X160346210Y-112634194D01*
X160373659Y-112656721D01*
X160396186Y-112684170D01*
X160412927Y-112715491D01*
X160423235Y-112749469D01*
X160427320Y-112790950D01*
X160427320Y-113467170D01*
X160423235Y-113508651D01*
X160412927Y-113542629D01*
X160396186Y-113573950D01*
X160373659Y-113601399D01*
X160346210Y-113623926D01*
X160314889Y-113640667D01*
X160280911Y-113650975D01*
X160239430Y-113655060D01*
X159638210Y-113655060D01*
X159596729Y-113650975D01*
X159562751Y-113640667D01*
X159531430Y-113623926D01*
X159503981Y-113601399D01*
X159481454Y-113573950D01*
X159464713Y-113542629D01*
X159454405Y-113508651D01*
X159450320Y-113467170D01*
X159450320Y-112790950D01*
X159454405Y-112749469D01*
X159464713Y-112715491D01*
X159481454Y-112684170D01*
X159503981Y-112656721D01*
X159531430Y-112634194D01*
X159562751Y-112617453D01*
X159596729Y-112607145D01*
X159638210Y-112603060D01*
X160239430Y-112603060D01*
X160280911Y-112607145D01*
G37*
G36*
X158705911Y-112607145D02*
G01*
X158739889Y-112617453D01*
X158771210Y-112634194D01*
X158798659Y-112656721D01*
X158821186Y-112684170D01*
X158837927Y-112715491D01*
X158848235Y-112749469D01*
X158852320Y-112790950D01*
X158852320Y-113467170D01*
X158848235Y-113508651D01*
X158837927Y-113542629D01*
X158821186Y-113573950D01*
X158798659Y-113601399D01*
X158771210Y-113623926D01*
X158739889Y-113640667D01*
X158705911Y-113650975D01*
X158664430Y-113655060D01*
X158063210Y-113655060D01*
X158021729Y-113650975D01*
X157987751Y-113640667D01*
X157956430Y-113623926D01*
X157928981Y-113601399D01*
X157906454Y-113573950D01*
X157889713Y-113542629D01*
X157879405Y-113508651D01*
X157875320Y-113467170D01*
X157875320Y-112790950D01*
X157879405Y-112749469D01*
X157889713Y-112715491D01*
X157906454Y-112684170D01*
X157928981Y-112656721D01*
X157956430Y-112634194D01*
X157987751Y-112617453D01*
X158021729Y-112607145D01*
X158063210Y-112603060D01*
X158664430Y-112603060D01*
X158705911Y-112607145D01*
G37*
G36*
X186622551Y-112647085D02*
G01*
X186656529Y-112657393D01*
X186687850Y-112674134D01*
X186715299Y-112696661D01*
X186737826Y-112724110D01*
X186754567Y-112755431D01*
X186764875Y-112789409D01*
X186768960Y-112830890D01*
X186768960Y-113432110D01*
X186764875Y-113473591D01*
X186754567Y-113507569D01*
X186737826Y-113538890D01*
X186715299Y-113566339D01*
X186687850Y-113588866D01*
X186656529Y-113605607D01*
X186622551Y-113615915D01*
X186581070Y-113620000D01*
X185904850Y-113620000D01*
X185863369Y-113615915D01*
X185829391Y-113605607D01*
X185798070Y-113588866D01*
X185770621Y-113566339D01*
X185748094Y-113538890D01*
X185731353Y-113507569D01*
X185721045Y-113473591D01*
X185716960Y-113432110D01*
X185716960Y-112830890D01*
X185721045Y-112789409D01*
X185731353Y-112755431D01*
X185748094Y-112724110D01*
X185770621Y-112696661D01*
X185798070Y-112674134D01*
X185829391Y-112657393D01*
X185863369Y-112647085D01*
X185904850Y-112643000D01*
X186581070Y-112643000D01*
X186622551Y-112647085D01*
G37*
G36*
X177773191Y-112367885D02*
G01*
X177807169Y-112378193D01*
X177838490Y-112394934D01*
X177865939Y-112417461D01*
X177888466Y-112444910D01*
X177905207Y-112476231D01*
X177915515Y-112510209D01*
X177919600Y-112551690D01*
X177919600Y-113152910D01*
X177915515Y-113194391D01*
X177905207Y-113228369D01*
X177888466Y-113259690D01*
X177865939Y-113287139D01*
X177838490Y-113309666D01*
X177807169Y-113326407D01*
X177773191Y-113336715D01*
X177731710Y-113340800D01*
X177055490Y-113340800D01*
X177014009Y-113336715D01*
X176980031Y-113326407D01*
X176948710Y-113309666D01*
X176921261Y-113287139D01*
X176898734Y-113259690D01*
X176881993Y-113228369D01*
X176871685Y-113194391D01*
X176867600Y-113152910D01*
X176867600Y-112551690D01*
X176871685Y-112510209D01*
X176881993Y-112476231D01*
X176898734Y-112444910D01*
X176921261Y-112417461D01*
X176948710Y-112394934D01*
X176980031Y-112378193D01*
X177014009Y-112367885D01*
X177055490Y-112363800D01*
X177731710Y-112363800D01*
X177773191Y-112367885D01*
G37*
G36*
X189195340Y-112686600D02*
G01*
X187593340Y-112686600D01*
X187593340Y-111584600D01*
X189195340Y-111584600D01*
X189195340Y-112686600D01*
G37*
G36*
X167710275Y-110897863D02*
G01*
X167717289Y-110899991D01*
X167731057Y-110907350D01*
X167753696Y-110916727D01*
X167777729Y-110921507D01*
X167802233Y-110921507D01*
X167826266Y-110916726D01*
X167848903Y-110907350D01*
X167862671Y-110899991D01*
X167869685Y-110897863D01*
X167883120Y-110896540D01*
X168196840Y-110896540D01*
X168210275Y-110897863D01*
X168217289Y-110899991D01*
X168231057Y-110907350D01*
X168253696Y-110916727D01*
X168277729Y-110921507D01*
X168302233Y-110921507D01*
X168326266Y-110916726D01*
X168348903Y-110907350D01*
X168362671Y-110899991D01*
X168369685Y-110897863D01*
X168383120Y-110896540D01*
X168696840Y-110896540D01*
X168710275Y-110897863D01*
X168717289Y-110899991D01*
X168731057Y-110907350D01*
X168753696Y-110916727D01*
X168777729Y-110921507D01*
X168802233Y-110921507D01*
X168826266Y-110916726D01*
X168848903Y-110907350D01*
X168862671Y-110899991D01*
X168869685Y-110897863D01*
X168883120Y-110896540D01*
X169196840Y-110896540D01*
X169210275Y-110897863D01*
X169217289Y-110899991D01*
X169231057Y-110907350D01*
X169253696Y-110916727D01*
X169277729Y-110921507D01*
X169302233Y-110921507D01*
X169326266Y-110916726D01*
X169348903Y-110907350D01*
X169362671Y-110899991D01*
X169369685Y-110897863D01*
X169383120Y-110896540D01*
X169696840Y-110896540D01*
X169710275Y-110897863D01*
X169717289Y-110899991D01*
X169731057Y-110907350D01*
X169753696Y-110916727D01*
X169777729Y-110921507D01*
X169802233Y-110921507D01*
X169826266Y-110916726D01*
X169848903Y-110907350D01*
X169862671Y-110899991D01*
X169869685Y-110897863D01*
X169883120Y-110896540D01*
X170196840Y-110896540D01*
X170210275Y-110897863D01*
X170217289Y-110899991D01*
X170231057Y-110907350D01*
X170253696Y-110916727D01*
X170277729Y-110921507D01*
X170302233Y-110921507D01*
X170326266Y-110916726D01*
X170348903Y-110907350D01*
X170362671Y-110899991D01*
X170369685Y-110897863D01*
X170383120Y-110896540D01*
X170696840Y-110896540D01*
X170710275Y-110897863D01*
X170717289Y-110899991D01*
X170731057Y-110907350D01*
X170753696Y-110916727D01*
X170777729Y-110921507D01*
X170802233Y-110921507D01*
X170826266Y-110916726D01*
X170848903Y-110907350D01*
X170862671Y-110899991D01*
X170869685Y-110897863D01*
X170883120Y-110896540D01*
X171196840Y-110896540D01*
X171210275Y-110897863D01*
X171217289Y-110899991D01*
X171231057Y-110907350D01*
X171253696Y-110916727D01*
X171277729Y-110921507D01*
X171302233Y-110921507D01*
X171326266Y-110916726D01*
X171348903Y-110907350D01*
X171362671Y-110899991D01*
X171369685Y-110897863D01*
X171383120Y-110896540D01*
X171696840Y-110896540D01*
X171710275Y-110897863D01*
X171717289Y-110899991D01*
X171731057Y-110907350D01*
X171753696Y-110916727D01*
X171777729Y-110921507D01*
X171802233Y-110921507D01*
X171826266Y-110916726D01*
X171848903Y-110907350D01*
X171862671Y-110899991D01*
X171869685Y-110897863D01*
X171883120Y-110896540D01*
X172196840Y-110896540D01*
X172210275Y-110897863D01*
X172217289Y-110899991D01*
X172231057Y-110907350D01*
X172253696Y-110916727D01*
X172277729Y-110921507D01*
X172302233Y-110921507D01*
X172326266Y-110916726D01*
X172348903Y-110907350D01*
X172362671Y-110899991D01*
X172369685Y-110897863D01*
X172383120Y-110896540D01*
X172696840Y-110896540D01*
X172710275Y-110897863D01*
X172717289Y-110899991D01*
X172731057Y-110907350D01*
X172753696Y-110916727D01*
X172777729Y-110921507D01*
X172802233Y-110921507D01*
X172826266Y-110916726D01*
X172848903Y-110907350D01*
X172862671Y-110899991D01*
X172869685Y-110897863D01*
X172883120Y-110896540D01*
X173196840Y-110896540D01*
X173210275Y-110897863D01*
X173217289Y-110899991D01*
X173231057Y-110907350D01*
X173253696Y-110916727D01*
X173277729Y-110921507D01*
X173302233Y-110921507D01*
X173326266Y-110916726D01*
X173348903Y-110907350D01*
X173362671Y-110899991D01*
X173369685Y-110897863D01*
X173383120Y-110896540D01*
X173696840Y-110896540D01*
X173710275Y-110897863D01*
X173717289Y-110899991D01*
X173731057Y-110907350D01*
X173753696Y-110916727D01*
X173777729Y-110921507D01*
X173802233Y-110921507D01*
X173826266Y-110916726D01*
X173848903Y-110907350D01*
X173862671Y-110899991D01*
X173869685Y-110897863D01*
X173883120Y-110896540D01*
X174196840Y-110896540D01*
X174210275Y-110897863D01*
X174217289Y-110899991D01*
X174231057Y-110907350D01*
X174253696Y-110916727D01*
X174277729Y-110921507D01*
X174302233Y-110921507D01*
X174326266Y-110916726D01*
X174348903Y-110907350D01*
X174362671Y-110899991D01*
X174369685Y-110897863D01*
X174383120Y-110896540D01*
X174696840Y-110896540D01*
X174710275Y-110897863D01*
X174717289Y-110899991D01*
X174731057Y-110907350D01*
X174753696Y-110916727D01*
X174777729Y-110921507D01*
X174802233Y-110921507D01*
X174826266Y-110916726D01*
X174848903Y-110907350D01*
X174862671Y-110899991D01*
X174869685Y-110897863D01*
X174883120Y-110896540D01*
X175196840Y-110896540D01*
X175210275Y-110897863D01*
X175217290Y-110899991D01*
X175223756Y-110903448D01*
X175229422Y-110908098D01*
X175234072Y-110913764D01*
X175237529Y-110920230D01*
X175239657Y-110927245D01*
X175240980Y-110940680D01*
X175240980Y-112504400D01*
X175239657Y-112517835D01*
X175237529Y-112524850D01*
X175234072Y-112531316D01*
X175229422Y-112536982D01*
X175223756Y-112541632D01*
X175217290Y-112545089D01*
X175210275Y-112547217D01*
X175196840Y-112548540D01*
X174883120Y-112548540D01*
X174869685Y-112547217D01*
X174862671Y-112545089D01*
X174848903Y-112537730D01*
X174826264Y-112528353D01*
X174802231Y-112523573D01*
X174777727Y-112523573D01*
X174753694Y-112528354D01*
X174731057Y-112537730D01*
X174717289Y-112545089D01*
X174710275Y-112547217D01*
X174696840Y-112548540D01*
X174383120Y-112548540D01*
X174369685Y-112547217D01*
X174362671Y-112545089D01*
X174348903Y-112537730D01*
X174326264Y-112528353D01*
X174302231Y-112523573D01*
X174277727Y-112523573D01*
X174253694Y-112528354D01*
X174231057Y-112537730D01*
X174217289Y-112545089D01*
X174210275Y-112547217D01*
X174196840Y-112548540D01*
X173883120Y-112548540D01*
X173869685Y-112547217D01*
X173862671Y-112545089D01*
X173848903Y-112537730D01*
X173826264Y-112528353D01*
X173802231Y-112523573D01*
X173777727Y-112523573D01*
X173753694Y-112528354D01*
X173731057Y-112537730D01*
X173717289Y-112545089D01*
X173710275Y-112547217D01*
X173696840Y-112548540D01*
X173383120Y-112548540D01*
X173369685Y-112547217D01*
X173362671Y-112545089D01*
X173348903Y-112537730D01*
X173326264Y-112528353D01*
X173302231Y-112523573D01*
X173277727Y-112523573D01*
X173253694Y-112528354D01*
X173231057Y-112537730D01*
X173217289Y-112545089D01*
X173210275Y-112547217D01*
X173196840Y-112548540D01*
X172883120Y-112548540D01*
X172869685Y-112547217D01*
X172862671Y-112545089D01*
X172848903Y-112537730D01*
X172826264Y-112528353D01*
X172802231Y-112523573D01*
X172777727Y-112523573D01*
X172753694Y-112528354D01*
X172731057Y-112537730D01*
X172717289Y-112545089D01*
X172710275Y-112547217D01*
X172696840Y-112548540D01*
X172383120Y-112548540D01*
X172369685Y-112547217D01*
X172362671Y-112545089D01*
X172348903Y-112537730D01*
X172326264Y-112528353D01*
X172302231Y-112523573D01*
X172277727Y-112523573D01*
X172253694Y-112528354D01*
X172231057Y-112537730D01*
X172217289Y-112545089D01*
X172210275Y-112547217D01*
X172196840Y-112548540D01*
X171883120Y-112548540D01*
X171869685Y-112547217D01*
X171862671Y-112545089D01*
X171848903Y-112537730D01*
X171826264Y-112528353D01*
X171802231Y-112523573D01*
X171777727Y-112523573D01*
X171753694Y-112528354D01*
X171731057Y-112537730D01*
X171717289Y-112545089D01*
X171710275Y-112547217D01*
X171696840Y-112548540D01*
X171383120Y-112548540D01*
X171369685Y-112547217D01*
X171362671Y-112545089D01*
X171348903Y-112537730D01*
X171326264Y-112528353D01*
X171302231Y-112523573D01*
X171277727Y-112523573D01*
X171253694Y-112528354D01*
X171231057Y-112537730D01*
X171217289Y-112545089D01*
X171210275Y-112547217D01*
X171196840Y-112548540D01*
X170883120Y-112548540D01*
X170869685Y-112547217D01*
X170862671Y-112545089D01*
X170848903Y-112537730D01*
X170826264Y-112528353D01*
X170802231Y-112523573D01*
X170777727Y-112523573D01*
X170753694Y-112528354D01*
X170731057Y-112537730D01*
X170717289Y-112545089D01*
X170710275Y-112547217D01*
X170696840Y-112548540D01*
X170383120Y-112548540D01*
X170369685Y-112547217D01*
X170362671Y-112545089D01*
X170348903Y-112537730D01*
X170326264Y-112528353D01*
X170302231Y-112523573D01*
X170277727Y-112523573D01*
X170253694Y-112528354D01*
X170231057Y-112537730D01*
X170217289Y-112545089D01*
X170210275Y-112547217D01*
X170196840Y-112548540D01*
X169883120Y-112548540D01*
X169869685Y-112547217D01*
X169862671Y-112545089D01*
X169848903Y-112537730D01*
X169826264Y-112528353D01*
X169802231Y-112523573D01*
X169777727Y-112523573D01*
X169753694Y-112528354D01*
X169731057Y-112537730D01*
X169717289Y-112545089D01*
X169710275Y-112547217D01*
X169696840Y-112548540D01*
X169383120Y-112548540D01*
X169369685Y-112547217D01*
X169362671Y-112545089D01*
X169348903Y-112537730D01*
X169326264Y-112528353D01*
X169302231Y-112523573D01*
X169277727Y-112523573D01*
X169253694Y-112528354D01*
X169231057Y-112537730D01*
X169217289Y-112545089D01*
X169210275Y-112547217D01*
X169196840Y-112548540D01*
X168883120Y-112548540D01*
X168869685Y-112547217D01*
X168862671Y-112545089D01*
X168848903Y-112537730D01*
X168826264Y-112528353D01*
X168802231Y-112523573D01*
X168777727Y-112523573D01*
X168753694Y-112528354D01*
X168731057Y-112537730D01*
X168717289Y-112545089D01*
X168710275Y-112547217D01*
X168696840Y-112548540D01*
X168383120Y-112548540D01*
X168369685Y-112547217D01*
X168362671Y-112545089D01*
X168348903Y-112537730D01*
X168326264Y-112528353D01*
X168302231Y-112523573D01*
X168277727Y-112523573D01*
X168253694Y-112528354D01*
X168231057Y-112537730D01*
X168217289Y-112545089D01*
X168210275Y-112547217D01*
X168196840Y-112548540D01*
X167883120Y-112548540D01*
X167869685Y-112547217D01*
X167862671Y-112545089D01*
X167848903Y-112537730D01*
X167826264Y-112528353D01*
X167802231Y-112523573D01*
X167777727Y-112523573D01*
X167753694Y-112528354D01*
X167731057Y-112537730D01*
X167717289Y-112545089D01*
X167710275Y-112547217D01*
X167696840Y-112548540D01*
X167383120Y-112548540D01*
X167369685Y-112547217D01*
X167362670Y-112545089D01*
X167356204Y-112541632D01*
X167350538Y-112536982D01*
X167345888Y-112531316D01*
X167342431Y-112524850D01*
X167340303Y-112517835D01*
X167338980Y-112504400D01*
X167338980Y-110940680D01*
X167340303Y-110927245D01*
X167342431Y-110920230D01*
X167345888Y-110913764D01*
X167350538Y-110908098D01*
X167356204Y-110903448D01*
X167362670Y-110899991D01*
X167369685Y-110897863D01*
X167383120Y-110896540D01*
X167696840Y-110896540D01*
X167710275Y-110897863D01*
G37*
G36*
X200392391Y-111339685D02*
G01*
X200426369Y-111349993D01*
X200457690Y-111366734D01*
X200485139Y-111389261D01*
X200507666Y-111416710D01*
X200524407Y-111448031D01*
X200534715Y-111482009D01*
X200538800Y-111523490D01*
X200538800Y-112199710D01*
X200534715Y-112241191D01*
X200524407Y-112275169D01*
X200507666Y-112306490D01*
X200485139Y-112333939D01*
X200457690Y-112356466D01*
X200426369Y-112373207D01*
X200392391Y-112383515D01*
X200350910Y-112387600D01*
X199749690Y-112387600D01*
X199708209Y-112383515D01*
X199674231Y-112373207D01*
X199642910Y-112356466D01*
X199615461Y-112333939D01*
X199592934Y-112306490D01*
X199576193Y-112275169D01*
X199565885Y-112241191D01*
X199561800Y-112199710D01*
X199561800Y-111523490D01*
X199565885Y-111482009D01*
X199576193Y-111448031D01*
X199592934Y-111416710D01*
X199615461Y-111389261D01*
X199642910Y-111366734D01*
X199674231Y-111349993D01*
X199708209Y-111339685D01*
X199749690Y-111335600D01*
X200350910Y-111335600D01*
X200392391Y-111339685D01*
G37*
G36*
X201967391Y-111339685D02*
G01*
X202001369Y-111349993D01*
X202032690Y-111366734D01*
X202060139Y-111389261D01*
X202082666Y-111416710D01*
X202099407Y-111448031D01*
X202109715Y-111482009D01*
X202113800Y-111523490D01*
X202113800Y-112199710D01*
X202109715Y-112241191D01*
X202099407Y-112275169D01*
X202082666Y-112306490D01*
X202060139Y-112333939D01*
X202032690Y-112356466D01*
X202001369Y-112373207D01*
X201967391Y-112383515D01*
X201925910Y-112387600D01*
X201324690Y-112387600D01*
X201283209Y-112383515D01*
X201249231Y-112373207D01*
X201217910Y-112356466D01*
X201190461Y-112333939D01*
X201167934Y-112306490D01*
X201151193Y-112275169D01*
X201140885Y-112241191D01*
X201136800Y-112199710D01*
X201136800Y-111523490D01*
X201140885Y-111482009D01*
X201151193Y-111448031D01*
X201167934Y-111416710D01*
X201190461Y-111389261D01*
X201217910Y-111366734D01*
X201249231Y-111349993D01*
X201283209Y-111339685D01*
X201324690Y-111335600D01*
X201925910Y-111335600D01*
X201967391Y-111339685D01*
G37*
G36*
X186456440Y-111934780D02*
G01*
X183804440Y-111934780D01*
X183804440Y-110772780D01*
X186456440Y-110772780D01*
X186456440Y-111934780D01*
G37*
G36*
X209595454Y-110783566D02*
G01*
X209635304Y-110795654D01*
X209672019Y-110815279D01*
X209704206Y-110841694D01*
X209730621Y-110873881D01*
X209750246Y-110910596D01*
X209762334Y-110950446D01*
X209767020Y-110998021D01*
X209767020Y-111661739D01*
X209762334Y-111709314D01*
X209750246Y-111749164D01*
X209730621Y-111785879D01*
X209704206Y-111818066D01*
X209672019Y-111844481D01*
X209635304Y-111864106D01*
X209595454Y-111876194D01*
X209547879Y-111880880D01*
X207084161Y-111880880D01*
X207036586Y-111876194D01*
X206996736Y-111864106D01*
X206960021Y-111844481D01*
X206927834Y-111818066D01*
X206901419Y-111785879D01*
X206881794Y-111749164D01*
X206869706Y-111709314D01*
X206865020Y-111661739D01*
X206865020Y-110998021D01*
X206869706Y-110950446D01*
X206881794Y-110910596D01*
X206901419Y-110873881D01*
X206927834Y-110841694D01*
X206960021Y-110815279D01*
X206996736Y-110795654D01*
X207036586Y-110783566D01*
X207084161Y-110778880D01*
X209547879Y-110778880D01*
X209595454Y-110783566D01*
G37*
G36*
X191524380Y-111858140D02*
G01*
X190222380Y-111858140D01*
X190222380Y-110856140D01*
X191524380Y-110856140D01*
X191524380Y-111858140D01*
G37*
G36*
X154313255Y-110700813D02*
G01*
X154417119Y-110732319D01*
X154441608Y-110745409D01*
X154512840Y-110783483D01*
X154596741Y-110852339D01*
X154665597Y-110936240D01*
X154700440Y-111001428D01*
X154716761Y-111031961D01*
X154748267Y-111135825D01*
X154758906Y-111243840D01*
X154748267Y-111351855D01*
X154716761Y-111455719D01*
X154716759Y-111455722D01*
X154665597Y-111551440D01*
X154596741Y-111635341D01*
X154512840Y-111704197D01*
X154455836Y-111734666D01*
X154417119Y-111755361D01*
X154313255Y-111786867D01*
X154232307Y-111794840D01*
X153578173Y-111794840D01*
X153497225Y-111786867D01*
X153393361Y-111755361D01*
X153354644Y-111734666D01*
X153297640Y-111704197D01*
X153213739Y-111635341D01*
X153144883Y-111551440D01*
X153093721Y-111455722D01*
X153093719Y-111455719D01*
X153062213Y-111351855D01*
X153051574Y-111243840D01*
X153062213Y-111135825D01*
X153093719Y-111031961D01*
X153110040Y-111001428D01*
X153144883Y-110936240D01*
X153213739Y-110852339D01*
X153297640Y-110783483D01*
X153368872Y-110745409D01*
X153393361Y-110732319D01*
X153497225Y-110700813D01*
X153578173Y-110692840D01*
X154232307Y-110692840D01*
X154313255Y-110700813D01*
G37*
G36*
X158743255Y-102060813D02*
G01*
X158847119Y-102092319D01*
X158874295Y-102106845D01*
X158942840Y-102143483D01*
X159026741Y-102212339D01*
X159095597Y-102296240D01*
X159125417Y-102352030D01*
X159146761Y-102391961D01*
X159178267Y-102495825D01*
X159188906Y-102603840D01*
X159178267Y-102711855D01*
X159146761Y-102815719D01*
X159146759Y-102815722D01*
X159095597Y-102911440D01*
X159032259Y-102988617D01*
X159026741Y-102995341D01*
X158942840Y-103064196D01*
X158899047Y-103087604D01*
X158878677Y-103101215D01*
X158861350Y-103118542D01*
X158847736Y-103138916D01*
X158838359Y-103161555D01*
X158833578Y-103185588D01*
X158833578Y-103210092D01*
X158838358Y-103234126D01*
X158847735Y-103256764D01*
X158861349Y-103277139D01*
X158878676Y-103294466D01*
X158899050Y-103308080D01*
X158921689Y-103317457D01*
X158945722Y-103322238D01*
X158957975Y-103322840D01*
X159776240Y-103322840D01*
X159776240Y-110524840D01*
X158957975Y-110524840D01*
X158933589Y-110527242D01*
X158910140Y-110534355D01*
X158888529Y-110545906D01*
X158869587Y-110561451D01*
X158854042Y-110580393D01*
X158842491Y-110602004D01*
X158835378Y-110625453D01*
X158832976Y-110649839D01*
X158835378Y-110674225D01*
X158842491Y-110697674D01*
X158854042Y-110719285D01*
X158869587Y-110738227D01*
X158888529Y-110753772D01*
X158899042Y-110760073D01*
X158942840Y-110783484D01*
X158993806Y-110825310D01*
X159026741Y-110852339D01*
X159095597Y-110936240D01*
X159130440Y-111001428D01*
X159146761Y-111031961D01*
X159178267Y-111135825D01*
X159188906Y-111243840D01*
X159178267Y-111351855D01*
X159146761Y-111455719D01*
X159146759Y-111455722D01*
X159095597Y-111551440D01*
X159026741Y-111635341D01*
X158942840Y-111704197D01*
X158885836Y-111734666D01*
X158847119Y-111755361D01*
X158743255Y-111786867D01*
X158662307Y-111794840D01*
X157508173Y-111794840D01*
X157427225Y-111786867D01*
X157323361Y-111755361D01*
X157284644Y-111734666D01*
X157227640Y-111704197D01*
X157143739Y-111635341D01*
X157074883Y-111551440D01*
X157023721Y-111455722D01*
X157023719Y-111455719D01*
X156992213Y-111351855D01*
X156981574Y-111243840D01*
X156992213Y-111135825D01*
X157023719Y-111031961D01*
X157040040Y-111001428D01*
X157074883Y-110936240D01*
X157143739Y-110852339D01*
X157227640Y-110783483D01*
X157298872Y-110745409D01*
X157323361Y-110732319D01*
X157427225Y-110700813D01*
X157508173Y-110692840D01*
X158099241Y-110692840D01*
X158123627Y-110690438D01*
X158147076Y-110683325D01*
X158168687Y-110671774D01*
X158187629Y-110656229D01*
X158203174Y-110637287D01*
X158214725Y-110615676D01*
X158221838Y-110592227D01*
X158224240Y-110567841D01*
X158224240Y-103279839D01*
X158221838Y-103255453D01*
X158214725Y-103232004D01*
X158203174Y-103210393D01*
X158187629Y-103191451D01*
X158168687Y-103175906D01*
X158147076Y-103164355D01*
X158123627Y-103157242D01*
X158099241Y-103154840D01*
X157508173Y-103154840D01*
X157427225Y-103146867D01*
X157323361Y-103115361D01*
X157288150Y-103096540D01*
X157227640Y-103064197D01*
X157143739Y-102995341D01*
X157074883Y-102911440D01*
X157023721Y-102815722D01*
X157023719Y-102815719D01*
X156992213Y-102711855D01*
X156981574Y-102603840D01*
X156992213Y-102495825D01*
X157023719Y-102391961D01*
X157045063Y-102352030D01*
X157074883Y-102296240D01*
X157143739Y-102212339D01*
X157227640Y-102143483D01*
X157296185Y-102106845D01*
X157323361Y-102092319D01*
X157427225Y-102060813D01*
X157508173Y-102052840D01*
X158662307Y-102052840D01*
X158743255Y-102060813D01*
G37*
G36*
X177773191Y-110792885D02*
G01*
X177807169Y-110803193D01*
X177838490Y-110819934D01*
X177865939Y-110842461D01*
X177888466Y-110869910D01*
X177905207Y-110901231D01*
X177915515Y-110935209D01*
X177919600Y-110976690D01*
X177919600Y-111577910D01*
X177915515Y-111619391D01*
X177905207Y-111653369D01*
X177888466Y-111684690D01*
X177865939Y-111712139D01*
X177838490Y-111734666D01*
X177807169Y-111751407D01*
X177773191Y-111761715D01*
X177731710Y-111765800D01*
X177055490Y-111765800D01*
X177014009Y-111761715D01*
X176980031Y-111751407D01*
X176948710Y-111734666D01*
X176921261Y-111712139D01*
X176898734Y-111684690D01*
X176881993Y-111653369D01*
X176871685Y-111619391D01*
X176867600Y-111577910D01*
X176867600Y-110976690D01*
X176871685Y-110935209D01*
X176881993Y-110901231D01*
X176898734Y-110869910D01*
X176921261Y-110842461D01*
X176948710Y-110819934D01*
X176980031Y-110803193D01*
X177014009Y-110792885D01*
X177055490Y-110788800D01*
X177731710Y-110788800D01*
X177773191Y-110792885D01*
G37*
G36*
X163427971Y-110603085D02*
G01*
X163461949Y-110613393D01*
X163493270Y-110630134D01*
X163520719Y-110652661D01*
X163543246Y-110680110D01*
X163559987Y-110711431D01*
X163570295Y-110745409D01*
X163574380Y-110786890D01*
X163574380Y-111463110D01*
X163570295Y-111504591D01*
X163559987Y-111538569D01*
X163543246Y-111569890D01*
X163520719Y-111597339D01*
X163493270Y-111619866D01*
X163461949Y-111636607D01*
X163427971Y-111646915D01*
X163386490Y-111651000D01*
X162785270Y-111651000D01*
X162743789Y-111646915D01*
X162709811Y-111636607D01*
X162678490Y-111619866D01*
X162651041Y-111597339D01*
X162628514Y-111569890D01*
X162611773Y-111538569D01*
X162601465Y-111504591D01*
X162597380Y-111463110D01*
X162597380Y-110786890D01*
X162601465Y-110745409D01*
X162611773Y-110711431D01*
X162628514Y-110680110D01*
X162651041Y-110652661D01*
X162678490Y-110630134D01*
X162709811Y-110613393D01*
X162743789Y-110603085D01*
X162785270Y-110599000D01*
X163386490Y-110599000D01*
X163427971Y-110603085D01*
G37*
G36*
X161852971Y-110603085D02*
G01*
X161886949Y-110613393D01*
X161918270Y-110630134D01*
X161945719Y-110652661D01*
X161968246Y-110680110D01*
X161984987Y-110711431D01*
X161995295Y-110745409D01*
X161999380Y-110786890D01*
X161999380Y-111463110D01*
X161995295Y-111504591D01*
X161984987Y-111538569D01*
X161968246Y-111569890D01*
X161945719Y-111597339D01*
X161918270Y-111619866D01*
X161886949Y-111636607D01*
X161852971Y-111646915D01*
X161811490Y-111651000D01*
X161210270Y-111651000D01*
X161168789Y-111646915D01*
X161134811Y-111636607D01*
X161103490Y-111619866D01*
X161076041Y-111597339D01*
X161053514Y-111569890D01*
X161036773Y-111538569D01*
X161026465Y-111504591D01*
X161022380Y-111463110D01*
X161022380Y-110786890D01*
X161026465Y-110745409D01*
X161036773Y-110711431D01*
X161053514Y-110680110D01*
X161076041Y-110652661D01*
X161103490Y-110630134D01*
X161134811Y-110613393D01*
X161168789Y-110603085D01*
X161210270Y-110599000D01*
X161811490Y-110599000D01*
X161852971Y-110603085D01*
G37*
G36*
X194702200Y-111198160D02*
G01*
X192800200Y-111198160D01*
X192800200Y-108596160D01*
X194702200Y-108596160D01*
X194702200Y-111198160D01*
G37*
G36*
X181558491Y-110062065D02*
G01*
X181592469Y-110072373D01*
X181623790Y-110089114D01*
X181651239Y-110111641D01*
X181673766Y-110139090D01*
X181690507Y-110170411D01*
X181700815Y-110204389D01*
X181704900Y-110245870D01*
X181704900Y-110922090D01*
X181700815Y-110963571D01*
X181690507Y-110997549D01*
X181673766Y-111028870D01*
X181651239Y-111056319D01*
X181623790Y-111078846D01*
X181592469Y-111095587D01*
X181558491Y-111105895D01*
X181517010Y-111109980D01*
X180915790Y-111109980D01*
X180874309Y-111105895D01*
X180840331Y-111095587D01*
X180809010Y-111078846D01*
X180781561Y-111056319D01*
X180759034Y-111028870D01*
X180742293Y-110997549D01*
X180731985Y-110963571D01*
X180727900Y-110922090D01*
X180727900Y-110245870D01*
X180731985Y-110204389D01*
X180742293Y-110170411D01*
X180759034Y-110139090D01*
X180781561Y-110111641D01*
X180809010Y-110089114D01*
X180840331Y-110072373D01*
X180874309Y-110062065D01*
X180915790Y-110057980D01*
X181517010Y-110057980D01*
X181558491Y-110062065D01*
G37*
G36*
X179983491Y-110062065D02*
G01*
X180017469Y-110072373D01*
X180048790Y-110089114D01*
X180076239Y-110111641D01*
X180098766Y-110139090D01*
X180115507Y-110170411D01*
X180125815Y-110204389D01*
X180129900Y-110245870D01*
X180129900Y-110922090D01*
X180125815Y-110963571D01*
X180115507Y-110997549D01*
X180098766Y-111028870D01*
X180076239Y-111056319D01*
X180048790Y-111078846D01*
X180017469Y-111095587D01*
X179983491Y-111105895D01*
X179942010Y-111109980D01*
X179340790Y-111109980D01*
X179299309Y-111105895D01*
X179265331Y-111095587D01*
X179234010Y-111078846D01*
X179206561Y-111056319D01*
X179184034Y-111028870D01*
X179167293Y-110997549D01*
X179156985Y-110963571D01*
X179152900Y-110922090D01*
X179152900Y-110245870D01*
X179156985Y-110204389D01*
X179167293Y-110170411D01*
X179184034Y-110139090D01*
X179206561Y-110111641D01*
X179234010Y-110089114D01*
X179265331Y-110072373D01*
X179299309Y-110062065D01*
X179340790Y-110057980D01*
X179942010Y-110057980D01*
X179983491Y-110062065D01*
G37*
G36*
X188766311Y-110092045D02*
G01*
X188800289Y-110102353D01*
X188831610Y-110119094D01*
X188859059Y-110141621D01*
X188881586Y-110169070D01*
X188898327Y-110200391D01*
X188908635Y-110234369D01*
X188912720Y-110275850D01*
X188912720Y-110877070D01*
X188908635Y-110918551D01*
X188898327Y-110952529D01*
X188881586Y-110983850D01*
X188859059Y-111011299D01*
X188831610Y-111033826D01*
X188800289Y-111050567D01*
X188766311Y-111060875D01*
X188724830Y-111064960D01*
X188048610Y-111064960D01*
X188007129Y-111060875D01*
X187973151Y-111050567D01*
X187941830Y-111033826D01*
X187914381Y-111011299D01*
X187891854Y-110983850D01*
X187875113Y-110952529D01*
X187864805Y-110918551D01*
X187860720Y-110877070D01*
X187860720Y-110275850D01*
X187864805Y-110234369D01*
X187875113Y-110200391D01*
X187891854Y-110169070D01*
X187914381Y-110141621D01*
X187941830Y-110119094D01*
X187973151Y-110102353D01*
X188007129Y-110092045D01*
X188048610Y-110087960D01*
X188724830Y-110087960D01*
X188766311Y-110092045D01*
G37*
G36*
X200313880Y-110722440D02*
G01*
X199711880Y-110722440D01*
X199711880Y-110272439D01*
X199709478Y-110248053D01*
X199702365Y-110224604D01*
X199690814Y-110202993D01*
X199675269Y-110184051D01*
X199656327Y-110168506D01*
X199634716Y-110156955D01*
X199611267Y-110149842D01*
X199586881Y-110147440D01*
X199561880Y-110147440D01*
X199561880Y-109745440D01*
X199586881Y-109745440D01*
X199611267Y-109743038D01*
X199634716Y-109735925D01*
X199656327Y-109724374D01*
X199675269Y-109708829D01*
X199690814Y-109689887D01*
X199702365Y-109668276D01*
X199709478Y-109644827D01*
X199711880Y-109620441D01*
X199711880Y-109170440D01*
X200313880Y-109170440D01*
X200313880Y-110722440D01*
G37*
G36*
X202013880Y-109620441D02*
G01*
X202016282Y-109644827D01*
X202023395Y-109668276D01*
X202034946Y-109689887D01*
X202050491Y-109708829D01*
X202069433Y-109724374D01*
X202091044Y-109735925D01*
X202114493Y-109743038D01*
X202138879Y-109745440D01*
X202163880Y-109745440D01*
X202163880Y-110147440D01*
X202138879Y-110147440D01*
X202114493Y-110149842D01*
X202091044Y-110156955D01*
X202069433Y-110168506D01*
X202050491Y-110184051D01*
X202034946Y-110202993D01*
X202023395Y-110224604D01*
X202016282Y-110248053D01*
X202013880Y-110272439D01*
X202013880Y-110722440D01*
X201411880Y-110722440D01*
X201411880Y-109170440D01*
X202013880Y-109170440D01*
X202013880Y-109620441D01*
G37*
G36*
X157664912Y-109452289D02*
G01*
X157664914Y-109452290D01*
X157664915Y-109452290D01*
X157733343Y-109480633D01*
X157794926Y-109521782D01*
X157847298Y-109574154D01*
X157888447Y-109635737D01*
X157916790Y-109704165D01*
X157916791Y-109704168D01*
X157931240Y-109776806D01*
X157931240Y-109850874D01*
X157917958Y-109917647D01*
X157916790Y-109923515D01*
X157888447Y-109991943D01*
X157847298Y-110053526D01*
X157794926Y-110105898D01*
X157733343Y-110147047D01*
X157664915Y-110175390D01*
X157664914Y-110175390D01*
X157664912Y-110175391D01*
X157592274Y-110189840D01*
X157518206Y-110189840D01*
X157445568Y-110175391D01*
X157445566Y-110175390D01*
X157445565Y-110175390D01*
X157377137Y-110147047D01*
X157315554Y-110105898D01*
X157263182Y-110053526D01*
X157222033Y-109991943D01*
X157193690Y-109923515D01*
X157192523Y-109917647D01*
X157179240Y-109850874D01*
X157179240Y-109776806D01*
X157193689Y-109704168D01*
X157193690Y-109704165D01*
X157222033Y-109635737D01*
X157263182Y-109574154D01*
X157315554Y-109521782D01*
X157377137Y-109480633D01*
X157445565Y-109452290D01*
X157445566Y-109452290D01*
X157445568Y-109452289D01*
X157518206Y-109437840D01*
X157592274Y-109437840D01*
X157664912Y-109452289D01*
G37*
G36*
X163412731Y-109010505D02*
G01*
X163446709Y-109020813D01*
X163478030Y-109037554D01*
X163505479Y-109060081D01*
X163528006Y-109087530D01*
X163544747Y-109118851D01*
X163555055Y-109152829D01*
X163559140Y-109194310D01*
X163559140Y-109870530D01*
X163555055Y-109912011D01*
X163544747Y-109945989D01*
X163528006Y-109977310D01*
X163505479Y-110004759D01*
X163478030Y-110027286D01*
X163446709Y-110044027D01*
X163412731Y-110054335D01*
X163371250Y-110058420D01*
X162770030Y-110058420D01*
X162728549Y-110054335D01*
X162694571Y-110044027D01*
X162663250Y-110027286D01*
X162635801Y-110004759D01*
X162613274Y-109977310D01*
X162596533Y-109945989D01*
X162586225Y-109912011D01*
X162582140Y-109870530D01*
X162582140Y-109194310D01*
X162586225Y-109152829D01*
X162596533Y-109118851D01*
X162613274Y-109087530D01*
X162635801Y-109060081D01*
X162663250Y-109037554D01*
X162694571Y-109020813D01*
X162728549Y-109010505D01*
X162770030Y-109006420D01*
X163371250Y-109006420D01*
X163412731Y-109010505D01*
G37*
G36*
X161837731Y-109010505D02*
G01*
X161871709Y-109020813D01*
X161903030Y-109037554D01*
X161930479Y-109060081D01*
X161953006Y-109087530D01*
X161969747Y-109118851D01*
X161980055Y-109152829D01*
X161984140Y-109194310D01*
X161984140Y-109870530D01*
X161980055Y-109912011D01*
X161969747Y-109945989D01*
X161953006Y-109977310D01*
X161930479Y-110004759D01*
X161903030Y-110027286D01*
X161871709Y-110044027D01*
X161837731Y-110054335D01*
X161796250Y-110058420D01*
X161195030Y-110058420D01*
X161153549Y-110054335D01*
X161119571Y-110044027D01*
X161088250Y-110027286D01*
X161060801Y-110004759D01*
X161038274Y-109977310D01*
X161021533Y-109945989D01*
X161011225Y-109912011D01*
X161007140Y-109870530D01*
X161007140Y-109194310D01*
X161011225Y-109152829D01*
X161021533Y-109118851D01*
X161038274Y-109087530D01*
X161060801Y-109060081D01*
X161088250Y-109037554D01*
X161119571Y-109020813D01*
X161153549Y-109010505D01*
X161195030Y-109006420D01*
X161796250Y-109006420D01*
X161837731Y-109010505D01*
G37*
G36*
X177760275Y-102097863D02*
G01*
X177767290Y-102099991D01*
X177773756Y-102103448D01*
X177779422Y-102108098D01*
X177784072Y-102113764D01*
X177787529Y-102120230D01*
X177789657Y-102127245D01*
X177790980Y-102140680D01*
X177790980Y-102454400D01*
X177789657Y-102467835D01*
X177787529Y-102474849D01*
X177780170Y-102488617D01*
X177770793Y-102511256D01*
X177766013Y-102535289D01*
X177766013Y-102559793D01*
X177770794Y-102583826D01*
X177780170Y-102606463D01*
X177787529Y-102620231D01*
X177789657Y-102627245D01*
X177790980Y-102640680D01*
X177790980Y-102954400D01*
X177789657Y-102967835D01*
X177787529Y-102974849D01*
X177780170Y-102988617D01*
X177770793Y-103011256D01*
X177766013Y-103035289D01*
X177766013Y-103059793D01*
X177770794Y-103083826D01*
X177780170Y-103106463D01*
X177787529Y-103120231D01*
X177789657Y-103127245D01*
X177790980Y-103140680D01*
X177790980Y-103454400D01*
X177789657Y-103467835D01*
X177787529Y-103474849D01*
X177780170Y-103488617D01*
X177770793Y-103511256D01*
X177766013Y-103535289D01*
X177766013Y-103559793D01*
X177770794Y-103583826D01*
X177780170Y-103606463D01*
X177787529Y-103620231D01*
X177789657Y-103627245D01*
X177790980Y-103640680D01*
X177790980Y-103954400D01*
X177789657Y-103967835D01*
X177787529Y-103974849D01*
X177780170Y-103988617D01*
X177770793Y-104011256D01*
X177766013Y-104035289D01*
X177766013Y-104059793D01*
X177770794Y-104083826D01*
X177780170Y-104106463D01*
X177787529Y-104120231D01*
X177789657Y-104127245D01*
X177790980Y-104140680D01*
X177790980Y-104454400D01*
X177789657Y-104467835D01*
X177787529Y-104474849D01*
X177780170Y-104488617D01*
X177770793Y-104511256D01*
X177766013Y-104535289D01*
X177766013Y-104559793D01*
X177770794Y-104583826D01*
X177780170Y-104606463D01*
X177787529Y-104620231D01*
X177789657Y-104627245D01*
X177790980Y-104640680D01*
X177790980Y-104954400D01*
X177789657Y-104967835D01*
X177787529Y-104974849D01*
X177780170Y-104988617D01*
X177770793Y-105011256D01*
X177766013Y-105035289D01*
X177766013Y-105059793D01*
X177770794Y-105083826D01*
X177780170Y-105106463D01*
X177787529Y-105120231D01*
X177789657Y-105127245D01*
X177790980Y-105140680D01*
X177790980Y-105454400D01*
X177789657Y-105467835D01*
X177787529Y-105474849D01*
X177780170Y-105488617D01*
X177770793Y-105511256D01*
X177766013Y-105535289D01*
X177766013Y-105559793D01*
X177770794Y-105583826D01*
X177780170Y-105606463D01*
X177787529Y-105620231D01*
X177789657Y-105627245D01*
X177790980Y-105640680D01*
X177790980Y-105954400D01*
X177789657Y-105967835D01*
X177787529Y-105974849D01*
X177780170Y-105988617D01*
X177770793Y-106011256D01*
X177766013Y-106035289D01*
X177766013Y-106059793D01*
X177770794Y-106083826D01*
X177780170Y-106106463D01*
X177787529Y-106120231D01*
X177789657Y-106127245D01*
X177790980Y-106140680D01*
X177790980Y-106454400D01*
X177789657Y-106467835D01*
X177787529Y-106474849D01*
X177780170Y-106488617D01*
X177770793Y-106511256D01*
X177766013Y-106535289D01*
X177766013Y-106559793D01*
X177770794Y-106583826D01*
X177780170Y-106606463D01*
X177787529Y-106620231D01*
X177789657Y-106627245D01*
X177790980Y-106640680D01*
X177790980Y-106954400D01*
X177789657Y-106967835D01*
X177787529Y-106974849D01*
X177780170Y-106988617D01*
X177770793Y-107011256D01*
X177766013Y-107035289D01*
X177766013Y-107059793D01*
X177770794Y-107083826D01*
X177780170Y-107106463D01*
X177787529Y-107120231D01*
X177789657Y-107127245D01*
X177790980Y-107140680D01*
X177790980Y-107454400D01*
X177789657Y-107467835D01*
X177787529Y-107474849D01*
X177780170Y-107488617D01*
X177770793Y-107511256D01*
X177766013Y-107535289D01*
X177766013Y-107559793D01*
X177770794Y-107583826D01*
X177780170Y-107606463D01*
X177787529Y-107620231D01*
X177789657Y-107627245D01*
X177790980Y-107640680D01*
X177790980Y-107954400D01*
X177789657Y-107967835D01*
X177787529Y-107974849D01*
X177780170Y-107988617D01*
X177770793Y-108011256D01*
X177766013Y-108035289D01*
X177766013Y-108059793D01*
X177770794Y-108083826D01*
X177780170Y-108106463D01*
X177787529Y-108120231D01*
X177789657Y-108127245D01*
X177790980Y-108140680D01*
X177790980Y-108454400D01*
X177789657Y-108467835D01*
X177787529Y-108474849D01*
X177780170Y-108488617D01*
X177770793Y-108511256D01*
X177766013Y-108535289D01*
X177766013Y-108559793D01*
X177770794Y-108583826D01*
X177780170Y-108606463D01*
X177787529Y-108620231D01*
X177789657Y-108627245D01*
X177790980Y-108640680D01*
X177790980Y-108954400D01*
X177789657Y-108967835D01*
X177787529Y-108974849D01*
X177780170Y-108988617D01*
X177770793Y-109011256D01*
X177766013Y-109035289D01*
X177766013Y-109059793D01*
X177770794Y-109083826D01*
X177780170Y-109106463D01*
X177787529Y-109120231D01*
X177789657Y-109127245D01*
X177790980Y-109140680D01*
X177790980Y-109454400D01*
X177789657Y-109467835D01*
X177787529Y-109474849D01*
X177780170Y-109488617D01*
X177770793Y-109511256D01*
X177766013Y-109535289D01*
X177766013Y-109559793D01*
X177770794Y-109583826D01*
X177780170Y-109606463D01*
X177787529Y-109620231D01*
X177789657Y-109627245D01*
X177790980Y-109640680D01*
X177790980Y-109954400D01*
X177789657Y-109967835D01*
X177787529Y-109974850D01*
X177784072Y-109981316D01*
X177779422Y-109986982D01*
X177773756Y-109991632D01*
X177767290Y-109995089D01*
X177760275Y-109997217D01*
X177746840Y-109998540D01*
X176183120Y-109998540D01*
X176169685Y-109997217D01*
X176162670Y-109995089D01*
X176156204Y-109991632D01*
X176150538Y-109986982D01*
X176145888Y-109981316D01*
X176142431Y-109974850D01*
X176140303Y-109967835D01*
X176138980Y-109954400D01*
X176138980Y-109640680D01*
X176140303Y-109627245D01*
X176142431Y-109620231D01*
X176149790Y-109606463D01*
X176159167Y-109583824D01*
X176163947Y-109559791D01*
X176163947Y-109535287D01*
X176159166Y-109511254D01*
X176149790Y-109488617D01*
X176142431Y-109474849D01*
X176140303Y-109467835D01*
X176138980Y-109454400D01*
X176138980Y-109140680D01*
X176140303Y-109127245D01*
X176142431Y-109120231D01*
X176149790Y-109106463D01*
X176159167Y-109083824D01*
X176163947Y-109059791D01*
X176163947Y-109035287D01*
X176159166Y-109011254D01*
X176149790Y-108988617D01*
X176142431Y-108974849D01*
X176140303Y-108967835D01*
X176138980Y-108954400D01*
X176138980Y-108640680D01*
X176140303Y-108627245D01*
X176142431Y-108620231D01*
X176149790Y-108606463D01*
X176159167Y-108583824D01*
X176163947Y-108559791D01*
X176163947Y-108535287D01*
X176159166Y-108511254D01*
X176149790Y-108488617D01*
X176142431Y-108474849D01*
X176140303Y-108467835D01*
X176138980Y-108454400D01*
X176138980Y-108140680D01*
X176140303Y-108127245D01*
X176142431Y-108120231D01*
X176149790Y-108106463D01*
X176159167Y-108083824D01*
X176163947Y-108059791D01*
X176163947Y-108035287D01*
X176159166Y-108011254D01*
X176149790Y-107988617D01*
X176142431Y-107974849D01*
X176140303Y-107967835D01*
X176138980Y-107954400D01*
X176138980Y-107640680D01*
X176140303Y-107627245D01*
X176142431Y-107620231D01*
X176149790Y-107606463D01*
X176159167Y-107583824D01*
X176163947Y-107559791D01*
X176163947Y-107535287D01*
X176159166Y-107511254D01*
X176149790Y-107488617D01*
X176142431Y-107474849D01*
X176140303Y-107467835D01*
X176138980Y-107454400D01*
X176138980Y-107140680D01*
X176140303Y-107127245D01*
X176142431Y-107120231D01*
X176149790Y-107106463D01*
X176159167Y-107083824D01*
X176163947Y-107059791D01*
X176163947Y-107035287D01*
X176159166Y-107011254D01*
X176149790Y-106988617D01*
X176142431Y-106974849D01*
X176140303Y-106967835D01*
X176138980Y-106954400D01*
X176138980Y-106640680D01*
X176140303Y-106627245D01*
X176142431Y-106620231D01*
X176149790Y-106606463D01*
X176159167Y-106583824D01*
X176163947Y-106559791D01*
X176163947Y-106535287D01*
X176159166Y-106511254D01*
X176149790Y-106488617D01*
X176142431Y-106474849D01*
X176140303Y-106467835D01*
X176138980Y-106454400D01*
X176138980Y-106140680D01*
X176140303Y-106127245D01*
X176142431Y-106120231D01*
X176149790Y-106106463D01*
X176159167Y-106083824D01*
X176163947Y-106059791D01*
X176163947Y-106035287D01*
X176159166Y-106011254D01*
X176149790Y-105988617D01*
X176142431Y-105974849D01*
X176140303Y-105967835D01*
X176138980Y-105954400D01*
X176138980Y-105640680D01*
X176140303Y-105627245D01*
X176142431Y-105620231D01*
X176149790Y-105606463D01*
X176159167Y-105583824D01*
X176163947Y-105559791D01*
X176163947Y-105535287D01*
X176159166Y-105511254D01*
X176149790Y-105488617D01*
X176142431Y-105474849D01*
X176140303Y-105467835D01*
X176138980Y-105454400D01*
X176138980Y-105140680D01*
X176140303Y-105127245D01*
X176142431Y-105120231D01*
X176149790Y-105106463D01*
X176159167Y-105083824D01*
X176163947Y-105059791D01*
X176163947Y-105035287D01*
X176159166Y-105011254D01*
X176149790Y-104988617D01*
X176142431Y-104974849D01*
X176140303Y-104967835D01*
X176138980Y-104954400D01*
X176138980Y-104640680D01*
X176140303Y-104627245D01*
X176142431Y-104620231D01*
X176149790Y-104606463D01*
X176159167Y-104583824D01*
X176163947Y-104559791D01*
X176163947Y-104535287D01*
X176159166Y-104511254D01*
X176149790Y-104488617D01*
X176142431Y-104474849D01*
X176140303Y-104467835D01*
X176138980Y-104454400D01*
X176138980Y-104140680D01*
X176140303Y-104127245D01*
X176142431Y-104120231D01*
X176149790Y-104106463D01*
X176159167Y-104083824D01*
X176163947Y-104059791D01*
X176163947Y-104035287D01*
X176159166Y-104011254D01*
X176149790Y-103988617D01*
X176142431Y-103974849D01*
X176140303Y-103967835D01*
X176138980Y-103954400D01*
X176138980Y-103640680D01*
X176140303Y-103627245D01*
X176142431Y-103620231D01*
X176149790Y-103606463D01*
X176159167Y-103583824D01*
X176163947Y-103559791D01*
X176163947Y-103535287D01*
X176159166Y-103511254D01*
X176149790Y-103488617D01*
X176142431Y-103474849D01*
X176140303Y-103467835D01*
X176138980Y-103454400D01*
X176138980Y-103140680D01*
X176140303Y-103127245D01*
X176142431Y-103120231D01*
X176149790Y-103106463D01*
X176159167Y-103083824D01*
X176163947Y-103059791D01*
X176163947Y-103035287D01*
X176159166Y-103011254D01*
X176149790Y-102988617D01*
X176142431Y-102974849D01*
X176140303Y-102967835D01*
X176138980Y-102954400D01*
X176138980Y-102640680D01*
X176140303Y-102627245D01*
X176142431Y-102620231D01*
X176149790Y-102606463D01*
X176159167Y-102583824D01*
X176163947Y-102559791D01*
X176163947Y-102535287D01*
X176159166Y-102511254D01*
X176149790Y-102488617D01*
X176142431Y-102474849D01*
X176140303Y-102467835D01*
X176138980Y-102454400D01*
X176138980Y-102140680D01*
X176140303Y-102127245D01*
X176142431Y-102120230D01*
X176145888Y-102113764D01*
X176150538Y-102108098D01*
X176156204Y-102103448D01*
X176162670Y-102099991D01*
X176169685Y-102097863D01*
X176183120Y-102096540D01*
X177746840Y-102096540D01*
X177760275Y-102097863D01*
G37*
G36*
X166410275Y-102097863D02*
G01*
X166417290Y-102099991D01*
X166423756Y-102103448D01*
X166429422Y-102108098D01*
X166434072Y-102113764D01*
X166437529Y-102120230D01*
X166439657Y-102127245D01*
X166440980Y-102140680D01*
X166440980Y-102454400D01*
X166439657Y-102467835D01*
X166437529Y-102474849D01*
X166430170Y-102488617D01*
X166420793Y-102511256D01*
X166416013Y-102535289D01*
X166416013Y-102559793D01*
X166420794Y-102583826D01*
X166430170Y-102606463D01*
X166437529Y-102620231D01*
X166439657Y-102627245D01*
X166440980Y-102640680D01*
X166440980Y-102954400D01*
X166439657Y-102967835D01*
X166437529Y-102974849D01*
X166430170Y-102988617D01*
X166420793Y-103011256D01*
X166416013Y-103035289D01*
X166416013Y-103059793D01*
X166420794Y-103083826D01*
X166430170Y-103106463D01*
X166437529Y-103120231D01*
X166439657Y-103127245D01*
X166440980Y-103140680D01*
X166440980Y-103454400D01*
X166439657Y-103467835D01*
X166437529Y-103474849D01*
X166430170Y-103488617D01*
X166420793Y-103511256D01*
X166416013Y-103535289D01*
X166416013Y-103559793D01*
X166420794Y-103583826D01*
X166430170Y-103606463D01*
X166437529Y-103620231D01*
X166439657Y-103627245D01*
X166440980Y-103640680D01*
X166440980Y-103954400D01*
X166439657Y-103967835D01*
X166437529Y-103974849D01*
X166430170Y-103988617D01*
X166420793Y-104011256D01*
X166416013Y-104035289D01*
X166416013Y-104059793D01*
X166420794Y-104083826D01*
X166430170Y-104106463D01*
X166437529Y-104120231D01*
X166439657Y-104127245D01*
X166440980Y-104140680D01*
X166440980Y-104454400D01*
X166439657Y-104467835D01*
X166437529Y-104474849D01*
X166430170Y-104488617D01*
X166420793Y-104511256D01*
X166416013Y-104535289D01*
X166416013Y-104559793D01*
X166420794Y-104583826D01*
X166430170Y-104606463D01*
X166437529Y-104620231D01*
X166439657Y-104627245D01*
X166440980Y-104640680D01*
X166440980Y-104954400D01*
X166439657Y-104967835D01*
X166437529Y-104974849D01*
X166430170Y-104988617D01*
X166420793Y-105011256D01*
X166416013Y-105035289D01*
X166416013Y-105059793D01*
X166420794Y-105083826D01*
X166430170Y-105106463D01*
X166437529Y-105120231D01*
X166439657Y-105127245D01*
X166440980Y-105140680D01*
X166440980Y-105454400D01*
X166439657Y-105467835D01*
X166437529Y-105474849D01*
X166430170Y-105488617D01*
X166420793Y-105511256D01*
X166416013Y-105535289D01*
X166416013Y-105559793D01*
X166420794Y-105583826D01*
X166430170Y-105606463D01*
X166437529Y-105620231D01*
X166439657Y-105627245D01*
X166440980Y-105640680D01*
X166440980Y-105954400D01*
X166439657Y-105967835D01*
X166437529Y-105974849D01*
X166430170Y-105988617D01*
X166420793Y-106011256D01*
X166416013Y-106035289D01*
X166416013Y-106059793D01*
X166420794Y-106083826D01*
X166430170Y-106106463D01*
X166437529Y-106120231D01*
X166439657Y-106127245D01*
X166440980Y-106140680D01*
X166440980Y-106454400D01*
X166439657Y-106467835D01*
X166437529Y-106474849D01*
X166430170Y-106488617D01*
X166420793Y-106511256D01*
X166416013Y-106535289D01*
X166416013Y-106559793D01*
X166420794Y-106583826D01*
X166430170Y-106606463D01*
X166437529Y-106620231D01*
X166439657Y-106627245D01*
X166440980Y-106640680D01*
X166440980Y-106954400D01*
X166439657Y-106967835D01*
X166437529Y-106974849D01*
X166430170Y-106988617D01*
X166420793Y-107011256D01*
X166416013Y-107035289D01*
X166416013Y-107059793D01*
X166420794Y-107083826D01*
X166430170Y-107106463D01*
X166437529Y-107120231D01*
X166439657Y-107127245D01*
X166440980Y-107140680D01*
X166440980Y-107454400D01*
X166439657Y-107467835D01*
X166437529Y-107474849D01*
X166430170Y-107488617D01*
X166420793Y-107511256D01*
X166416013Y-107535289D01*
X166416013Y-107559793D01*
X166420794Y-107583826D01*
X166430170Y-107606463D01*
X166437529Y-107620231D01*
X166439657Y-107627245D01*
X166440980Y-107640680D01*
X166440980Y-107954400D01*
X166439657Y-107967835D01*
X166437529Y-107974849D01*
X166430170Y-107988617D01*
X166420793Y-108011256D01*
X166416013Y-108035289D01*
X166416013Y-108059793D01*
X166420794Y-108083826D01*
X166430170Y-108106463D01*
X166437529Y-108120231D01*
X166439657Y-108127245D01*
X166440980Y-108140680D01*
X166440980Y-108454400D01*
X166439657Y-108467835D01*
X166437529Y-108474849D01*
X166430170Y-108488617D01*
X166420793Y-108511256D01*
X166416013Y-108535289D01*
X166416013Y-108559793D01*
X166420794Y-108583826D01*
X166430170Y-108606463D01*
X166437529Y-108620231D01*
X166439657Y-108627245D01*
X166440980Y-108640680D01*
X166440980Y-108954400D01*
X166439657Y-108967835D01*
X166437529Y-108974849D01*
X166430170Y-108988617D01*
X166420793Y-109011256D01*
X166416013Y-109035289D01*
X166416013Y-109059793D01*
X166420794Y-109083826D01*
X166430170Y-109106463D01*
X166437529Y-109120231D01*
X166439657Y-109127245D01*
X166440980Y-109140680D01*
X166440980Y-109454400D01*
X166439657Y-109467835D01*
X166437529Y-109474849D01*
X166430170Y-109488617D01*
X166420793Y-109511256D01*
X166416013Y-109535289D01*
X166416013Y-109559793D01*
X166420794Y-109583826D01*
X166430170Y-109606463D01*
X166437529Y-109620231D01*
X166439657Y-109627245D01*
X166440980Y-109640680D01*
X166440980Y-109954400D01*
X166439657Y-109967835D01*
X166437529Y-109974850D01*
X166434072Y-109981316D01*
X166429422Y-109986982D01*
X166423756Y-109991632D01*
X166417290Y-109995089D01*
X166410275Y-109997217D01*
X166396840Y-109998540D01*
X164833120Y-109998540D01*
X164819685Y-109997217D01*
X164812670Y-109995089D01*
X164806204Y-109991632D01*
X164800538Y-109986982D01*
X164795888Y-109981316D01*
X164792431Y-109974850D01*
X164790303Y-109967835D01*
X164788980Y-109954400D01*
X164788980Y-109640680D01*
X164790303Y-109627245D01*
X164792431Y-109620231D01*
X164799790Y-109606463D01*
X164809167Y-109583824D01*
X164813947Y-109559791D01*
X164813947Y-109535287D01*
X164809166Y-109511254D01*
X164799790Y-109488617D01*
X164792431Y-109474849D01*
X164790303Y-109467835D01*
X164788980Y-109454400D01*
X164788980Y-109140680D01*
X164790303Y-109127245D01*
X164792431Y-109120231D01*
X164799790Y-109106463D01*
X164809167Y-109083824D01*
X164813947Y-109059791D01*
X164813947Y-109035287D01*
X164809166Y-109011254D01*
X164799790Y-108988617D01*
X164792431Y-108974849D01*
X164790303Y-108967835D01*
X164788980Y-108954400D01*
X164788980Y-108640680D01*
X164790303Y-108627245D01*
X164792431Y-108620231D01*
X164799790Y-108606463D01*
X164809167Y-108583824D01*
X164813947Y-108559791D01*
X164813947Y-108535287D01*
X164809166Y-108511254D01*
X164799790Y-108488617D01*
X164792431Y-108474849D01*
X164790303Y-108467835D01*
X164788980Y-108454400D01*
X164788980Y-108140680D01*
X164790303Y-108127245D01*
X164792431Y-108120231D01*
X164799790Y-108106463D01*
X164809167Y-108083824D01*
X164813947Y-108059791D01*
X164813947Y-108035287D01*
X164809166Y-108011254D01*
X164799790Y-107988617D01*
X164792431Y-107974849D01*
X164790303Y-107967835D01*
X164788980Y-107954400D01*
X164788980Y-107640680D01*
X164790303Y-107627245D01*
X164792431Y-107620231D01*
X164799790Y-107606463D01*
X164809167Y-107583824D01*
X164813947Y-107559791D01*
X164813947Y-107535287D01*
X164809166Y-107511254D01*
X164799790Y-107488617D01*
X164792431Y-107474849D01*
X164790303Y-107467835D01*
X164788980Y-107454400D01*
X164788980Y-107140680D01*
X164790303Y-107127245D01*
X164792431Y-107120231D01*
X164799790Y-107106463D01*
X164809167Y-107083824D01*
X164813947Y-107059791D01*
X164813947Y-107035287D01*
X164809166Y-107011254D01*
X164799790Y-106988617D01*
X164792431Y-106974849D01*
X164790303Y-106967835D01*
X164788980Y-106954400D01*
X164788980Y-106640680D01*
X164790303Y-106627245D01*
X164792431Y-106620231D01*
X164799790Y-106606463D01*
X164809167Y-106583824D01*
X164813947Y-106559791D01*
X164813947Y-106535287D01*
X164809166Y-106511254D01*
X164799790Y-106488617D01*
X164792431Y-106474849D01*
X164790303Y-106467835D01*
X164788980Y-106454400D01*
X164788980Y-106140680D01*
X164790303Y-106127245D01*
X164792431Y-106120231D01*
X164799790Y-106106463D01*
X164809167Y-106083824D01*
X164813947Y-106059791D01*
X164813947Y-106035287D01*
X164809166Y-106011254D01*
X164799790Y-105988617D01*
X164792431Y-105974849D01*
X164790303Y-105967835D01*
X164788980Y-105954400D01*
X164788980Y-105640680D01*
X164790303Y-105627245D01*
X164792431Y-105620231D01*
X164799790Y-105606463D01*
X164809167Y-105583824D01*
X164813947Y-105559791D01*
X164813947Y-105535287D01*
X164809166Y-105511254D01*
X164799790Y-105488617D01*
X164792431Y-105474849D01*
X164790303Y-105467835D01*
X164788980Y-105454400D01*
X164788980Y-105140680D01*
X164790303Y-105127245D01*
X164792431Y-105120231D01*
X164799790Y-105106463D01*
X164809167Y-105083824D01*
X164813947Y-105059791D01*
X164813947Y-105035287D01*
X164809166Y-105011254D01*
X164799790Y-104988617D01*
X164792431Y-104974849D01*
X164790303Y-104967835D01*
X164788980Y-104954400D01*
X164788980Y-104640680D01*
X164790303Y-104627245D01*
X164792431Y-104620231D01*
X164799790Y-104606463D01*
X164809167Y-104583824D01*
X164813947Y-104559791D01*
X164813947Y-104535287D01*
X164809166Y-104511254D01*
X164799790Y-104488617D01*
X164792431Y-104474849D01*
X164790303Y-104467835D01*
X164788980Y-104454400D01*
X164788980Y-104140680D01*
X164790303Y-104127245D01*
X164792431Y-104120231D01*
X164799790Y-104106463D01*
X164809167Y-104083824D01*
X164813947Y-104059791D01*
X164813947Y-104035287D01*
X164809166Y-104011254D01*
X164799790Y-103988617D01*
X164792431Y-103974849D01*
X164790303Y-103967835D01*
X164788980Y-103954400D01*
X164788980Y-103640680D01*
X164790303Y-103627245D01*
X164792431Y-103620231D01*
X164799790Y-103606463D01*
X164809167Y-103583824D01*
X164813947Y-103559791D01*
X164813947Y-103535287D01*
X164809166Y-103511254D01*
X164799790Y-103488617D01*
X164792431Y-103474849D01*
X164790303Y-103467835D01*
X164788980Y-103454400D01*
X164788980Y-103140680D01*
X164790303Y-103127245D01*
X164792431Y-103120231D01*
X164799790Y-103106463D01*
X164809167Y-103083824D01*
X164813947Y-103059791D01*
X164813947Y-103035287D01*
X164809166Y-103011254D01*
X164799790Y-102988617D01*
X164792431Y-102974849D01*
X164790303Y-102967835D01*
X164788980Y-102954400D01*
X164788980Y-102640680D01*
X164790303Y-102627245D01*
X164792431Y-102620231D01*
X164799790Y-102606463D01*
X164809167Y-102583824D01*
X164813947Y-102559791D01*
X164813947Y-102535287D01*
X164809166Y-102511254D01*
X164799790Y-102488617D01*
X164792431Y-102474849D01*
X164790303Y-102467835D01*
X164788980Y-102454400D01*
X164788980Y-102140680D01*
X164790303Y-102127245D01*
X164792431Y-102120230D01*
X164795888Y-102113764D01*
X164800538Y-102108098D01*
X164806204Y-102103448D01*
X164812670Y-102099991D01*
X164819685Y-102097863D01*
X164833120Y-102096540D01*
X166396840Y-102096540D01*
X166410275Y-102097863D01*
G37*
G36*
X205775948Y-109131644D02*
G01*
X205797029Y-109138040D01*
X205816465Y-109148428D01*
X205833496Y-109162404D01*
X205847472Y-109179435D01*
X205857860Y-109198871D01*
X205864256Y-109219952D01*
X205867020Y-109248020D01*
X205867020Y-109711740D01*
X205864256Y-109739808D01*
X205857860Y-109760889D01*
X205847472Y-109780325D01*
X205833496Y-109797356D01*
X205816465Y-109811332D01*
X205797029Y-109821720D01*
X205775948Y-109828116D01*
X205747880Y-109830880D01*
X204184160Y-109830880D01*
X204156092Y-109828116D01*
X204135011Y-109821720D01*
X204115575Y-109811332D01*
X204098544Y-109797356D01*
X204084568Y-109780325D01*
X204074180Y-109760889D01*
X204067784Y-109739808D01*
X204065020Y-109711740D01*
X204065020Y-109248020D01*
X204067784Y-109219952D01*
X204074180Y-109198871D01*
X204084568Y-109179435D01*
X204098544Y-109162404D01*
X204115575Y-109148428D01*
X204135011Y-109138040D01*
X204156092Y-109131644D01*
X204184160Y-109128880D01*
X205747880Y-109128880D01*
X205775948Y-109131644D01*
G37*
G36*
X186456440Y-109734780D02*
G01*
X183804440Y-109734780D01*
X183804440Y-108572780D01*
X186456440Y-108572780D01*
X186456440Y-109734780D01*
G37*
G36*
X188766311Y-108517045D02*
G01*
X188800289Y-108527353D01*
X188831610Y-108544094D01*
X188859059Y-108566621D01*
X188881586Y-108594070D01*
X188898327Y-108625391D01*
X188908635Y-108659369D01*
X188912720Y-108700850D01*
X188912720Y-109302070D01*
X188908635Y-109343551D01*
X188898327Y-109377529D01*
X188881586Y-109408850D01*
X188859059Y-109436299D01*
X188831610Y-109458826D01*
X188800289Y-109475567D01*
X188766311Y-109485875D01*
X188724830Y-109489960D01*
X188048610Y-109489960D01*
X188007129Y-109485875D01*
X187973151Y-109475567D01*
X187941830Y-109458826D01*
X187914381Y-109436299D01*
X187891854Y-109408850D01*
X187875113Y-109377529D01*
X187864805Y-109343551D01*
X187860720Y-109302070D01*
X187860720Y-108700850D01*
X187864805Y-108659369D01*
X187875113Y-108625391D01*
X187891854Y-108594070D01*
X187914381Y-108566621D01*
X187941830Y-108544094D01*
X187973151Y-108527353D01*
X188007129Y-108517045D01*
X188048610Y-108512960D01*
X188724830Y-108512960D01*
X188766311Y-108517045D01*
G37*
G36*
X181914660Y-109437780D02*
G01*
X180612660Y-109437780D01*
X180612660Y-107935780D01*
X181914660Y-107935780D01*
X181914660Y-109437780D01*
G37*
G36*
X180214660Y-109437780D02*
G01*
X178912660Y-109437780D01*
X178912660Y-107935780D01*
X180214660Y-107935780D01*
X180214660Y-109437780D01*
G37*
G36*
X190239031Y-108085945D02*
G01*
X190273009Y-108096253D01*
X190304330Y-108112994D01*
X190331779Y-108135521D01*
X190354306Y-108162970D01*
X190371047Y-108194291D01*
X190381355Y-108228269D01*
X190385440Y-108269750D01*
X190385440Y-108945970D01*
X190381355Y-108987451D01*
X190371047Y-109021429D01*
X190354306Y-109052750D01*
X190331779Y-109080199D01*
X190304330Y-109102726D01*
X190273009Y-109119467D01*
X190239031Y-109129775D01*
X190197550Y-109133860D01*
X189596330Y-109133860D01*
X189554849Y-109129775D01*
X189520871Y-109119467D01*
X189489550Y-109102726D01*
X189462101Y-109080199D01*
X189439574Y-109052750D01*
X189422833Y-109021429D01*
X189412525Y-108987451D01*
X189408440Y-108945970D01*
X189408440Y-108269750D01*
X189412525Y-108228269D01*
X189422833Y-108194291D01*
X189439574Y-108162970D01*
X189462101Y-108135521D01*
X189489550Y-108112994D01*
X189520871Y-108096253D01*
X189554849Y-108085945D01*
X189596330Y-108081860D01*
X190197550Y-108081860D01*
X190239031Y-108085945D01*
G37*
G36*
X191814031Y-108085945D02*
G01*
X191848009Y-108096253D01*
X191879330Y-108112994D01*
X191906779Y-108135521D01*
X191929306Y-108162970D01*
X191946047Y-108194291D01*
X191956355Y-108228269D01*
X191960440Y-108269750D01*
X191960440Y-108945970D01*
X191956355Y-108987451D01*
X191946047Y-109021429D01*
X191929306Y-109052750D01*
X191906779Y-109080199D01*
X191879330Y-109102726D01*
X191848009Y-109119467D01*
X191814031Y-109129775D01*
X191772550Y-109133860D01*
X191171330Y-109133860D01*
X191129849Y-109129775D01*
X191095871Y-109119467D01*
X191064550Y-109102726D01*
X191037101Y-109080199D01*
X191014574Y-109052750D01*
X190997833Y-109021429D01*
X190987525Y-108987451D01*
X190983440Y-108945970D01*
X190983440Y-108269750D01*
X190987525Y-108228269D01*
X190997833Y-108194291D01*
X191014574Y-108162970D01*
X191037101Y-108135521D01*
X191064550Y-108112994D01*
X191095871Y-108096253D01*
X191129849Y-108085945D01*
X191171330Y-108081860D01*
X191772550Y-108081860D01*
X191814031Y-108085945D01*
G37*
G36*
X205775948Y-107881644D02*
G01*
X205797029Y-107888040D01*
X205816465Y-107898428D01*
X205833496Y-107912404D01*
X205847472Y-107929435D01*
X205857860Y-107948871D01*
X205864256Y-107969952D01*
X205867020Y-107998020D01*
X205867020Y-108461740D01*
X205864256Y-108489808D01*
X205857860Y-108510889D01*
X205847472Y-108530325D01*
X205833496Y-108547356D01*
X205816465Y-108561332D01*
X205797029Y-108571720D01*
X205775948Y-108578116D01*
X205747880Y-108580880D01*
X204184160Y-108580880D01*
X204156092Y-108578116D01*
X204135011Y-108571720D01*
X204115575Y-108561332D01*
X204098544Y-108547356D01*
X204084568Y-108530325D01*
X204074180Y-108510889D01*
X204067784Y-108489808D01*
X204065020Y-108461740D01*
X204065020Y-107998020D01*
X204067784Y-107969952D01*
X204074180Y-107948871D01*
X204084568Y-107929435D01*
X204098544Y-107912404D01*
X204115575Y-107898428D01*
X204135011Y-107888040D01*
X204156092Y-107881644D01*
X204184160Y-107878880D01*
X205747880Y-107878880D01*
X205775948Y-107881644D01*
G37*
G36*
X201972471Y-107237585D02*
G01*
X202006449Y-107247893D01*
X202037770Y-107264634D01*
X202065219Y-107287161D01*
X202087746Y-107314610D01*
X202104487Y-107345931D01*
X202114795Y-107379909D01*
X202118880Y-107421390D01*
X202118880Y-108097610D01*
X202114795Y-108139091D01*
X202104487Y-108173069D01*
X202087746Y-108204390D01*
X202065219Y-108231839D01*
X202037770Y-108254366D01*
X202006449Y-108271107D01*
X201972471Y-108281415D01*
X201930990Y-108285500D01*
X201329770Y-108285500D01*
X201288289Y-108281415D01*
X201254311Y-108271107D01*
X201222990Y-108254366D01*
X201195541Y-108231839D01*
X201173014Y-108204390D01*
X201156273Y-108173069D01*
X201145965Y-108139091D01*
X201141880Y-108097610D01*
X201141880Y-107421390D01*
X201145965Y-107379909D01*
X201156273Y-107345931D01*
X201173014Y-107314610D01*
X201195541Y-107287161D01*
X201222990Y-107264634D01*
X201254311Y-107247893D01*
X201288289Y-107237585D01*
X201329770Y-107233500D01*
X201930990Y-107233500D01*
X201972471Y-107237585D01*
G37*
G36*
X200397471Y-107237585D02*
G01*
X200431449Y-107247893D01*
X200462770Y-107264634D01*
X200490219Y-107287161D01*
X200512746Y-107314610D01*
X200529487Y-107345931D01*
X200539795Y-107379909D01*
X200543880Y-107421390D01*
X200543880Y-108097610D01*
X200539795Y-108139091D01*
X200529487Y-108173069D01*
X200512746Y-108204390D01*
X200490219Y-108231839D01*
X200462770Y-108254366D01*
X200431449Y-108271107D01*
X200397471Y-108281415D01*
X200355990Y-108285500D01*
X199754770Y-108285500D01*
X199713289Y-108281415D01*
X199679311Y-108271107D01*
X199647990Y-108254366D01*
X199620541Y-108231839D01*
X199598014Y-108204390D01*
X199581273Y-108173069D01*
X199570965Y-108139091D01*
X199566880Y-108097610D01*
X199566880Y-107421390D01*
X199570965Y-107379909D01*
X199581273Y-107345931D01*
X199598014Y-107314610D01*
X199620541Y-107287161D01*
X199647990Y-107264634D01*
X199679311Y-107247893D01*
X199713289Y-107237585D01*
X199754770Y-107233500D01*
X200355990Y-107233500D01*
X200397471Y-107237585D01*
G37*
G36*
X163444300Y-107164261D02*
G01*
X163446702Y-107188647D01*
X163453815Y-107212096D01*
X163465366Y-107233707D01*
X163480911Y-107252649D01*
X163499853Y-107268194D01*
X163521464Y-107279745D01*
X163544913Y-107286858D01*
X163569299Y-107289260D01*
X163594300Y-107289260D01*
X163594300Y-107691260D01*
X163569299Y-107691260D01*
X163544913Y-107693662D01*
X163521464Y-107700775D01*
X163499853Y-107712326D01*
X163480911Y-107727871D01*
X163465366Y-107746813D01*
X163453815Y-107768424D01*
X163446702Y-107791873D01*
X163444300Y-107816259D01*
X163444300Y-108266260D01*
X162842300Y-108266260D01*
X162842300Y-106714260D01*
X163444300Y-106714260D01*
X163444300Y-107164261D01*
G37*
G36*
X161744300Y-108266260D02*
G01*
X161142300Y-108266260D01*
X161142300Y-107816259D01*
X161139898Y-107791873D01*
X161132785Y-107768424D01*
X161121234Y-107746813D01*
X161105689Y-107727871D01*
X161086747Y-107712326D01*
X161065136Y-107700775D01*
X161041687Y-107693662D01*
X161017301Y-107691260D01*
X160992300Y-107691260D01*
X160992300Y-107289260D01*
X161017301Y-107289260D01*
X161041687Y-107286858D01*
X161065136Y-107279745D01*
X161086747Y-107268194D01*
X161105689Y-107252649D01*
X161121234Y-107233707D01*
X161132785Y-107212096D01*
X161139898Y-107188647D01*
X161142300Y-107164261D01*
X161142300Y-106714260D01*
X161744300Y-106714260D01*
X161744300Y-108266260D01*
G37*
G36*
X190239031Y-106467965D02*
G01*
X190273009Y-106478273D01*
X190304330Y-106495014D01*
X190331779Y-106517541D01*
X190354306Y-106544990D01*
X190371047Y-106576311D01*
X190381355Y-106610289D01*
X190385440Y-106651770D01*
X190385440Y-107327990D01*
X190381355Y-107369471D01*
X190371047Y-107403449D01*
X190354306Y-107434770D01*
X190331779Y-107462219D01*
X190304330Y-107484746D01*
X190273009Y-107501487D01*
X190239031Y-107511795D01*
X190197550Y-107515880D01*
X189596330Y-107515880D01*
X189554849Y-107511795D01*
X189520871Y-107501487D01*
X189489550Y-107484746D01*
X189462101Y-107462219D01*
X189439574Y-107434770D01*
X189422833Y-107403449D01*
X189412525Y-107369471D01*
X189408440Y-107327990D01*
X189408440Y-106651770D01*
X189412525Y-106610289D01*
X189422833Y-106576311D01*
X189439574Y-106544990D01*
X189462101Y-106517541D01*
X189489550Y-106495014D01*
X189520871Y-106478273D01*
X189554849Y-106467965D01*
X189596330Y-106463880D01*
X190197550Y-106463880D01*
X190239031Y-106467965D01*
G37*
G36*
X191814031Y-106467965D02*
G01*
X191848009Y-106478273D01*
X191879330Y-106495014D01*
X191906779Y-106517541D01*
X191929306Y-106544990D01*
X191946047Y-106576311D01*
X191956355Y-106610289D01*
X191960440Y-106651770D01*
X191960440Y-107327990D01*
X191956355Y-107369471D01*
X191946047Y-107403449D01*
X191929306Y-107434770D01*
X191906779Y-107462219D01*
X191879330Y-107484746D01*
X191848009Y-107501487D01*
X191814031Y-107511795D01*
X191772550Y-107515880D01*
X191171330Y-107515880D01*
X191129849Y-107511795D01*
X191095871Y-107501487D01*
X191064550Y-107484746D01*
X191037101Y-107462219D01*
X191014574Y-107434770D01*
X190997833Y-107403449D01*
X190987525Y-107369471D01*
X190983440Y-107327990D01*
X190983440Y-106651770D01*
X190987525Y-106610289D01*
X190997833Y-106576311D01*
X191014574Y-106544990D01*
X191037101Y-106517541D01*
X191064550Y-106495014D01*
X191095871Y-106478273D01*
X191129849Y-106467965D01*
X191171330Y-106463880D01*
X191772550Y-106463880D01*
X191814031Y-106467965D01*
G37*
G36*
X187146291Y-106452725D02*
G01*
X187180269Y-106463033D01*
X187211590Y-106479774D01*
X187239039Y-106502301D01*
X187261566Y-106529750D01*
X187278307Y-106561071D01*
X187288615Y-106595049D01*
X187292700Y-106636530D01*
X187292700Y-107312750D01*
X187288615Y-107354231D01*
X187278307Y-107388209D01*
X187261566Y-107419530D01*
X187239039Y-107446979D01*
X187211590Y-107469506D01*
X187180269Y-107486247D01*
X187146291Y-107496555D01*
X187104810Y-107500640D01*
X186503590Y-107500640D01*
X186462109Y-107496555D01*
X186428131Y-107486247D01*
X186396810Y-107469506D01*
X186369361Y-107446979D01*
X186346834Y-107419530D01*
X186330093Y-107388209D01*
X186319785Y-107354231D01*
X186315700Y-107312750D01*
X186315700Y-106636530D01*
X186319785Y-106595049D01*
X186330093Y-106561071D01*
X186346834Y-106529750D01*
X186369361Y-106502301D01*
X186396810Y-106479774D01*
X186428131Y-106463033D01*
X186462109Y-106452725D01*
X186503590Y-106448640D01*
X187104810Y-106448640D01*
X187146291Y-106452725D01*
G37*
G36*
X188721291Y-106452725D02*
G01*
X188755269Y-106463033D01*
X188786590Y-106479774D01*
X188814039Y-106502301D01*
X188836566Y-106529750D01*
X188853307Y-106561071D01*
X188863615Y-106595049D01*
X188867700Y-106636530D01*
X188867700Y-107312750D01*
X188863615Y-107354231D01*
X188853307Y-107388209D01*
X188836566Y-107419530D01*
X188814039Y-107446979D01*
X188786590Y-107469506D01*
X188755269Y-107486247D01*
X188721291Y-107496555D01*
X188679810Y-107500640D01*
X188078590Y-107500640D01*
X188037109Y-107496555D01*
X188003131Y-107486247D01*
X187971810Y-107469506D01*
X187944361Y-107446979D01*
X187921834Y-107419530D01*
X187905093Y-107388209D01*
X187894785Y-107354231D01*
X187890700Y-107312750D01*
X187890700Y-106636530D01*
X187894785Y-106595049D01*
X187905093Y-106561071D01*
X187921834Y-106529750D01*
X187944361Y-106502301D01*
X187971810Y-106479774D01*
X188003131Y-106463033D01*
X188037109Y-106452725D01*
X188078590Y-106448640D01*
X188679810Y-106448640D01*
X188721291Y-106452725D01*
G37*
G36*
X184039871Y-106427325D02*
G01*
X184073849Y-106437633D01*
X184105170Y-106454374D01*
X184132619Y-106476901D01*
X184155146Y-106504350D01*
X184171887Y-106535671D01*
X184182195Y-106569649D01*
X184186280Y-106611130D01*
X184186280Y-107287350D01*
X184182195Y-107328831D01*
X184171887Y-107362809D01*
X184155146Y-107394130D01*
X184132619Y-107421579D01*
X184105170Y-107444106D01*
X184073849Y-107460847D01*
X184039871Y-107471155D01*
X183998390Y-107475240D01*
X183397170Y-107475240D01*
X183355689Y-107471155D01*
X183321711Y-107460847D01*
X183290390Y-107444106D01*
X183262941Y-107421579D01*
X183240414Y-107394130D01*
X183223673Y-107362809D01*
X183213365Y-107328831D01*
X183209280Y-107287350D01*
X183209280Y-106611130D01*
X183213365Y-106569649D01*
X183223673Y-106535671D01*
X183240414Y-106504350D01*
X183262941Y-106476901D01*
X183290390Y-106454374D01*
X183321711Y-106437633D01*
X183355689Y-106427325D01*
X183397170Y-106423240D01*
X183998390Y-106423240D01*
X184039871Y-106427325D01*
G37*
G36*
X185614871Y-106427325D02*
G01*
X185648849Y-106437633D01*
X185680170Y-106454374D01*
X185707619Y-106476901D01*
X185730146Y-106504350D01*
X185746887Y-106535671D01*
X185757195Y-106569649D01*
X185761280Y-106611130D01*
X185761280Y-107287350D01*
X185757195Y-107328831D01*
X185746887Y-107362809D01*
X185730146Y-107394130D01*
X185707619Y-107421579D01*
X185680170Y-107444106D01*
X185648849Y-107460847D01*
X185614871Y-107471155D01*
X185573390Y-107475240D01*
X184972170Y-107475240D01*
X184930689Y-107471155D01*
X184896711Y-107460847D01*
X184865390Y-107444106D01*
X184837941Y-107421579D01*
X184815414Y-107394130D01*
X184798673Y-107362809D01*
X184788365Y-107328831D01*
X184784280Y-107287350D01*
X184784280Y-106611130D01*
X184788365Y-106569649D01*
X184798673Y-106535671D01*
X184815414Y-106504350D01*
X184837941Y-106476901D01*
X184865390Y-106454374D01*
X184896711Y-106437633D01*
X184930689Y-106427325D01*
X184972170Y-106423240D01*
X185573390Y-106423240D01*
X185614871Y-106427325D01*
G37*
G36*
X205775948Y-106631644D02*
G01*
X205797029Y-106638040D01*
X205816465Y-106648428D01*
X205833496Y-106662404D01*
X205847472Y-106679435D01*
X205857860Y-106698871D01*
X205864256Y-106719952D01*
X205867020Y-106748020D01*
X205867020Y-107211740D01*
X205864256Y-107239808D01*
X205857860Y-107260889D01*
X205847472Y-107280325D01*
X205833496Y-107297356D01*
X205816465Y-107311332D01*
X205797029Y-107321720D01*
X205775948Y-107328116D01*
X205747880Y-107330880D01*
X204184160Y-107330880D01*
X204156092Y-107328116D01*
X204135011Y-107321720D01*
X204115575Y-107311332D01*
X204098544Y-107297356D01*
X204084568Y-107280325D01*
X204074180Y-107260889D01*
X204067784Y-107239808D01*
X204065020Y-107211740D01*
X204065020Y-106748020D01*
X204067784Y-106719952D01*
X204074180Y-106698871D01*
X204084568Y-106679435D01*
X204098544Y-106662404D01*
X204115575Y-106648428D01*
X204135011Y-106638040D01*
X204156092Y-106631644D01*
X204184160Y-106628880D01*
X205747880Y-106628880D01*
X205775948Y-106631644D01*
G37*
G36*
X180214660Y-107237780D02*
G01*
X178912660Y-107237780D01*
X178912660Y-105735780D01*
X180214660Y-105735780D01*
X180214660Y-107237780D01*
G37*
G36*
X181914660Y-107237780D02*
G01*
X180612660Y-107237780D01*
X180612660Y-105735780D01*
X181914660Y-105735780D01*
X181914660Y-107237780D01*
G37*
G36*
X201972471Y-105472285D02*
G01*
X202006449Y-105482593D01*
X202037770Y-105499334D01*
X202065219Y-105521861D01*
X202087746Y-105549310D01*
X202104487Y-105580631D01*
X202114795Y-105614609D01*
X202118880Y-105656090D01*
X202118880Y-106332310D01*
X202114795Y-106373791D01*
X202104487Y-106407769D01*
X202087746Y-106439090D01*
X202065219Y-106466539D01*
X202037770Y-106489066D01*
X202006449Y-106505807D01*
X201972471Y-106516115D01*
X201930990Y-106520200D01*
X201329770Y-106520200D01*
X201288289Y-106516115D01*
X201254311Y-106505807D01*
X201222990Y-106489066D01*
X201195541Y-106466539D01*
X201173014Y-106439090D01*
X201156273Y-106407769D01*
X201145965Y-106373791D01*
X201141880Y-106332310D01*
X201141880Y-105656090D01*
X201145965Y-105614609D01*
X201156273Y-105580631D01*
X201173014Y-105549310D01*
X201195541Y-105521861D01*
X201222990Y-105499334D01*
X201254311Y-105482593D01*
X201288289Y-105472285D01*
X201329770Y-105468200D01*
X201930990Y-105468200D01*
X201972471Y-105472285D01*
G37*
G36*
X200397471Y-105472285D02*
G01*
X200431449Y-105482593D01*
X200462770Y-105499334D01*
X200490219Y-105521861D01*
X200512746Y-105549310D01*
X200529487Y-105580631D01*
X200539795Y-105614609D01*
X200543880Y-105656090D01*
X200543880Y-106332310D01*
X200539795Y-106373791D01*
X200529487Y-106407769D01*
X200512746Y-106439090D01*
X200490219Y-106466539D01*
X200462770Y-106489066D01*
X200431449Y-106505807D01*
X200397471Y-106516115D01*
X200355990Y-106520200D01*
X199754770Y-106520200D01*
X199713289Y-106516115D01*
X199679311Y-106505807D01*
X199647990Y-106489066D01*
X199620541Y-106466539D01*
X199598014Y-106439090D01*
X199581273Y-106407769D01*
X199570965Y-106373791D01*
X199566880Y-106332310D01*
X199566880Y-105656090D01*
X199570965Y-105614609D01*
X199581273Y-105580631D01*
X199598014Y-105549310D01*
X199620541Y-105521861D01*
X199647990Y-105499334D01*
X199679311Y-105482593D01*
X199713289Y-105472285D01*
X199754770Y-105468200D01*
X200355990Y-105468200D01*
X200397471Y-105472285D01*
G37*
G36*
X205775948Y-105381644D02*
G01*
X205797029Y-105388040D01*
X205816465Y-105398428D01*
X205833496Y-105412404D01*
X205847472Y-105429435D01*
X205857860Y-105448871D01*
X205864256Y-105469952D01*
X205867020Y-105498020D01*
X205867020Y-105961740D01*
X205864256Y-105989808D01*
X205857860Y-106010889D01*
X205847472Y-106030325D01*
X205833496Y-106047356D01*
X205816465Y-106061332D01*
X205797029Y-106071720D01*
X205775948Y-106078116D01*
X205747880Y-106080880D01*
X204184160Y-106080880D01*
X204156092Y-106078116D01*
X204135011Y-106071720D01*
X204115575Y-106061332D01*
X204098544Y-106047356D01*
X204084568Y-106030325D01*
X204074180Y-106010889D01*
X204067784Y-105989808D01*
X204065020Y-105961740D01*
X204065020Y-105498020D01*
X204067784Y-105469952D01*
X204074180Y-105448871D01*
X204084568Y-105429435D01*
X204098544Y-105412404D01*
X204115575Y-105398428D01*
X204135011Y-105388040D01*
X204156092Y-105381644D01*
X204184160Y-105378880D01*
X205747880Y-105378880D01*
X205775948Y-105381644D01*
G37*
G36*
X161827571Y-104941425D02*
G01*
X161861549Y-104951733D01*
X161892870Y-104968474D01*
X161920319Y-104991001D01*
X161942846Y-105018450D01*
X161959587Y-105049771D01*
X161969895Y-105083749D01*
X161973980Y-105125230D01*
X161973980Y-105801450D01*
X161969895Y-105842931D01*
X161959587Y-105876909D01*
X161942846Y-105908230D01*
X161920319Y-105935679D01*
X161892870Y-105958206D01*
X161861549Y-105974947D01*
X161827571Y-105985255D01*
X161786090Y-105989340D01*
X161184870Y-105989340D01*
X161143389Y-105985255D01*
X161109411Y-105974947D01*
X161078090Y-105958206D01*
X161050641Y-105935679D01*
X161028114Y-105908230D01*
X161011373Y-105876909D01*
X161001065Y-105842931D01*
X160996980Y-105801450D01*
X160996980Y-105125230D01*
X161001065Y-105083749D01*
X161011373Y-105049771D01*
X161028114Y-105018450D01*
X161050641Y-104991001D01*
X161078090Y-104968474D01*
X161109411Y-104951733D01*
X161143389Y-104941425D01*
X161184870Y-104937340D01*
X161786090Y-104937340D01*
X161827571Y-104941425D01*
G37*
G36*
X163402571Y-104941425D02*
G01*
X163436549Y-104951733D01*
X163467870Y-104968474D01*
X163495319Y-104991001D01*
X163517846Y-105018450D01*
X163534587Y-105049771D01*
X163544895Y-105083749D01*
X163548980Y-105125230D01*
X163548980Y-105801450D01*
X163544895Y-105842931D01*
X163534587Y-105876909D01*
X163517846Y-105908230D01*
X163495319Y-105935679D01*
X163467870Y-105958206D01*
X163436549Y-105974947D01*
X163402571Y-105985255D01*
X163361090Y-105989340D01*
X162759870Y-105989340D01*
X162718389Y-105985255D01*
X162684411Y-105974947D01*
X162653090Y-105958206D01*
X162625641Y-105935679D01*
X162603114Y-105908230D01*
X162586373Y-105876909D01*
X162576065Y-105842931D01*
X162571980Y-105801450D01*
X162571980Y-105125230D01*
X162576065Y-105083749D01*
X162586373Y-105049771D01*
X162603114Y-105018450D01*
X162625641Y-104991001D01*
X162653090Y-104968474D01*
X162684411Y-104951733D01*
X162718389Y-104941425D01*
X162759870Y-104937340D01*
X163361090Y-104937340D01*
X163402571Y-104941425D01*
G37*
G36*
X181469591Y-104278485D02*
G01*
X181503569Y-104288793D01*
X181534890Y-104305534D01*
X181562339Y-104328061D01*
X181584866Y-104355510D01*
X181601607Y-104386831D01*
X181611915Y-104420809D01*
X181616000Y-104462290D01*
X181616000Y-105138510D01*
X181611915Y-105179991D01*
X181601607Y-105213969D01*
X181584866Y-105245290D01*
X181562339Y-105272739D01*
X181534890Y-105295266D01*
X181503569Y-105312007D01*
X181469591Y-105322315D01*
X181428110Y-105326400D01*
X180826890Y-105326400D01*
X180785409Y-105322315D01*
X180751431Y-105312007D01*
X180720110Y-105295266D01*
X180692661Y-105272739D01*
X180670134Y-105245290D01*
X180653393Y-105213969D01*
X180643085Y-105179991D01*
X180639000Y-105138510D01*
X180639000Y-104462290D01*
X180643085Y-104420809D01*
X180653393Y-104386831D01*
X180670134Y-104355510D01*
X180692661Y-104328061D01*
X180720110Y-104305534D01*
X180751431Y-104288793D01*
X180785409Y-104278485D01*
X180826890Y-104274400D01*
X181428110Y-104274400D01*
X181469591Y-104278485D01*
G37*
G36*
X179894591Y-104278485D02*
G01*
X179928569Y-104288793D01*
X179959890Y-104305534D01*
X179987339Y-104328061D01*
X180009866Y-104355510D01*
X180026607Y-104386831D01*
X180036915Y-104420809D01*
X180041000Y-104462290D01*
X180041000Y-105138510D01*
X180036915Y-105179991D01*
X180026607Y-105213969D01*
X180009866Y-105245290D01*
X179987339Y-105272739D01*
X179959890Y-105295266D01*
X179928569Y-105312007D01*
X179894591Y-105322315D01*
X179853110Y-105326400D01*
X179251890Y-105326400D01*
X179210409Y-105322315D01*
X179176431Y-105312007D01*
X179145110Y-105295266D01*
X179117661Y-105272739D01*
X179095134Y-105245290D01*
X179078393Y-105213969D01*
X179068085Y-105179991D01*
X179064000Y-105138510D01*
X179064000Y-104462290D01*
X179068085Y-104420809D01*
X179078393Y-104386831D01*
X179095134Y-104355510D01*
X179117661Y-104328061D01*
X179145110Y-104305534D01*
X179176431Y-104288793D01*
X179210409Y-104278485D01*
X179251890Y-104274400D01*
X179853110Y-104274400D01*
X179894591Y-104278485D01*
G37*
G36*
X200397471Y-103897485D02*
G01*
X200431449Y-103907793D01*
X200462770Y-103924534D01*
X200490219Y-103947061D01*
X200512746Y-103974510D01*
X200529487Y-104005831D01*
X200539795Y-104039809D01*
X200543880Y-104081290D01*
X200543880Y-104757510D01*
X200539795Y-104798991D01*
X200529487Y-104832969D01*
X200512746Y-104864290D01*
X200490219Y-104891739D01*
X200462770Y-104914266D01*
X200431449Y-104931007D01*
X200397471Y-104941315D01*
X200355990Y-104945400D01*
X199754770Y-104945400D01*
X199713289Y-104941315D01*
X199679311Y-104931007D01*
X199647990Y-104914266D01*
X199620541Y-104891739D01*
X199598014Y-104864290D01*
X199581273Y-104832969D01*
X199570965Y-104798991D01*
X199566880Y-104757510D01*
X199566880Y-104081290D01*
X199570965Y-104039809D01*
X199581273Y-104005831D01*
X199598014Y-103974510D01*
X199620541Y-103947061D01*
X199647990Y-103924534D01*
X199679311Y-103907793D01*
X199713289Y-103897485D01*
X199754770Y-103893400D01*
X200355990Y-103893400D01*
X200397471Y-103897485D01*
G37*
G36*
X201972471Y-103897485D02*
G01*
X202006449Y-103907793D01*
X202037770Y-103924534D01*
X202065219Y-103947061D01*
X202087746Y-103974510D01*
X202104487Y-104005831D01*
X202114795Y-104039809D01*
X202118880Y-104081290D01*
X202118880Y-104757510D01*
X202114795Y-104798991D01*
X202104487Y-104832969D01*
X202087746Y-104864290D01*
X202065219Y-104891739D01*
X202037770Y-104914266D01*
X202006449Y-104931007D01*
X201972471Y-104941315D01*
X201930990Y-104945400D01*
X201329770Y-104945400D01*
X201288289Y-104941315D01*
X201254311Y-104931007D01*
X201222990Y-104914266D01*
X201195541Y-104891739D01*
X201173014Y-104864290D01*
X201156273Y-104832969D01*
X201145965Y-104798991D01*
X201141880Y-104757510D01*
X201141880Y-104081290D01*
X201145965Y-104039809D01*
X201156273Y-104005831D01*
X201173014Y-103974510D01*
X201195541Y-103947061D01*
X201222990Y-103924534D01*
X201254311Y-103907793D01*
X201288289Y-103897485D01*
X201329770Y-103893400D01*
X201930990Y-103893400D01*
X201972471Y-103897485D01*
G37*
G36*
X205775948Y-104131644D02*
G01*
X205797029Y-104138040D01*
X205816465Y-104148428D01*
X205833496Y-104162404D01*
X205847472Y-104179435D01*
X205857860Y-104198871D01*
X205864256Y-104219952D01*
X205867020Y-104248020D01*
X205867020Y-104711740D01*
X205864256Y-104739808D01*
X205857860Y-104760889D01*
X205847472Y-104780325D01*
X205833496Y-104797356D01*
X205816465Y-104811332D01*
X205797029Y-104821720D01*
X205775948Y-104828116D01*
X205747880Y-104830880D01*
X204184160Y-104830880D01*
X204156092Y-104828116D01*
X204135011Y-104821720D01*
X204115575Y-104811332D01*
X204098544Y-104797356D01*
X204084568Y-104780325D01*
X204074180Y-104760889D01*
X204067784Y-104739808D01*
X204065020Y-104711740D01*
X204065020Y-104248020D01*
X204067784Y-104219952D01*
X204074180Y-104198871D01*
X204084568Y-104179435D01*
X204098544Y-104162404D01*
X204115575Y-104148428D01*
X204135011Y-104138040D01*
X204156092Y-104131644D01*
X204184160Y-104128880D01*
X205747880Y-104128880D01*
X205775948Y-104131644D01*
G37*
G36*
X193556899Y-103402045D02*
G01*
X193594395Y-103413420D01*
X193628954Y-103431892D01*
X193659247Y-103456753D01*
X193684108Y-103487046D01*
X193702580Y-103521605D01*
X193713955Y-103559101D01*
X193718400Y-103604238D01*
X193718400Y-104342962D01*
X193713955Y-104388099D01*
X193702580Y-104425595D01*
X193684108Y-104460154D01*
X193659247Y-104490447D01*
X193628954Y-104515308D01*
X193594395Y-104533780D01*
X193556899Y-104545155D01*
X193511762Y-104549600D01*
X192873038Y-104549600D01*
X192827901Y-104545155D01*
X192790405Y-104533780D01*
X192755846Y-104515308D01*
X192725553Y-104490447D01*
X192700692Y-104460154D01*
X192682220Y-104425595D01*
X192670845Y-104388099D01*
X192666400Y-104342962D01*
X192666400Y-103604238D01*
X192670845Y-103559101D01*
X192682220Y-103521605D01*
X192700692Y-103487046D01*
X192725553Y-103456753D01*
X192755846Y-103431892D01*
X192790405Y-103413420D01*
X192827901Y-103402045D01*
X192873038Y-103397600D01*
X193511762Y-103397600D01*
X193556899Y-103402045D01*
G37*
G36*
X195106299Y-103402045D02*
G01*
X195143795Y-103413420D01*
X195178354Y-103431892D01*
X195208647Y-103456753D01*
X195233508Y-103487046D01*
X195251980Y-103521605D01*
X195263355Y-103559101D01*
X195267800Y-103604238D01*
X195267800Y-104342962D01*
X195263355Y-104388099D01*
X195251980Y-104425595D01*
X195233508Y-104460154D01*
X195208647Y-104490447D01*
X195178354Y-104515308D01*
X195143795Y-104533780D01*
X195106299Y-104545155D01*
X195061162Y-104549600D01*
X194422438Y-104549600D01*
X194377301Y-104545155D01*
X194339805Y-104533780D01*
X194305246Y-104515308D01*
X194274953Y-104490447D01*
X194250092Y-104460154D01*
X194231620Y-104425595D01*
X194220245Y-104388099D01*
X194215800Y-104342962D01*
X194215800Y-103604238D01*
X194220245Y-103559101D01*
X194231620Y-103521605D01*
X194250092Y-103487046D01*
X194274953Y-103456753D01*
X194305246Y-103431892D01*
X194339805Y-103413420D01*
X194377301Y-103402045D01*
X194422438Y-103397600D01*
X195061162Y-103397600D01*
X195106299Y-103402045D01*
G37*
G36*
X161827571Y-103371705D02*
G01*
X161861549Y-103382013D01*
X161892870Y-103398754D01*
X161920319Y-103421281D01*
X161942846Y-103448730D01*
X161959587Y-103480051D01*
X161969895Y-103514029D01*
X161973980Y-103555510D01*
X161973980Y-104231730D01*
X161969895Y-104273211D01*
X161959587Y-104307189D01*
X161942846Y-104338510D01*
X161920319Y-104365959D01*
X161892870Y-104388486D01*
X161861549Y-104405227D01*
X161827571Y-104415535D01*
X161786090Y-104419620D01*
X161184870Y-104419620D01*
X161143389Y-104415535D01*
X161109411Y-104405227D01*
X161078090Y-104388486D01*
X161050641Y-104365959D01*
X161028114Y-104338510D01*
X161011373Y-104307189D01*
X161001065Y-104273211D01*
X160996980Y-104231730D01*
X160996980Y-103555510D01*
X161001065Y-103514029D01*
X161011373Y-103480051D01*
X161028114Y-103448730D01*
X161050641Y-103421281D01*
X161078090Y-103398754D01*
X161109411Y-103382013D01*
X161143389Y-103371705D01*
X161184870Y-103367620D01*
X161786090Y-103367620D01*
X161827571Y-103371705D01*
G37*
G36*
X163402571Y-103371705D02*
G01*
X163436549Y-103382013D01*
X163467870Y-103398754D01*
X163495319Y-103421281D01*
X163517846Y-103448730D01*
X163534587Y-103480051D01*
X163544895Y-103514029D01*
X163548980Y-103555510D01*
X163548980Y-104231730D01*
X163544895Y-104273211D01*
X163534587Y-104307189D01*
X163517846Y-104338510D01*
X163495319Y-104365959D01*
X163467870Y-104388486D01*
X163436549Y-104405227D01*
X163402571Y-104415535D01*
X163361090Y-104419620D01*
X162759870Y-104419620D01*
X162718389Y-104415535D01*
X162684411Y-104405227D01*
X162653090Y-104388486D01*
X162625641Y-104365959D01*
X162603114Y-104338510D01*
X162586373Y-104307189D01*
X162576065Y-104273211D01*
X162571980Y-104231730D01*
X162571980Y-103555510D01*
X162576065Y-103514029D01*
X162586373Y-103480051D01*
X162603114Y-103448730D01*
X162625641Y-103421281D01*
X162653090Y-103398754D01*
X162684411Y-103382013D01*
X162718389Y-103371705D01*
X162759870Y-103367620D01*
X163361090Y-103367620D01*
X163402571Y-103371705D01*
G37*
G36*
X157664912Y-103672289D02*
G01*
X157664914Y-103672290D01*
X157664915Y-103672290D01*
X157733343Y-103700633D01*
X157794926Y-103741782D01*
X157847298Y-103794154D01*
X157888447Y-103855737D01*
X157911748Y-103911992D01*
X157916791Y-103924168D01*
X157931240Y-103996806D01*
X157931240Y-104070874D01*
X157919031Y-104132252D01*
X157916790Y-104143515D01*
X157888447Y-104211943D01*
X157847298Y-104273526D01*
X157794926Y-104325898D01*
X157733343Y-104367047D01*
X157664915Y-104395390D01*
X157664914Y-104395390D01*
X157664912Y-104395391D01*
X157592274Y-104409840D01*
X157518206Y-104409840D01*
X157445568Y-104395391D01*
X157445566Y-104395390D01*
X157445565Y-104395390D01*
X157377137Y-104367047D01*
X157315554Y-104325898D01*
X157263182Y-104273526D01*
X157222033Y-104211943D01*
X157193690Y-104143515D01*
X157191450Y-104132252D01*
X157179240Y-104070874D01*
X157179240Y-103996806D01*
X157193689Y-103924168D01*
X157198732Y-103911992D01*
X157222033Y-103855737D01*
X157263182Y-103794154D01*
X157315554Y-103741782D01*
X157377137Y-103700633D01*
X157445565Y-103672290D01*
X157445566Y-103672290D01*
X157445568Y-103672289D01*
X157518206Y-103657840D01*
X157592274Y-103657840D01*
X157664912Y-103672289D01*
G37*
G36*
X205775948Y-102881644D02*
G01*
X205797029Y-102888040D01*
X205816465Y-102898428D01*
X205833496Y-102912404D01*
X205847472Y-102929435D01*
X205857860Y-102948871D01*
X205864256Y-102969952D01*
X205867020Y-102998020D01*
X205867020Y-103461740D01*
X205864256Y-103489808D01*
X205857860Y-103510889D01*
X205847472Y-103530325D01*
X205833496Y-103547356D01*
X205816465Y-103561332D01*
X205797029Y-103571720D01*
X205775948Y-103578116D01*
X205747880Y-103580880D01*
X204184160Y-103580880D01*
X204156092Y-103578116D01*
X204135011Y-103571720D01*
X204115575Y-103561332D01*
X204098544Y-103547356D01*
X204084568Y-103530325D01*
X204074180Y-103510889D01*
X204067784Y-103489808D01*
X204065020Y-103461740D01*
X204065020Y-102998020D01*
X204067784Y-102969952D01*
X204074180Y-102948871D01*
X204084568Y-102929435D01*
X204098544Y-102912404D01*
X204115575Y-102898428D01*
X204135011Y-102888040D01*
X204156092Y-102881644D01*
X204184160Y-102878880D01*
X205747880Y-102878880D01*
X205775948Y-102881644D01*
G37*
G36*
X185465440Y-103466600D02*
G01*
X184113440Y-103466600D01*
X184113440Y-100864600D01*
X185465440Y-100864600D01*
X185465440Y-103466600D01*
G37*
G36*
X187965440Y-103466600D02*
G01*
X186613440Y-103466600D01*
X186613440Y-100864600D01*
X187965440Y-100864600D01*
X187965440Y-103466600D01*
G37*
G36*
X190465440Y-103466600D02*
G01*
X189113440Y-103466600D01*
X189113440Y-100864600D01*
X190465440Y-100864600D01*
X190465440Y-103466600D01*
G37*
G36*
X201972471Y-102111865D02*
G01*
X202006449Y-102122173D01*
X202037770Y-102138914D01*
X202065219Y-102161441D01*
X202087746Y-102188890D01*
X202104487Y-102220211D01*
X202114795Y-102254189D01*
X202118880Y-102295670D01*
X202118880Y-102971890D01*
X202114795Y-103013371D01*
X202104487Y-103047349D01*
X202087746Y-103078670D01*
X202065219Y-103106119D01*
X202037770Y-103128646D01*
X202006449Y-103145387D01*
X201972471Y-103155695D01*
X201930990Y-103159780D01*
X201329770Y-103159780D01*
X201288289Y-103155695D01*
X201254311Y-103145387D01*
X201222990Y-103128646D01*
X201195541Y-103106119D01*
X201173014Y-103078670D01*
X201156273Y-103047349D01*
X201145965Y-103013371D01*
X201141880Y-102971890D01*
X201141880Y-102295670D01*
X201145965Y-102254189D01*
X201156273Y-102220211D01*
X201173014Y-102188890D01*
X201195541Y-102161441D01*
X201222990Y-102138914D01*
X201254311Y-102122173D01*
X201288289Y-102111865D01*
X201329770Y-102107780D01*
X201930990Y-102107780D01*
X201972471Y-102111865D01*
G37*
G36*
X200397471Y-102111865D02*
G01*
X200431449Y-102122173D01*
X200462770Y-102138914D01*
X200490219Y-102161441D01*
X200512746Y-102188890D01*
X200529487Y-102220211D01*
X200539795Y-102254189D01*
X200543880Y-102295670D01*
X200543880Y-102971890D01*
X200539795Y-103013371D01*
X200529487Y-103047349D01*
X200512746Y-103078670D01*
X200490219Y-103106119D01*
X200462770Y-103128646D01*
X200431449Y-103145387D01*
X200397471Y-103155695D01*
X200355990Y-103159780D01*
X199754770Y-103159780D01*
X199713289Y-103155695D01*
X199679311Y-103145387D01*
X199647990Y-103128646D01*
X199620541Y-103106119D01*
X199598014Y-103078670D01*
X199581273Y-103047349D01*
X199570965Y-103013371D01*
X199566880Y-102971890D01*
X199566880Y-102295670D01*
X199570965Y-102254189D01*
X199581273Y-102220211D01*
X199598014Y-102188890D01*
X199620541Y-102161441D01*
X199647990Y-102138914D01*
X199679311Y-102122173D01*
X199713289Y-102111865D01*
X199754770Y-102107780D01*
X200355990Y-102107780D01*
X200397471Y-102111865D01*
G37*
G36*
X154313255Y-102060813D02*
G01*
X154417119Y-102092319D01*
X154444295Y-102106845D01*
X154512840Y-102143483D01*
X154596741Y-102212339D01*
X154665597Y-102296240D01*
X154695417Y-102352030D01*
X154716761Y-102391961D01*
X154748267Y-102495825D01*
X154758906Y-102603840D01*
X154748267Y-102711855D01*
X154716761Y-102815719D01*
X154716759Y-102815722D01*
X154665597Y-102911440D01*
X154596741Y-102995341D01*
X154512840Y-103064197D01*
X154452330Y-103096540D01*
X154417119Y-103115361D01*
X154313255Y-103146867D01*
X154232307Y-103154840D01*
X153578173Y-103154840D01*
X153497225Y-103146867D01*
X153393361Y-103115361D01*
X153358150Y-103096540D01*
X153297640Y-103064197D01*
X153213739Y-102995341D01*
X153144883Y-102911440D01*
X153093721Y-102815722D01*
X153093719Y-102815719D01*
X153062213Y-102711855D01*
X153051574Y-102603840D01*
X153062213Y-102495825D01*
X153093719Y-102391961D01*
X153115063Y-102352030D01*
X153144883Y-102296240D01*
X153213739Y-102212339D01*
X153297640Y-102143483D01*
X153366185Y-102106845D01*
X153393361Y-102092319D01*
X153497225Y-102060813D01*
X153578173Y-102052840D01*
X154232307Y-102052840D01*
X154313255Y-102060813D01*
G37*
G36*
X162741760Y-102897800D02*
G01*
X161839760Y-102897800D01*
X161839760Y-101895800D01*
X162741760Y-101895800D01*
X162741760Y-102897800D01*
G37*
G36*
X195121391Y-100582285D02*
G01*
X195155369Y-100592593D01*
X195186690Y-100609334D01*
X195214139Y-100631861D01*
X195236666Y-100659310D01*
X195253407Y-100690631D01*
X195263715Y-100724609D01*
X195267800Y-100766090D01*
X195267800Y-101367310D01*
X195263715Y-101408791D01*
X195253407Y-101442769D01*
X195236666Y-101474090D01*
X195214140Y-101501538D01*
X195204103Y-101509775D01*
X195186777Y-101527103D01*
X195173163Y-101547477D01*
X195163787Y-101570116D01*
X195159007Y-101594150D01*
X195159007Y-101618654D01*
X195163788Y-101642687D01*
X195173166Y-101665326D01*
X195186780Y-101685700D01*
X195204105Y-101703024D01*
X195208645Y-101706750D01*
X195233508Y-101737046D01*
X195251980Y-101771605D01*
X195263355Y-101809101D01*
X195267800Y-101854238D01*
X195267800Y-102592962D01*
X195263355Y-102638099D01*
X195251980Y-102675595D01*
X195233508Y-102710154D01*
X195208647Y-102740447D01*
X195178354Y-102765308D01*
X195143795Y-102783780D01*
X195106299Y-102795155D01*
X195061162Y-102799600D01*
X194422438Y-102799600D01*
X194377301Y-102795155D01*
X194339805Y-102783780D01*
X194305246Y-102765308D01*
X194274953Y-102740447D01*
X194250092Y-102710154D01*
X194231620Y-102675595D01*
X194220245Y-102638099D01*
X194215800Y-102592962D01*
X194215800Y-101854238D01*
X194220245Y-101809101D01*
X194231620Y-101771605D01*
X194250092Y-101737046D01*
X194274955Y-101706750D01*
X194279495Y-101703024D01*
X194296822Y-101685697D01*
X194310435Y-101665323D01*
X194319813Y-101642684D01*
X194324593Y-101618651D01*
X194324593Y-101594147D01*
X194319812Y-101570113D01*
X194310435Y-101547475D01*
X194296821Y-101527100D01*
X194279497Y-101509775D01*
X194269460Y-101501538D01*
X194246934Y-101474090D01*
X194230193Y-101442769D01*
X194219885Y-101408791D01*
X194215800Y-101367310D01*
X194215800Y-100766090D01*
X194219885Y-100724609D01*
X194230193Y-100690631D01*
X194246934Y-100659310D01*
X194269461Y-100631861D01*
X194296910Y-100609334D01*
X194328231Y-100592593D01*
X194362209Y-100582285D01*
X194403690Y-100578200D01*
X195079910Y-100578200D01*
X195121391Y-100582285D01*
G37*
G36*
X193571991Y-100582385D02*
G01*
X193605969Y-100592693D01*
X193637290Y-100609434D01*
X193664739Y-100631961D01*
X193687266Y-100659410D01*
X193704007Y-100690731D01*
X193714315Y-100724709D01*
X193718400Y-100766190D01*
X193718400Y-101367410D01*
X193714315Y-101408891D01*
X193704007Y-101442869D01*
X193687266Y-101474190D01*
X193664740Y-101501638D01*
X193654764Y-101509825D01*
X193637438Y-101527153D01*
X193623824Y-101547528D01*
X193614448Y-101570167D01*
X193609668Y-101594200D01*
X193609668Y-101618704D01*
X193614449Y-101642737D01*
X193623827Y-101665376D01*
X193637441Y-101685750D01*
X193654766Y-101703074D01*
X193659244Y-101706749D01*
X193684108Y-101737046D01*
X193702580Y-101771605D01*
X193713955Y-101809101D01*
X193718400Y-101854238D01*
X193718400Y-102592962D01*
X193713955Y-102638099D01*
X193702580Y-102675595D01*
X193684108Y-102710154D01*
X193659247Y-102740447D01*
X193628954Y-102765308D01*
X193594395Y-102783780D01*
X193556899Y-102795155D01*
X193511762Y-102799600D01*
X192873038Y-102799600D01*
X192827901Y-102795155D01*
X192790405Y-102783780D01*
X192755846Y-102765308D01*
X192725553Y-102740447D01*
X192700692Y-102710154D01*
X192682220Y-102675595D01*
X192670845Y-102638099D01*
X192666400Y-102592962D01*
X192666400Y-101854238D01*
X192670845Y-101809101D01*
X192682220Y-101771605D01*
X192700692Y-101737046D01*
X192725556Y-101706749D01*
X192730034Y-101703074D01*
X192747361Y-101685747D01*
X192760975Y-101665372D01*
X192770352Y-101642734D01*
X192775132Y-101618700D01*
X192775132Y-101594196D01*
X192770351Y-101570163D01*
X192760974Y-101547524D01*
X192747360Y-101527150D01*
X192730036Y-101509825D01*
X192720060Y-101501638D01*
X192697534Y-101474190D01*
X192680793Y-101442869D01*
X192670485Y-101408891D01*
X192666400Y-101367410D01*
X192666400Y-100766190D01*
X192670485Y-100724709D01*
X192680793Y-100690731D01*
X192697534Y-100659410D01*
X192720061Y-100631961D01*
X192747510Y-100609434D01*
X192778831Y-100592693D01*
X192812809Y-100582385D01*
X192854290Y-100578300D01*
X193530510Y-100578300D01*
X193571991Y-100582385D01*
G37*
G36*
X209595454Y-100833566D02*
G01*
X209635304Y-100845654D01*
X209672019Y-100865279D01*
X209704206Y-100891694D01*
X209730621Y-100923881D01*
X209750246Y-100960596D01*
X209762334Y-101000446D01*
X209767020Y-101048021D01*
X209767020Y-101711739D01*
X209762334Y-101759314D01*
X209750246Y-101799164D01*
X209730621Y-101835879D01*
X209704206Y-101868066D01*
X209672019Y-101894481D01*
X209635304Y-101914106D01*
X209595454Y-101926194D01*
X209547879Y-101930880D01*
X207084161Y-101930880D01*
X207036586Y-101926194D01*
X206996736Y-101914106D01*
X206960021Y-101894481D01*
X206927834Y-101868066D01*
X206901419Y-101835879D01*
X206881794Y-101799164D01*
X206869706Y-101759314D01*
X206865020Y-101711739D01*
X206865020Y-101048021D01*
X206869706Y-101000446D01*
X206881794Y-100960596D01*
X206901419Y-100923881D01*
X206927834Y-100891694D01*
X206960021Y-100865279D01*
X206996736Y-100845654D01*
X207036586Y-100833566D01*
X207084161Y-100828880D01*
X209547879Y-100828880D01*
X209595454Y-100833566D01*
G37*
G36*
X202013880Y-100456121D02*
G01*
X202016282Y-100480507D01*
X202023395Y-100503956D01*
X202034946Y-100525567D01*
X202050491Y-100544509D01*
X202069433Y-100560054D01*
X202091044Y-100571605D01*
X202114493Y-100578718D01*
X202138879Y-100581120D01*
X202163880Y-100581120D01*
X202163880Y-100983120D01*
X202138879Y-100983120D01*
X202114493Y-100985522D01*
X202091044Y-100992635D01*
X202069433Y-101004186D01*
X202050491Y-101019731D01*
X202034946Y-101038673D01*
X202023395Y-101060284D01*
X202016282Y-101083733D01*
X202013880Y-101108119D01*
X202013880Y-101558120D01*
X201411880Y-101558120D01*
X201411880Y-100006120D01*
X202013880Y-100006120D01*
X202013880Y-100456121D01*
G37*
G36*
X200313880Y-101558120D02*
G01*
X199711880Y-101558120D01*
X199711880Y-101108119D01*
X199709478Y-101083733D01*
X199702365Y-101060284D01*
X199690814Y-101038673D01*
X199675269Y-101019731D01*
X199656327Y-101004186D01*
X199634716Y-100992635D01*
X199611267Y-100985522D01*
X199586881Y-100983120D01*
X199561880Y-100983120D01*
X199561880Y-100581120D01*
X199586881Y-100581120D01*
X199611267Y-100578718D01*
X199634716Y-100571605D01*
X199656327Y-100560054D01*
X199675269Y-100544509D01*
X199690814Y-100525567D01*
X199702365Y-100503956D01*
X199709478Y-100480507D01*
X199711880Y-100456121D01*
X199711880Y-100006120D01*
X200313880Y-100006120D01*
X200313880Y-101558120D01*
G37*
G36*
X158307131Y-100171305D02*
G01*
X158341109Y-100181613D01*
X158372430Y-100198354D01*
X158399879Y-100220881D01*
X158422406Y-100248330D01*
X158439147Y-100279651D01*
X158449455Y-100313629D01*
X158453540Y-100355110D01*
X158453540Y-101031330D01*
X158449455Y-101072811D01*
X158439147Y-101106789D01*
X158422406Y-101138110D01*
X158399879Y-101165559D01*
X158372430Y-101188086D01*
X158341109Y-101204827D01*
X158307131Y-101215135D01*
X158265650Y-101219220D01*
X157664430Y-101219220D01*
X157622949Y-101215135D01*
X157588971Y-101204827D01*
X157557650Y-101188086D01*
X157530201Y-101165559D01*
X157507674Y-101138110D01*
X157490933Y-101106789D01*
X157480625Y-101072811D01*
X157476540Y-101031330D01*
X157476540Y-100355110D01*
X157480625Y-100313629D01*
X157490933Y-100279651D01*
X157507674Y-100248330D01*
X157530201Y-100220881D01*
X157557650Y-100198354D01*
X157588971Y-100181613D01*
X157622949Y-100171305D01*
X157664430Y-100167220D01*
X158265650Y-100167220D01*
X158307131Y-100171305D01*
G37*
G36*
X159882131Y-100171305D02*
G01*
X159916109Y-100181613D01*
X159947430Y-100198354D01*
X159974879Y-100220881D01*
X159997406Y-100248330D01*
X160014147Y-100279651D01*
X160024455Y-100313629D01*
X160028540Y-100355110D01*
X160028540Y-101031330D01*
X160024455Y-101072811D01*
X160014147Y-101106789D01*
X159997406Y-101138110D01*
X159974879Y-101165559D01*
X159947430Y-101188086D01*
X159916109Y-101204827D01*
X159882131Y-101215135D01*
X159840650Y-101219220D01*
X159239430Y-101219220D01*
X159197949Y-101215135D01*
X159163971Y-101204827D01*
X159132650Y-101188086D01*
X159105201Y-101165559D01*
X159082674Y-101138110D01*
X159065933Y-101106789D01*
X159055625Y-101072811D01*
X159051540Y-101031330D01*
X159051540Y-100355110D01*
X159055625Y-100313629D01*
X159065933Y-100279651D01*
X159082674Y-100248330D01*
X159105201Y-100220881D01*
X159132650Y-100198354D01*
X159163971Y-100181613D01*
X159197949Y-100171305D01*
X159239430Y-100167220D01*
X159840650Y-100167220D01*
X159882131Y-100171305D01*
G37*
G36*
X167710275Y-99547863D02*
G01*
X167717289Y-99549991D01*
X167731057Y-99557350D01*
X167753696Y-99566727D01*
X167777729Y-99571507D01*
X167802233Y-99571507D01*
X167826266Y-99566726D01*
X167848903Y-99557350D01*
X167862671Y-99549991D01*
X167869685Y-99547863D01*
X167883120Y-99546540D01*
X168196840Y-99546540D01*
X168210275Y-99547863D01*
X168217289Y-99549991D01*
X168231057Y-99557350D01*
X168253696Y-99566727D01*
X168277729Y-99571507D01*
X168302233Y-99571507D01*
X168326266Y-99566726D01*
X168348903Y-99557350D01*
X168362671Y-99549991D01*
X168369685Y-99547863D01*
X168383120Y-99546540D01*
X168696840Y-99546540D01*
X168710275Y-99547863D01*
X168717289Y-99549991D01*
X168731057Y-99557350D01*
X168753696Y-99566727D01*
X168777729Y-99571507D01*
X168802233Y-99571507D01*
X168826266Y-99566726D01*
X168848903Y-99557350D01*
X168862671Y-99549991D01*
X168869685Y-99547863D01*
X168883120Y-99546540D01*
X169196840Y-99546540D01*
X169210275Y-99547863D01*
X169217289Y-99549991D01*
X169231057Y-99557350D01*
X169253696Y-99566727D01*
X169277729Y-99571507D01*
X169302233Y-99571507D01*
X169326266Y-99566726D01*
X169348903Y-99557350D01*
X169362671Y-99549991D01*
X169369685Y-99547863D01*
X169383120Y-99546540D01*
X169696840Y-99546540D01*
X169710275Y-99547863D01*
X169717289Y-99549991D01*
X169731057Y-99557350D01*
X169753696Y-99566727D01*
X169777729Y-99571507D01*
X169802233Y-99571507D01*
X169826266Y-99566726D01*
X169848903Y-99557350D01*
X169862671Y-99549991D01*
X169869685Y-99547863D01*
X169883120Y-99546540D01*
X170196840Y-99546540D01*
X170210275Y-99547863D01*
X170217289Y-99549991D01*
X170231057Y-99557350D01*
X170253696Y-99566727D01*
X170277729Y-99571507D01*
X170302233Y-99571507D01*
X170326266Y-99566726D01*
X170348903Y-99557350D01*
X170362671Y-99549991D01*
X170369685Y-99547863D01*
X170383120Y-99546540D01*
X170696840Y-99546540D01*
X170710275Y-99547863D01*
X170717289Y-99549991D01*
X170731057Y-99557350D01*
X170753696Y-99566727D01*
X170777729Y-99571507D01*
X170802233Y-99571507D01*
X170826266Y-99566726D01*
X170848903Y-99557350D01*
X170862671Y-99549991D01*
X170869685Y-99547863D01*
X170883120Y-99546540D01*
X171196840Y-99546540D01*
X171210275Y-99547863D01*
X171217289Y-99549991D01*
X171231057Y-99557350D01*
X171253696Y-99566727D01*
X171277729Y-99571507D01*
X171302233Y-99571507D01*
X171326266Y-99566726D01*
X171348903Y-99557350D01*
X171362671Y-99549991D01*
X171369685Y-99547863D01*
X171383120Y-99546540D01*
X171696840Y-99546540D01*
X171710275Y-99547863D01*
X171717289Y-99549991D01*
X171731057Y-99557350D01*
X171753696Y-99566727D01*
X171777729Y-99571507D01*
X171802233Y-99571507D01*
X171826266Y-99566726D01*
X171848903Y-99557350D01*
X171862671Y-99549991D01*
X171869685Y-99547863D01*
X171883120Y-99546540D01*
X172196840Y-99546540D01*
X172210275Y-99547863D01*
X172217289Y-99549991D01*
X172231057Y-99557350D01*
X172253696Y-99566727D01*
X172277729Y-99571507D01*
X172302233Y-99571507D01*
X172326266Y-99566726D01*
X172348903Y-99557350D01*
X172362671Y-99549991D01*
X172369685Y-99547863D01*
X172383120Y-99546540D01*
X172696840Y-99546540D01*
X172710275Y-99547863D01*
X172717289Y-99549991D01*
X172731057Y-99557350D01*
X172753696Y-99566727D01*
X172777729Y-99571507D01*
X172802233Y-99571507D01*
X172826266Y-99566726D01*
X172848903Y-99557350D01*
X172862671Y-99549991D01*
X172869685Y-99547863D01*
X172883120Y-99546540D01*
X173196840Y-99546540D01*
X173210275Y-99547863D01*
X173217289Y-99549991D01*
X173231057Y-99557350D01*
X173253696Y-99566727D01*
X173277729Y-99571507D01*
X173302233Y-99571507D01*
X173326266Y-99566726D01*
X173348903Y-99557350D01*
X173362671Y-99549991D01*
X173369685Y-99547863D01*
X173383120Y-99546540D01*
X173696840Y-99546540D01*
X173710275Y-99547863D01*
X173717289Y-99549991D01*
X173731057Y-99557350D01*
X173753696Y-99566727D01*
X173777729Y-99571507D01*
X173802233Y-99571507D01*
X173826266Y-99566726D01*
X173848903Y-99557350D01*
X173862671Y-99549991D01*
X173869685Y-99547863D01*
X173883120Y-99546540D01*
X174196840Y-99546540D01*
X174210275Y-99547863D01*
X174217289Y-99549991D01*
X174231057Y-99557350D01*
X174253696Y-99566727D01*
X174277729Y-99571507D01*
X174302233Y-99571507D01*
X174326266Y-99566726D01*
X174348903Y-99557350D01*
X174362671Y-99549991D01*
X174369685Y-99547863D01*
X174383120Y-99546540D01*
X174696840Y-99546540D01*
X174710275Y-99547863D01*
X174717289Y-99549991D01*
X174731057Y-99557350D01*
X174753696Y-99566727D01*
X174777729Y-99571507D01*
X174802233Y-99571507D01*
X174826266Y-99566726D01*
X174848903Y-99557350D01*
X174862671Y-99549991D01*
X174869685Y-99547863D01*
X174883120Y-99546540D01*
X175196840Y-99546540D01*
X175210275Y-99547863D01*
X175217290Y-99549991D01*
X175223756Y-99553448D01*
X175229422Y-99558098D01*
X175234072Y-99563764D01*
X175237529Y-99570230D01*
X175239657Y-99577245D01*
X175240980Y-99590680D01*
X175240980Y-101154400D01*
X175239657Y-101167835D01*
X175237529Y-101174850D01*
X175234072Y-101181316D01*
X175229422Y-101186982D01*
X175223756Y-101191632D01*
X175217290Y-101195089D01*
X175210275Y-101197217D01*
X175196840Y-101198540D01*
X174883120Y-101198540D01*
X174869685Y-101197217D01*
X174862671Y-101195089D01*
X174848903Y-101187730D01*
X174826264Y-101178353D01*
X174802231Y-101173573D01*
X174777727Y-101173573D01*
X174753694Y-101178354D01*
X174731057Y-101187730D01*
X174717289Y-101195089D01*
X174710275Y-101197217D01*
X174696840Y-101198540D01*
X174383120Y-101198540D01*
X174369685Y-101197217D01*
X174362671Y-101195089D01*
X174348903Y-101187730D01*
X174326264Y-101178353D01*
X174302231Y-101173573D01*
X174277727Y-101173573D01*
X174253694Y-101178354D01*
X174231057Y-101187730D01*
X174217289Y-101195089D01*
X174210275Y-101197217D01*
X174196840Y-101198540D01*
X173883120Y-101198540D01*
X173869685Y-101197217D01*
X173862671Y-101195089D01*
X173848903Y-101187730D01*
X173826264Y-101178353D01*
X173802231Y-101173573D01*
X173777727Y-101173573D01*
X173753694Y-101178354D01*
X173731057Y-101187730D01*
X173717289Y-101195089D01*
X173710275Y-101197217D01*
X173696840Y-101198540D01*
X173383120Y-101198540D01*
X173369685Y-101197217D01*
X173362671Y-101195089D01*
X173348903Y-101187730D01*
X173326264Y-101178353D01*
X173302231Y-101173573D01*
X173277727Y-101173573D01*
X173253694Y-101178354D01*
X173231057Y-101187730D01*
X173217289Y-101195089D01*
X173210275Y-101197217D01*
X173196840Y-101198540D01*
X172883120Y-101198540D01*
X172869685Y-101197217D01*
X172862671Y-101195089D01*
X172848903Y-101187730D01*
X172826264Y-101178353D01*
X172802231Y-101173573D01*
X172777727Y-101173573D01*
X172753694Y-101178354D01*
X172731057Y-101187730D01*
X172717289Y-101195089D01*
X172710275Y-101197217D01*
X172696840Y-101198540D01*
X172383120Y-101198540D01*
X172369685Y-101197217D01*
X172362671Y-101195089D01*
X172348903Y-101187730D01*
X172326264Y-101178353D01*
X172302231Y-101173573D01*
X172277727Y-101173573D01*
X172253694Y-101178354D01*
X172231057Y-101187730D01*
X172217289Y-101195089D01*
X172210275Y-101197217D01*
X172196840Y-101198540D01*
X171883120Y-101198540D01*
X171869685Y-101197217D01*
X171862671Y-101195089D01*
X171848903Y-101187730D01*
X171826264Y-101178353D01*
X171802231Y-101173573D01*
X171777727Y-101173573D01*
X171753694Y-101178354D01*
X171731057Y-101187730D01*
X171717289Y-101195089D01*
X171710275Y-101197217D01*
X171696840Y-101198540D01*
X171383120Y-101198540D01*
X171369685Y-101197217D01*
X171362671Y-101195089D01*
X171348903Y-101187730D01*
X171326264Y-101178353D01*
X171302231Y-101173573D01*
X171277727Y-101173573D01*
X171253694Y-101178354D01*
X171231057Y-101187730D01*
X171217289Y-101195089D01*
X171210275Y-101197217D01*
X171196840Y-101198540D01*
X170883120Y-101198540D01*
X170869685Y-101197217D01*
X170862671Y-101195089D01*
X170848903Y-101187730D01*
X170826264Y-101178353D01*
X170802231Y-101173573D01*
X170777727Y-101173573D01*
X170753694Y-101178354D01*
X170731057Y-101187730D01*
X170717289Y-101195089D01*
X170710275Y-101197217D01*
X170696840Y-101198540D01*
X170383120Y-101198540D01*
X170369685Y-101197217D01*
X170362671Y-101195089D01*
X170348903Y-101187730D01*
X170326264Y-101178353D01*
X170302231Y-101173573D01*
X170277727Y-101173573D01*
X170253694Y-101178354D01*
X170231057Y-101187730D01*
X170217289Y-101195089D01*
X170210275Y-101197217D01*
X170196840Y-101198540D01*
X169883120Y-101198540D01*
X169869685Y-101197217D01*
X169862671Y-101195089D01*
X169848903Y-101187730D01*
X169826264Y-101178353D01*
X169802231Y-101173573D01*
X169777727Y-101173573D01*
X169753694Y-101178354D01*
X169731057Y-101187730D01*
X169717289Y-101195089D01*
X169710275Y-101197217D01*
X169696840Y-101198540D01*
X169383120Y-101198540D01*
X169369685Y-101197217D01*
X169362671Y-101195089D01*
X169348903Y-101187730D01*
X169326264Y-101178353D01*
X169302231Y-101173573D01*
X169277727Y-101173573D01*
X169253694Y-101178354D01*
X169231057Y-101187730D01*
X169217289Y-101195089D01*
X169210275Y-101197217D01*
X169196840Y-101198540D01*
X168883120Y-101198540D01*
X168869685Y-101197217D01*
X168862671Y-101195089D01*
X168848903Y-101187730D01*
X168826264Y-101178353D01*
X168802231Y-101173573D01*
X168777727Y-101173573D01*
X168753694Y-101178354D01*
X168731057Y-101187730D01*
X168717289Y-101195089D01*
X168710275Y-101197217D01*
X168696840Y-101198540D01*
X168383120Y-101198540D01*
X168369685Y-101197217D01*
X168362671Y-101195089D01*
X168348903Y-101187730D01*
X168326264Y-101178353D01*
X168302231Y-101173573D01*
X168277727Y-101173573D01*
X168253694Y-101178354D01*
X168231057Y-101187730D01*
X168217289Y-101195089D01*
X168210275Y-101197217D01*
X168196840Y-101198540D01*
X167883120Y-101198540D01*
X167869685Y-101197217D01*
X167862671Y-101195089D01*
X167848903Y-101187730D01*
X167826264Y-101178353D01*
X167802231Y-101173573D01*
X167777727Y-101173573D01*
X167753694Y-101178354D01*
X167731057Y-101187730D01*
X167717289Y-101195089D01*
X167710275Y-101197217D01*
X167696840Y-101198540D01*
X167383120Y-101198540D01*
X167369685Y-101197217D01*
X167362670Y-101195089D01*
X167356204Y-101191632D01*
X167350538Y-101186982D01*
X167345888Y-101181316D01*
X167342431Y-101174850D01*
X167340303Y-101167835D01*
X167338980Y-101154400D01*
X167338980Y-99590680D01*
X167340303Y-99577245D01*
X167342431Y-99570230D01*
X167345888Y-99563764D01*
X167350538Y-99558098D01*
X167356204Y-99553448D01*
X167362670Y-99549991D01*
X167369685Y-99547863D01*
X167383120Y-99546540D01*
X167696840Y-99546540D01*
X167710275Y-99547863D01*
G37*
G36*
X161791760Y-100897800D02*
G01*
X160889760Y-100897800D01*
X160889760Y-99895800D01*
X161791760Y-99895800D01*
X161791760Y-100897800D01*
G37*
G36*
X163691760Y-100897800D02*
G01*
X162789760Y-100897800D01*
X162789760Y-99895800D01*
X163691760Y-99895800D01*
X163691760Y-100897800D01*
G37*
G36*
X176897391Y-99554085D02*
G01*
X176931369Y-99564393D01*
X176962690Y-99581134D01*
X176990139Y-99603661D01*
X177012666Y-99631110D01*
X177029407Y-99662431D01*
X177039715Y-99696409D01*
X177043800Y-99737890D01*
X177043800Y-100414110D01*
X177039715Y-100455591D01*
X177029407Y-100489569D01*
X177012666Y-100520890D01*
X176990139Y-100548339D01*
X176962690Y-100570866D01*
X176931369Y-100587607D01*
X176897391Y-100597915D01*
X176855910Y-100602000D01*
X176254690Y-100602000D01*
X176213209Y-100597915D01*
X176179231Y-100587607D01*
X176147910Y-100570866D01*
X176120461Y-100548339D01*
X176097934Y-100520890D01*
X176081193Y-100489569D01*
X176070885Y-100455591D01*
X176066800Y-100414110D01*
X176066800Y-99737890D01*
X176070885Y-99696409D01*
X176081193Y-99662431D01*
X176097934Y-99631110D01*
X176120461Y-99603661D01*
X176147910Y-99581134D01*
X176179231Y-99564393D01*
X176213209Y-99554085D01*
X176254690Y-99550000D01*
X176855910Y-99550000D01*
X176897391Y-99554085D01*
G37*
G36*
X178472391Y-99554085D02*
G01*
X178506369Y-99564393D01*
X178537690Y-99581134D01*
X178565139Y-99603661D01*
X178587666Y-99631110D01*
X178604407Y-99662431D01*
X178614715Y-99696409D01*
X178618800Y-99737890D01*
X178618800Y-100414110D01*
X178614715Y-100455591D01*
X178604407Y-100489569D01*
X178587666Y-100520890D01*
X178565139Y-100548339D01*
X178537690Y-100570866D01*
X178506369Y-100587607D01*
X178472391Y-100597915D01*
X178430910Y-100602000D01*
X177829690Y-100602000D01*
X177788209Y-100597915D01*
X177754231Y-100587607D01*
X177722910Y-100570866D01*
X177695461Y-100548339D01*
X177672934Y-100520890D01*
X177656193Y-100489569D01*
X177645885Y-100455591D01*
X177641800Y-100414110D01*
X177641800Y-99737890D01*
X177645885Y-99696409D01*
X177656193Y-99662431D01*
X177672934Y-99631110D01*
X177695461Y-99603661D01*
X177722910Y-99581134D01*
X177754231Y-99564393D01*
X177788209Y-99554085D01*
X177829690Y-99550000D01*
X178430910Y-99550000D01*
X178472391Y-99554085D01*
G37*
G36*
X166686791Y-99452485D02*
G01*
X166720769Y-99462793D01*
X166752090Y-99479534D01*
X166779539Y-99502061D01*
X166802066Y-99529510D01*
X166818807Y-99560831D01*
X166829115Y-99594809D01*
X166833200Y-99636290D01*
X166833200Y-100312510D01*
X166829115Y-100353991D01*
X166818807Y-100387969D01*
X166802066Y-100419290D01*
X166779539Y-100446739D01*
X166752090Y-100469266D01*
X166720769Y-100486007D01*
X166686791Y-100496315D01*
X166645310Y-100500400D01*
X166044090Y-100500400D01*
X166002609Y-100496315D01*
X165968631Y-100486007D01*
X165937310Y-100469266D01*
X165909861Y-100446739D01*
X165887334Y-100419290D01*
X165870593Y-100387969D01*
X165860285Y-100353991D01*
X165856200Y-100312510D01*
X165856200Y-99636290D01*
X165860285Y-99594809D01*
X165870593Y-99560831D01*
X165887334Y-99529510D01*
X165909861Y-99502061D01*
X165937310Y-99479534D01*
X165968631Y-99462793D01*
X166002609Y-99452485D01*
X166044090Y-99448400D01*
X166645310Y-99448400D01*
X166686791Y-99452485D01*
G37*
G36*
X165111791Y-99452485D02*
G01*
X165145769Y-99462793D01*
X165177090Y-99479534D01*
X165204539Y-99502061D01*
X165227066Y-99529510D01*
X165243807Y-99560831D01*
X165254115Y-99594809D01*
X165258200Y-99636290D01*
X165258200Y-100312510D01*
X165254115Y-100353991D01*
X165243807Y-100387969D01*
X165227066Y-100419290D01*
X165204539Y-100446739D01*
X165177090Y-100469266D01*
X165145769Y-100486007D01*
X165111791Y-100496315D01*
X165070310Y-100500400D01*
X164469090Y-100500400D01*
X164427609Y-100496315D01*
X164393631Y-100486007D01*
X164362310Y-100469266D01*
X164334861Y-100446739D01*
X164312334Y-100419290D01*
X164295593Y-100387969D01*
X164285285Y-100353991D01*
X164281200Y-100312510D01*
X164281200Y-99636290D01*
X164285285Y-99594809D01*
X164295593Y-99560831D01*
X164312334Y-99529510D01*
X164334861Y-99502061D01*
X164362310Y-99479534D01*
X164393631Y-99462793D01*
X164427609Y-99452485D01*
X164469090Y-99448400D01*
X165070310Y-99448400D01*
X165111791Y-99452485D01*
G37*
G36*
X193571991Y-99007385D02*
G01*
X193605969Y-99017693D01*
X193637290Y-99034434D01*
X193664739Y-99056961D01*
X193687266Y-99084410D01*
X193704007Y-99115731D01*
X193714315Y-99149709D01*
X193718400Y-99191190D01*
X193718400Y-99792410D01*
X193714315Y-99833891D01*
X193704007Y-99867869D01*
X193687266Y-99899190D01*
X193664739Y-99926639D01*
X193637290Y-99949166D01*
X193605969Y-99965907D01*
X193571991Y-99976215D01*
X193530510Y-99980300D01*
X192854290Y-99980300D01*
X192812809Y-99976215D01*
X192778831Y-99965907D01*
X192747510Y-99949166D01*
X192720061Y-99926639D01*
X192697534Y-99899190D01*
X192680793Y-99867869D01*
X192670485Y-99833891D01*
X192666400Y-99792410D01*
X192666400Y-99191190D01*
X192670485Y-99149709D01*
X192680793Y-99115731D01*
X192697534Y-99084410D01*
X192720061Y-99056961D01*
X192747510Y-99034434D01*
X192778831Y-99017693D01*
X192812809Y-99007385D01*
X192854290Y-99003300D01*
X193530510Y-99003300D01*
X193571991Y-99007385D01*
G37*
G36*
X195121391Y-99007285D02*
G01*
X195155369Y-99017593D01*
X195186690Y-99034334D01*
X195214139Y-99056861D01*
X195236666Y-99084310D01*
X195253407Y-99115631D01*
X195263715Y-99149609D01*
X195267800Y-99191090D01*
X195267800Y-99792310D01*
X195263715Y-99833791D01*
X195253407Y-99867769D01*
X195236666Y-99899090D01*
X195214139Y-99926539D01*
X195186690Y-99949066D01*
X195155369Y-99965807D01*
X195121391Y-99976115D01*
X195079910Y-99980200D01*
X194403690Y-99980200D01*
X194362209Y-99976115D01*
X194328231Y-99965807D01*
X194296910Y-99949066D01*
X194269461Y-99926539D01*
X194246934Y-99899090D01*
X194230193Y-99867769D01*
X194219885Y-99833791D01*
X194215800Y-99792310D01*
X194215800Y-99191090D01*
X194219885Y-99149609D01*
X194230193Y-99115631D01*
X194246934Y-99084310D01*
X194269461Y-99056861D01*
X194296910Y-99034334D01*
X194328231Y-99017593D01*
X194362209Y-99007285D01*
X194403690Y-99003200D01*
X195079910Y-99003200D01*
X195121391Y-99007285D01*
G37*
G36*
X183987180Y-98924227D02*
G01*
X184035576Y-98933853D01*
X184073342Y-98949496D01*
X184126751Y-98971619D01*
X184126752Y-98971620D01*
X184208809Y-99026448D01*
X184278592Y-99096231D01*
X184289029Y-99111852D01*
X184333421Y-99178289D01*
X184342372Y-99199899D01*
X184371187Y-99269464D01*
X184390440Y-99366256D01*
X184390440Y-99464944D01*
X184371187Y-99561736D01*
X184365288Y-99575976D01*
X184333421Y-99652911D01*
X184333420Y-99652912D01*
X184278592Y-99734969D01*
X184208809Y-99804752D01*
X184171890Y-99829420D01*
X184126751Y-99859581D01*
X184073342Y-99881704D01*
X184035576Y-99897347D01*
X183987180Y-99906973D01*
X183938785Y-99916600D01*
X183840095Y-99916600D01*
X183791700Y-99906973D01*
X183743304Y-99897347D01*
X183705538Y-99881704D01*
X183652129Y-99859581D01*
X183606990Y-99829420D01*
X183570071Y-99804752D01*
X183500288Y-99734969D01*
X183445460Y-99652912D01*
X183445459Y-99652911D01*
X183413592Y-99575976D01*
X183407693Y-99561736D01*
X183388440Y-99464944D01*
X183388440Y-99366256D01*
X183407693Y-99269464D01*
X183436508Y-99199899D01*
X183445459Y-99178289D01*
X183489851Y-99111852D01*
X183500288Y-99096231D01*
X183570071Y-99026448D01*
X183652128Y-98971620D01*
X183652129Y-98971619D01*
X183705538Y-98949496D01*
X183743304Y-98933853D01*
X183791700Y-98924227D01*
X183840095Y-98914600D01*
X183938785Y-98914600D01*
X183987180Y-98924227D01*
G37*
G36*
X190787180Y-98924227D02*
G01*
X190835576Y-98933853D01*
X190873342Y-98949496D01*
X190926751Y-98971619D01*
X190926752Y-98971620D01*
X191008809Y-99026448D01*
X191078592Y-99096231D01*
X191089029Y-99111852D01*
X191133421Y-99178289D01*
X191142372Y-99199899D01*
X191171187Y-99269464D01*
X191190440Y-99366256D01*
X191190440Y-99464944D01*
X191171187Y-99561736D01*
X191165288Y-99575976D01*
X191133421Y-99652911D01*
X191133420Y-99652912D01*
X191078592Y-99734969D01*
X191008809Y-99804752D01*
X190971890Y-99829420D01*
X190926751Y-99859581D01*
X190873342Y-99881704D01*
X190835576Y-99897347D01*
X190787180Y-99906973D01*
X190738785Y-99916600D01*
X190640095Y-99916600D01*
X190591700Y-99906973D01*
X190543304Y-99897347D01*
X190505538Y-99881704D01*
X190452129Y-99859581D01*
X190406990Y-99829420D01*
X190370071Y-99804752D01*
X190300288Y-99734969D01*
X190245460Y-99652912D01*
X190245459Y-99652911D01*
X190213592Y-99575976D01*
X190207693Y-99561736D01*
X190188440Y-99464944D01*
X190188440Y-99366256D01*
X190207693Y-99269464D01*
X190236508Y-99199899D01*
X190245459Y-99178289D01*
X190289851Y-99111852D01*
X190300288Y-99096231D01*
X190370071Y-99026448D01*
X190452128Y-98971620D01*
X190452129Y-98971619D01*
X190505538Y-98949496D01*
X190543304Y-98933853D01*
X190591700Y-98924227D01*
X190640095Y-98914600D01*
X190738785Y-98914600D01*
X190787180Y-98924227D01*
G37*
G36*
X201972471Y-98258685D02*
G01*
X202006449Y-98268993D01*
X202037770Y-98285734D01*
X202065219Y-98308261D01*
X202087746Y-98335710D01*
X202104487Y-98367031D01*
X202114795Y-98401009D01*
X202118880Y-98442490D01*
X202118880Y-99118710D01*
X202114795Y-99160191D01*
X202104487Y-99194169D01*
X202087746Y-99225490D01*
X202065219Y-99252939D01*
X202037770Y-99275466D01*
X202006449Y-99292207D01*
X201972471Y-99302515D01*
X201930990Y-99306600D01*
X201329770Y-99306600D01*
X201288289Y-99302515D01*
X201254311Y-99292207D01*
X201222990Y-99275466D01*
X201195541Y-99252939D01*
X201173014Y-99225490D01*
X201156273Y-99194169D01*
X201145965Y-99160191D01*
X201141880Y-99118710D01*
X201141880Y-98442490D01*
X201145965Y-98401009D01*
X201156273Y-98367031D01*
X201173014Y-98335710D01*
X201195541Y-98308261D01*
X201222990Y-98285734D01*
X201254311Y-98268993D01*
X201288289Y-98258685D01*
X201329770Y-98254600D01*
X201930990Y-98254600D01*
X201972471Y-98258685D01*
G37*
G36*
X200397471Y-98258685D02*
G01*
X200431449Y-98268993D01*
X200462770Y-98285734D01*
X200490219Y-98308261D01*
X200512746Y-98335710D01*
X200529487Y-98367031D01*
X200539795Y-98401009D01*
X200543880Y-98442490D01*
X200543880Y-99118710D01*
X200539795Y-99160191D01*
X200529487Y-99194169D01*
X200512746Y-99225490D01*
X200490219Y-99252939D01*
X200462770Y-99275466D01*
X200431449Y-99292207D01*
X200397471Y-99302515D01*
X200355990Y-99306600D01*
X199754770Y-99306600D01*
X199713289Y-99302515D01*
X199679311Y-99292207D01*
X199647990Y-99275466D01*
X199620541Y-99252939D01*
X199598014Y-99225490D01*
X199581273Y-99194169D01*
X199570965Y-99160191D01*
X199566880Y-99118710D01*
X199566880Y-98442490D01*
X199570965Y-98401009D01*
X199581273Y-98367031D01*
X199598014Y-98335710D01*
X199620541Y-98308261D01*
X199647990Y-98285734D01*
X199679311Y-98268993D01*
X199713289Y-98258685D01*
X199754770Y-98254600D01*
X200355990Y-98254600D01*
X200397471Y-98258685D01*
G37*
G36*
X163346691Y-98251065D02*
G01*
X163380669Y-98261373D01*
X163411990Y-98278114D01*
X163439439Y-98300641D01*
X163461966Y-98328090D01*
X163478707Y-98359411D01*
X163489015Y-98393389D01*
X163493100Y-98434870D01*
X163493100Y-99111090D01*
X163489015Y-99152571D01*
X163478707Y-99186549D01*
X163461966Y-99217870D01*
X163439439Y-99245319D01*
X163411990Y-99267846D01*
X163380669Y-99284587D01*
X163346691Y-99294895D01*
X163305210Y-99298980D01*
X162703990Y-99298980D01*
X162662509Y-99294895D01*
X162628531Y-99284587D01*
X162597210Y-99267846D01*
X162569761Y-99245319D01*
X162547234Y-99217870D01*
X162530493Y-99186549D01*
X162520185Y-99152571D01*
X162516100Y-99111090D01*
X162516100Y-98434870D01*
X162520185Y-98393389D01*
X162530493Y-98359411D01*
X162547234Y-98328090D01*
X162569761Y-98300641D01*
X162597210Y-98278114D01*
X162628531Y-98261373D01*
X162662509Y-98251065D01*
X162703990Y-98246980D01*
X163305210Y-98246980D01*
X163346691Y-98251065D01*
G37*
G36*
X161771691Y-98251065D02*
G01*
X161805669Y-98261373D01*
X161836990Y-98278114D01*
X161864439Y-98300641D01*
X161886966Y-98328090D01*
X161903707Y-98359411D01*
X161914015Y-98393389D01*
X161918100Y-98434870D01*
X161918100Y-99111090D01*
X161914015Y-99152571D01*
X161903707Y-99186549D01*
X161886966Y-99217870D01*
X161864439Y-99245319D01*
X161836990Y-99267846D01*
X161805669Y-99284587D01*
X161771691Y-99294895D01*
X161730210Y-99298980D01*
X161128990Y-99298980D01*
X161087509Y-99294895D01*
X161053531Y-99284587D01*
X161022210Y-99267846D01*
X160994761Y-99245319D01*
X160972234Y-99217870D01*
X160955493Y-99186549D01*
X160945185Y-99152571D01*
X160941100Y-99111090D01*
X160941100Y-98434870D01*
X160945185Y-98393389D01*
X160955493Y-98359411D01*
X160972234Y-98328090D01*
X160994761Y-98300641D01*
X161022210Y-98278114D01*
X161053531Y-98261373D01*
X161087509Y-98251065D01*
X161128990Y-98246980D01*
X161730210Y-98246980D01*
X161771691Y-98251065D01*
G37*
G36*
X166686791Y-97877685D02*
G01*
X166720769Y-97887993D01*
X166752090Y-97904734D01*
X166779539Y-97927261D01*
X166802066Y-97954710D01*
X166818807Y-97986031D01*
X166829115Y-98020009D01*
X166833200Y-98061490D01*
X166833200Y-98737710D01*
X166829115Y-98779191D01*
X166818807Y-98813169D01*
X166802066Y-98844490D01*
X166779539Y-98871939D01*
X166752090Y-98894466D01*
X166720769Y-98911207D01*
X166686791Y-98921515D01*
X166645310Y-98925600D01*
X166044090Y-98925600D01*
X166002609Y-98921515D01*
X165968631Y-98911207D01*
X165937310Y-98894466D01*
X165909861Y-98871939D01*
X165887334Y-98844490D01*
X165870593Y-98813169D01*
X165860285Y-98779191D01*
X165856200Y-98737710D01*
X165856200Y-98061490D01*
X165860285Y-98020009D01*
X165870593Y-97986031D01*
X165887334Y-97954710D01*
X165909861Y-97927261D01*
X165937310Y-97904734D01*
X165968631Y-97887993D01*
X166002609Y-97877685D01*
X166044090Y-97873600D01*
X166645310Y-97873600D01*
X166686791Y-97877685D01*
G37*
G36*
X165111791Y-97877685D02*
G01*
X165145769Y-97887993D01*
X165177090Y-97904734D01*
X165204539Y-97927261D01*
X165227066Y-97954710D01*
X165243807Y-97986031D01*
X165254115Y-98020009D01*
X165258200Y-98061490D01*
X165258200Y-98737710D01*
X165254115Y-98779191D01*
X165243807Y-98813169D01*
X165227066Y-98844490D01*
X165204539Y-98871939D01*
X165177090Y-98894466D01*
X165145769Y-98911207D01*
X165111791Y-98921515D01*
X165070310Y-98925600D01*
X164469090Y-98925600D01*
X164427609Y-98921515D01*
X164393631Y-98911207D01*
X164362310Y-98894466D01*
X164334861Y-98871939D01*
X164312334Y-98844490D01*
X164295593Y-98813169D01*
X164285285Y-98779191D01*
X164281200Y-98737710D01*
X164281200Y-98061490D01*
X164285285Y-98020009D01*
X164295593Y-97986031D01*
X164312334Y-97954710D01*
X164334861Y-97927261D01*
X164362310Y-97904734D01*
X164393631Y-97887993D01*
X164427609Y-97877685D01*
X164469090Y-97873600D01*
X165070310Y-97873600D01*
X165111791Y-97877685D01*
G37*
M02*
